G04 #@! TF.GenerationSoftware,KiCad,Pcbnew,(6.0.9)*
G04 #@! TF.CreationDate,2024-07-14T21:11:06-07:00*
G04 #@! TF.ProjectId,AccArray_PICO,41636341-7272-4617-995f-5049434f2e6b,rev?*
G04 #@! TF.SameCoordinates,Original*
G04 #@! TF.FileFunction,Soldermask,Bot*
G04 #@! TF.FilePolarity,Negative*
%FSLAX46Y46*%
G04 Gerber Fmt 4.6, Leading zero omitted, Abs format (unit mm)*
G04 Created by KiCad (PCBNEW (6.0.9)) date 2024-07-14 21:11:06*
%MOMM*%
%LPD*%
G01*
G04 APERTURE LIST*
%ADD10O,1.800000X1.800000*%
%ADD11O,1.500000X1.500000*%
G04 APERTURE END LIST*
G04 #@! TO.C,J2*
G36*
G01*
X139212887Y-82110805D02*
X139212887Y-82110805D01*
G75*
G02*
X139212887Y-83312887I-601041J-601041D01*
G01*
X139212887Y-83312887D01*
G75*
G02*
X138010805Y-83312887I-601041J601041D01*
G01*
X138010805Y-83312887D01*
G75*
G02*
X138010805Y-82110805I601041J601041D01*
G01*
X138010805Y-82110805D01*
G75*
G02*
X139212887Y-82110805I601041J-601041D01*
G01*
G37*
G36*
G01*
X141008938Y-83906856D02*
X141008938Y-83906856D01*
G75*
G02*
X141008938Y-85108938I-601041J-601041D01*
G01*
X141008938Y-85108938D01*
G75*
G02*
X139806856Y-85108938I-601041J601041D01*
G01*
X139806856Y-85108938D01*
G75*
G02*
X139806856Y-83906856I601041J601041D01*
G01*
X139806856Y-83906856D01*
G75*
G02*
X141008938Y-83906856I601041J-601041D01*
G01*
G37*
G36*
G01*
X142804989Y-85702907D02*
X142804989Y-85702907D01*
G75*
G02*
X142804989Y-86904989I-601041J-601041D01*
G01*
X142804989Y-86904989D01*
G75*
G02*
X141602907Y-86904989I-601041J601041D01*
G01*
X141602907Y-86904989D01*
G75*
G02*
X141602907Y-85702907I601041J601041D01*
G01*
X141602907Y-85702907D01*
G75*
G02*
X142804989Y-85702907I601041J-601041D01*
G01*
G37*
G36*
G01*
X144601041Y-87498959D02*
X144601041Y-87498959D01*
G75*
G02*
X144601041Y-88701041I-601041J-601041D01*
G01*
X144601041Y-88701041D01*
G75*
G02*
X143398959Y-88701041I-601041J601041D01*
G01*
X143398959Y-88701041D01*
G75*
G02*
X143398959Y-87498959I601041J601041D01*
G01*
X143398959Y-87498959D01*
G75*
G02*
X144601041Y-87498959I601041J-601041D01*
G01*
G37*
G36*
G01*
X146397092Y-89295010D02*
X146397092Y-89295010D01*
G75*
G02*
X146397092Y-90497092I-601041J-601041D01*
G01*
X146397092Y-90497092D01*
G75*
G02*
X145195010Y-90497092I-601041J601041D01*
G01*
X145195010Y-90497092D01*
G75*
G02*
X145195010Y-89295010I601041J601041D01*
G01*
X145195010Y-89295010D01*
G75*
G02*
X146397092Y-89295010I601041J-601041D01*
G01*
G37*
G36*
X147592102Y-90490020D02*
G01*
X148794184Y-91692102D01*
X147592102Y-92894184D01*
X146390020Y-91692102D01*
X147592102Y-90490020D01*
G37*
G04 #@! TD*
D10*
G04 #@! TO.C,U1*
X160675000Y-117200000D03*
D11*
X160975000Y-114170000D03*
X165825000Y-114170000D03*
D10*
X166125000Y-117200000D03*
G04 #@! TD*
M02*
