G04 #@! TF.GenerationSoftware,KiCad,Pcbnew,(6.0.9)*
G04 #@! TF.CreationDate,2024-07-14T21:11:06-07:00*
G04 #@! TF.ProjectId,AccArray_PICO,41636341-7272-4617-995f-5049434f2e6b,rev?*
G04 #@! TF.SameCoordinates,Original*
G04 #@! TF.FileFunction,Legend,Top*
G04 #@! TF.FilePolarity,Positive*
%FSLAX46Y46*%
G04 Gerber Fmt 4.6, Leading zero omitted, Abs format (unit mm)*
G04 Created by KiCad (PCBNEW (6.0.9)) date 2024-07-14 21:11:06*
%MOMM*%
%LPD*%
G01*
G04 APERTURE LIST*
%ADD10C,0.200000*%
%ADD11C,0.150000*%
%ADD12C,0.125000*%
%ADD13C,0.120000*%
G04 APERTURE END LIST*
D10*
X149314285Y-89642857D02*
X149314285Y-90042857D01*
X149942857Y-90042857D02*
X148742857Y-90042857D01*
X148742857Y-89471428D01*
X149885714Y-89071428D02*
X149942857Y-88900000D01*
X149942857Y-88614285D01*
X149885714Y-88500000D01*
X149828571Y-88442857D01*
X149714285Y-88385714D01*
X149600000Y-88385714D01*
X149485714Y-88442857D01*
X149428571Y-88500000D01*
X149371428Y-88614285D01*
X149314285Y-88842857D01*
X149257142Y-88957142D01*
X149200000Y-89014285D01*
X149085714Y-89071428D01*
X148971428Y-89071428D01*
X148857142Y-89014285D01*
X148800000Y-88957142D01*
X148742857Y-88842857D01*
X148742857Y-88557142D01*
X148800000Y-88385714D01*
X149371428Y-87642857D02*
X149942857Y-87642857D01*
X148742857Y-88042857D02*
X149371428Y-87642857D01*
X148742857Y-87242857D01*
X149942857Y-86842857D02*
X148742857Y-86842857D01*
X149942857Y-86157142D01*
X148742857Y-86157142D01*
X149828571Y-84900000D02*
X149885714Y-84957142D01*
X149942857Y-85128571D01*
X149942857Y-85242857D01*
X149885714Y-85414285D01*
X149771428Y-85528571D01*
X149657142Y-85585714D01*
X149428571Y-85642857D01*
X149257142Y-85642857D01*
X149028571Y-85585714D01*
X148914285Y-85528571D01*
X148800000Y-85414285D01*
X148742857Y-85242857D01*
X148742857Y-85128571D01*
X148800000Y-84957142D01*
X148857142Y-84900000D01*
X149942857Y-83814285D02*
X149942857Y-84385714D01*
X148742857Y-84385714D01*
X148800000Y-81871428D02*
X148742857Y-81985714D01*
X148742857Y-82157142D01*
X148800000Y-82328571D01*
X148914285Y-82442857D01*
X149028571Y-82500000D01*
X149257142Y-82557142D01*
X149428571Y-82557142D01*
X149657142Y-82500000D01*
X149771428Y-82442857D01*
X149885714Y-82328571D01*
X149942857Y-82157142D01*
X149942857Y-82042857D01*
X149885714Y-81871428D01*
X149828571Y-81814285D01*
X149428571Y-81814285D01*
X149428571Y-82042857D01*
X149942857Y-81300000D02*
X148742857Y-81300000D01*
X148742857Y-80842857D01*
X148800000Y-80728571D01*
X148857142Y-80671428D01*
X148971428Y-80614285D01*
X149142857Y-80614285D01*
X149257142Y-80671428D01*
X149314285Y-80728571D01*
X149371428Y-80842857D01*
X149371428Y-81300000D01*
X149942857Y-80100000D02*
X148742857Y-80100000D01*
X148742857Y-79300000D02*
X148742857Y-79071428D01*
X148800000Y-78957142D01*
X148914285Y-78842857D01*
X149142857Y-78785714D01*
X149542857Y-78785714D01*
X149771428Y-78842857D01*
X149885714Y-78957142D01*
X149942857Y-79071428D01*
X149942857Y-79300000D01*
X149885714Y-79414285D01*
X149771428Y-79528571D01*
X149542857Y-79585714D01*
X149142857Y-79585714D01*
X148914285Y-79528571D01*
X148800000Y-79414285D01*
X148742857Y-79300000D01*
X148857142Y-78328571D02*
X148800000Y-78271428D01*
X148742857Y-78157142D01*
X148742857Y-77871428D01*
X148800000Y-77757142D01*
X148857142Y-77700000D01*
X148971428Y-77642857D01*
X149085714Y-77642857D01*
X149257142Y-77700000D01*
X149942857Y-78385714D01*
X149942857Y-77642857D01*
X148857142Y-77185714D02*
X148800000Y-77128571D01*
X148742857Y-77014285D01*
X148742857Y-76728571D01*
X148800000Y-76614285D01*
X148857142Y-76557142D01*
X148971428Y-76500000D01*
X149085714Y-76500000D01*
X149257142Y-76557142D01*
X149942857Y-77242857D01*
X149942857Y-76500000D01*
X139200000Y-80114285D02*
X139142857Y-80228571D01*
X139142857Y-80400000D01*
X139200000Y-80571428D01*
X139314285Y-80685714D01*
X139428571Y-80742857D01*
X139657142Y-80800000D01*
X139828571Y-80800000D01*
X140057142Y-80742857D01*
X140171428Y-80685714D01*
X140285714Y-80571428D01*
X140342857Y-80400000D01*
X140342857Y-80285714D01*
X140285714Y-80114285D01*
X140228571Y-80057142D01*
X139828571Y-80057142D01*
X139828571Y-80285714D01*
X140342857Y-79542857D02*
X139142857Y-79542857D01*
X140342857Y-78857142D01*
X139142857Y-78857142D01*
X140342857Y-78285714D02*
X139142857Y-78285714D01*
X139142857Y-78000000D01*
X139200000Y-77828571D01*
X139314285Y-77714285D01*
X139428571Y-77657142D01*
X139657142Y-77600000D01*
X139828571Y-77600000D01*
X140057142Y-77657142D01*
X140171428Y-77714285D01*
X140285714Y-77828571D01*
X140342857Y-78000000D01*
X140342857Y-78285714D01*
X148085714Y-88471428D02*
X148142857Y-88300000D01*
X148142857Y-88014285D01*
X148085714Y-87900000D01*
X148028571Y-87842857D01*
X147914285Y-87785714D01*
X147800000Y-87785714D01*
X147685714Y-87842857D01*
X147628571Y-87900000D01*
X147571428Y-88014285D01*
X147514285Y-88242857D01*
X147457142Y-88357142D01*
X147400000Y-88414285D01*
X147285714Y-88471428D01*
X147171428Y-88471428D01*
X147057142Y-88414285D01*
X147000000Y-88357142D01*
X146942857Y-88242857D01*
X146942857Y-87957142D01*
X147000000Y-87785714D01*
X146942857Y-87042857D02*
X146942857Y-86814285D01*
X147000000Y-86700000D01*
X147114285Y-86585714D01*
X147342857Y-86528571D01*
X147742857Y-86528571D01*
X147971428Y-86585714D01*
X148085714Y-86700000D01*
X148142857Y-86814285D01*
X148142857Y-87042857D01*
X148085714Y-87157142D01*
X147971428Y-87271428D01*
X147742857Y-87328571D01*
X147342857Y-87328571D01*
X147114285Y-87271428D01*
X147000000Y-87157142D01*
X146942857Y-87042857D01*
X148028571Y-86014285D02*
X148085714Y-85957142D01*
X148142857Y-86014285D01*
X148085714Y-86071428D01*
X148028571Y-86014285D01*
X148142857Y-86014285D01*
X147400000Y-86014285D02*
X147457142Y-85957142D01*
X147514285Y-86014285D01*
X147457142Y-86071428D01*
X147400000Y-86014285D01*
X147514285Y-86014285D01*
X147000000Y-83900000D02*
X146942857Y-84014285D01*
X146942857Y-84185714D01*
X147000000Y-84357142D01*
X147114285Y-84471428D01*
X147228571Y-84528571D01*
X147457142Y-84585714D01*
X147628571Y-84585714D01*
X147857142Y-84528571D01*
X147971428Y-84471428D01*
X148085714Y-84357142D01*
X148142857Y-84185714D01*
X148142857Y-84071428D01*
X148085714Y-83900000D01*
X148028571Y-83842857D01*
X147628571Y-83842857D01*
X147628571Y-84071428D01*
X148142857Y-83328571D02*
X146942857Y-83328571D01*
X146942857Y-82871428D01*
X147000000Y-82757142D01*
X147057142Y-82700000D01*
X147171428Y-82642857D01*
X147342857Y-82642857D01*
X147457142Y-82700000D01*
X147514285Y-82757142D01*
X147571428Y-82871428D01*
X147571428Y-83328571D01*
X148142857Y-82128571D02*
X146942857Y-82128571D01*
X146942857Y-81328571D02*
X146942857Y-81100000D01*
X147000000Y-80985714D01*
X147114285Y-80871428D01*
X147342857Y-80814285D01*
X147742857Y-80814285D01*
X147971428Y-80871428D01*
X148085714Y-80985714D01*
X148142857Y-81100000D01*
X148142857Y-81328571D01*
X148085714Y-81442857D01*
X147971428Y-81557142D01*
X147742857Y-81614285D01*
X147342857Y-81614285D01*
X147114285Y-81557142D01*
X147000000Y-81442857D01*
X146942857Y-81328571D01*
X148142857Y-79671428D02*
X148142857Y-80357142D01*
X148142857Y-80014285D02*
X146942857Y-80014285D01*
X147114285Y-80128571D01*
X147228571Y-80242857D01*
X147285714Y-80357142D01*
X146942857Y-78642857D02*
X146942857Y-78871428D01*
X147000000Y-78985714D01*
X147057142Y-79042857D01*
X147228571Y-79157142D01*
X147457142Y-79214285D01*
X147914285Y-79214285D01*
X148028571Y-79157142D01*
X148085714Y-79100000D01*
X148142857Y-78985714D01*
X148142857Y-78757142D01*
X148085714Y-78642857D01*
X148028571Y-78585714D01*
X147914285Y-78528571D01*
X147628571Y-78528571D01*
X147514285Y-78585714D01*
X147457142Y-78642857D01*
X147400000Y-78757142D01*
X147400000Y-78985714D01*
X147457142Y-79100000D01*
X147514285Y-79157142D01*
X147628571Y-79214285D01*
X142085714Y-82428571D02*
X142142857Y-82257142D01*
X142142857Y-81971428D01*
X142085714Y-81857142D01*
X142028571Y-81800000D01*
X141914285Y-81742857D01*
X141800000Y-81742857D01*
X141685714Y-81800000D01*
X141628571Y-81857142D01*
X141571428Y-81971428D01*
X141514285Y-82200000D01*
X141457142Y-82314285D01*
X141400000Y-82371428D01*
X141285714Y-82428571D01*
X141171428Y-82428571D01*
X141057142Y-82371428D01*
X141000000Y-82314285D01*
X140942857Y-82200000D01*
X140942857Y-81914285D01*
X141000000Y-81742857D01*
X142142857Y-81228571D02*
X140942857Y-81228571D01*
X142028571Y-80657142D02*
X142085714Y-80600000D01*
X142142857Y-80657142D01*
X142085714Y-80714285D01*
X142028571Y-80657142D01*
X142142857Y-80657142D01*
X141400000Y-80657142D02*
X141457142Y-80600000D01*
X141514285Y-80657142D01*
X141457142Y-80714285D01*
X141400000Y-80657142D01*
X141514285Y-80657142D01*
X141000000Y-78542857D02*
X140942857Y-78657142D01*
X140942857Y-78828571D01*
X141000000Y-79000000D01*
X141114285Y-79114285D01*
X141228571Y-79171428D01*
X141457142Y-79228571D01*
X141628571Y-79228571D01*
X141857142Y-79171428D01*
X141971428Y-79114285D01*
X142085714Y-79000000D01*
X142142857Y-78828571D01*
X142142857Y-78714285D01*
X142085714Y-78542857D01*
X142028571Y-78485714D01*
X141628571Y-78485714D01*
X141628571Y-78714285D01*
X142142857Y-77971428D02*
X140942857Y-77971428D01*
X140942857Y-77514285D01*
X141000000Y-77400000D01*
X141057142Y-77342857D01*
X141171428Y-77285714D01*
X141342857Y-77285714D01*
X141457142Y-77342857D01*
X141514285Y-77400000D01*
X141571428Y-77514285D01*
X141571428Y-77971428D01*
X142142857Y-76771428D02*
X140942857Y-76771428D01*
X140942857Y-75971428D02*
X140942857Y-75742857D01*
X141000000Y-75628571D01*
X141114285Y-75514285D01*
X141342857Y-75457142D01*
X141742857Y-75457142D01*
X141971428Y-75514285D01*
X142085714Y-75628571D01*
X142142857Y-75742857D01*
X142142857Y-75971428D01*
X142085714Y-76085714D01*
X141971428Y-76200000D01*
X141742857Y-76257142D01*
X141342857Y-76257142D01*
X141114285Y-76200000D01*
X141000000Y-76085714D01*
X140942857Y-75971428D01*
X142142857Y-74314285D02*
X142142857Y-75000000D01*
X142142857Y-74657142D02*
X140942857Y-74657142D01*
X141114285Y-74771428D01*
X141228571Y-74885714D01*
X141285714Y-75000000D01*
X142142857Y-73742857D02*
X142142857Y-73514285D01*
X142085714Y-73400000D01*
X142028571Y-73342857D01*
X141857142Y-73228571D01*
X141628571Y-73171428D01*
X141171428Y-73171428D01*
X141057142Y-73228571D01*
X141000000Y-73285714D01*
X140942857Y-73400000D01*
X140942857Y-73628571D01*
X141000000Y-73742857D01*
X141057142Y-73800000D01*
X141171428Y-73857142D01*
X141457142Y-73857142D01*
X141571428Y-73800000D01*
X141628571Y-73742857D01*
X141685714Y-73628571D01*
X141685714Y-73400000D01*
X141628571Y-73285714D01*
X141571428Y-73228571D01*
X141457142Y-73171428D01*
X143514285Y-83871428D02*
X143514285Y-84271428D01*
X144142857Y-84271428D02*
X142942857Y-84271428D01*
X142942857Y-83700000D01*
X144142857Y-83242857D02*
X142942857Y-83242857D01*
X142942857Y-82785714D01*
X143000000Y-82671428D01*
X143057142Y-82614285D01*
X143171428Y-82557142D01*
X143342857Y-82557142D01*
X143457142Y-82614285D01*
X143514285Y-82671428D01*
X143571428Y-82785714D01*
X143571428Y-83242857D01*
X143000000Y-81414285D02*
X142942857Y-81528571D01*
X142942857Y-81700000D01*
X143000000Y-81871428D01*
X143114285Y-81985714D01*
X143228571Y-82042857D01*
X143457142Y-82100000D01*
X143628571Y-82100000D01*
X143857142Y-82042857D01*
X143971428Y-81985714D01*
X144085714Y-81871428D01*
X144142857Y-81700000D01*
X144142857Y-81585714D01*
X144085714Y-81414285D01*
X144028571Y-81357142D01*
X143628571Y-81357142D01*
X143628571Y-81585714D01*
X143800000Y-80900000D02*
X143800000Y-80328571D01*
X144142857Y-81014285D02*
X142942857Y-80614285D01*
X144142857Y-80214285D01*
X144257142Y-80100000D02*
X144257142Y-79185714D01*
X144028571Y-78214285D02*
X144085714Y-78271428D01*
X144142857Y-78442857D01*
X144142857Y-78557142D01*
X144085714Y-78728571D01*
X143971428Y-78842857D01*
X143857142Y-78900000D01*
X143628571Y-78957142D01*
X143457142Y-78957142D01*
X143228571Y-78900000D01*
X143114285Y-78842857D01*
X143000000Y-78728571D01*
X142942857Y-78557142D01*
X142942857Y-78442857D01*
X143000000Y-78271428D01*
X143057142Y-78214285D01*
X144085714Y-77757142D02*
X144142857Y-77585714D01*
X144142857Y-77300000D01*
X144085714Y-77185714D01*
X144028571Y-77128571D01*
X143914285Y-77071428D01*
X143800000Y-77071428D01*
X143685714Y-77128571D01*
X143628571Y-77185714D01*
X143571428Y-77300000D01*
X143514285Y-77528571D01*
X143457142Y-77642857D01*
X143400000Y-77700000D01*
X143285714Y-77757142D01*
X143171428Y-77757142D01*
X143057142Y-77700000D01*
X143000000Y-77642857D01*
X142942857Y-77528571D01*
X142942857Y-77242857D01*
X143000000Y-77071428D01*
X144028571Y-76557142D02*
X144085714Y-76500000D01*
X144142857Y-76557142D01*
X144085714Y-76614285D01*
X144028571Y-76557142D01*
X144142857Y-76557142D01*
X143400000Y-76557142D02*
X143457142Y-76500000D01*
X143514285Y-76557142D01*
X143457142Y-76614285D01*
X143400000Y-76557142D01*
X143514285Y-76557142D01*
X143000000Y-74442857D02*
X142942857Y-74557142D01*
X142942857Y-74728571D01*
X143000000Y-74900000D01*
X143114285Y-75014285D01*
X143228571Y-75071428D01*
X143457142Y-75128571D01*
X143628571Y-75128571D01*
X143857142Y-75071428D01*
X143971428Y-75014285D01*
X144085714Y-74900000D01*
X144142857Y-74728571D01*
X144142857Y-74614285D01*
X144085714Y-74442857D01*
X144028571Y-74385714D01*
X143628571Y-74385714D01*
X143628571Y-74614285D01*
X144142857Y-73871428D02*
X142942857Y-73871428D01*
X142942857Y-73414285D01*
X143000000Y-73300000D01*
X143057142Y-73242857D01*
X143171428Y-73185714D01*
X143342857Y-73185714D01*
X143457142Y-73242857D01*
X143514285Y-73300000D01*
X143571428Y-73414285D01*
X143571428Y-73871428D01*
X144142857Y-72671428D02*
X142942857Y-72671428D01*
X142942857Y-71871428D02*
X142942857Y-71642857D01*
X143000000Y-71528571D01*
X143114285Y-71414285D01*
X143342857Y-71357142D01*
X143742857Y-71357142D01*
X143971428Y-71414285D01*
X144085714Y-71528571D01*
X144142857Y-71642857D01*
X144142857Y-71871428D01*
X144085714Y-71985714D01*
X143971428Y-72100000D01*
X143742857Y-72157142D01*
X143342857Y-72157142D01*
X143114285Y-72100000D01*
X143000000Y-71985714D01*
X142942857Y-71871428D01*
X144142857Y-70214285D02*
X144142857Y-70900000D01*
X144142857Y-70557142D02*
X142942857Y-70557142D01*
X143114285Y-70671428D01*
X143228571Y-70785714D01*
X143285714Y-70900000D01*
X142942857Y-69814285D02*
X142942857Y-69014285D01*
X144142857Y-69528571D01*
X146185714Y-86542857D02*
X146242857Y-86371428D01*
X146242857Y-86085714D01*
X146185714Y-85971428D01*
X146128571Y-85914285D01*
X146014285Y-85857142D01*
X145900000Y-85857142D01*
X145785714Y-85914285D01*
X145728571Y-85971428D01*
X145671428Y-86085714D01*
X145614285Y-86314285D01*
X145557142Y-86428571D01*
X145500000Y-86485714D01*
X145385714Y-86542857D01*
X145271428Y-86542857D01*
X145157142Y-86485714D01*
X145100000Y-86428571D01*
X145042857Y-86314285D01*
X145042857Y-86028571D01*
X145100000Y-85857142D01*
X146128571Y-84657142D02*
X146185714Y-84714285D01*
X146242857Y-84885714D01*
X146242857Y-85000000D01*
X146185714Y-85171428D01*
X146071428Y-85285714D01*
X145957142Y-85342857D01*
X145728571Y-85400000D01*
X145557142Y-85400000D01*
X145328571Y-85342857D01*
X145214285Y-85285714D01*
X145100000Y-85171428D01*
X145042857Y-85000000D01*
X145042857Y-84885714D01*
X145100000Y-84714285D01*
X145157142Y-84657142D01*
X146242857Y-84142857D02*
X145042857Y-84142857D01*
X146242857Y-83457142D02*
X145557142Y-83971428D01*
X145042857Y-83457142D02*
X145728571Y-84142857D01*
X146128571Y-82942857D02*
X146185714Y-82885714D01*
X146242857Y-82942857D01*
X146185714Y-83000000D01*
X146128571Y-82942857D01*
X146242857Y-82942857D01*
X145500000Y-82942857D02*
X145557142Y-82885714D01*
X145614285Y-82942857D01*
X145557142Y-83000000D01*
X145500000Y-82942857D01*
X145614285Y-82942857D01*
X145100000Y-80828571D02*
X145042857Y-80942857D01*
X145042857Y-81114285D01*
X145100000Y-81285714D01*
X145214285Y-81400000D01*
X145328571Y-81457142D01*
X145557142Y-81514285D01*
X145728571Y-81514285D01*
X145957142Y-81457142D01*
X146071428Y-81400000D01*
X146185714Y-81285714D01*
X146242857Y-81114285D01*
X146242857Y-81000000D01*
X146185714Y-80828571D01*
X146128571Y-80771428D01*
X145728571Y-80771428D01*
X145728571Y-81000000D01*
X146242857Y-80257142D02*
X145042857Y-80257142D01*
X145042857Y-79800000D01*
X145100000Y-79685714D01*
X145157142Y-79628571D01*
X145271428Y-79571428D01*
X145442857Y-79571428D01*
X145557142Y-79628571D01*
X145614285Y-79685714D01*
X145671428Y-79800000D01*
X145671428Y-80257142D01*
X146242857Y-79057142D02*
X145042857Y-79057142D01*
X145042857Y-78257142D02*
X145042857Y-78028571D01*
X145100000Y-77914285D01*
X145214285Y-77800000D01*
X145442857Y-77742857D01*
X145842857Y-77742857D01*
X146071428Y-77800000D01*
X146185714Y-77914285D01*
X146242857Y-78028571D01*
X146242857Y-78257142D01*
X146185714Y-78371428D01*
X146071428Y-78485714D01*
X145842857Y-78542857D01*
X145442857Y-78542857D01*
X145214285Y-78485714D01*
X145100000Y-78371428D01*
X145042857Y-78257142D01*
X146242857Y-76600000D02*
X146242857Y-77285714D01*
X146242857Y-76942857D02*
X145042857Y-76942857D01*
X145214285Y-77057142D01*
X145328571Y-77171428D01*
X145385714Y-77285714D01*
X145557142Y-75914285D02*
X145500000Y-76028571D01*
X145442857Y-76085714D01*
X145328571Y-76142857D01*
X145271428Y-76142857D01*
X145157142Y-76085714D01*
X145100000Y-76028571D01*
X145042857Y-75914285D01*
X145042857Y-75685714D01*
X145100000Y-75571428D01*
X145157142Y-75514285D01*
X145271428Y-75457142D01*
X145328571Y-75457142D01*
X145442857Y-75514285D01*
X145500000Y-75571428D01*
X145557142Y-75685714D01*
X145557142Y-75914285D01*
X145614285Y-76028571D01*
X145671428Y-76085714D01*
X145785714Y-76142857D01*
X146014285Y-76142857D01*
X146128571Y-76085714D01*
X146185714Y-76028571D01*
X146242857Y-75914285D01*
X146242857Y-75685714D01*
X146185714Y-75571428D01*
X146128571Y-75514285D01*
X146014285Y-75457142D01*
X145785714Y-75457142D01*
X145671428Y-75514285D01*
X145614285Y-75571428D01*
X145557142Y-75685714D01*
D11*
G04 #@! TO.C,J2*
X148616733Y-93188138D02*
X149121809Y-93693214D01*
X149189153Y-93827901D01*
X149189153Y-93962588D01*
X149121809Y-94097275D01*
X149054466Y-94164618D01*
X148987122Y-92952435D02*
X148987122Y-92885092D01*
X149020794Y-92784077D01*
X149189153Y-92615718D01*
X149290168Y-92582046D01*
X149357512Y-92582046D01*
X149458527Y-92615718D01*
X149525870Y-92683061D01*
X149593214Y-92817748D01*
X149593214Y-93625870D01*
X150030947Y-93188138D01*
D12*
G04 #@! TO.C,J1*
X133113690Y-86229166D02*
X133470833Y-86229166D01*
X133542261Y-86252976D01*
X133589880Y-86300595D01*
X133613690Y-86372023D01*
X133613690Y-86419642D01*
X133613690Y-85729166D02*
X133613690Y-86014880D01*
X133613690Y-85872023D02*
X133113690Y-85872023D01*
X133185119Y-85919642D01*
X133232738Y-85967261D01*
X133256547Y-86014880D01*
D11*
G04 #@! TO.C,U2*
X136552380Y-75961904D02*
X137361904Y-75961904D01*
X137457142Y-75914285D01*
X137504761Y-75866666D01*
X137552380Y-75771428D01*
X137552380Y-75580952D01*
X137504761Y-75485714D01*
X137457142Y-75438095D01*
X137361904Y-75390476D01*
X136552380Y-75390476D01*
X136647619Y-74961904D02*
X136600000Y-74914285D01*
X136552380Y-74819047D01*
X136552380Y-74580952D01*
X136600000Y-74485714D01*
X136647619Y-74438095D01*
X136742857Y-74390476D01*
X136838095Y-74390476D01*
X136980952Y-74438095D01*
X137552380Y-75009523D01*
X137552380Y-74390476D01*
G04 #@! TO.C,C2*
X134633333Y-80067142D02*
X134585714Y-80114761D01*
X134442857Y-80162380D01*
X134347619Y-80162380D01*
X134204761Y-80114761D01*
X134109523Y-80019523D01*
X134061904Y-79924285D01*
X134014285Y-79733809D01*
X134014285Y-79590952D01*
X134061904Y-79400476D01*
X134109523Y-79305238D01*
X134204761Y-79210000D01*
X134347619Y-79162380D01*
X134442857Y-79162380D01*
X134585714Y-79210000D01*
X134633333Y-79257619D01*
X135014285Y-79257619D02*
X135061904Y-79210000D01*
X135157142Y-79162380D01*
X135395238Y-79162380D01*
X135490476Y-79210000D01*
X135538095Y-79257619D01*
X135585714Y-79352857D01*
X135585714Y-79448095D01*
X135538095Y-79590952D01*
X134966666Y-80162380D01*
X135585714Y-80162380D01*
G04 #@! TO.C,C1*
X134703333Y-71007142D02*
X134655714Y-71054761D01*
X134512857Y-71102380D01*
X134417619Y-71102380D01*
X134274761Y-71054761D01*
X134179523Y-70959523D01*
X134131904Y-70864285D01*
X134084285Y-70673809D01*
X134084285Y-70530952D01*
X134131904Y-70340476D01*
X134179523Y-70245238D01*
X134274761Y-70150000D01*
X134417619Y-70102380D01*
X134512857Y-70102380D01*
X134655714Y-70150000D01*
X134703333Y-70197619D01*
X135655714Y-71102380D02*
X135084285Y-71102380D01*
X135370000Y-71102380D02*
X135370000Y-70102380D01*
X135274761Y-70245238D01*
X135179523Y-70340476D01*
X135084285Y-70388095D01*
G04 #@! TO.C,U1*
X162942857Y-92871428D02*
X162942857Y-93357142D01*
X162971428Y-93414285D01*
X163000000Y-93442857D01*
X163057142Y-93471428D01*
X163171428Y-93471428D01*
X163228571Y-93442857D01*
X163257142Y-93414285D01*
X163285714Y-93357142D01*
X163285714Y-92871428D01*
X163885714Y-93471428D02*
X163542857Y-93471428D01*
X163714285Y-93471428D02*
X163714285Y-92871428D01*
X163657142Y-92957142D01*
X163600000Y-93014285D01*
X163542857Y-93042857D01*
X175643722Y-82160592D02*
X175562910Y-82187529D01*
X175482097Y-82268341D01*
X175428223Y-82376091D01*
X175428223Y-82483841D01*
X175455160Y-82564653D01*
X175535972Y-82699340D01*
X175616784Y-82780152D01*
X175751471Y-82860964D01*
X175832284Y-82887902D01*
X175940033Y-82887902D01*
X176047783Y-82834027D01*
X176101658Y-82780152D01*
X176155532Y-82672402D01*
X176155532Y-82618528D01*
X175966971Y-82429966D01*
X175859221Y-82537715D01*
X176451844Y-82429966D02*
X175886158Y-81864280D01*
X176101658Y-81648781D01*
X176182470Y-81621844D01*
X176236345Y-81621844D01*
X176317157Y-81648781D01*
X176397969Y-81729593D01*
X176424906Y-81810406D01*
X176424906Y-81864280D01*
X176397969Y-81945093D01*
X176182470Y-82160592D01*
X177313841Y-81567969D02*
X176990592Y-81891218D01*
X177152216Y-81729593D02*
X176586531Y-81163908D01*
X176613468Y-81298595D01*
X176613468Y-81406345D01*
X176586531Y-81487157D01*
X177852589Y-81029221D02*
X177529340Y-81352470D01*
X177690964Y-81190845D02*
X177125279Y-80625160D01*
X177152216Y-80759847D01*
X177152216Y-80867597D01*
X177125279Y-80948409D01*
X149886158Y-112398155D02*
X149805346Y-112425093D01*
X149724534Y-112505905D01*
X149670659Y-112613654D01*
X149670659Y-112721404D01*
X149697597Y-112802216D01*
X149778409Y-112936903D01*
X149859221Y-113017715D01*
X149993908Y-113098528D01*
X150074720Y-113125465D01*
X150182470Y-113125465D01*
X150290219Y-113071590D01*
X150344094Y-113017715D01*
X150397969Y-112909966D01*
X150397969Y-112856091D01*
X150209407Y-112667529D01*
X150101658Y-112775279D01*
X150694280Y-112667529D02*
X150128595Y-112101844D01*
X151017529Y-112344280D01*
X150451844Y-111778595D01*
X151286903Y-112074906D02*
X150721218Y-111509221D01*
X150855905Y-111374534D01*
X150963654Y-111320659D01*
X151071404Y-111320659D01*
X151152216Y-111347597D01*
X151286903Y-111428409D01*
X151367715Y-111509221D01*
X151448528Y-111643908D01*
X151475465Y-111724720D01*
X151475465Y-111832470D01*
X151421590Y-111940219D01*
X151286903Y-112074906D01*
X175513096Y-102211218D02*
X175432284Y-102238155D01*
X175351471Y-102318967D01*
X175297597Y-102426717D01*
X175297597Y-102534467D01*
X175324534Y-102615279D01*
X175405346Y-102749966D01*
X175486158Y-102830778D01*
X175620845Y-102911590D01*
X175701658Y-102938528D01*
X175809407Y-102938528D01*
X175917157Y-102884653D01*
X175971032Y-102830778D01*
X176024906Y-102723028D01*
X176024906Y-102669154D01*
X175836345Y-102480592D01*
X175728595Y-102588341D01*
X176321218Y-102480592D02*
X175755532Y-101914906D01*
X175971032Y-101699407D01*
X176051844Y-101672470D01*
X176105719Y-101672470D01*
X176186531Y-101699407D01*
X176267343Y-101780219D01*
X176294280Y-101861032D01*
X176294280Y-101914906D01*
X176267343Y-101995719D01*
X176051844Y-102211218D01*
X176590592Y-101079847D02*
X176321218Y-101349221D01*
X176563654Y-101645532D01*
X176563654Y-101591658D01*
X176590592Y-101510845D01*
X176725279Y-101376158D01*
X176806091Y-101349221D01*
X176859966Y-101349221D01*
X176940778Y-101376158D01*
X177075465Y-101510845D01*
X177102402Y-101591658D01*
X177102402Y-101645532D01*
X177075465Y-101726345D01*
X176940778Y-101861032D01*
X176859966Y-101887969D01*
X176806091Y-101887969D01*
X148920473Y-115449966D02*
X149674720Y-115827089D01*
X149297597Y-115072842D01*
X149997969Y-115449966D02*
X150105719Y-115396091D01*
X150240406Y-115261404D01*
X150267343Y-115180592D01*
X150267343Y-115126717D01*
X150240406Y-115045905D01*
X150186531Y-114992030D01*
X150105719Y-114965093D01*
X150051844Y-114965093D01*
X149971032Y-114992030D01*
X149836345Y-115072842D01*
X149755532Y-115099780D01*
X149701658Y-115099780D01*
X149620845Y-115072842D01*
X149566971Y-115018967D01*
X149540033Y-114938155D01*
X149540033Y-114884280D01*
X149566971Y-114803468D01*
X149701658Y-114668781D01*
X149809407Y-114614906D01*
X150428967Y-114534094D02*
X150698341Y-114803468D01*
X149944094Y-114426345D02*
X150428967Y-114534094D01*
X150321218Y-114049221D01*
X151021590Y-114426345D02*
X151129340Y-114372470D01*
X151264027Y-114237783D01*
X151290964Y-114156971D01*
X151290964Y-114103096D01*
X151264027Y-114022284D01*
X151210152Y-113968409D01*
X151129340Y-113941471D01*
X151075465Y-113941471D01*
X150994653Y-113968409D01*
X150859966Y-114049221D01*
X150779154Y-114076158D01*
X150725279Y-114076158D01*
X150644467Y-114049221D01*
X150590592Y-113995346D01*
X150563654Y-113914534D01*
X150563654Y-113860659D01*
X150590592Y-113779847D01*
X150725279Y-113645160D01*
X150833028Y-113591285D01*
X147922131Y-111558308D02*
X148272317Y-111208122D01*
X148299255Y-111612183D01*
X148380067Y-111531370D01*
X148460879Y-111504433D01*
X148514754Y-111504433D01*
X148595566Y-111531370D01*
X148730253Y-111666057D01*
X148757190Y-111746870D01*
X148757190Y-111800744D01*
X148730253Y-111881557D01*
X148568629Y-112043181D01*
X148487816Y-112070118D01*
X148433942Y-112070118D01*
X148433942Y-111046497D02*
X149188189Y-111423621D01*
X148811065Y-110669374D01*
X148945752Y-110534687D02*
X149295938Y-110184500D01*
X149322876Y-110588561D01*
X149403688Y-110507749D01*
X149484500Y-110480812D01*
X149538375Y-110480812D01*
X149619187Y-110507749D01*
X149753874Y-110642436D01*
X149780812Y-110723248D01*
X149780812Y-110777123D01*
X149753874Y-110857935D01*
X149592250Y-111019560D01*
X149511438Y-111046497D01*
X149457563Y-111046497D01*
X150023248Y-110696311D02*
X150454247Y-110265312D01*
X150238748Y-109780439D02*
X150427309Y-109591877D01*
X150804433Y-109807377D02*
X150535059Y-110076751D01*
X149969374Y-109511065D01*
X150238748Y-109241691D01*
X151046870Y-109564940D02*
X150481184Y-108999255D01*
X151370118Y-109241691D01*
X150804433Y-108676006D01*
X175643722Y-79620592D02*
X175562910Y-79647529D01*
X175482097Y-79728341D01*
X175428223Y-79836091D01*
X175428223Y-79943841D01*
X175455160Y-80024653D01*
X175535972Y-80159340D01*
X175616784Y-80240152D01*
X175751471Y-80320964D01*
X175832284Y-80347902D01*
X175940033Y-80347902D01*
X176047783Y-80294027D01*
X176101658Y-80240152D01*
X176155532Y-80132402D01*
X176155532Y-80078528D01*
X175966971Y-79889966D01*
X175859221Y-79997715D01*
X176451844Y-79889966D02*
X175886158Y-79324280D01*
X176101658Y-79108781D01*
X176182470Y-79081844D01*
X176236345Y-79081844D01*
X176317157Y-79108781D01*
X176397969Y-79189593D01*
X176424906Y-79270406D01*
X176424906Y-79324280D01*
X176397969Y-79405093D01*
X176182470Y-79620592D01*
X177313841Y-79027969D02*
X176990592Y-79351218D01*
X177152216Y-79189593D02*
X176586531Y-78623908D01*
X176613468Y-78758595D01*
X176613468Y-78866345D01*
X176586531Y-78947157D01*
X177017529Y-78300659D02*
X177017529Y-78246784D01*
X177044467Y-78165972D01*
X177179154Y-78031285D01*
X177259966Y-78004348D01*
X177313841Y-78004348D01*
X177394653Y-78031285D01*
X177448528Y-78085160D01*
X177502402Y-78192910D01*
X177502402Y-78839407D01*
X177852589Y-78489221D01*
X175486158Y-112398155D02*
X175405346Y-112425093D01*
X175324534Y-112505905D01*
X175270659Y-112613654D01*
X175270659Y-112721404D01*
X175297597Y-112802216D01*
X175378409Y-112936903D01*
X175459221Y-113017715D01*
X175593908Y-113098528D01*
X175674720Y-113125465D01*
X175782470Y-113125465D01*
X175890219Y-113071590D01*
X175944094Y-113017715D01*
X175997969Y-112909966D01*
X175997969Y-112856091D01*
X175809407Y-112667529D01*
X175701658Y-112775279D01*
X176294280Y-112667529D02*
X175728595Y-112101844D01*
X176617529Y-112344280D01*
X176051844Y-111778595D01*
X176886903Y-112074906D02*
X176321218Y-111509221D01*
X176455905Y-111374534D01*
X176563654Y-111320659D01*
X176671404Y-111320659D01*
X176752216Y-111347597D01*
X176886903Y-111428409D01*
X176967715Y-111509221D01*
X177048528Y-111643908D01*
X177075465Y-111724720D01*
X177075465Y-111832470D01*
X177021590Y-111940219D01*
X176886903Y-112074906D01*
X175513096Y-92051218D02*
X175432284Y-92078155D01*
X175351471Y-92158967D01*
X175297597Y-92266717D01*
X175297597Y-92374467D01*
X175324534Y-92455279D01*
X175405346Y-92589966D01*
X175486158Y-92670778D01*
X175620845Y-92751590D01*
X175701658Y-92778528D01*
X175809407Y-92778528D01*
X175917157Y-92724653D01*
X175971032Y-92670778D01*
X176024906Y-92563028D01*
X176024906Y-92509154D01*
X175836345Y-92320592D01*
X175728595Y-92428341D01*
X176321218Y-92320592D02*
X175755532Y-91754906D01*
X175971032Y-91539407D01*
X176051844Y-91512470D01*
X176105719Y-91512470D01*
X176186531Y-91539407D01*
X176267343Y-91620219D01*
X176294280Y-91701032D01*
X176294280Y-91754906D01*
X176267343Y-91835719D01*
X176051844Y-92051218D01*
X176644467Y-91350845D02*
X176563654Y-91377783D01*
X176509780Y-91377783D01*
X176428967Y-91350845D01*
X176402030Y-91323908D01*
X176375093Y-91243096D01*
X176375093Y-91189221D01*
X176402030Y-91108409D01*
X176509780Y-91000659D01*
X176590592Y-90973722D01*
X176644467Y-90973722D01*
X176725279Y-91000659D01*
X176752216Y-91027597D01*
X176779154Y-91108409D01*
X176779154Y-91162284D01*
X176752216Y-91243096D01*
X176644467Y-91350845D01*
X176617529Y-91431658D01*
X176617529Y-91485532D01*
X176644467Y-91566345D01*
X176752216Y-91674094D01*
X176833028Y-91701032D01*
X176886903Y-91701032D01*
X176967715Y-91674094D01*
X177075465Y-91566345D01*
X177102402Y-91485532D01*
X177102402Y-91431658D01*
X177075465Y-91350845D01*
X176967715Y-91243096D01*
X176886903Y-91216158D01*
X176833028Y-91216158D01*
X176752216Y-91243096D01*
X175497722Y-84700592D02*
X175416910Y-84727529D01*
X175336097Y-84808341D01*
X175282223Y-84916091D01*
X175282223Y-85023841D01*
X175309160Y-85104653D01*
X175389972Y-85239340D01*
X175470784Y-85320152D01*
X175605471Y-85400964D01*
X175686284Y-85427902D01*
X175794033Y-85427902D01*
X175901783Y-85374027D01*
X175955658Y-85320152D01*
X176009532Y-85212402D01*
X176009532Y-85158528D01*
X175820971Y-84969966D01*
X175713221Y-85077715D01*
X176305844Y-84969966D02*
X175740158Y-84404280D01*
X175955658Y-84188781D01*
X176036470Y-84161844D01*
X176090345Y-84161844D01*
X176171157Y-84188781D01*
X176251969Y-84269593D01*
X176278906Y-84350406D01*
X176278906Y-84404280D01*
X176251969Y-84485093D01*
X176036470Y-84700592D01*
X177167841Y-84107969D02*
X176844592Y-84431218D01*
X177006216Y-84269593D02*
X176440531Y-83703908D01*
X176467468Y-83838595D01*
X176467468Y-83946345D01*
X176440531Y-84027157D01*
X176952341Y-83192097D02*
X177006216Y-83138223D01*
X177087028Y-83111285D01*
X177140903Y-83111285D01*
X177221715Y-83138223D01*
X177356402Y-83219035D01*
X177491089Y-83353722D01*
X177571902Y-83488409D01*
X177598839Y-83569221D01*
X177598839Y-83623096D01*
X177571902Y-83703908D01*
X177518027Y-83757783D01*
X177437215Y-83784720D01*
X177383340Y-83784720D01*
X177302528Y-83757783D01*
X177167841Y-83676971D01*
X177033154Y-83542284D01*
X176952341Y-83407597D01*
X176925404Y-83326784D01*
X176925404Y-83272910D01*
X176952341Y-83192097D01*
X175613096Y-109831218D02*
X175532284Y-109858155D01*
X175451471Y-109938967D01*
X175397597Y-110046717D01*
X175397597Y-110154467D01*
X175424534Y-110235279D01*
X175505346Y-110369966D01*
X175586158Y-110450778D01*
X175720845Y-110531590D01*
X175801658Y-110558528D01*
X175909407Y-110558528D01*
X176017157Y-110504653D01*
X176071032Y-110450778D01*
X176124906Y-110343028D01*
X176124906Y-110289154D01*
X175936345Y-110100592D01*
X175828595Y-110208341D01*
X176421218Y-110100592D02*
X175855532Y-109534906D01*
X176071032Y-109319407D01*
X176151844Y-109292470D01*
X176205719Y-109292470D01*
X176286531Y-109319407D01*
X176367343Y-109400219D01*
X176394280Y-109481032D01*
X176394280Y-109534906D01*
X176367343Y-109615719D01*
X176151844Y-109831218D01*
X176448155Y-109050033D02*
X176448155Y-108996158D01*
X176475093Y-108915346D01*
X176609780Y-108780659D01*
X176690592Y-108753722D01*
X176744467Y-108753722D01*
X176825279Y-108780659D01*
X176879154Y-108834534D01*
X176933028Y-108942284D01*
X176933028Y-109588781D01*
X177283215Y-109238595D01*
X175513096Y-104751218D02*
X175432284Y-104778155D01*
X175351471Y-104858967D01*
X175297597Y-104966717D01*
X175297597Y-105074467D01*
X175324534Y-105155279D01*
X175405346Y-105289966D01*
X175486158Y-105370778D01*
X175620845Y-105451590D01*
X175701658Y-105478528D01*
X175809407Y-105478528D01*
X175917157Y-105424653D01*
X175971032Y-105370778D01*
X176024906Y-105263028D01*
X176024906Y-105209154D01*
X175836345Y-105020592D01*
X175728595Y-105128341D01*
X176321218Y-105020592D02*
X175755532Y-104454906D01*
X175971032Y-104239407D01*
X176051844Y-104212470D01*
X176105719Y-104212470D01*
X176186531Y-104239407D01*
X176267343Y-104320219D01*
X176294280Y-104401032D01*
X176294280Y-104454906D01*
X176267343Y-104535719D01*
X176051844Y-104751218D01*
X176752216Y-103835346D02*
X177129340Y-104212470D01*
X176402030Y-103754534D02*
X176671404Y-104293282D01*
X177021590Y-103943096D01*
X175497722Y-77080592D02*
X175416910Y-77107529D01*
X175336097Y-77188341D01*
X175282223Y-77296091D01*
X175282223Y-77403841D01*
X175309160Y-77484653D01*
X175389972Y-77619340D01*
X175470784Y-77700152D01*
X175605471Y-77780964D01*
X175686284Y-77807902D01*
X175794033Y-77807902D01*
X175901783Y-77754027D01*
X175955658Y-77700152D01*
X176009532Y-77592402D01*
X176009532Y-77538528D01*
X175820971Y-77349966D01*
X175713221Y-77457715D01*
X176305844Y-77349966D02*
X175740158Y-76784280D01*
X175955658Y-76568781D01*
X176036470Y-76541844D01*
X176090345Y-76541844D01*
X176171157Y-76568781D01*
X176251969Y-76649593D01*
X176278906Y-76730406D01*
X176278906Y-76784280D01*
X176251969Y-76865093D01*
X176036470Y-77080592D01*
X177167841Y-76487969D02*
X176844592Y-76811218D01*
X177006216Y-76649593D02*
X176440531Y-76083908D01*
X176467468Y-76218595D01*
X176467468Y-76326345D01*
X176440531Y-76407157D01*
X176790717Y-75733722D02*
X177140903Y-75383536D01*
X177167841Y-75787597D01*
X177248653Y-75706784D01*
X177329465Y-75679847D01*
X177383340Y-75679847D01*
X177464152Y-75706784D01*
X177598839Y-75841471D01*
X177625776Y-75922284D01*
X177625776Y-75976158D01*
X177598839Y-76056971D01*
X177437215Y-76218595D01*
X177356402Y-76245532D01*
X177302528Y-76245532D01*
X175513096Y-107291218D02*
X175432284Y-107318155D01*
X175351471Y-107398967D01*
X175297597Y-107506717D01*
X175297597Y-107614467D01*
X175324534Y-107695279D01*
X175405346Y-107829966D01*
X175486158Y-107910778D01*
X175620845Y-107991590D01*
X175701658Y-108018528D01*
X175809407Y-108018528D01*
X175917157Y-107964653D01*
X175971032Y-107910778D01*
X176024906Y-107803028D01*
X176024906Y-107749154D01*
X175836345Y-107560592D01*
X175728595Y-107668341D01*
X176321218Y-107560592D02*
X175755532Y-106994906D01*
X175971032Y-106779407D01*
X176051844Y-106752470D01*
X176105719Y-106752470D01*
X176186531Y-106779407D01*
X176267343Y-106860219D01*
X176294280Y-106941032D01*
X176294280Y-106994906D01*
X176267343Y-107075719D01*
X176051844Y-107291218D01*
X176267343Y-106483096D02*
X176617529Y-106132910D01*
X176644467Y-106536971D01*
X176725279Y-106456158D01*
X176806091Y-106429221D01*
X176859966Y-106429221D01*
X176940778Y-106456158D01*
X177075465Y-106590845D01*
X177102402Y-106671658D01*
X177102402Y-106725532D01*
X177075465Y-106806345D01*
X176913841Y-106967969D01*
X176833028Y-106994906D01*
X176779154Y-106994906D01*
X175413096Y-94621218D02*
X175332284Y-94648155D01*
X175251471Y-94728967D01*
X175197597Y-94836717D01*
X175197597Y-94944467D01*
X175224534Y-95025279D01*
X175305346Y-95159966D01*
X175386158Y-95240778D01*
X175520845Y-95321590D01*
X175601658Y-95348528D01*
X175709407Y-95348528D01*
X175817157Y-95294653D01*
X175871032Y-95240778D01*
X175924906Y-95133028D01*
X175924906Y-95079154D01*
X175736345Y-94890592D01*
X175628595Y-94998341D01*
X176221218Y-94890592D02*
X175655532Y-94324906D01*
X175871032Y-94109407D01*
X175951844Y-94082470D01*
X176005719Y-94082470D01*
X176086531Y-94109407D01*
X176167343Y-94190219D01*
X176194280Y-94271032D01*
X176194280Y-94324906D01*
X176167343Y-94405719D01*
X175951844Y-94621218D01*
X176167343Y-93813096D02*
X176544467Y-93435972D01*
X176867715Y-94244094D01*
X175486158Y-99698155D02*
X175405346Y-99725093D01*
X175324534Y-99805905D01*
X175270659Y-99913654D01*
X175270659Y-100021404D01*
X175297597Y-100102216D01*
X175378409Y-100236903D01*
X175459221Y-100317715D01*
X175593908Y-100398528D01*
X175674720Y-100425465D01*
X175782470Y-100425465D01*
X175890219Y-100371590D01*
X175944094Y-100317715D01*
X175997969Y-100209966D01*
X175997969Y-100156091D01*
X175809407Y-99967529D01*
X175701658Y-100075279D01*
X176294280Y-99967529D02*
X175728595Y-99401844D01*
X176617529Y-99644280D01*
X176051844Y-99078595D01*
X176886903Y-99374906D02*
X176321218Y-98809221D01*
X176455905Y-98674534D01*
X176563654Y-98620659D01*
X176671404Y-98620659D01*
X176752216Y-98647597D01*
X176886903Y-98728409D01*
X176967715Y-98809221D01*
X177048528Y-98943908D01*
X177075465Y-99024720D01*
X177075465Y-99132470D01*
X177021590Y-99240219D01*
X176886903Y-99374906D01*
X175513096Y-97131218D02*
X175432284Y-97158155D01*
X175351471Y-97238967D01*
X175297597Y-97346717D01*
X175297597Y-97454467D01*
X175324534Y-97535279D01*
X175405346Y-97669966D01*
X175486158Y-97750778D01*
X175620845Y-97831590D01*
X175701658Y-97858528D01*
X175809407Y-97858528D01*
X175917157Y-97804653D01*
X175971032Y-97750778D01*
X176024906Y-97643028D01*
X176024906Y-97589154D01*
X175836345Y-97400592D01*
X175728595Y-97508341D01*
X176321218Y-97400592D02*
X175755532Y-96834906D01*
X175971032Y-96619407D01*
X176051844Y-96592470D01*
X176105719Y-96592470D01*
X176186531Y-96619407D01*
X176267343Y-96700219D01*
X176294280Y-96781032D01*
X176294280Y-96834906D01*
X176267343Y-96915719D01*
X176051844Y-97131218D01*
X176563654Y-96026784D02*
X176455905Y-96134534D01*
X176428967Y-96215346D01*
X176428967Y-96269221D01*
X176455905Y-96403908D01*
X176536717Y-96538595D01*
X176752216Y-96754094D01*
X176833028Y-96781032D01*
X176886903Y-96781032D01*
X176967715Y-96754094D01*
X177075465Y-96646345D01*
X177102402Y-96565532D01*
X177102402Y-96511658D01*
X177075465Y-96430845D01*
X176940778Y-96296158D01*
X176859966Y-96269221D01*
X176806091Y-96269221D01*
X176725279Y-96296158D01*
X176617529Y-96403908D01*
X176590592Y-96484720D01*
X176590592Y-96538595D01*
X176617529Y-96619407D01*
X148753129Y-118127309D02*
X149507377Y-118504433D01*
X149130253Y-117750186D01*
X149776751Y-117642436D02*
X149884500Y-117588561D01*
X149938375Y-117588561D01*
X150019187Y-117615499D01*
X150100000Y-117696311D01*
X150126937Y-117777123D01*
X150126937Y-117830998D01*
X150100000Y-117911810D01*
X149884500Y-118127309D01*
X149318815Y-117561624D01*
X149507377Y-117373062D01*
X149588189Y-117346125D01*
X149642064Y-117346125D01*
X149722876Y-117373062D01*
X149776751Y-117426937D01*
X149803688Y-117507749D01*
X149803688Y-117561624D01*
X149776751Y-117642436D01*
X149588189Y-117830998D01*
X149884500Y-116995938D02*
X150342436Y-117453874D01*
X150423248Y-117480812D01*
X150477123Y-117480812D01*
X150557935Y-117453874D01*
X150665685Y-117346125D01*
X150692622Y-117265312D01*
X150692622Y-117211438D01*
X150665685Y-117130625D01*
X150207749Y-116672690D01*
X150988934Y-116969001D02*
X151096683Y-116915126D01*
X151231370Y-116780439D01*
X151258308Y-116699627D01*
X151258308Y-116645752D01*
X151231370Y-116564940D01*
X151177496Y-116511065D01*
X151096683Y-116484128D01*
X151042809Y-116484128D01*
X150961996Y-116511065D01*
X150827309Y-116591877D01*
X150746497Y-116618815D01*
X150692622Y-116618815D01*
X150611810Y-116591877D01*
X150557935Y-116538003D01*
X150530998Y-116457190D01*
X150530998Y-116403316D01*
X150557935Y-116322503D01*
X150692622Y-116187816D01*
X150800372Y-116133942D01*
X175513096Y-89511218D02*
X175432284Y-89538155D01*
X175351471Y-89618967D01*
X175297597Y-89726717D01*
X175297597Y-89834467D01*
X175324534Y-89915279D01*
X175405346Y-90049966D01*
X175486158Y-90130778D01*
X175620845Y-90211590D01*
X175701658Y-90238528D01*
X175809407Y-90238528D01*
X175917157Y-90184653D01*
X175971032Y-90130778D01*
X176024906Y-90023028D01*
X176024906Y-89969154D01*
X175836345Y-89780592D01*
X175728595Y-89888341D01*
X176321218Y-89780592D02*
X175755532Y-89214906D01*
X175971032Y-88999407D01*
X176051844Y-88972470D01*
X176105719Y-88972470D01*
X176186531Y-88999407D01*
X176267343Y-89080219D01*
X176294280Y-89161032D01*
X176294280Y-89214906D01*
X176267343Y-89295719D01*
X176051844Y-89511218D01*
X176913841Y-89187969D02*
X177021590Y-89080219D01*
X177048528Y-88999407D01*
X177048528Y-88945532D01*
X177021590Y-88810845D01*
X176940778Y-88676158D01*
X176725279Y-88460659D01*
X176644467Y-88433722D01*
X176590592Y-88433722D01*
X176509780Y-88460659D01*
X176402030Y-88568409D01*
X176375093Y-88649221D01*
X176375093Y-88703096D01*
X176402030Y-88783908D01*
X176536717Y-88918595D01*
X176617529Y-88945532D01*
X176671404Y-88945532D01*
X176752216Y-88918595D01*
X176859966Y-88810845D01*
X176886903Y-88730033D01*
X176886903Y-88676158D01*
X176859966Y-88595346D01*
X175486158Y-86998155D02*
X175405346Y-87025093D01*
X175324534Y-87105905D01*
X175270659Y-87213654D01*
X175270659Y-87321404D01*
X175297597Y-87402216D01*
X175378409Y-87536903D01*
X175459221Y-87617715D01*
X175593908Y-87698528D01*
X175674720Y-87725465D01*
X175782470Y-87725465D01*
X175890219Y-87671590D01*
X175944094Y-87617715D01*
X175997969Y-87509966D01*
X175997969Y-87456091D01*
X175809407Y-87267529D01*
X175701658Y-87375279D01*
X176294280Y-87267529D02*
X175728595Y-86701844D01*
X176617529Y-86944280D01*
X176051844Y-86378595D01*
X176886903Y-86674906D02*
X176321218Y-86109221D01*
X176455905Y-85974534D01*
X176563654Y-85920659D01*
X176671404Y-85920659D01*
X176752216Y-85947597D01*
X176886903Y-86028409D01*
X176967715Y-86109221D01*
X177048528Y-86243908D01*
X177075465Y-86324720D01*
X177075465Y-86432470D01*
X177021590Y-86540219D01*
X176886903Y-86674906D01*
X175486158Y-74298155D02*
X175405346Y-74325093D01*
X175324534Y-74405905D01*
X175270659Y-74513654D01*
X175270659Y-74621404D01*
X175297597Y-74702216D01*
X175378409Y-74836903D01*
X175459221Y-74917715D01*
X175593908Y-74998528D01*
X175674720Y-75025465D01*
X175782470Y-75025465D01*
X175890219Y-74971590D01*
X175944094Y-74917715D01*
X175997969Y-74809966D01*
X175997969Y-74756091D01*
X175809407Y-74567529D01*
X175701658Y-74675279D01*
X176294280Y-74567529D02*
X175728595Y-74001844D01*
X176617529Y-74244280D01*
X176051844Y-73678595D01*
X176886903Y-73974906D02*
X176321218Y-73409221D01*
X176455905Y-73274534D01*
X176563654Y-73220659D01*
X176671404Y-73220659D01*
X176752216Y-73247597D01*
X176886903Y-73328409D01*
X176967715Y-73409221D01*
X177048528Y-73543908D01*
X177075465Y-73624720D01*
X177075465Y-73732470D01*
X177021590Y-73840219D01*
X176886903Y-73974906D01*
D13*
G04 #@! TO.C,J2*
X145753624Y-91734528D02*
X136730942Y-82711846D01*
X138611846Y-80830942D02*
X136730942Y-82711846D01*
X147634528Y-89853624D02*
X145753624Y-91734528D01*
X149473006Y-91692102D02*
X148532554Y-92632554D01*
X148532554Y-90751650D02*
X149473006Y-91692102D01*
X147634528Y-89853624D02*
X138611846Y-80830942D01*
D10*
G04 #@! TO.C,J1*
X132650000Y-87140000D02*
X133850000Y-87140000D01*
X128590000Y-85650000D02*
X126850000Y-85650000D01*
X132650000Y-98460000D02*
X132650000Y-99950000D01*
X132650000Y-85650000D02*
X131310000Y-85650000D01*
X132650000Y-99950000D02*
X131310000Y-99950000D01*
X126850000Y-85650000D02*
X126850000Y-99950000D01*
X132650000Y-87140000D02*
X132650000Y-85650000D01*
X126850000Y-99950000D02*
X128590000Y-99950000D01*
D13*
G04 #@! TO.C,U2*
X133140000Y-75200000D02*
X133140000Y-74400000D01*
X136260000Y-75200000D02*
X136260000Y-73400000D01*
X136260000Y-75200000D02*
X136260000Y-76000000D01*
X133140000Y-75200000D02*
X133140000Y-76000000D01*
G04 #@! TO.C,C2*
X134940580Y-77770000D02*
X134659420Y-77770000D01*
X134940580Y-78790000D02*
X134659420Y-78790000D01*
G04 #@! TO.C,C1*
X134729420Y-72590000D02*
X135010580Y-72590000D01*
X134729420Y-71570000D02*
X135010580Y-71570000D01*
G04 #@! TO.C,U1*
X173900000Y-93400000D02*
X173900000Y-93000000D01*
X152900000Y-73100000D02*
X152900000Y-72700000D01*
X152900000Y-80700000D02*
X152900000Y-80300000D01*
X173900000Y-88300000D02*
X173900000Y-87900000D01*
X152900000Y-93400000D02*
X152900000Y-93000000D01*
X173900000Y-78100000D02*
X173900000Y-77700000D01*
X173900000Y-116033000D02*
X170893000Y-116033000D01*
X152900000Y-83200000D02*
X152900000Y-82800000D01*
X152900000Y-88300000D02*
X152900000Y-87900000D01*
X173900000Y-75600000D02*
X173900000Y-75200000D01*
X170893000Y-116033000D02*
X170893000Y-118700000D01*
X152900000Y-67700000D02*
X159700000Y-67700000D01*
X152900000Y-106100000D02*
X152900000Y-105700000D01*
X152900000Y-78100000D02*
X152900000Y-77700000D01*
X173900000Y-113700000D02*
X173900000Y-113300000D01*
X162300000Y-67700000D02*
X161900000Y-67700000D01*
X173900000Y-111200000D02*
X173900000Y-110800000D01*
X173900000Y-90900000D02*
X173900000Y-90500000D01*
X152900000Y-75600000D02*
X152900000Y-75200000D01*
X152900000Y-103600000D02*
X152900000Y-103200000D01*
X152900000Y-113700000D02*
X152900000Y-113300000D01*
X173900000Y-98500000D02*
X173900000Y-98100000D01*
X173900000Y-80700000D02*
X173900000Y-80300000D01*
X173900000Y-70500000D02*
X173900000Y-70100000D01*
X173900000Y-108600000D02*
X173900000Y-108200000D01*
X173900000Y-95900000D02*
X173900000Y-95500000D01*
X173900000Y-73100000D02*
X173900000Y-72700000D01*
X152900000Y-98500000D02*
X152900000Y-98100000D01*
X152900000Y-116300000D02*
X152900000Y-115900000D01*
X152900000Y-108600000D02*
X152900000Y-108200000D01*
X164900000Y-67700000D02*
X164500000Y-67700000D01*
X173900000Y-85800000D02*
X173900000Y-85400000D01*
X152900000Y-101000000D02*
X152900000Y-100600000D01*
X173900000Y-118700000D02*
X152900000Y-118700000D01*
X152900000Y-95900000D02*
X152900000Y-95500000D01*
X152900000Y-70500000D02*
X152900000Y-70100000D01*
X152900000Y-85800000D02*
X152900000Y-85400000D01*
X173900000Y-101000000D02*
X173900000Y-100600000D01*
X167100000Y-67700000D02*
X173900000Y-67700000D01*
X152900000Y-90900000D02*
X152900000Y-90500000D01*
X152900000Y-111200000D02*
X152900000Y-110800000D01*
X173900000Y-83200000D02*
X173900000Y-82800000D01*
X173900000Y-103600000D02*
X173900000Y-103200000D01*
X173900000Y-116300000D02*
X173900000Y-115900000D01*
X173900000Y-106100000D02*
X173900000Y-105700000D01*
X173900000Y-118700000D02*
X173900000Y-118400000D01*
X152900000Y-118700000D02*
X152900000Y-118400000D01*
G04 #@! TD*
M02*
