G04 #@! TF.GenerationSoftware,KiCad,Pcbnew,(6.0.9)*
G04 #@! TF.CreationDate,2024-07-14T21:11:06-07:00*
G04 #@! TF.ProjectId,AccArray_PICO,41636341-7272-4617-995f-5049434f2e6b,rev?*
G04 #@! TF.SameCoordinates,Original*
G04 #@! TF.FileFunction,Soldermask,Top*
G04 #@! TF.FilePolarity,Negative*
%FSLAX46Y46*%
G04 Gerber Fmt 4.6, Leading zero omitted, Abs format (unit mm)*
G04 Created by KiCad (PCBNEW (6.0.9)) date 2024-07-14 21:11:06*
%MOMM*%
%LPD*%
G01*
G04 APERTURE LIST*
%ADD10R,1.300000X0.300000*%
%ADD11R,2.200000X1.800000*%
%ADD12O,1.800000X1.800000*%
%ADD13O,1.500000X1.500000*%
%ADD14R,3.500000X1.700000*%
G04 APERTURE END LIST*
G04 #@! TO.C,J2*
G36*
G01*
X139212887Y-82110805D02*
X139212887Y-82110805D01*
G75*
G02*
X139212887Y-83312887I-601041J-601041D01*
G01*
X139212887Y-83312887D01*
G75*
G02*
X138010805Y-83312887I-601041J601041D01*
G01*
X138010805Y-83312887D01*
G75*
G02*
X138010805Y-82110805I601041J601041D01*
G01*
X138010805Y-82110805D01*
G75*
G02*
X139212887Y-82110805I601041J-601041D01*
G01*
G37*
G36*
G01*
X141008938Y-83906856D02*
X141008938Y-83906856D01*
G75*
G02*
X141008938Y-85108938I-601041J-601041D01*
G01*
X141008938Y-85108938D01*
G75*
G02*
X139806856Y-85108938I-601041J601041D01*
G01*
X139806856Y-85108938D01*
G75*
G02*
X139806856Y-83906856I601041J601041D01*
G01*
X139806856Y-83906856D01*
G75*
G02*
X141008938Y-83906856I601041J-601041D01*
G01*
G37*
G36*
G01*
X142804989Y-85702907D02*
X142804989Y-85702907D01*
G75*
G02*
X142804989Y-86904989I-601041J-601041D01*
G01*
X142804989Y-86904989D01*
G75*
G02*
X141602907Y-86904989I-601041J601041D01*
G01*
X141602907Y-86904989D01*
G75*
G02*
X141602907Y-85702907I601041J601041D01*
G01*
X141602907Y-85702907D01*
G75*
G02*
X142804989Y-85702907I601041J-601041D01*
G01*
G37*
G36*
G01*
X144601041Y-87498959D02*
X144601041Y-87498959D01*
G75*
G02*
X144601041Y-88701041I-601041J-601041D01*
G01*
X144601041Y-88701041D01*
G75*
G02*
X143398959Y-88701041I-601041J601041D01*
G01*
X143398959Y-88701041D01*
G75*
G02*
X143398959Y-87498959I601041J601041D01*
G01*
X143398959Y-87498959D01*
G75*
G02*
X144601041Y-87498959I601041J-601041D01*
G01*
G37*
G36*
G01*
X146397092Y-89295010D02*
X146397092Y-89295010D01*
G75*
G02*
X146397092Y-90497092I-601041J-601041D01*
G01*
X146397092Y-90497092D01*
G75*
G02*
X145195010Y-90497092I-601041J601041D01*
G01*
X145195010Y-90497092D01*
G75*
G02*
X145195010Y-89295010I601041J601041D01*
G01*
X145195010Y-89295010D01*
G75*
G02*
X146397092Y-89295010I601041J-601041D01*
G01*
G37*
G36*
X147592102Y-90490020D02*
G01*
X148794184Y-91692102D01*
X147592102Y-92894184D01*
X146390020Y-91692102D01*
X147592102Y-90490020D01*
G37*
G04 #@! TD*
D10*
G04 #@! TO.C,J1*
X133200000Y-87550000D03*
X133200000Y-88050000D03*
X133200000Y-88550000D03*
X133200000Y-89050000D03*
X133200000Y-89550000D03*
X133200000Y-90050000D03*
X133200000Y-90550000D03*
X133200000Y-91050000D03*
X133200000Y-91550000D03*
X133200000Y-92050000D03*
X133200000Y-92550000D03*
X133200000Y-93050000D03*
X133200000Y-93550000D03*
X133200000Y-94050000D03*
X133200000Y-94550000D03*
X133200000Y-95050000D03*
X133200000Y-95550000D03*
X133200000Y-96050000D03*
X133200000Y-96550000D03*
X133200000Y-97050000D03*
X133200000Y-97550000D03*
X133200000Y-98050000D03*
D11*
X129950000Y-85650000D03*
X129950000Y-99950000D03*
G04 #@! TD*
G04 #@! TO.C,U2*
G36*
G01*
X135500000Y-73400000D02*
X135800000Y-73400000D01*
G75*
G02*
X135950000Y-73550000I0J-150000D01*
G01*
X135950000Y-74575000D01*
G75*
G02*
X135800000Y-74725000I-150000J0D01*
G01*
X135500000Y-74725000D01*
G75*
G02*
X135350000Y-74575000I0J150000D01*
G01*
X135350000Y-73550000D01*
G75*
G02*
X135500000Y-73400000I150000J0D01*
G01*
G37*
G36*
G01*
X134550000Y-73400000D02*
X134850000Y-73400000D01*
G75*
G02*
X135000000Y-73550000I0J-150000D01*
G01*
X135000000Y-74575000D01*
G75*
G02*
X134850000Y-74725000I-150000J0D01*
G01*
X134550000Y-74725000D01*
G75*
G02*
X134400000Y-74575000I0J150000D01*
G01*
X134400000Y-73550000D01*
G75*
G02*
X134550000Y-73400000I150000J0D01*
G01*
G37*
G36*
G01*
X133600000Y-73400000D02*
X133900000Y-73400000D01*
G75*
G02*
X134050000Y-73550000I0J-150000D01*
G01*
X134050000Y-74575000D01*
G75*
G02*
X133900000Y-74725000I-150000J0D01*
G01*
X133600000Y-74725000D01*
G75*
G02*
X133450000Y-74575000I0J150000D01*
G01*
X133450000Y-73550000D01*
G75*
G02*
X133600000Y-73400000I150000J0D01*
G01*
G37*
G36*
G01*
X133600000Y-75675000D02*
X133900000Y-75675000D01*
G75*
G02*
X134050000Y-75825000I0J-150000D01*
G01*
X134050000Y-76850000D01*
G75*
G02*
X133900000Y-77000000I-150000J0D01*
G01*
X133600000Y-77000000D01*
G75*
G02*
X133450000Y-76850000I0J150000D01*
G01*
X133450000Y-75825000D01*
G75*
G02*
X133600000Y-75675000I150000J0D01*
G01*
G37*
G36*
G01*
X135500000Y-75675000D02*
X135800000Y-75675000D01*
G75*
G02*
X135950000Y-75825000I0J-150000D01*
G01*
X135950000Y-76850000D01*
G75*
G02*
X135800000Y-77000000I-150000J0D01*
G01*
X135500000Y-77000000D01*
G75*
G02*
X135350000Y-76850000I0J150000D01*
G01*
X135350000Y-75825000D01*
G75*
G02*
X135500000Y-75675000I150000J0D01*
G01*
G37*
G04 #@! TD*
G04 #@! TO.C,C2*
G36*
G01*
X136025000Y-78030000D02*
X136025000Y-78530000D01*
G75*
G02*
X135800000Y-78755000I-225000J0D01*
G01*
X135350000Y-78755000D01*
G75*
G02*
X135125000Y-78530000I0J225000D01*
G01*
X135125000Y-78030000D01*
G75*
G02*
X135350000Y-77805000I225000J0D01*
G01*
X135800000Y-77805000D01*
G75*
G02*
X136025000Y-78030000I0J-225000D01*
G01*
G37*
G36*
G01*
X134475000Y-78030000D02*
X134475000Y-78530000D01*
G75*
G02*
X134250000Y-78755000I-225000J0D01*
G01*
X133800000Y-78755000D01*
G75*
G02*
X133575000Y-78530000I0J225000D01*
G01*
X133575000Y-78030000D01*
G75*
G02*
X133800000Y-77805000I225000J0D01*
G01*
X134250000Y-77805000D01*
G75*
G02*
X134475000Y-78030000I0J-225000D01*
G01*
G37*
G04 #@! TD*
G04 #@! TO.C,C1*
G36*
G01*
X133645000Y-72330000D02*
X133645000Y-71830000D01*
G75*
G02*
X133870000Y-71605000I225000J0D01*
G01*
X134320000Y-71605000D01*
G75*
G02*
X134545000Y-71830000I0J-225000D01*
G01*
X134545000Y-72330000D01*
G75*
G02*
X134320000Y-72555000I-225000J0D01*
G01*
X133870000Y-72555000D01*
G75*
G02*
X133645000Y-72330000I0J225000D01*
G01*
G37*
G36*
G01*
X135195000Y-72330000D02*
X135195000Y-71830000D01*
G75*
G02*
X135420000Y-71605000I225000J0D01*
G01*
X135870000Y-71605000D01*
G75*
G02*
X136095000Y-71830000I0J-225000D01*
G01*
X136095000Y-72330000D01*
G75*
G02*
X135870000Y-72555000I-225000J0D01*
G01*
X135420000Y-72555000D01*
G75*
G02*
X135195000Y-72330000I0J225000D01*
G01*
G37*
G04 #@! TD*
D12*
G04 #@! TO.C,U1*
X160675000Y-117200000D03*
D13*
X160975000Y-114170000D03*
X165825000Y-114170000D03*
D12*
X166125000Y-117200000D03*
D14*
X173190000Y-117330000D03*
X173190000Y-114790000D03*
X173190000Y-112250000D03*
X173190000Y-109710000D03*
X173190000Y-107170000D03*
X173190000Y-104630000D03*
X173190000Y-102090000D03*
X173190000Y-99550000D03*
X173190000Y-97010000D03*
X173190000Y-94470000D03*
X173190000Y-91930000D03*
X173190000Y-89390000D03*
X173190000Y-86850000D03*
X173190000Y-84310000D03*
X173190000Y-81770000D03*
X173190000Y-79230000D03*
X173190000Y-76690000D03*
X173190000Y-74150000D03*
X173190000Y-71610000D03*
X173190000Y-69070000D03*
X153610000Y-69070000D03*
X153610000Y-71610000D03*
X153610000Y-74150000D03*
X153610000Y-76690000D03*
X153610000Y-79230000D03*
X153610000Y-81770000D03*
X153610000Y-84310000D03*
X153610000Y-86850000D03*
X153610000Y-89390000D03*
X153610000Y-91930000D03*
X153610000Y-94470000D03*
X153610000Y-97010000D03*
X153610000Y-99550000D03*
X153610000Y-102090000D03*
X153610000Y-104630000D03*
X153610000Y-107170000D03*
X153610000Y-109710000D03*
X153610000Y-112250000D03*
X153610000Y-114790000D03*
X153610000Y-117330000D03*
G04 #@! TD*
M02*
