M48
; DRILL file {KiCad (6.0.9)} date Sun Jul 14 21:11:07 2024
; FORMAT={-:-/ absolute / inch / decimal}
; #@! TF.CreationDate,2024-07-14T21:11:07-07:00
; #@! TF.GenerationSoftware,Kicad,Pcbnew,(6.0.9)
; #@! TF.FileFunction,Plated,1,4,PTH
FMAT,2
INCH
; #@! TA.AperFunction,Plated,PTH,ViaDrill
T1C0.0118
; #@! TA.AperFunction,Plated,PTH,ViaDrill
T2C0.0157
; #@! TA.AperFunction,Plated,PTH,ComponentDrill
T3C0.0394
%
G90
G05
T1
X5.1929Y-3.4961
X5.1929Y-3.5433
X5.1929Y-3.5866
X5.1929Y-3.626
X5.1929Y-3.6654
X5.1929Y-3.7087
X5.1929Y-3.811
X5.2323Y-2.9134
X5.2362Y-2.8386
X5.2362Y-3.063
X5.2362Y-3.1024
X5.2795Y-2.7992
X5.2913Y-3.8504
X5.2913Y-3.8819
X5.2953Y-3.4961
X5.3031Y-2.874
X5.3031Y-2.9606
X5.3031Y-3.811
X5.3268Y-3.8504
X5.3268Y-3.8819
X5.3406Y-2.876
X5.9567Y-2.9016
X5.9567Y-2.9409
X5.9567Y-3.4016
X5.9567Y-3.4409
X5.9567Y-3.9016
X5.9567Y-3.9409
X5.9567Y-4.2008
X5.9567Y-4.2402
X5.9567Y-4.3976
X5.9567Y-4.437
X6.1339Y-2.9055
X6.1339Y-2.9449
X6.1339Y-3.9016
X6.1339Y-3.9409
X6.1378Y-3.4016
X6.1378Y-3.4409
X6.1378Y-4.2008
X6.1378Y-4.2402
X6.1417Y-4.3976
X6.1417Y-4.437
X6.7283Y-4.4016
X6.7283Y-4.4409
X6.7323Y-2.9055
X6.7323Y-2.9449
X6.7323Y-3.4055
X6.7323Y-3.4449
X6.7323Y-3.9016
X6.7323Y-3.9409
X6.9016Y-3.4055
X6.9016Y-3.4449
X6.9055Y-2.9016
X6.9055Y-2.9409
X6.9055Y-3.9016
X6.9055Y-3.9409
X6.9094Y-4.4016
X6.9094Y-4.4409
T2
X5.5906Y-3.1181
X5.7165Y-2.8268
X5.748Y-3.0197
X5.8642Y-3.7894
X5.9366Y-3.3193
X5.9488Y-3.0197
X5.9488Y-3.1181
X5.9528Y-2.8228
T3
X5.4572Y-3.2564
X5.5279Y-3.3271
X5.5986Y-3.3978
X5.6693Y-3.4685
X5.74Y-3.5392
X5.8107Y-3.6099
T0
M30
