G04 #@! TF.GenerationSoftware,KiCad,Pcbnew,(6.0.9)*
G04 #@! TF.CreationDate,2024-07-14T21:11:06-07:00*
G04 #@! TF.ProjectId,AccArray_PICO,41636341-7272-4617-995f-5049434f2e6b,rev?*
G04 #@! TF.SameCoordinates,Original*
G04 #@! TF.FileFunction,Copper,L1,Top*
G04 #@! TF.FilePolarity,Positive*
%FSLAX46Y46*%
G04 Gerber Fmt 4.6, Leading zero omitted, Abs format (unit mm)*
G04 Created by KiCad (PCBNEW (6.0.9)) date 2024-07-14 21:11:06*
%MOMM*%
%LPD*%
G01*
G04 APERTURE LIST*
G04 #@! TA.AperFunction,SMDPad,CuDef*
%ADD10R,1.300000X0.300000*%
G04 #@! TD*
G04 #@! TA.AperFunction,SMDPad,CuDef*
%ADD11R,2.200000X1.800000*%
G04 #@! TD*
G04 #@! TA.AperFunction,SMDPad,CuDef*
%ADD12R,3.500000X1.700000*%
G04 #@! TD*
G04 #@! TA.AperFunction,ViaPad*
%ADD13C,0.503200*%
G04 #@! TD*
G04 #@! TA.AperFunction,ViaPad*
%ADD14C,0.800000*%
G04 #@! TD*
G04 #@! TA.AperFunction,Conductor*
%ADD15C,1.000000*%
G04 #@! TD*
G04 #@! TA.AperFunction,Conductor*
%ADD16C,0.250000*%
G04 #@! TD*
G04 #@! TA.AperFunction,Conductor*
%ADD17C,0.500000*%
G04 #@! TD*
G04 APERTURE END LIST*
G04 #@! TO.P,J2,6,Pin_6*
G04 #@! TO.N,GND*
G04 #@! TA.AperFunction,ComponentPad*
G36*
G01*
X139212887Y-82110805D02*
X139212887Y-82110805D01*
G75*
G02*
X139212887Y-83312887I-601041J-601041D01*
G01*
X139212887Y-83312887D01*
G75*
G02*
X138010805Y-83312887I-601041J601041D01*
G01*
X138010805Y-83312887D01*
G75*
G02*
X138010805Y-82110805I601041J601041D01*
G01*
X138010805Y-82110805D01*
G75*
G02*
X139212887Y-82110805I601041J-601041D01*
G01*
G37*
G04 #@! TD.AperFunction*
G04 #@! TO.P,J2,5,Pin_5*
G04 #@! TO.N,FPGA_SI*
G04 #@! TA.AperFunction,ComponentPad*
G36*
G01*
X141008938Y-83906856D02*
X141008938Y-83906856D01*
G75*
G02*
X141008938Y-85108938I-601041J-601041D01*
G01*
X141008938Y-85108938D01*
G75*
G02*
X139806856Y-85108938I-601041J601041D01*
G01*
X139806856Y-85108938D01*
G75*
G02*
X139806856Y-83906856I601041J601041D01*
G01*
X139806856Y-83906856D01*
G75*
G02*
X141008938Y-83906856I601041J-601041D01*
G01*
G37*
G04 #@! TD.AperFunction*
G04 #@! TO.P,J2,4,Pin_4*
G04 #@! TO.N,FPGA_CS*
G04 #@! TA.AperFunction,ComponentPad*
G36*
G01*
X142804989Y-85702907D02*
X142804989Y-85702907D01*
G75*
G02*
X142804989Y-86904989I-601041J-601041D01*
G01*
X142804989Y-86904989D01*
G75*
G02*
X141602907Y-86904989I-601041J601041D01*
G01*
X141602907Y-86904989D01*
G75*
G02*
X141602907Y-85702907I601041J601041D01*
G01*
X141602907Y-85702907D01*
G75*
G02*
X142804989Y-85702907I601041J-601041D01*
G01*
G37*
G04 #@! TD.AperFunction*
G04 #@! TO.P,J2,3,Pin_3*
G04 #@! TO.N,FPGA_SCK*
G04 #@! TA.AperFunction,ComponentPad*
G36*
G01*
X144601041Y-87498959D02*
X144601041Y-87498959D01*
G75*
G02*
X144601041Y-88701041I-601041J-601041D01*
G01*
X144601041Y-88701041D01*
G75*
G02*
X143398959Y-88701041I-601041J601041D01*
G01*
X143398959Y-88701041D01*
G75*
G02*
X143398959Y-87498959I601041J601041D01*
G01*
X143398959Y-87498959D01*
G75*
G02*
X144601041Y-87498959I601041J-601041D01*
G01*
G37*
G04 #@! TD.AperFunction*
G04 #@! TO.P,J2,2,Pin_2*
G04 #@! TO.N,FPGA_SO*
G04 #@! TA.AperFunction,ComponentPad*
G36*
G01*
X146397092Y-89295010D02*
X146397092Y-89295010D01*
G75*
G02*
X146397092Y-90497092I-601041J-601041D01*
G01*
X146397092Y-90497092D01*
G75*
G02*
X145195010Y-90497092I-601041J601041D01*
G01*
X145195010Y-90497092D01*
G75*
G02*
X145195010Y-89295010I601041J601041D01*
G01*
X145195010Y-89295010D01*
G75*
G02*
X146397092Y-89295010I601041J-601041D01*
G01*
G37*
G04 #@! TD.AperFunction*
G04 #@! TA.AperFunction,ComponentPad*
G04 #@! TO.P,J2,1,Pin_1*
G04 #@! TO.N,FSYNC*
G36*
X147592102Y-90490020D02*
G01*
X148794184Y-91692102D01*
X147592102Y-92894184D01*
X146390020Y-91692102D01*
X147592102Y-90490020D01*
G37*
G04 #@! TD.AperFunction*
G04 #@! TD*
D10*
G04 #@! TO.P,J1,1,Pin_1*
G04 #@! TO.N,+1V2*
X133200000Y-87550000D03*
G04 #@! TO.P,J1,2,Pin_2*
X133200000Y-88050000D03*
G04 #@! TO.P,J1,3,Pin_3*
G04 #@! TO.N,GND*
X133200000Y-88550000D03*
G04 #@! TO.P,J1,4,Pin_4*
X133200000Y-89050000D03*
G04 #@! TO.P,J1,5,Pin_5*
G04 #@! TO.N,FPGA_SI*
X133200000Y-89550000D03*
G04 #@! TO.P,J1,6,Pin_6*
G04 #@! TO.N,GND*
X133200000Y-90050000D03*
G04 #@! TO.P,J1,7,Pin_7*
G04 #@! TO.N,FPGA_CS*
X133200000Y-90550000D03*
G04 #@! TO.P,J1,8,Pin_8*
G04 #@! TO.N,GND*
X133200000Y-91050000D03*
G04 #@! TO.P,J1,9,Pin_9*
G04 #@! TO.N,FPGA_SCK*
X133200000Y-91550000D03*
G04 #@! TO.P,J1,10,Pin_10*
G04 #@! TO.N,GND*
X133200000Y-92050000D03*
G04 #@! TO.P,J1,11,Pin_11*
G04 #@! TO.N,FPGA_SO*
X133200000Y-92550000D03*
G04 #@! TO.P,J1,12,Pin_12*
G04 #@! TO.N,GND*
X133200000Y-93050000D03*
G04 #@! TO.P,J1,13,Pin_13*
G04 #@! TO.N,FSYNC*
X133200000Y-93550000D03*
G04 #@! TO.P,J1,14,Pin_14*
G04 #@! TO.N,GND*
X133200000Y-94050000D03*
G04 #@! TO.P,J1,15,Pin_15*
G04 #@! TO.N,FPGA_CDONE*
X133200000Y-94550000D03*
G04 #@! TO.P,J1,16,Pin_16*
G04 #@! TO.N,FPGA_RST*
X133200000Y-95050000D03*
G04 #@! TO.P,J1,17,Pin_17*
G04 #@! TO.N,IMU_CS*
X133200000Y-95550000D03*
G04 #@! TO.P,J1,18,Pin_18*
G04 #@! TO.N,IMU1_INT*
X133200000Y-96050000D03*
G04 #@! TO.P,J1,19,Pin_19*
G04 #@! TO.N,GND*
X133200000Y-96550000D03*
G04 #@! TO.P,J1,20,Pin_20*
X133200000Y-97050000D03*
G04 #@! TO.P,J1,21,Pin_21*
G04 #@! TO.N,+3V3*
X133200000Y-97550000D03*
G04 #@! TO.P,J1,22,Pin_22*
X133200000Y-98050000D03*
D11*
G04 #@! TO.P,J1,MP*
G04 #@! TO.N,N/C*
X129950000Y-85650000D03*
X129950000Y-99950000D03*
G04 #@! TD*
G04 #@! TO.P,U2,1,IN*
G04 #@! TO.N,+3V3*
G04 #@! TA.AperFunction,SMDPad,CuDef*
G36*
G01*
X135500000Y-73400000D02*
X135800000Y-73400000D01*
G75*
G02*
X135950000Y-73550000I0J-150000D01*
G01*
X135950000Y-74575000D01*
G75*
G02*
X135800000Y-74725000I-150000J0D01*
G01*
X135500000Y-74725000D01*
G75*
G02*
X135350000Y-74575000I0J150000D01*
G01*
X135350000Y-73550000D01*
G75*
G02*
X135500000Y-73400000I150000J0D01*
G01*
G37*
G04 #@! TD.AperFunction*
G04 #@! TO.P,U2,2,GND*
G04 #@! TO.N,GND*
G04 #@! TA.AperFunction,SMDPad,CuDef*
G36*
G01*
X134550000Y-73400000D02*
X134850000Y-73400000D01*
G75*
G02*
X135000000Y-73550000I0J-150000D01*
G01*
X135000000Y-74575000D01*
G75*
G02*
X134850000Y-74725000I-150000J0D01*
G01*
X134550000Y-74725000D01*
G75*
G02*
X134400000Y-74575000I0J150000D01*
G01*
X134400000Y-73550000D01*
G75*
G02*
X134550000Y-73400000I150000J0D01*
G01*
G37*
G04 #@! TD.AperFunction*
G04 #@! TO.P,U2,3,EN*
G04 #@! TO.N,+3V3*
G04 #@! TA.AperFunction,SMDPad,CuDef*
G36*
G01*
X133600000Y-73400000D02*
X133900000Y-73400000D01*
G75*
G02*
X134050000Y-73550000I0J-150000D01*
G01*
X134050000Y-74575000D01*
G75*
G02*
X133900000Y-74725000I-150000J0D01*
G01*
X133600000Y-74725000D01*
G75*
G02*
X133450000Y-74575000I0J150000D01*
G01*
X133450000Y-73550000D01*
G75*
G02*
X133600000Y-73400000I150000J0D01*
G01*
G37*
G04 #@! TD.AperFunction*
G04 #@! TO.P,U2,4,NC*
G04 #@! TO.N,unconnected-(U2-Pad4)*
G04 #@! TA.AperFunction,SMDPad,CuDef*
G36*
G01*
X133600000Y-75675000D02*
X133900000Y-75675000D01*
G75*
G02*
X134050000Y-75825000I0J-150000D01*
G01*
X134050000Y-76850000D01*
G75*
G02*
X133900000Y-77000000I-150000J0D01*
G01*
X133600000Y-77000000D01*
G75*
G02*
X133450000Y-76850000I0J150000D01*
G01*
X133450000Y-75825000D01*
G75*
G02*
X133600000Y-75675000I150000J0D01*
G01*
G37*
G04 #@! TD.AperFunction*
G04 #@! TO.P,U2,5,OUT*
G04 #@! TO.N,+1V2*
G04 #@! TA.AperFunction,SMDPad,CuDef*
G36*
G01*
X135500000Y-75675000D02*
X135800000Y-75675000D01*
G75*
G02*
X135950000Y-75825000I0J-150000D01*
G01*
X135950000Y-76850000D01*
G75*
G02*
X135800000Y-77000000I-150000J0D01*
G01*
X135500000Y-77000000D01*
G75*
G02*
X135350000Y-76850000I0J150000D01*
G01*
X135350000Y-75825000D01*
G75*
G02*
X135500000Y-75675000I150000J0D01*
G01*
G37*
G04 #@! TD.AperFunction*
G04 #@! TD*
G04 #@! TO.P,C2,1*
G04 #@! TO.N,+1V2*
G04 #@! TA.AperFunction,SMDPad,CuDef*
G36*
G01*
X136025000Y-78030000D02*
X136025000Y-78530000D01*
G75*
G02*
X135800000Y-78755000I-225000J0D01*
G01*
X135350000Y-78755000D01*
G75*
G02*
X135125000Y-78530000I0J225000D01*
G01*
X135125000Y-78030000D01*
G75*
G02*
X135350000Y-77805000I225000J0D01*
G01*
X135800000Y-77805000D01*
G75*
G02*
X136025000Y-78030000I0J-225000D01*
G01*
G37*
G04 #@! TD.AperFunction*
G04 #@! TO.P,C2,2*
G04 #@! TO.N,GND*
G04 #@! TA.AperFunction,SMDPad,CuDef*
G36*
G01*
X134475000Y-78030000D02*
X134475000Y-78530000D01*
G75*
G02*
X134250000Y-78755000I-225000J0D01*
G01*
X133800000Y-78755000D01*
G75*
G02*
X133575000Y-78530000I0J225000D01*
G01*
X133575000Y-78030000D01*
G75*
G02*
X133800000Y-77805000I225000J0D01*
G01*
X134250000Y-77805000D01*
G75*
G02*
X134475000Y-78030000I0J-225000D01*
G01*
G37*
G04 #@! TD.AperFunction*
G04 #@! TD*
G04 #@! TO.P,C1,1*
G04 #@! TO.N,GND*
G04 #@! TA.AperFunction,SMDPad,CuDef*
G36*
G01*
X133645000Y-72330000D02*
X133645000Y-71830000D01*
G75*
G02*
X133870000Y-71605000I225000J0D01*
G01*
X134320000Y-71605000D01*
G75*
G02*
X134545000Y-71830000I0J-225000D01*
G01*
X134545000Y-72330000D01*
G75*
G02*
X134320000Y-72555000I-225000J0D01*
G01*
X133870000Y-72555000D01*
G75*
G02*
X133645000Y-72330000I0J225000D01*
G01*
G37*
G04 #@! TD.AperFunction*
G04 #@! TO.P,C1,2*
G04 #@! TO.N,+3V3*
G04 #@! TA.AperFunction,SMDPad,CuDef*
G36*
G01*
X135195000Y-72330000D02*
X135195000Y-71830000D01*
G75*
G02*
X135420000Y-71605000I225000J0D01*
G01*
X135870000Y-71605000D01*
G75*
G02*
X136095000Y-71830000I0J-225000D01*
G01*
X136095000Y-72330000D01*
G75*
G02*
X135870000Y-72555000I-225000J0D01*
G01*
X135420000Y-72555000D01*
G75*
G02*
X135195000Y-72330000I0J225000D01*
G01*
G37*
G04 #@! TD.AperFunction*
G04 #@! TD*
D12*
G04 #@! TO.P,U1,1,GPIO0*
G04 #@! TO.N,unconnected-(U1-Pad1)*
X173190000Y-117330000D03*
G04 #@! TO.P,U1,2,GPIO1*
G04 #@! TO.N,unconnected-(U1-Pad2)*
X173190000Y-114790000D03*
G04 #@! TO.P,U1,3,GND*
G04 #@! TO.N,GND*
X173190000Y-112250000D03*
G04 #@! TO.P,U1,4,GPIO2*
G04 #@! TO.N,unconnected-(U1-Pad4)*
X173190000Y-109710000D03*
G04 #@! TO.P,U1,5,GPIO3*
G04 #@! TO.N,unconnected-(U1-Pad5)*
X173190000Y-107170000D03*
G04 #@! TO.P,U1,6,GPIO4*
G04 #@! TO.N,unconnected-(U1-Pad6)*
X173190000Y-104630000D03*
G04 #@! TO.P,U1,7,GPIO5*
G04 #@! TO.N,unconnected-(U1-Pad7)*
X173190000Y-102090000D03*
G04 #@! TO.P,U1,8,GND*
G04 #@! TO.N,GND*
X173190000Y-99550000D03*
G04 #@! TO.P,U1,9,GPIO6*
G04 #@! TO.N,unconnected-(U1-Pad9)*
X173190000Y-97010000D03*
G04 #@! TO.P,U1,10,GPIO7*
G04 #@! TO.N,unconnected-(U1-Pad10)*
X173190000Y-94470000D03*
G04 #@! TO.P,U1,11,GPIO8*
G04 #@! TO.N,unconnected-(U1-Pad11)*
X173190000Y-91930000D03*
G04 #@! TO.P,U1,12,GPIO9*
G04 #@! TO.N,unconnected-(U1-Pad12)*
X173190000Y-89390000D03*
G04 #@! TO.P,U1,13,GND*
G04 #@! TO.N,GND*
X173190000Y-86850000D03*
G04 #@! TO.P,U1,14,GPIO10*
G04 #@! TO.N,unconnected-(U1-Pad14)*
X173190000Y-84310000D03*
G04 #@! TO.P,U1,15,GPIO11*
G04 #@! TO.N,unconnected-(U1-Pad15)*
X173190000Y-81770000D03*
G04 #@! TO.P,U1,16,GPIO12*
G04 #@! TO.N,unconnected-(U1-Pad16)*
X173190000Y-79230000D03*
G04 #@! TO.P,U1,17,GPIO13*
G04 #@! TO.N,unconnected-(U1-Pad17)*
X173190000Y-76690000D03*
G04 #@! TO.P,U1,18,GND*
G04 #@! TO.N,GND*
X173190000Y-74150000D03*
G04 #@! TO.P,U1,19,GPIO14*
G04 #@! TO.N,unconnected-(U1-Pad19)*
X173190000Y-71610000D03*
G04 #@! TO.P,U1,20,GPIO15*
G04 #@! TO.N,unconnected-(U1-Pad20)*
X173190000Y-69070000D03*
G04 #@! TO.P,U1,21,GPIO16*
G04 #@! TO.N,FPGA_SO*
X153610000Y-69070000D03*
G04 #@! TO.P,U1,22,GPIO17*
G04 #@! TO.N,FPGA_CS*
X153610000Y-71610000D03*
G04 #@! TO.P,U1,23,GND*
G04 #@! TO.N,GND*
X153610000Y-74150000D03*
G04 #@! TO.P,U1,24,GPIO18*
G04 #@! TO.N,FPGA_SCK*
X153610000Y-76690000D03*
G04 #@! TO.P,U1,25,GPIO19*
G04 #@! TO.N,FPGA_SI*
X153610000Y-79230000D03*
G04 #@! TO.P,U1,26,GPIO20*
G04 #@! TO.N,unconnected-(U1-Pad26)*
X153610000Y-81770000D03*
G04 #@! TO.P,U1,27,GPIO21*
G04 #@! TO.N,IMU_CS*
X153610000Y-84310000D03*
G04 #@! TO.P,U1,28,GND*
G04 #@! TO.N,GND*
X153610000Y-86850000D03*
G04 #@! TO.P,U1,29,GPIO22*
G04 #@! TO.N,FSYNC*
X153610000Y-89390000D03*
G04 #@! TO.P,U1,30,RUN*
G04 #@! TO.N,unconnected-(U1-Pad30)*
X153610000Y-91930000D03*
G04 #@! TO.P,U1,31,GPIO26_ADC0*
G04 #@! TO.N,FPGA_CDONE*
X153610000Y-94470000D03*
G04 #@! TO.P,U1,32,GPIO27_ADC1*
G04 #@! TO.N,FPGA_RST*
X153610000Y-97010000D03*
G04 #@! TO.P,U1,33,AGND*
G04 #@! TO.N,GND*
X153610000Y-99550000D03*
G04 #@! TO.P,U1,34,GPIO28_ADC2*
G04 #@! TO.N,IMU1_INT*
X153610000Y-102090000D03*
G04 #@! TO.P,U1,35,ADC_VREF*
G04 #@! TO.N,unconnected-(U1-Pad35)*
X153610000Y-104630000D03*
G04 #@! TO.P,U1,36,3V3*
G04 #@! TO.N,+3V3*
X153610000Y-107170000D03*
G04 #@! TO.P,U1,37,3V3_EN*
G04 #@! TO.N,unconnected-(U1-Pad37)*
X153610000Y-109710000D03*
G04 #@! TO.P,U1,38,GND*
G04 #@! TO.N,GND*
X153610000Y-112250000D03*
G04 #@! TO.P,U1,39,VSYS*
G04 #@! TO.N,+5V*
X153610000Y-114790000D03*
G04 #@! TO.P,U1,40,VBUS*
G04 #@! TO.N,VBUS*
X153610000Y-117330000D03*
G04 #@! TD*
D13*
G04 #@! TO.N,GND*
X134700000Y-73000000D03*
G04 #@! TO.N,+3V3*
X155900000Y-107700000D03*
X155900000Y-106700000D03*
X151300000Y-107700000D03*
X151300000Y-106700000D03*
X135300000Y-97800000D03*
X135300000Y-98600000D03*
X134400000Y-98600000D03*
X134400000Y-97800000D03*
G04 #@! TO.N,GND*
X175500000Y-112800000D03*
X175500000Y-111800000D03*
X170900000Y-112800000D03*
X170900000Y-111800000D03*
X171000000Y-100100000D03*
X171000000Y-99100000D03*
X175400000Y-100100000D03*
X175400000Y-99100000D03*
X171000000Y-87500000D03*
X171000000Y-86500000D03*
X175300000Y-87500000D03*
X175300000Y-86500000D03*
X171000000Y-74800000D03*
X171000000Y-73800000D03*
X175400000Y-74700000D03*
X175400000Y-73700000D03*
X155800000Y-74800000D03*
X155800000Y-73800000D03*
X151300000Y-74700000D03*
X151300000Y-73700000D03*
X151300000Y-87400000D03*
X151300000Y-86400000D03*
X155900000Y-87400000D03*
X155900000Y-86400000D03*
X155800000Y-100100000D03*
X155800000Y-99100000D03*
X151300000Y-100100000D03*
X151300000Y-99100000D03*
X151300000Y-112700000D03*
X151300000Y-111700000D03*
X156000000Y-112700000D03*
X156000000Y-111700000D03*
X134700000Y-96800000D03*
X131900000Y-96800000D03*
X131900000Y-94200000D03*
X131900000Y-93100000D03*
X131900000Y-92100000D03*
X131900000Y-91100000D03*
X131900000Y-90000000D03*
X131900000Y-88800000D03*
X134500000Y-88800000D03*
X133000000Y-78800000D03*
X133000000Y-77800000D03*
X134700000Y-75200000D03*
X133000000Y-72100000D03*
X134100000Y-71100000D03*
G04 #@! TO.N,+3V3*
X132900000Y-74000000D03*
X135650000Y-73050000D03*
D14*
G04 #@! TO.N,IMU_CS*
X148950000Y-96250000D03*
X150790000Y-84310000D03*
G04 #@! TO.N,FPGA_SI*
X151100000Y-79200000D03*
X142000000Y-79200000D03*
G04 #@! TO.N,FPGA_CS*
X151200000Y-71700000D03*
X145200000Y-71800000D03*
G04 #@! TO.N,FPGA_SCK*
X151100000Y-76700000D03*
X146000000Y-76700000D03*
G04 #@! TD*
D15*
G04 #@! TO.N,+1V2*
X134800000Y-87700000D02*
X133800000Y-87700000D01*
X135575000Y-76412500D02*
X135575000Y-86925000D01*
X135575000Y-86925000D02*
X134800000Y-87700000D01*
D16*
G04 #@! TO.N,IMU1_INT*
X149090000Y-102090000D02*
X154510000Y-102090000D01*
X143050000Y-96050000D02*
X149090000Y-102090000D01*
X133200000Y-96050000D02*
X143050000Y-96050000D01*
D17*
G04 #@! TO.N,+1V2*
X135650000Y-78205000D02*
X135650000Y-76337500D01*
X135575000Y-78280000D02*
X135650000Y-78205000D01*
X135650000Y-78355000D02*
X135575000Y-78280000D01*
X135650000Y-86050000D02*
X135650000Y-78355000D01*
X133500000Y-87800000D02*
X133900000Y-87800000D01*
G04 #@! TO.N,+3V3*
X135645000Y-74057500D02*
X135650000Y-74062500D01*
X135645000Y-72080000D02*
X135645000Y-74057500D01*
D16*
G04 #@! TO.N,FPGA_SO*
X148000000Y-87692102D02*
X143142102Y-92550000D01*
X150230000Y-69070000D02*
X148000000Y-71300000D01*
X154510000Y-69070000D02*
X150230000Y-69070000D01*
X148000000Y-71300000D02*
X148000000Y-87692102D01*
X143142102Y-92550000D02*
X133200000Y-92550000D01*
G04 #@! TO.N,+3V3*
X132962500Y-74062500D02*
X132900000Y-74000000D01*
X133750000Y-74062500D02*
X132962500Y-74062500D01*
G04 #@! TO.N,FPGA_RST*
X149350000Y-95050000D02*
X151310000Y-97010000D01*
X133200000Y-95050000D02*
X149350000Y-95050000D01*
X151310000Y-97010000D02*
X154510000Y-97010000D01*
G04 #@! TO.N,IMU_CS*
X148250000Y-95550000D02*
X133200000Y-95550000D01*
X148950000Y-96250000D02*
X148250000Y-95550000D01*
G04 #@! TO.N,FPGA_CS*
X144000000Y-73000000D02*
X145200000Y-71800000D01*
X137957896Y-90550000D02*
X144000000Y-84507896D01*
X144000000Y-84507896D02*
X144000000Y-73000000D01*
X133200000Y-90550000D02*
X137957896Y-90550000D01*
G04 #@! TO.N,FPGA_SCK*
X146000000Y-76700000D02*
X146000000Y-86100000D01*
X146000000Y-86100000D02*
X140550000Y-91550000D01*
X140550000Y-91550000D02*
X133200000Y-91550000D01*
G04 #@! TO.N,IMU_CS*
X150790000Y-84310000D02*
X154510000Y-84310000D01*
G04 #@! TO.N,FPGA_SI*
X135365794Y-89550000D02*
X133200000Y-89550000D01*
X142000000Y-82915794D02*
X135365794Y-89550000D01*
X142000000Y-79200000D02*
X142000000Y-82915794D01*
G04 #@! TO.N,FSYNC*
X149894204Y-89390000D02*
X154510000Y-89390000D01*
X145734204Y-93550000D02*
X149894204Y-89390000D01*
X133200000Y-93550000D02*
X145734204Y-93550000D01*
G04 #@! TO.N,FPGA_CDONE*
X154430000Y-94550000D02*
X154510000Y-94470000D01*
X133200000Y-94550000D02*
X154430000Y-94550000D01*
G04 #@! TO.N,FPGA_SI*
X154480000Y-79200000D02*
X154510000Y-79230000D01*
X151100000Y-79200000D02*
X154480000Y-79200000D01*
G04 #@! TO.N,FPGA_CS*
X151290000Y-71610000D02*
X154510000Y-71610000D01*
X151200000Y-71700000D02*
X151290000Y-71610000D01*
G04 #@! TO.N,FPGA_SCK*
X154500000Y-76700000D02*
X154510000Y-76690000D01*
X151100000Y-76700000D02*
X154500000Y-76700000D01*
G04 #@! TD*
G04 #@! TA.AperFunction,Conductor*
G04 #@! TO.N,+3V3*
G36*
X135542121Y-97420002D02*
G01*
X135588614Y-97473658D01*
X135600000Y-97526000D01*
X135600000Y-98774000D01*
X135579998Y-98842121D01*
X135526342Y-98888614D01*
X135474000Y-98900000D01*
X132626000Y-98900000D01*
X132557879Y-98879998D01*
X132511386Y-98826342D01*
X132500000Y-98774000D01*
X132500000Y-97526500D01*
X132520002Y-97458379D01*
X132573658Y-97411886D01*
X132626000Y-97400500D01*
X133869748Y-97400500D01*
X133871422Y-97400167D01*
X133874826Y-97400000D01*
X135474000Y-97400000D01*
X135542121Y-97420002D01*
G37*
G04 #@! TD.AperFunction*
G04 #@! TD*
G04 #@! TA.AperFunction,Conductor*
G04 #@! TO.N,+1V2*
G36*
X134442121Y-87220002D02*
G01*
X134488614Y-87273658D01*
X134500000Y-87326000D01*
X134500000Y-88074000D01*
X134479998Y-88142121D01*
X134426342Y-88188614D01*
X134374000Y-88200000D01*
X133874826Y-88200000D01*
X133871422Y-88199833D01*
X133869748Y-88199500D01*
X132530252Y-88199500D01*
X132530252Y-88197775D01*
X132468602Y-88186086D01*
X132417072Y-88137249D01*
X132400000Y-88073919D01*
X132400000Y-87326000D01*
X132420002Y-87257879D01*
X132473658Y-87211386D01*
X132526000Y-87200000D01*
X134374000Y-87200000D01*
X134442121Y-87220002D01*
G37*
G04 #@! TD.AperFunction*
G04 #@! TD*
G04 #@! TA.AperFunction,Conductor*
G04 #@! TO.N,GND*
G36*
X174980242Y-67202466D02*
G01*
X174985811Y-67202476D01*
X174999641Y-67205656D01*
X175013481Y-67202524D01*
X175027670Y-67202549D01*
X175027669Y-67203161D01*
X175035608Y-67202500D01*
X175185047Y-67210892D01*
X175306384Y-67217706D01*
X175320416Y-67219287D01*
X175615972Y-67269504D01*
X175629743Y-67272647D01*
X175917820Y-67355641D01*
X175931151Y-67360306D01*
X176208125Y-67475032D01*
X176220848Y-67481159D01*
X176332841Y-67543056D01*
X176483228Y-67626172D01*
X176495192Y-67633689D01*
X176739691Y-67807170D01*
X176750738Y-67815980D01*
X176974269Y-68015740D01*
X176984259Y-68025730D01*
X177019854Y-68065561D01*
X177184020Y-68249262D01*
X177192830Y-68260309D01*
X177366311Y-68504808D01*
X177373828Y-68516772D01*
X177456944Y-68667159D01*
X177517524Y-68776768D01*
X177518839Y-68779148D01*
X177524968Y-68791875D01*
X177538793Y-68825250D01*
X177639692Y-69068843D01*
X177644359Y-69082180D01*
X177727353Y-69370257D01*
X177730496Y-69384028D01*
X177778235Y-69664998D01*
X177780712Y-69679579D01*
X177782294Y-69693616D01*
X177796458Y-69945816D01*
X177797469Y-69963825D01*
X177796803Y-69971621D01*
X177797549Y-69971622D01*
X177797524Y-69985813D01*
X177794344Y-69999641D01*
X177797475Y-70013480D01*
X177797467Y-70018311D01*
X177799500Y-70036504D01*
X177799500Y-115962920D01*
X177797534Y-115980242D01*
X177797524Y-115985811D01*
X177794344Y-115999641D01*
X177797476Y-116013481D01*
X177797451Y-116027670D01*
X177796839Y-116027669D01*
X177797500Y-116035608D01*
X177792117Y-116131465D01*
X177783804Y-116279500D01*
X177782294Y-116306380D01*
X177780713Y-116320416D01*
X177757985Y-116454184D01*
X177730497Y-116615968D01*
X177727353Y-116629743D01*
X177675569Y-116809490D01*
X177644359Y-116917820D01*
X177639694Y-116931151D01*
X177524970Y-117208121D01*
X177518841Y-117220848D01*
X177473135Y-117303547D01*
X177373828Y-117483228D01*
X177366311Y-117495192D01*
X177192830Y-117739691D01*
X177184020Y-117750738D01*
X176984260Y-117974269D01*
X176974269Y-117984260D01*
X176750738Y-118184020D01*
X176739691Y-118192830D01*
X176495192Y-118366311D01*
X176483228Y-118373828D01*
X176468987Y-118381699D01*
X176220848Y-118518841D01*
X176208125Y-118524968D01*
X175931151Y-118639694D01*
X175917820Y-118644359D01*
X175629743Y-118727353D01*
X175615972Y-118730496D01*
X175320416Y-118780713D01*
X175306384Y-118782294D01*
X175036172Y-118797469D01*
X175028379Y-118796803D01*
X175028378Y-118797549D01*
X175014187Y-118797524D01*
X175000359Y-118794344D01*
X174986520Y-118797475D01*
X174981689Y-118797467D01*
X174963496Y-118799500D01*
X129037080Y-118799500D01*
X129019758Y-118797534D01*
X129014189Y-118797524D01*
X129000359Y-118794344D01*
X128986519Y-118797476D01*
X128972330Y-118797451D01*
X128972331Y-118796839D01*
X128964392Y-118797500D01*
X128814953Y-118789108D01*
X128693616Y-118782294D01*
X128679584Y-118780713D01*
X128384028Y-118730496D01*
X128370257Y-118727353D01*
X128082180Y-118644359D01*
X128068849Y-118639694D01*
X127791875Y-118524968D01*
X127779152Y-118518841D01*
X127531013Y-118381699D01*
X127516772Y-118373828D01*
X127504808Y-118366311D01*
X127270059Y-118199748D01*
X151659500Y-118199748D01*
X151671133Y-118258231D01*
X151715448Y-118324552D01*
X151781769Y-118368867D01*
X151793938Y-118371288D01*
X151793939Y-118371288D01*
X151834184Y-118379293D01*
X151840252Y-118380500D01*
X155379748Y-118380500D01*
X155385816Y-118379293D01*
X155426061Y-118371288D01*
X155426062Y-118371288D01*
X155438231Y-118368867D01*
X155504552Y-118324552D01*
X155548867Y-118258231D01*
X155560500Y-118199748D01*
X155560500Y-117171069D01*
X159570164Y-117171069D01*
X159583392Y-117372894D01*
X159584815Y-117378496D01*
X159614452Y-117495192D01*
X159633178Y-117568928D01*
X159717856Y-117752607D01*
X159834588Y-117917780D01*
X159979466Y-118058913D01*
X160147637Y-118171282D01*
X160152940Y-118173560D01*
X160152943Y-118173562D01*
X160241291Y-118211519D01*
X160333470Y-118251122D01*
X160530740Y-118295760D01*
X160536509Y-118295987D01*
X160536512Y-118295987D01*
X160612683Y-118298979D01*
X160732842Y-118303700D01*
X160819132Y-118291189D01*
X160927286Y-118275508D01*
X160927291Y-118275507D01*
X160933007Y-118274678D01*
X160938479Y-118272820D01*
X160938481Y-118272820D01*
X161119067Y-118211519D01*
X161119069Y-118211518D01*
X161124531Y-118209664D01*
X161301001Y-118110837D01*
X161363433Y-118058913D01*
X161452073Y-117985191D01*
X161456505Y-117981505D01*
X161585837Y-117826001D01*
X161684664Y-117649531D01*
X161737056Y-117495192D01*
X161747820Y-117463481D01*
X161747820Y-117463479D01*
X161749678Y-117458007D01*
X161750507Y-117452291D01*
X161750508Y-117452286D01*
X161778167Y-117261516D01*
X161778700Y-117257842D01*
X161780215Y-117200000D01*
X161777557Y-117171069D01*
X165020164Y-117171069D01*
X165033392Y-117372894D01*
X165034815Y-117378496D01*
X165064452Y-117495192D01*
X165083178Y-117568928D01*
X165167856Y-117752607D01*
X165284588Y-117917780D01*
X165429466Y-118058913D01*
X165597637Y-118171282D01*
X165602940Y-118173560D01*
X165602943Y-118173562D01*
X165691291Y-118211519D01*
X165783470Y-118251122D01*
X165980740Y-118295760D01*
X165986509Y-118295987D01*
X165986512Y-118295987D01*
X166062683Y-118298979D01*
X166182842Y-118303700D01*
X166269132Y-118291189D01*
X166377286Y-118275508D01*
X166377291Y-118275507D01*
X166383007Y-118274678D01*
X166388479Y-118272820D01*
X166388481Y-118272820D01*
X166569067Y-118211519D01*
X166569069Y-118211518D01*
X166574531Y-118209664D01*
X166592237Y-118199748D01*
X171239500Y-118199748D01*
X171251133Y-118258231D01*
X171295448Y-118324552D01*
X171361769Y-118368867D01*
X171373938Y-118371288D01*
X171373939Y-118371288D01*
X171414184Y-118379293D01*
X171420252Y-118380500D01*
X174959748Y-118380500D01*
X174965816Y-118379293D01*
X175006061Y-118371288D01*
X175006062Y-118371288D01*
X175018231Y-118368867D01*
X175084552Y-118324552D01*
X175128867Y-118258231D01*
X175140500Y-118199748D01*
X175140500Y-116460252D01*
X175137220Y-116443762D01*
X175131288Y-116413939D01*
X175131288Y-116413938D01*
X175128867Y-116401769D01*
X175084552Y-116335448D01*
X175018231Y-116291133D01*
X175006062Y-116288712D01*
X175006061Y-116288712D01*
X174965816Y-116280707D01*
X174959748Y-116279500D01*
X171420252Y-116279500D01*
X171414184Y-116280707D01*
X171373939Y-116288712D01*
X171373938Y-116288712D01*
X171361769Y-116291133D01*
X171295448Y-116335448D01*
X171251133Y-116401769D01*
X171248712Y-116413938D01*
X171248712Y-116413939D01*
X171242780Y-116443762D01*
X171239500Y-116460252D01*
X171239500Y-118199748D01*
X166592237Y-118199748D01*
X166751001Y-118110837D01*
X166813433Y-118058913D01*
X166902073Y-117985191D01*
X166906505Y-117981505D01*
X167035837Y-117826001D01*
X167134664Y-117649531D01*
X167187056Y-117495192D01*
X167197820Y-117463481D01*
X167197820Y-117463479D01*
X167199678Y-117458007D01*
X167200507Y-117452291D01*
X167200508Y-117452286D01*
X167228167Y-117261516D01*
X167228700Y-117257842D01*
X167230215Y-117200000D01*
X167211708Y-116998591D01*
X167209389Y-116990366D01*
X167158376Y-116809490D01*
X167156807Y-116803926D01*
X167067351Y-116622527D01*
X167049079Y-116598057D01*
X166949788Y-116465091D01*
X166949787Y-116465090D01*
X166946335Y-116460467D01*
X166923350Y-116439220D01*
X166802053Y-116327094D01*
X166802051Y-116327092D01*
X166797812Y-116323174D01*
X166770374Y-116305862D01*
X166631637Y-116218325D01*
X166626757Y-116215246D01*
X166438898Y-116140298D01*
X166240526Y-116100839D01*
X166234752Y-116100763D01*
X166234748Y-116100763D01*
X166132257Y-116099422D01*
X166038286Y-116098192D01*
X166032589Y-116099171D01*
X166032588Y-116099171D01*
X165844646Y-116131465D01*
X165844645Y-116131465D01*
X165838949Y-116132444D01*
X165649193Y-116202449D01*
X165644232Y-116205401D01*
X165644231Y-116205401D01*
X165504198Y-116288712D01*
X165475371Y-116305862D01*
X165323305Y-116439220D01*
X165198089Y-116598057D01*
X165103914Y-116777053D01*
X165043937Y-116970213D01*
X165020164Y-117171069D01*
X161777557Y-117171069D01*
X161761708Y-116998591D01*
X161759389Y-116990366D01*
X161708376Y-116809490D01*
X161706807Y-116803926D01*
X161617351Y-116622527D01*
X161599079Y-116598057D01*
X161499788Y-116465091D01*
X161499787Y-116465090D01*
X161496335Y-116460467D01*
X161473350Y-116439220D01*
X161352053Y-116327094D01*
X161352051Y-116327092D01*
X161347812Y-116323174D01*
X161320374Y-116305862D01*
X161181637Y-116218325D01*
X161176757Y-116215246D01*
X160988898Y-116140298D01*
X160790526Y-116100839D01*
X160784752Y-116100763D01*
X160784748Y-116100763D01*
X160682257Y-116099422D01*
X160588286Y-116098192D01*
X160582589Y-116099171D01*
X160582588Y-116099171D01*
X160394646Y-116131465D01*
X160394645Y-116131465D01*
X160388949Y-116132444D01*
X160199193Y-116202449D01*
X160194232Y-116205401D01*
X160194231Y-116205401D01*
X160054198Y-116288712D01*
X160025371Y-116305862D01*
X159873305Y-116439220D01*
X159748089Y-116598057D01*
X159653914Y-116777053D01*
X159593937Y-116970213D01*
X159570164Y-117171069D01*
X155560500Y-117171069D01*
X155560500Y-116460252D01*
X155557220Y-116443762D01*
X155551288Y-116413939D01*
X155551288Y-116413938D01*
X155548867Y-116401769D01*
X155504552Y-116335448D01*
X155438231Y-116291133D01*
X155426062Y-116288712D01*
X155426061Y-116288712D01*
X155385816Y-116280707D01*
X155379748Y-116279500D01*
X151840252Y-116279500D01*
X151834184Y-116280707D01*
X151793939Y-116288712D01*
X151793938Y-116288712D01*
X151781769Y-116291133D01*
X151715448Y-116335448D01*
X151671133Y-116401769D01*
X151668712Y-116413938D01*
X151668712Y-116413939D01*
X151662780Y-116443762D01*
X151659500Y-116460252D01*
X151659500Y-118199748D01*
X127270059Y-118199748D01*
X127260309Y-118192830D01*
X127249262Y-118184020D01*
X127025731Y-117984260D01*
X127015740Y-117974269D01*
X126815980Y-117750738D01*
X126807170Y-117739691D01*
X126633689Y-117495192D01*
X126626172Y-117483228D01*
X126526865Y-117303547D01*
X126481159Y-117220848D01*
X126475030Y-117208121D01*
X126360306Y-116931151D01*
X126355641Y-116917820D01*
X126324432Y-116809490D01*
X126272647Y-116629743D01*
X126269503Y-116615968D01*
X126242015Y-116454184D01*
X126219287Y-116320416D01*
X126217706Y-116306380D01*
X126202548Y-116036456D01*
X126204382Y-116014897D01*
X126203227Y-116014764D01*
X126204043Y-116007674D01*
X126205655Y-116000718D01*
X126205656Y-116000000D01*
X126203654Y-115991225D01*
X126200500Y-115963210D01*
X126200500Y-115659748D01*
X151659500Y-115659748D01*
X151671133Y-115718231D01*
X151715448Y-115784552D01*
X151781769Y-115828867D01*
X151793938Y-115831288D01*
X151793939Y-115831288D01*
X151834184Y-115839293D01*
X151840252Y-115840500D01*
X155379748Y-115840500D01*
X155385816Y-115839293D01*
X155426061Y-115831288D01*
X155426062Y-115831288D01*
X155438231Y-115828867D01*
X155504552Y-115784552D01*
X155548867Y-115718231D01*
X155560500Y-115659748D01*
X171239500Y-115659748D01*
X171251133Y-115718231D01*
X171295448Y-115784552D01*
X171361769Y-115828867D01*
X171373938Y-115831288D01*
X171373939Y-115831288D01*
X171414184Y-115839293D01*
X171420252Y-115840500D01*
X174959748Y-115840500D01*
X174965816Y-115839293D01*
X175006061Y-115831288D01*
X175006062Y-115831288D01*
X175018231Y-115828867D01*
X175084552Y-115784552D01*
X175128867Y-115718231D01*
X175140500Y-115659748D01*
X175140500Y-113920252D01*
X175128867Y-113861769D01*
X175084552Y-113795448D01*
X175018231Y-113751133D01*
X175006062Y-113748712D01*
X175006061Y-113748712D01*
X174965816Y-113740707D01*
X174959748Y-113739500D01*
X171420252Y-113739500D01*
X171414184Y-113740707D01*
X171373939Y-113748712D01*
X171373938Y-113748712D01*
X171361769Y-113751133D01*
X171295448Y-113795448D01*
X171251133Y-113861769D01*
X171239500Y-113920252D01*
X171239500Y-115659748D01*
X155560500Y-115659748D01*
X155560500Y-114156665D01*
X160019994Y-114156665D01*
X160035592Y-114342414D01*
X160086971Y-114521595D01*
X160172176Y-114687385D01*
X160287959Y-114833468D01*
X160429912Y-114954279D01*
X160592627Y-115045217D01*
X160769907Y-115102819D01*
X160954998Y-115124890D01*
X160961133Y-115124418D01*
X160961135Y-115124418D01*
X161134710Y-115111062D01*
X161134715Y-115111061D01*
X161140851Y-115110589D01*
X161146781Y-115108933D01*
X161146783Y-115108933D01*
X161314459Y-115062117D01*
X161314458Y-115062117D01*
X161320387Y-115060462D01*
X161486768Y-114976417D01*
X161511255Y-114957286D01*
X161628794Y-114865454D01*
X161628795Y-114865453D01*
X161633655Y-114861656D01*
X161755454Y-114720550D01*
X161847526Y-114558474D01*
X161906364Y-114381601D01*
X161929727Y-114196668D01*
X161930099Y-114170000D01*
X161928791Y-114156665D01*
X164869994Y-114156665D01*
X164885592Y-114342414D01*
X164936971Y-114521595D01*
X165022176Y-114687385D01*
X165137959Y-114833468D01*
X165279912Y-114954279D01*
X165442627Y-115045217D01*
X165619907Y-115102819D01*
X165804998Y-115124890D01*
X165811133Y-115124418D01*
X165811135Y-115124418D01*
X165984710Y-115111062D01*
X165984715Y-115111061D01*
X165990851Y-115110589D01*
X165996781Y-115108933D01*
X165996783Y-115108933D01*
X166164459Y-115062117D01*
X166164458Y-115062117D01*
X166170387Y-115060462D01*
X166336768Y-114976417D01*
X166361255Y-114957286D01*
X166478794Y-114865454D01*
X166478795Y-114865453D01*
X166483655Y-114861656D01*
X166605454Y-114720550D01*
X166697526Y-114558474D01*
X166756364Y-114381601D01*
X166779727Y-114196668D01*
X166780099Y-114170000D01*
X166761909Y-113984487D01*
X166760128Y-113978588D01*
X166760127Y-113978583D01*
X166709814Y-113811939D01*
X166708033Y-113806040D01*
X166620522Y-113641456D01*
X166616632Y-113636686D01*
X166616629Y-113636682D01*
X166506605Y-113501780D01*
X166506602Y-113501777D01*
X166502710Y-113497005D01*
X166497056Y-113492327D01*
X166363834Y-113382116D01*
X166359085Y-113378187D01*
X166195116Y-113289529D01*
X166106082Y-113261969D01*
X166022936Y-113236231D01*
X166022933Y-113236230D01*
X166017049Y-113234409D01*
X166010924Y-113233765D01*
X166010923Y-113233765D01*
X165837796Y-113215568D01*
X165837795Y-113215568D01*
X165831668Y-113214924D01*
X165753549Y-113222033D01*
X165652171Y-113231259D01*
X165652168Y-113231260D01*
X165646032Y-113231818D01*
X165640122Y-113233557D01*
X165640119Y-113233558D01*
X165473129Y-113282707D01*
X165467214Y-113284448D01*
X165302023Y-113370807D01*
X165156752Y-113487608D01*
X165036935Y-113630401D01*
X165033971Y-113635793D01*
X165033968Y-113635797D01*
X164971893Y-113748712D01*
X164947135Y-113793746D01*
X164945274Y-113799613D01*
X164945273Y-113799615D01*
X164943235Y-113806040D01*
X164890772Y-113971424D01*
X164869994Y-114156665D01*
X161928791Y-114156665D01*
X161911909Y-113984487D01*
X161910128Y-113978588D01*
X161910127Y-113978583D01*
X161859814Y-113811939D01*
X161858033Y-113806040D01*
X161770522Y-113641456D01*
X161766632Y-113636686D01*
X161766629Y-113636682D01*
X161656605Y-113501780D01*
X161656602Y-113501777D01*
X161652710Y-113497005D01*
X161647056Y-113492327D01*
X161513834Y-113382116D01*
X161509085Y-113378187D01*
X161345116Y-113289529D01*
X161256082Y-113261969D01*
X161172936Y-113236231D01*
X161172933Y-113236230D01*
X161167049Y-113234409D01*
X161160924Y-113233765D01*
X161160923Y-113233765D01*
X160987796Y-113215568D01*
X160987795Y-113215568D01*
X160981668Y-113214924D01*
X160903549Y-113222033D01*
X160802171Y-113231259D01*
X160802168Y-113231260D01*
X160796032Y-113231818D01*
X160790122Y-113233557D01*
X160790119Y-113233558D01*
X160623129Y-113282707D01*
X160617214Y-113284448D01*
X160452023Y-113370807D01*
X160306752Y-113487608D01*
X160186935Y-113630401D01*
X160183971Y-113635793D01*
X160183968Y-113635797D01*
X160121893Y-113748712D01*
X160097135Y-113793746D01*
X160095274Y-113799613D01*
X160095273Y-113799615D01*
X160093235Y-113806040D01*
X160040772Y-113971424D01*
X160019994Y-114156665D01*
X155560500Y-114156665D01*
X155560500Y-113920252D01*
X155548867Y-113861769D01*
X155504552Y-113795448D01*
X155438231Y-113751133D01*
X155426062Y-113748712D01*
X155426061Y-113748712D01*
X155385816Y-113740707D01*
X155379748Y-113739500D01*
X151840252Y-113739500D01*
X151834184Y-113740707D01*
X151793939Y-113748712D01*
X151793938Y-113748712D01*
X151781769Y-113751133D01*
X151715448Y-113795448D01*
X151671133Y-113861769D01*
X151659500Y-113920252D01*
X151659500Y-115659748D01*
X126200500Y-115659748D01*
X126200500Y-110579748D01*
X151659500Y-110579748D01*
X151671133Y-110638231D01*
X151715448Y-110704552D01*
X151781769Y-110748867D01*
X151793938Y-110751288D01*
X151793939Y-110751288D01*
X151834184Y-110759293D01*
X151840252Y-110760500D01*
X155379748Y-110760500D01*
X155385816Y-110759293D01*
X155426061Y-110751288D01*
X155426062Y-110751288D01*
X155438231Y-110748867D01*
X155504552Y-110704552D01*
X155548867Y-110638231D01*
X155560500Y-110579748D01*
X171239500Y-110579748D01*
X171251133Y-110638231D01*
X171295448Y-110704552D01*
X171361769Y-110748867D01*
X171373938Y-110751288D01*
X171373939Y-110751288D01*
X171414184Y-110759293D01*
X171420252Y-110760500D01*
X174959748Y-110760500D01*
X174965816Y-110759293D01*
X175006061Y-110751288D01*
X175006062Y-110751288D01*
X175018231Y-110748867D01*
X175084552Y-110704552D01*
X175128867Y-110638231D01*
X175140500Y-110579748D01*
X175140500Y-108840252D01*
X175128867Y-108781769D01*
X175084552Y-108715448D01*
X175018231Y-108671133D01*
X175006062Y-108668712D01*
X175006061Y-108668712D01*
X174965816Y-108660707D01*
X174959748Y-108659500D01*
X171420252Y-108659500D01*
X171414184Y-108660707D01*
X171373939Y-108668712D01*
X171373938Y-108668712D01*
X171361769Y-108671133D01*
X171295448Y-108715448D01*
X171251133Y-108781769D01*
X171239500Y-108840252D01*
X171239500Y-110579748D01*
X155560500Y-110579748D01*
X155560500Y-108840252D01*
X155548867Y-108781769D01*
X155504552Y-108715448D01*
X155438231Y-108671133D01*
X155426062Y-108668712D01*
X155426061Y-108668712D01*
X155385816Y-108660707D01*
X155379748Y-108659500D01*
X151840252Y-108659500D01*
X151834184Y-108660707D01*
X151793939Y-108668712D01*
X151793938Y-108668712D01*
X151781769Y-108671133D01*
X151715448Y-108715448D01*
X151671133Y-108781769D01*
X151659500Y-108840252D01*
X151659500Y-110579748D01*
X126200500Y-110579748D01*
X126200500Y-107974000D01*
X150794500Y-107974000D01*
X150799196Y-108017681D01*
X150810582Y-108070023D01*
X150813070Y-108080203D01*
X150856079Y-108160916D01*
X150860711Y-108166262D01*
X150860712Y-108166263D01*
X150865659Y-108171972D01*
X150902572Y-108214572D01*
X150920165Y-108232527D01*
X150999983Y-108277174D01*
X151020588Y-108283224D01*
X151063781Y-108295907D01*
X151063785Y-108295908D01*
X151068104Y-108297176D01*
X151072552Y-108297816D01*
X151072559Y-108297817D01*
X151121552Y-108304861D01*
X151121559Y-108304862D01*
X151126000Y-108305500D01*
X156074000Y-108305500D01*
X156077346Y-108305140D01*
X156077351Y-108305140D01*
X156114317Y-108301166D01*
X156114323Y-108301165D01*
X156117681Y-108300804D01*
X156170023Y-108289418D01*
X156170717Y-108289248D01*
X156170736Y-108289244D01*
X156171870Y-108288967D01*
X156180203Y-108286930D01*
X156260916Y-108243921D01*
X156274066Y-108232527D01*
X156313111Y-108198694D01*
X156313112Y-108198693D01*
X156314572Y-108197428D01*
X156332527Y-108179835D01*
X156377174Y-108100017D01*
X156393089Y-108045816D01*
X156394871Y-108039748D01*
X171239500Y-108039748D01*
X171251133Y-108098231D01*
X171295448Y-108164552D01*
X171361769Y-108208867D01*
X171373938Y-108211288D01*
X171373939Y-108211288D01*
X171414184Y-108219293D01*
X171420252Y-108220500D01*
X174959748Y-108220500D01*
X174965816Y-108219293D01*
X175006061Y-108211288D01*
X175006062Y-108211288D01*
X175018231Y-108208867D01*
X175084552Y-108164552D01*
X175128867Y-108098231D01*
X175140500Y-108039748D01*
X175140500Y-106300252D01*
X175128867Y-106241769D01*
X175110219Y-106213860D01*
X175091443Y-106185761D01*
X175084552Y-106175448D01*
X175018231Y-106131133D01*
X175006062Y-106128712D01*
X175006061Y-106128712D01*
X174965816Y-106120707D01*
X174959748Y-106119500D01*
X171420252Y-106119500D01*
X171414184Y-106120707D01*
X171373939Y-106128712D01*
X171373938Y-106128712D01*
X171361769Y-106131133D01*
X171295448Y-106175448D01*
X171288557Y-106185761D01*
X171269782Y-106213860D01*
X171251133Y-106241769D01*
X171239500Y-106300252D01*
X171239500Y-108039748D01*
X156394871Y-108039748D01*
X156395907Y-108036219D01*
X156395908Y-108036215D01*
X156397176Y-108031896D01*
X156397817Y-108027441D01*
X156404861Y-107978448D01*
X156404862Y-107978441D01*
X156405500Y-107974000D01*
X156405500Y-106426000D01*
X156400804Y-106382319D01*
X156389418Y-106329977D01*
X156386930Y-106319797D01*
X156343921Y-106239084D01*
X156297428Y-106185428D01*
X156279835Y-106167473D01*
X156200017Y-106122826D01*
X156158910Y-106110756D01*
X156136219Y-106104093D01*
X156136215Y-106104092D01*
X156131896Y-106102824D01*
X156127448Y-106102184D01*
X156127441Y-106102183D01*
X156078448Y-106095139D01*
X156078441Y-106095138D01*
X156074000Y-106094500D01*
X151126000Y-106094500D01*
X151122654Y-106094860D01*
X151122649Y-106094860D01*
X151085683Y-106098834D01*
X151085677Y-106098835D01*
X151082319Y-106099196D01*
X151029977Y-106110582D01*
X151029283Y-106110752D01*
X151029264Y-106110756D01*
X151028130Y-106111033D01*
X151019797Y-106113070D01*
X150939084Y-106156079D01*
X150933738Y-106160711D01*
X150933737Y-106160712D01*
X150918508Y-106173908D01*
X150885428Y-106202572D01*
X150867473Y-106220165D01*
X150822826Y-106299983D01*
X150802824Y-106368104D01*
X150802184Y-106372552D01*
X150802183Y-106372559D01*
X150795139Y-106421552D01*
X150795138Y-106421559D01*
X150794500Y-106426000D01*
X150794500Y-107974000D01*
X126200500Y-107974000D01*
X126200500Y-105499748D01*
X151659500Y-105499748D01*
X151671133Y-105558231D01*
X151715448Y-105624552D01*
X151781769Y-105668867D01*
X151793938Y-105671288D01*
X151793939Y-105671288D01*
X151834184Y-105679293D01*
X151840252Y-105680500D01*
X155379748Y-105680500D01*
X155385816Y-105679293D01*
X155426061Y-105671288D01*
X155426062Y-105671288D01*
X155438231Y-105668867D01*
X155504552Y-105624552D01*
X155548867Y-105558231D01*
X155560500Y-105499748D01*
X171239500Y-105499748D01*
X171251133Y-105558231D01*
X171295448Y-105624552D01*
X171361769Y-105668867D01*
X171373938Y-105671288D01*
X171373939Y-105671288D01*
X171414184Y-105679293D01*
X171420252Y-105680500D01*
X174959748Y-105680500D01*
X174965816Y-105679293D01*
X175006061Y-105671288D01*
X175006062Y-105671288D01*
X175018231Y-105668867D01*
X175084552Y-105624552D01*
X175128867Y-105558231D01*
X175140500Y-105499748D01*
X175140500Y-103760252D01*
X175128867Y-103701769D01*
X175084552Y-103635448D01*
X175018231Y-103591133D01*
X175006062Y-103588712D01*
X175006061Y-103588712D01*
X174965816Y-103580707D01*
X174959748Y-103579500D01*
X171420252Y-103579500D01*
X171414184Y-103580707D01*
X171373939Y-103588712D01*
X171373938Y-103588712D01*
X171361769Y-103591133D01*
X171295448Y-103635448D01*
X171251133Y-103701769D01*
X171239500Y-103760252D01*
X171239500Y-105499748D01*
X155560500Y-105499748D01*
X155560500Y-103760252D01*
X155548867Y-103701769D01*
X155504552Y-103635448D01*
X155438231Y-103591133D01*
X155426062Y-103588712D01*
X155426061Y-103588712D01*
X155385816Y-103580707D01*
X155379748Y-103579500D01*
X151840252Y-103579500D01*
X151834184Y-103580707D01*
X151793939Y-103588712D01*
X151793938Y-103588712D01*
X151781769Y-103591133D01*
X151715448Y-103635448D01*
X151671133Y-103701769D01*
X151659500Y-103760252D01*
X151659500Y-105499748D01*
X126200500Y-105499748D01*
X126200500Y-100869748D01*
X128649500Y-100869748D01*
X128661133Y-100928231D01*
X128705448Y-100994552D01*
X128771769Y-101038867D01*
X128783938Y-101041288D01*
X128783939Y-101041288D01*
X128821263Y-101048712D01*
X128830252Y-101050500D01*
X131069748Y-101050500D01*
X131078737Y-101048712D01*
X131116061Y-101041288D01*
X131116062Y-101041288D01*
X131128231Y-101038867D01*
X131194552Y-100994552D01*
X131238867Y-100928231D01*
X131250500Y-100869748D01*
X131250500Y-99030252D01*
X131247381Y-99014572D01*
X131241288Y-98983939D01*
X131241288Y-98983938D01*
X131238867Y-98971769D01*
X131194552Y-98905448D01*
X131128231Y-98861133D01*
X131116062Y-98858712D01*
X131116061Y-98858712D01*
X131075816Y-98850707D01*
X131069748Y-98849500D01*
X128830252Y-98849500D01*
X128824184Y-98850707D01*
X128783939Y-98858712D01*
X128783938Y-98858712D01*
X128771769Y-98861133D01*
X128705448Y-98905448D01*
X128661133Y-98971769D01*
X128658712Y-98983938D01*
X128658712Y-98983939D01*
X128652619Y-99014572D01*
X128649500Y-99030252D01*
X128649500Y-100869748D01*
X126200500Y-100869748D01*
X126200500Y-98774000D01*
X132294500Y-98774000D01*
X132299196Y-98817681D01*
X132310582Y-98870023D01*
X132313070Y-98880203D01*
X132356079Y-98960916D01*
X132402572Y-99014572D01*
X132420165Y-99032527D01*
X132499983Y-99077174D01*
X132520588Y-99083224D01*
X132563781Y-99095907D01*
X132563785Y-99095908D01*
X132568104Y-99097176D01*
X132572552Y-99097816D01*
X132572559Y-99097817D01*
X132621552Y-99104861D01*
X132621559Y-99104862D01*
X132626000Y-99105500D01*
X135474000Y-99105500D01*
X135477346Y-99105140D01*
X135477351Y-99105140D01*
X135514317Y-99101166D01*
X135514323Y-99101165D01*
X135517681Y-99100804D01*
X135570023Y-99089418D01*
X135570717Y-99089248D01*
X135570736Y-99089244D01*
X135571870Y-99088967D01*
X135580203Y-99086930D01*
X135660916Y-99043921D01*
X135674066Y-99032527D01*
X135713111Y-98998694D01*
X135713112Y-98998693D01*
X135714572Y-98997428D01*
X135732527Y-98979835D01*
X135777174Y-98900017D01*
X135797176Y-98831896D01*
X135797817Y-98827441D01*
X135804861Y-98778448D01*
X135804862Y-98778441D01*
X135805500Y-98774000D01*
X135805500Y-97526000D01*
X135800804Y-97482319D01*
X135789418Y-97429977D01*
X135786930Y-97419797D01*
X135743921Y-97339084D01*
X135734391Y-97328085D01*
X135698694Y-97286889D01*
X135698693Y-97286888D01*
X135697428Y-97285428D01*
X135679835Y-97267473D01*
X135600017Y-97222826D01*
X135551949Y-97208712D01*
X135536219Y-97204093D01*
X135536215Y-97204092D01*
X135531896Y-97202824D01*
X135527448Y-97202184D01*
X135527441Y-97202183D01*
X135478448Y-97195139D01*
X135478441Y-97195138D01*
X135474000Y-97194500D01*
X133874826Y-97194500D01*
X133874098Y-97194518D01*
X133874086Y-97194518D01*
X133865568Y-97194727D01*
X133865561Y-97194727D01*
X133864756Y-97194747D01*
X133862677Y-97194849D01*
X133856503Y-97195000D01*
X132626000Y-97195000D01*
X132622654Y-97195360D01*
X132622649Y-97195360D01*
X132590858Y-97198778D01*
X132577390Y-97199500D01*
X132530252Y-97199500D01*
X132524184Y-97200707D01*
X132483939Y-97208712D01*
X132483938Y-97208712D01*
X132471769Y-97211133D01*
X132405448Y-97255448D01*
X132361133Y-97321769D01*
X132358712Y-97333940D01*
X132357732Y-97336306D01*
X132351289Y-97349598D01*
X132322826Y-97400483D01*
X132302824Y-97468604D01*
X132302184Y-97473052D01*
X132302183Y-97473059D01*
X132295139Y-97522052D01*
X132295138Y-97522059D01*
X132294500Y-97526500D01*
X132294500Y-98774000D01*
X126200500Y-98774000D01*
X126200500Y-96219748D01*
X132349500Y-96219748D01*
X132350707Y-96225816D01*
X132355518Y-96250000D01*
X132361133Y-96278231D01*
X132405448Y-96344552D01*
X132471769Y-96388867D01*
X132483938Y-96391288D01*
X132483939Y-96391288D01*
X132505125Y-96395502D01*
X132530252Y-96400500D01*
X133869748Y-96400500D01*
X133928231Y-96388867D01*
X133935095Y-96384280D01*
X133979238Y-96375500D01*
X142862984Y-96375500D01*
X142931105Y-96395502D01*
X142952079Y-96412405D01*
X148845889Y-102306215D01*
X148853316Y-102314319D01*
X148877545Y-102343194D01*
X148887094Y-102348707D01*
X148910185Y-102362039D01*
X148919456Y-102367945D01*
X148950316Y-102389554D01*
X148960966Y-102392408D01*
X148964134Y-102393885D01*
X148967410Y-102395077D01*
X148976955Y-102400588D01*
X149010699Y-102406538D01*
X149014058Y-102407130D01*
X149024785Y-102409508D01*
X149061193Y-102419264D01*
X149072178Y-102418303D01*
X149072180Y-102418303D01*
X149098728Y-102415980D01*
X149109710Y-102415500D01*
X151533500Y-102415500D01*
X151601621Y-102435502D01*
X151648114Y-102489158D01*
X151659500Y-102541500D01*
X151659500Y-102959748D01*
X151671133Y-103018231D01*
X151715448Y-103084552D01*
X151781769Y-103128867D01*
X151793938Y-103131288D01*
X151793939Y-103131288D01*
X151834184Y-103139293D01*
X151840252Y-103140500D01*
X155379748Y-103140500D01*
X155385816Y-103139293D01*
X155426061Y-103131288D01*
X155426062Y-103131288D01*
X155438231Y-103128867D01*
X155504552Y-103084552D01*
X155548867Y-103018231D01*
X155560500Y-102959748D01*
X171239500Y-102959748D01*
X171251133Y-103018231D01*
X171295448Y-103084552D01*
X171361769Y-103128867D01*
X171373938Y-103131288D01*
X171373939Y-103131288D01*
X171414184Y-103139293D01*
X171420252Y-103140500D01*
X174959748Y-103140500D01*
X174965816Y-103139293D01*
X175006061Y-103131288D01*
X175006062Y-103131288D01*
X175018231Y-103128867D01*
X175084552Y-103084552D01*
X175128867Y-103018231D01*
X175140500Y-102959748D01*
X175140500Y-101220252D01*
X175128867Y-101161769D01*
X175084552Y-101095448D01*
X175018231Y-101051133D01*
X175006062Y-101048712D01*
X175006061Y-101048712D01*
X174965816Y-101040707D01*
X174959748Y-101039500D01*
X171420252Y-101039500D01*
X171414184Y-101040707D01*
X171373939Y-101048712D01*
X171373938Y-101048712D01*
X171361769Y-101051133D01*
X171295448Y-101095448D01*
X171251133Y-101161769D01*
X171239500Y-101220252D01*
X171239500Y-102959748D01*
X155560500Y-102959748D01*
X155560500Y-101220252D01*
X155548867Y-101161769D01*
X155504552Y-101095448D01*
X155438231Y-101051133D01*
X155426062Y-101048712D01*
X155426061Y-101048712D01*
X155385816Y-101040707D01*
X155379748Y-101039500D01*
X151840252Y-101039500D01*
X151834184Y-101040707D01*
X151793939Y-101048712D01*
X151793938Y-101048712D01*
X151781769Y-101051133D01*
X151715448Y-101095448D01*
X151671133Y-101161769D01*
X151659500Y-101220252D01*
X151659500Y-101638500D01*
X151639498Y-101706621D01*
X151585842Y-101753114D01*
X151533500Y-101764500D01*
X149277016Y-101764500D01*
X149208895Y-101744498D01*
X149187921Y-101727595D01*
X143550921Y-96090595D01*
X143516895Y-96028283D01*
X143521960Y-95957468D01*
X143564507Y-95900632D01*
X143631027Y-95875821D01*
X143640016Y-95875500D01*
X148062983Y-95875500D01*
X148131104Y-95895502D01*
X148152078Y-95912405D01*
X148317291Y-96077618D01*
X148351317Y-96139930D01*
X148353118Y-96183158D01*
X148344318Y-96250000D01*
X148364956Y-96406762D01*
X148425464Y-96552841D01*
X148521718Y-96678282D01*
X148647159Y-96774536D01*
X148793238Y-96835044D01*
X148950000Y-96855682D01*
X148958188Y-96854604D01*
X149098574Y-96836122D01*
X149106762Y-96835044D01*
X149252841Y-96774536D01*
X149378282Y-96678282D01*
X149474536Y-96552841D01*
X149535044Y-96406762D01*
X149555682Y-96250000D01*
X149535044Y-96093238D01*
X149496117Y-95999260D01*
X149488528Y-95928670D01*
X149520307Y-95865183D01*
X149581365Y-95828956D01*
X149652317Y-95831490D01*
X149701621Y-95861947D01*
X151065889Y-97226215D01*
X151073316Y-97234319D01*
X151097545Y-97263194D01*
X151107094Y-97268707D01*
X151130185Y-97282039D01*
X151139456Y-97287945D01*
X151170316Y-97309554D01*
X151180966Y-97312408D01*
X151184134Y-97313885D01*
X151187410Y-97315077D01*
X151196955Y-97320588D01*
X151230699Y-97326538D01*
X151234058Y-97327130D01*
X151244785Y-97329508D01*
X151281193Y-97339264D01*
X151292169Y-97338304D01*
X151292172Y-97338304D01*
X151318743Y-97335979D01*
X151329724Y-97335500D01*
X151533500Y-97335500D01*
X151601621Y-97355502D01*
X151648114Y-97409158D01*
X151659500Y-97461500D01*
X151659500Y-97879748D01*
X151671133Y-97938231D01*
X151715448Y-98004552D01*
X151781769Y-98048867D01*
X151793938Y-98051288D01*
X151793939Y-98051288D01*
X151834184Y-98059293D01*
X151840252Y-98060500D01*
X155379748Y-98060500D01*
X155385816Y-98059293D01*
X155426061Y-98051288D01*
X155426062Y-98051288D01*
X155438231Y-98048867D01*
X155504552Y-98004552D01*
X155548867Y-97938231D01*
X155560500Y-97879748D01*
X171239500Y-97879748D01*
X171251133Y-97938231D01*
X171295448Y-98004552D01*
X171361769Y-98048867D01*
X171373938Y-98051288D01*
X171373939Y-98051288D01*
X171414184Y-98059293D01*
X171420252Y-98060500D01*
X174959748Y-98060500D01*
X174965816Y-98059293D01*
X175006061Y-98051288D01*
X175006062Y-98051288D01*
X175018231Y-98048867D01*
X175084552Y-98004552D01*
X175128867Y-97938231D01*
X175140500Y-97879748D01*
X175140500Y-96140252D01*
X175128867Y-96081769D01*
X175084552Y-96015448D01*
X175018231Y-95971133D01*
X175006062Y-95968712D01*
X175006061Y-95968712D01*
X174965816Y-95960707D01*
X174959748Y-95959500D01*
X171420252Y-95959500D01*
X171414184Y-95960707D01*
X171373939Y-95968712D01*
X171373938Y-95968712D01*
X171361769Y-95971133D01*
X171295448Y-96015448D01*
X171251133Y-96081769D01*
X171239500Y-96140252D01*
X171239500Y-97879748D01*
X155560500Y-97879748D01*
X155560500Y-96140252D01*
X155548867Y-96081769D01*
X155504552Y-96015448D01*
X155438231Y-95971133D01*
X155426062Y-95968712D01*
X155426061Y-95968712D01*
X155385816Y-95960707D01*
X155379748Y-95959500D01*
X151840252Y-95959500D01*
X151834184Y-95960707D01*
X151793939Y-95968712D01*
X151793938Y-95968712D01*
X151781769Y-95971133D01*
X151715448Y-96015448D01*
X151671133Y-96081769D01*
X151659500Y-96140252D01*
X151659500Y-96558500D01*
X151639498Y-96626621D01*
X151585842Y-96673114D01*
X151533500Y-96684500D01*
X151497016Y-96684500D01*
X151428895Y-96664498D01*
X151407921Y-96647595D01*
X149850921Y-95090595D01*
X149816895Y-95028283D01*
X149821960Y-94957468D01*
X149864507Y-94900632D01*
X149931027Y-94875821D01*
X149940016Y-94875500D01*
X151533500Y-94875500D01*
X151601621Y-94895502D01*
X151648114Y-94949158D01*
X151659500Y-95001500D01*
X151659500Y-95339748D01*
X151660707Y-95345816D01*
X151666612Y-95375500D01*
X151671133Y-95398231D01*
X151715448Y-95464552D01*
X151781769Y-95508867D01*
X151793938Y-95511288D01*
X151793939Y-95511288D01*
X151834184Y-95519293D01*
X151840252Y-95520500D01*
X155379748Y-95520500D01*
X155385816Y-95519293D01*
X155426061Y-95511288D01*
X155426062Y-95511288D01*
X155438231Y-95508867D01*
X155504552Y-95464552D01*
X155548867Y-95398231D01*
X155553389Y-95375500D01*
X155559293Y-95345816D01*
X155560500Y-95339748D01*
X171239500Y-95339748D01*
X171240707Y-95345816D01*
X171246612Y-95375500D01*
X171251133Y-95398231D01*
X171295448Y-95464552D01*
X171361769Y-95508867D01*
X171373938Y-95511288D01*
X171373939Y-95511288D01*
X171414184Y-95519293D01*
X171420252Y-95520500D01*
X174959748Y-95520500D01*
X174965816Y-95519293D01*
X175006061Y-95511288D01*
X175006062Y-95511288D01*
X175018231Y-95508867D01*
X175084552Y-95464552D01*
X175128867Y-95398231D01*
X175133389Y-95375500D01*
X175139293Y-95345816D01*
X175140500Y-95339748D01*
X175140500Y-93600252D01*
X175128867Y-93541769D01*
X175084552Y-93475448D01*
X175018231Y-93431133D01*
X175006062Y-93428712D01*
X175006061Y-93428712D01*
X174965816Y-93420707D01*
X174959748Y-93419500D01*
X171420252Y-93419500D01*
X171414184Y-93420707D01*
X171373939Y-93428712D01*
X171373938Y-93428712D01*
X171361769Y-93431133D01*
X171295448Y-93475448D01*
X171251133Y-93541769D01*
X171239500Y-93600252D01*
X171239500Y-95339748D01*
X155560500Y-95339748D01*
X155560500Y-93600252D01*
X155548867Y-93541769D01*
X155504552Y-93475448D01*
X155438231Y-93431133D01*
X155426062Y-93428712D01*
X155426061Y-93428712D01*
X155385816Y-93420707D01*
X155379748Y-93419500D01*
X151840252Y-93419500D01*
X151834184Y-93420707D01*
X151793939Y-93428712D01*
X151793938Y-93428712D01*
X151781769Y-93431133D01*
X151715448Y-93475448D01*
X151671133Y-93541769D01*
X151659500Y-93600252D01*
X151659500Y-94098500D01*
X151639498Y-94166621D01*
X151585842Y-94213114D01*
X151533500Y-94224500D01*
X133979238Y-94224500D01*
X133935095Y-94215720D01*
X133928231Y-94211133D01*
X133869748Y-94199500D01*
X132530252Y-94199500D01*
X132524184Y-94200707D01*
X132483939Y-94208712D01*
X132483938Y-94208712D01*
X132471769Y-94211133D01*
X132405448Y-94255448D01*
X132361133Y-94321769D01*
X132349500Y-94380252D01*
X132349500Y-94719748D01*
X132360574Y-94775421D01*
X132360574Y-94824579D01*
X132349500Y-94880252D01*
X132349500Y-95219748D01*
X132360574Y-95275421D01*
X132360574Y-95324579D01*
X132349500Y-95380252D01*
X132349500Y-95719748D01*
X132360574Y-95775421D01*
X132360574Y-95824579D01*
X132349500Y-95880252D01*
X132349500Y-96219748D01*
X126200500Y-96219748D01*
X126200500Y-93719748D01*
X132349500Y-93719748D01*
X132361133Y-93778231D01*
X132405448Y-93844552D01*
X132471769Y-93888867D01*
X132483938Y-93891288D01*
X132483939Y-93891288D01*
X132524184Y-93899293D01*
X132530252Y-93900500D01*
X133869748Y-93900500D01*
X133928231Y-93888867D01*
X133935095Y-93884280D01*
X133979238Y-93875500D01*
X145714494Y-93875500D01*
X145725476Y-93875980D01*
X145752024Y-93878303D01*
X145752026Y-93878303D01*
X145763011Y-93879264D01*
X145799419Y-93869508D01*
X145810146Y-93867130D01*
X145813505Y-93866538D01*
X145847249Y-93860588D01*
X145856794Y-93855077D01*
X145860070Y-93853885D01*
X145863238Y-93852408D01*
X145873888Y-93849554D01*
X145904748Y-93827945D01*
X145914019Y-93822039D01*
X145937110Y-93808707D01*
X145946659Y-93803194D01*
X145970889Y-93774317D01*
X145978315Y-93766215D01*
X146990355Y-92754176D01*
X147052667Y-92720150D01*
X147123483Y-92725215D01*
X147168545Y-92754176D01*
X147464291Y-93049922D01*
X147513871Y-93083050D01*
X147526040Y-93085471D01*
X147526041Y-93085471D01*
X147579931Y-93096190D01*
X147592102Y-93098611D01*
X147604273Y-93096190D01*
X147658163Y-93085471D01*
X147658164Y-93085471D01*
X147670333Y-93083050D01*
X147719913Y-93049922D01*
X147970087Y-92799748D01*
X151659500Y-92799748D01*
X151660707Y-92805816D01*
X151664481Y-92824787D01*
X151671133Y-92858231D01*
X151715448Y-92924552D01*
X151781769Y-92968867D01*
X151793938Y-92971288D01*
X151793939Y-92971288D01*
X151834184Y-92979293D01*
X151840252Y-92980500D01*
X155379748Y-92980500D01*
X155385816Y-92979293D01*
X155426061Y-92971288D01*
X155426062Y-92971288D01*
X155438231Y-92968867D01*
X155504552Y-92924552D01*
X155548867Y-92858231D01*
X155555520Y-92824787D01*
X155559293Y-92805816D01*
X155560500Y-92799748D01*
X171239500Y-92799748D01*
X171240707Y-92805816D01*
X171244481Y-92824787D01*
X171251133Y-92858231D01*
X171295448Y-92924552D01*
X171361769Y-92968867D01*
X171373938Y-92971288D01*
X171373939Y-92971288D01*
X171414184Y-92979293D01*
X171420252Y-92980500D01*
X174959748Y-92980500D01*
X174965816Y-92979293D01*
X175006061Y-92971288D01*
X175006062Y-92971288D01*
X175018231Y-92968867D01*
X175084552Y-92924552D01*
X175128867Y-92858231D01*
X175135520Y-92824787D01*
X175139293Y-92805816D01*
X175140500Y-92799748D01*
X175140500Y-91060252D01*
X175128867Y-91001769D01*
X175084552Y-90935448D01*
X175052658Y-90914137D01*
X175028547Y-90898026D01*
X175018231Y-90891133D01*
X175006062Y-90888712D01*
X175006061Y-90888712D01*
X174965816Y-90880707D01*
X174959748Y-90879500D01*
X171420252Y-90879500D01*
X171414184Y-90880707D01*
X171373939Y-90888712D01*
X171373938Y-90888712D01*
X171361769Y-90891133D01*
X171351453Y-90898026D01*
X171327342Y-90914137D01*
X171295448Y-90935448D01*
X171251133Y-91001769D01*
X171239500Y-91060252D01*
X171239500Y-92799748D01*
X155560500Y-92799748D01*
X155560500Y-91060252D01*
X155548867Y-91001769D01*
X155504552Y-90935448D01*
X155472658Y-90914137D01*
X155448547Y-90898026D01*
X155438231Y-90891133D01*
X155426062Y-90888712D01*
X155426061Y-90888712D01*
X155385816Y-90880707D01*
X155379748Y-90879500D01*
X151840252Y-90879500D01*
X151834184Y-90880707D01*
X151793939Y-90888712D01*
X151793938Y-90888712D01*
X151781769Y-90891133D01*
X151771453Y-90898026D01*
X151747342Y-90914137D01*
X151715448Y-90935448D01*
X151671133Y-91001769D01*
X151659500Y-91060252D01*
X151659500Y-92799748D01*
X147970087Y-92799748D01*
X148949922Y-91819913D01*
X148983050Y-91770333D01*
X148998611Y-91692102D01*
X148983050Y-91613871D01*
X148949922Y-91564291D01*
X148654176Y-91268545D01*
X148620150Y-91206233D01*
X148625215Y-91135418D01*
X148654176Y-91090355D01*
X149992126Y-89752405D01*
X150054438Y-89718379D01*
X150081221Y-89715500D01*
X151533500Y-89715500D01*
X151601621Y-89735502D01*
X151648114Y-89789158D01*
X151659500Y-89841500D01*
X151659500Y-90259748D01*
X151660707Y-90265816D01*
X151667255Y-90298733D01*
X151671133Y-90318231D01*
X151715448Y-90384552D01*
X151781769Y-90428867D01*
X151793938Y-90431288D01*
X151793939Y-90431288D01*
X151834184Y-90439293D01*
X151840252Y-90440500D01*
X155379748Y-90440500D01*
X155385816Y-90439293D01*
X155426061Y-90431288D01*
X155426062Y-90431288D01*
X155438231Y-90428867D01*
X155504552Y-90384552D01*
X155548867Y-90318231D01*
X155552746Y-90298733D01*
X155559293Y-90265816D01*
X155560500Y-90259748D01*
X171239500Y-90259748D01*
X171240707Y-90265816D01*
X171247255Y-90298733D01*
X171251133Y-90318231D01*
X171295448Y-90384552D01*
X171361769Y-90428867D01*
X171373938Y-90431288D01*
X171373939Y-90431288D01*
X171414184Y-90439293D01*
X171420252Y-90440500D01*
X174959748Y-90440500D01*
X174965816Y-90439293D01*
X175006061Y-90431288D01*
X175006062Y-90431288D01*
X175018231Y-90428867D01*
X175084552Y-90384552D01*
X175128867Y-90318231D01*
X175132746Y-90298733D01*
X175139293Y-90265816D01*
X175140500Y-90259748D01*
X175140500Y-88520252D01*
X175136432Y-88499799D01*
X175131288Y-88473939D01*
X175131288Y-88473938D01*
X175128867Y-88461769D01*
X175084552Y-88395448D01*
X175018231Y-88351133D01*
X175006062Y-88348712D01*
X175006061Y-88348712D01*
X174965816Y-88340707D01*
X174959748Y-88339500D01*
X171420252Y-88339500D01*
X171414184Y-88340707D01*
X171373939Y-88348712D01*
X171373938Y-88348712D01*
X171361769Y-88351133D01*
X171295448Y-88395448D01*
X171251133Y-88461769D01*
X171248712Y-88473938D01*
X171248712Y-88473939D01*
X171243568Y-88499799D01*
X171239500Y-88520252D01*
X171239500Y-90259748D01*
X155560500Y-90259748D01*
X155560500Y-88520252D01*
X155556432Y-88499799D01*
X155551288Y-88473939D01*
X155551288Y-88473938D01*
X155548867Y-88461769D01*
X155504552Y-88395448D01*
X155438231Y-88351133D01*
X155426062Y-88348712D01*
X155426061Y-88348712D01*
X155385816Y-88340707D01*
X155379748Y-88339500D01*
X151840252Y-88339500D01*
X151834184Y-88340707D01*
X151793939Y-88348712D01*
X151793938Y-88348712D01*
X151781769Y-88351133D01*
X151715448Y-88395448D01*
X151671133Y-88461769D01*
X151668712Y-88473938D01*
X151668712Y-88473939D01*
X151663568Y-88499799D01*
X151659500Y-88520252D01*
X151659500Y-88938500D01*
X151639498Y-89006621D01*
X151585842Y-89053114D01*
X151533500Y-89064500D01*
X149913902Y-89064500D01*
X149902920Y-89064020D01*
X149876384Y-89061698D01*
X149876382Y-89061698D01*
X149865397Y-89060737D01*
X149854747Y-89063591D01*
X149854745Y-89063591D01*
X149829008Y-89070488D01*
X149818273Y-89072868D01*
X149810712Y-89074201D01*
X149781159Y-89079412D01*
X149771611Y-89084924D01*
X149768334Y-89086117D01*
X149765166Y-89087594D01*
X149754520Y-89090447D01*
X149745491Y-89096769D01*
X149723657Y-89112057D01*
X149714389Y-89117961D01*
X149681749Y-89136806D01*
X149674661Y-89145253D01*
X149657530Y-89165669D01*
X149650104Y-89173773D01*
X148193849Y-90630028D01*
X148131537Y-90664054D01*
X148060722Y-90658989D01*
X148015659Y-90630028D01*
X147719913Y-90334282D01*
X147670333Y-90301154D01*
X147658164Y-90298733D01*
X147658163Y-90298733D01*
X147604273Y-90288014D01*
X147592102Y-90285593D01*
X147579931Y-90288014D01*
X147526041Y-90298733D01*
X147526040Y-90298733D01*
X147513871Y-90301154D01*
X147464291Y-90334282D01*
X146234282Y-91564291D01*
X146201154Y-91613871D01*
X146185593Y-91692102D01*
X146201154Y-91770333D01*
X146234282Y-91819913D01*
X146530028Y-92115659D01*
X146564054Y-92177971D01*
X146558989Y-92248786D01*
X146530031Y-92293846D01*
X145636282Y-93187596D01*
X145573971Y-93221620D01*
X145547188Y-93224500D01*
X133979238Y-93224500D01*
X133935095Y-93215720D01*
X133928231Y-93211133D01*
X133869748Y-93199500D01*
X132530252Y-93199500D01*
X132524184Y-93200707D01*
X132483939Y-93208712D01*
X132483938Y-93208712D01*
X132471769Y-93211133D01*
X132405448Y-93255448D01*
X132361133Y-93321769D01*
X132349500Y-93380252D01*
X132349500Y-93719748D01*
X126200500Y-93719748D01*
X126200500Y-92719748D01*
X132349500Y-92719748D01*
X132361133Y-92778231D01*
X132405448Y-92844552D01*
X132471769Y-92888867D01*
X132483938Y-92891288D01*
X132483939Y-92891288D01*
X132524184Y-92899293D01*
X132530252Y-92900500D01*
X133869748Y-92900500D01*
X133928231Y-92888867D01*
X133935095Y-92884280D01*
X133979238Y-92875500D01*
X143122392Y-92875500D01*
X143133374Y-92875980D01*
X143159922Y-92878303D01*
X143159924Y-92878303D01*
X143170909Y-92879264D01*
X143207317Y-92869508D01*
X143218044Y-92867130D01*
X143221403Y-92866538D01*
X143255147Y-92860588D01*
X143264692Y-92855077D01*
X143267968Y-92853885D01*
X143271136Y-92852408D01*
X143281786Y-92849554D01*
X143312646Y-92827945D01*
X143321917Y-92822039D01*
X143345008Y-92808707D01*
X143354557Y-92803194D01*
X143378787Y-92774317D01*
X143386213Y-92766215D01*
X145255173Y-90897256D01*
X145317485Y-90863230D01*
X145383204Y-90866518D01*
X145563522Y-90925107D01*
X145563526Y-90925108D01*
X145569380Y-90927010D01*
X145773945Y-90951402D01*
X145780080Y-90950930D01*
X145780082Y-90950930D01*
X145836090Y-90946620D01*
X145979351Y-90935597D01*
X145985281Y-90933941D01*
X145985283Y-90933941D01*
X146160244Y-90885091D01*
X146177776Y-90880196D01*
X146183265Y-90877423D01*
X146183271Y-90877421D01*
X146356167Y-90790084D01*
X146361661Y-90787309D01*
X146373281Y-90778231D01*
X146519152Y-90664264D01*
X146524002Y-90660475D01*
X146658615Y-90504523D01*
X146760374Y-90325395D01*
X146825402Y-90129914D01*
X146851222Y-89925525D01*
X146851634Y-89896051D01*
X146831531Y-89691021D01*
X146771986Y-89493800D01*
X146770363Y-89490747D01*
X146762995Y-89421075D01*
X146797858Y-89354571D01*
X148216225Y-87936203D01*
X148224331Y-87928775D01*
X148244749Y-87911643D01*
X148253194Y-87904557D01*
X148258704Y-87895014D01*
X148258707Y-87895010D01*
X148272036Y-87871923D01*
X148277941Y-87862653D01*
X148293232Y-87840815D01*
X148299554Y-87831786D01*
X148302407Y-87821138D01*
X148303886Y-87817967D01*
X148305078Y-87814691D01*
X148310588Y-87805147D01*
X148317134Y-87768026D01*
X148319508Y-87757319D01*
X148329263Y-87720909D01*
X148325979Y-87683371D01*
X148325500Y-87672390D01*
X148325500Y-84310000D01*
X150184318Y-84310000D01*
X150204956Y-84466762D01*
X150265464Y-84612841D01*
X150361718Y-84738282D01*
X150487159Y-84834536D01*
X150633238Y-84895044D01*
X150790000Y-84915682D01*
X150798188Y-84914604D01*
X150938574Y-84896122D01*
X150946762Y-84895044D01*
X151092841Y-84834536D01*
X151218282Y-84738282D01*
X151259323Y-84684796D01*
X151316661Y-84642929D01*
X151359286Y-84635500D01*
X151533500Y-84635500D01*
X151601621Y-84655502D01*
X151648114Y-84709158D01*
X151659500Y-84761500D01*
X151659500Y-85179748D01*
X151671133Y-85238231D01*
X151715448Y-85304552D01*
X151781769Y-85348867D01*
X151793938Y-85351288D01*
X151793939Y-85351288D01*
X151834184Y-85359293D01*
X151840252Y-85360500D01*
X155379748Y-85360500D01*
X155385816Y-85359293D01*
X155426061Y-85351288D01*
X155426062Y-85351288D01*
X155438231Y-85348867D01*
X155504552Y-85304552D01*
X155548867Y-85238231D01*
X155560500Y-85179748D01*
X171239500Y-85179748D01*
X171251133Y-85238231D01*
X171295448Y-85304552D01*
X171361769Y-85348867D01*
X171373938Y-85351288D01*
X171373939Y-85351288D01*
X171414184Y-85359293D01*
X171420252Y-85360500D01*
X174959748Y-85360500D01*
X174965816Y-85359293D01*
X175006061Y-85351288D01*
X175006062Y-85351288D01*
X175018231Y-85348867D01*
X175084552Y-85304552D01*
X175128867Y-85238231D01*
X175140500Y-85179748D01*
X175140500Y-83440252D01*
X175128867Y-83381769D01*
X175084552Y-83315448D01*
X175018231Y-83271133D01*
X175006062Y-83268712D01*
X175006061Y-83268712D01*
X174965816Y-83260707D01*
X174959748Y-83259500D01*
X171420252Y-83259500D01*
X171414184Y-83260707D01*
X171373939Y-83268712D01*
X171373938Y-83268712D01*
X171361769Y-83271133D01*
X171295448Y-83315448D01*
X171251133Y-83381769D01*
X171239500Y-83440252D01*
X171239500Y-85179748D01*
X155560500Y-85179748D01*
X155560500Y-83440252D01*
X155548867Y-83381769D01*
X155504552Y-83315448D01*
X155438231Y-83271133D01*
X155426062Y-83268712D01*
X155426061Y-83268712D01*
X155385816Y-83260707D01*
X155379748Y-83259500D01*
X151840252Y-83259500D01*
X151834184Y-83260707D01*
X151793939Y-83268712D01*
X151793938Y-83268712D01*
X151781769Y-83271133D01*
X151715448Y-83315448D01*
X151671133Y-83381769D01*
X151659500Y-83440252D01*
X151659500Y-83858500D01*
X151639498Y-83926621D01*
X151585842Y-83973114D01*
X151533500Y-83984500D01*
X151359286Y-83984500D01*
X151291165Y-83964498D01*
X151259323Y-83935204D01*
X151223305Y-83888264D01*
X151218282Y-83881718D01*
X151092841Y-83785464D01*
X150946762Y-83724956D01*
X150790000Y-83704318D01*
X150633238Y-83724956D01*
X150487159Y-83785464D01*
X150361718Y-83881718D01*
X150265464Y-84007159D01*
X150204956Y-84153238D01*
X150184318Y-84310000D01*
X148325500Y-84310000D01*
X148325500Y-82639748D01*
X151659500Y-82639748D01*
X151671133Y-82698231D01*
X151715448Y-82764552D01*
X151781769Y-82808867D01*
X151793938Y-82811288D01*
X151793939Y-82811288D01*
X151827045Y-82817873D01*
X151840252Y-82820500D01*
X155379748Y-82820500D01*
X155392955Y-82817873D01*
X155426061Y-82811288D01*
X155426062Y-82811288D01*
X155438231Y-82808867D01*
X155504552Y-82764552D01*
X155548867Y-82698231D01*
X155560500Y-82639748D01*
X171239500Y-82639748D01*
X171251133Y-82698231D01*
X171295448Y-82764552D01*
X171361769Y-82808867D01*
X171373938Y-82811288D01*
X171373939Y-82811288D01*
X171407045Y-82817873D01*
X171420252Y-82820500D01*
X174959748Y-82820500D01*
X174972955Y-82817873D01*
X175006061Y-82811288D01*
X175006062Y-82811288D01*
X175018231Y-82808867D01*
X175084552Y-82764552D01*
X175128867Y-82698231D01*
X175140500Y-82639748D01*
X175140500Y-80900252D01*
X175128867Y-80841769D01*
X175084552Y-80775448D01*
X175018231Y-80731133D01*
X175006062Y-80728712D01*
X175006061Y-80728712D01*
X174965816Y-80720707D01*
X174959748Y-80719500D01*
X171420252Y-80719500D01*
X171414184Y-80720707D01*
X171373939Y-80728712D01*
X171373938Y-80728712D01*
X171361769Y-80731133D01*
X171295448Y-80775448D01*
X171251133Y-80841769D01*
X171239500Y-80900252D01*
X171239500Y-82639748D01*
X155560500Y-82639748D01*
X155560500Y-80900252D01*
X155548867Y-80841769D01*
X155504552Y-80775448D01*
X155438231Y-80731133D01*
X155426062Y-80728712D01*
X155426061Y-80728712D01*
X155385816Y-80720707D01*
X155379748Y-80719500D01*
X151840252Y-80719500D01*
X151834184Y-80720707D01*
X151793939Y-80728712D01*
X151793938Y-80728712D01*
X151781769Y-80731133D01*
X151715448Y-80775448D01*
X151671133Y-80841769D01*
X151659500Y-80900252D01*
X151659500Y-82639748D01*
X148325500Y-82639748D01*
X148325500Y-79200000D01*
X150494318Y-79200000D01*
X150514956Y-79356762D01*
X150575464Y-79502841D01*
X150671718Y-79628282D01*
X150797159Y-79724536D01*
X150943238Y-79785044D01*
X151100000Y-79805682D01*
X151108188Y-79804604D01*
X151248574Y-79786122D01*
X151256762Y-79785044D01*
X151402841Y-79724536D01*
X151456796Y-79683135D01*
X151523017Y-79657535D01*
X151592565Y-79671800D01*
X151643361Y-79721401D01*
X151659500Y-79783098D01*
X151659500Y-80099748D01*
X151671133Y-80158231D01*
X151715448Y-80224552D01*
X151781769Y-80268867D01*
X151793938Y-80271288D01*
X151793939Y-80271288D01*
X151834184Y-80279293D01*
X151840252Y-80280500D01*
X155379748Y-80280500D01*
X155385816Y-80279293D01*
X155426061Y-80271288D01*
X155426062Y-80271288D01*
X155438231Y-80268867D01*
X155504552Y-80224552D01*
X155548867Y-80158231D01*
X155560500Y-80099748D01*
X171239500Y-80099748D01*
X171251133Y-80158231D01*
X171295448Y-80224552D01*
X171361769Y-80268867D01*
X171373938Y-80271288D01*
X171373939Y-80271288D01*
X171414184Y-80279293D01*
X171420252Y-80280500D01*
X174959748Y-80280500D01*
X174965816Y-80279293D01*
X175006061Y-80271288D01*
X175006062Y-80271288D01*
X175018231Y-80268867D01*
X175084552Y-80224552D01*
X175128867Y-80158231D01*
X175140500Y-80099748D01*
X175140500Y-78360252D01*
X175128867Y-78301769D01*
X175084552Y-78235448D01*
X175018231Y-78191133D01*
X175006062Y-78188712D01*
X175006061Y-78188712D01*
X174965816Y-78180707D01*
X174959748Y-78179500D01*
X171420252Y-78179500D01*
X171414184Y-78180707D01*
X171373939Y-78188712D01*
X171373938Y-78188712D01*
X171361769Y-78191133D01*
X171295448Y-78235448D01*
X171251133Y-78301769D01*
X171239500Y-78360252D01*
X171239500Y-80099748D01*
X155560500Y-80099748D01*
X155560500Y-78360252D01*
X155548867Y-78301769D01*
X155504552Y-78235448D01*
X155438231Y-78191133D01*
X155426062Y-78188712D01*
X155426061Y-78188712D01*
X155385816Y-78180707D01*
X155379748Y-78179500D01*
X151840252Y-78179500D01*
X151834184Y-78180707D01*
X151793939Y-78188712D01*
X151793938Y-78188712D01*
X151781769Y-78191133D01*
X151715448Y-78235448D01*
X151671133Y-78301769D01*
X151659500Y-78360252D01*
X151659500Y-78616902D01*
X151639498Y-78685023D01*
X151585842Y-78731516D01*
X151515568Y-78741620D01*
X151456796Y-78716865D01*
X151454363Y-78714998D01*
X151402841Y-78675464D01*
X151256762Y-78614956D01*
X151100000Y-78594318D01*
X150943238Y-78614956D01*
X150797159Y-78675464D01*
X150671718Y-78771718D01*
X150575464Y-78897159D01*
X150514956Y-79043238D01*
X150494318Y-79200000D01*
X148325500Y-79200000D01*
X148325500Y-76700000D01*
X150494318Y-76700000D01*
X150514956Y-76856762D01*
X150575464Y-77002841D01*
X150671718Y-77128282D01*
X150797159Y-77224536D01*
X150943238Y-77285044D01*
X151100000Y-77305682D01*
X151108188Y-77304604D01*
X151248574Y-77286122D01*
X151256762Y-77285044D01*
X151402841Y-77224536D01*
X151456796Y-77183135D01*
X151523017Y-77157535D01*
X151592565Y-77171800D01*
X151643361Y-77221401D01*
X151659500Y-77283098D01*
X151659500Y-77559748D01*
X151671133Y-77618231D01*
X151715448Y-77684552D01*
X151781769Y-77728867D01*
X151793938Y-77731288D01*
X151793939Y-77731288D01*
X151834184Y-77739293D01*
X151840252Y-77740500D01*
X155379748Y-77740500D01*
X155385816Y-77739293D01*
X155426061Y-77731288D01*
X155426062Y-77731288D01*
X155438231Y-77728867D01*
X155504552Y-77684552D01*
X155548867Y-77618231D01*
X155560500Y-77559748D01*
X171239500Y-77559748D01*
X171251133Y-77618231D01*
X171295448Y-77684552D01*
X171361769Y-77728867D01*
X171373938Y-77731288D01*
X171373939Y-77731288D01*
X171414184Y-77739293D01*
X171420252Y-77740500D01*
X174959748Y-77740500D01*
X174965816Y-77739293D01*
X175006061Y-77731288D01*
X175006062Y-77731288D01*
X175018231Y-77728867D01*
X175084552Y-77684552D01*
X175128867Y-77618231D01*
X175140500Y-77559748D01*
X175140500Y-75820252D01*
X175128867Y-75761769D01*
X175084552Y-75695448D01*
X175018231Y-75651133D01*
X175006062Y-75648712D01*
X175006061Y-75648712D01*
X174965816Y-75640707D01*
X174959748Y-75639500D01*
X171420252Y-75639500D01*
X171414184Y-75640707D01*
X171373939Y-75648712D01*
X171373938Y-75648712D01*
X171361769Y-75651133D01*
X171295448Y-75695448D01*
X171251133Y-75761769D01*
X171239500Y-75820252D01*
X171239500Y-77559748D01*
X155560500Y-77559748D01*
X155560500Y-75820252D01*
X155548867Y-75761769D01*
X155504552Y-75695448D01*
X155438231Y-75651133D01*
X155426062Y-75648712D01*
X155426061Y-75648712D01*
X155385816Y-75640707D01*
X155379748Y-75639500D01*
X151840252Y-75639500D01*
X151834184Y-75640707D01*
X151793939Y-75648712D01*
X151793938Y-75648712D01*
X151781769Y-75651133D01*
X151715448Y-75695448D01*
X151671133Y-75761769D01*
X151659500Y-75820252D01*
X151659500Y-76116902D01*
X151639498Y-76185023D01*
X151585842Y-76231516D01*
X151515568Y-76241620D01*
X151456796Y-76216865D01*
X151454363Y-76214998D01*
X151402841Y-76175464D01*
X151256762Y-76114956D01*
X151100000Y-76094318D01*
X150943238Y-76114956D01*
X150797159Y-76175464D01*
X150671718Y-76271718D01*
X150575464Y-76397159D01*
X150514956Y-76543238D01*
X150494318Y-76700000D01*
X148325500Y-76700000D01*
X148325500Y-71700000D01*
X150594318Y-71700000D01*
X150614956Y-71856762D01*
X150675464Y-72002841D01*
X150771718Y-72128282D01*
X150897159Y-72224536D01*
X151043238Y-72285044D01*
X151200000Y-72305682D01*
X151208188Y-72304604D01*
X151348574Y-72286122D01*
X151356762Y-72285044D01*
X151485283Y-72231809D01*
X151555871Y-72224220D01*
X151619358Y-72255999D01*
X151655586Y-72317057D01*
X151659500Y-72348218D01*
X151659500Y-72479748D01*
X151671133Y-72538231D01*
X151715448Y-72604552D01*
X151781769Y-72648867D01*
X151793938Y-72651288D01*
X151793939Y-72651288D01*
X151834184Y-72659293D01*
X151840252Y-72660500D01*
X155379748Y-72660500D01*
X155385816Y-72659293D01*
X155426061Y-72651288D01*
X155426062Y-72651288D01*
X155438231Y-72648867D01*
X155504552Y-72604552D01*
X155548867Y-72538231D01*
X155560500Y-72479748D01*
X171239500Y-72479748D01*
X171251133Y-72538231D01*
X171295448Y-72604552D01*
X171361769Y-72648867D01*
X171373938Y-72651288D01*
X171373939Y-72651288D01*
X171414184Y-72659293D01*
X171420252Y-72660500D01*
X174959748Y-72660500D01*
X174965816Y-72659293D01*
X175006061Y-72651288D01*
X175006062Y-72651288D01*
X175018231Y-72648867D01*
X175084552Y-72604552D01*
X175128867Y-72538231D01*
X175140500Y-72479748D01*
X175140500Y-70740252D01*
X175128867Y-70681769D01*
X175084552Y-70615448D01*
X175018231Y-70571133D01*
X175006062Y-70568712D01*
X175006061Y-70568712D01*
X174965816Y-70560707D01*
X174959748Y-70559500D01*
X171420252Y-70559500D01*
X171414184Y-70560707D01*
X171373939Y-70568712D01*
X171373938Y-70568712D01*
X171361769Y-70571133D01*
X171295448Y-70615448D01*
X171251133Y-70681769D01*
X171239500Y-70740252D01*
X171239500Y-72479748D01*
X155560500Y-72479748D01*
X155560500Y-70740252D01*
X155548867Y-70681769D01*
X155504552Y-70615448D01*
X155438231Y-70571133D01*
X155426062Y-70568712D01*
X155426061Y-70568712D01*
X155385816Y-70560707D01*
X155379748Y-70559500D01*
X151840252Y-70559500D01*
X151834184Y-70560707D01*
X151793939Y-70568712D01*
X151793938Y-70568712D01*
X151781769Y-70571133D01*
X151715448Y-70615448D01*
X151671133Y-70681769D01*
X151659500Y-70740252D01*
X151659500Y-71051782D01*
X151639498Y-71119903D01*
X151585842Y-71166396D01*
X151515568Y-71176500D01*
X151485282Y-71168191D01*
X151466271Y-71160316D01*
X151356762Y-71114956D01*
X151200000Y-71094318D01*
X151043238Y-71114956D01*
X150897159Y-71175464D01*
X150771718Y-71271718D01*
X150675464Y-71397159D01*
X150614956Y-71543238D01*
X150594318Y-71700000D01*
X148325500Y-71700000D01*
X148325500Y-71487016D01*
X148345502Y-71418895D01*
X148362405Y-71397921D01*
X150327922Y-69432405D01*
X150390234Y-69398379D01*
X150417017Y-69395500D01*
X151533500Y-69395500D01*
X151601621Y-69415502D01*
X151648114Y-69469158D01*
X151659500Y-69521500D01*
X151659500Y-69939748D01*
X151660707Y-69945816D01*
X151668699Y-69985993D01*
X151671133Y-69998231D01*
X151678026Y-70008547D01*
X151687655Y-70022957D01*
X151715448Y-70064552D01*
X151781769Y-70108867D01*
X151793938Y-70111288D01*
X151793939Y-70111288D01*
X151834184Y-70119293D01*
X151840252Y-70120500D01*
X155379748Y-70120500D01*
X155385816Y-70119293D01*
X155426061Y-70111288D01*
X155426062Y-70111288D01*
X155438231Y-70108867D01*
X155504552Y-70064552D01*
X155532345Y-70022957D01*
X155541974Y-70008547D01*
X155548867Y-69998231D01*
X155551302Y-69985993D01*
X155559293Y-69945816D01*
X155560500Y-69939748D01*
X171239500Y-69939748D01*
X171240707Y-69945816D01*
X171248699Y-69985993D01*
X171251133Y-69998231D01*
X171258026Y-70008547D01*
X171267655Y-70022957D01*
X171295448Y-70064552D01*
X171361769Y-70108867D01*
X171373938Y-70111288D01*
X171373939Y-70111288D01*
X171414184Y-70119293D01*
X171420252Y-70120500D01*
X174959748Y-70120500D01*
X174965816Y-70119293D01*
X175006061Y-70111288D01*
X175006062Y-70111288D01*
X175018231Y-70108867D01*
X175084552Y-70064552D01*
X175112345Y-70022957D01*
X175121974Y-70008547D01*
X175128867Y-69998231D01*
X175131302Y-69985993D01*
X175139293Y-69945816D01*
X175140500Y-69939748D01*
X175140500Y-68200252D01*
X175128867Y-68141769D01*
X175084552Y-68075448D01*
X175018231Y-68031133D01*
X175006062Y-68028712D01*
X175006061Y-68028712D01*
X174965816Y-68020707D01*
X174959748Y-68019500D01*
X171420252Y-68019500D01*
X171414184Y-68020707D01*
X171373939Y-68028712D01*
X171373938Y-68028712D01*
X171361769Y-68031133D01*
X171295448Y-68075448D01*
X171251133Y-68141769D01*
X171239500Y-68200252D01*
X171239500Y-69939748D01*
X155560500Y-69939748D01*
X155560500Y-68200252D01*
X155548867Y-68141769D01*
X155504552Y-68075448D01*
X155438231Y-68031133D01*
X155426062Y-68028712D01*
X155426061Y-68028712D01*
X155385816Y-68020707D01*
X155379748Y-68019500D01*
X151840252Y-68019500D01*
X151834184Y-68020707D01*
X151793939Y-68028712D01*
X151793938Y-68028712D01*
X151781769Y-68031133D01*
X151715448Y-68075448D01*
X151671133Y-68141769D01*
X151659500Y-68200252D01*
X151659500Y-68618500D01*
X151639498Y-68686621D01*
X151585842Y-68733114D01*
X151533500Y-68744500D01*
X150249713Y-68744500D01*
X150238732Y-68744021D01*
X150212170Y-68741697D01*
X150212168Y-68741697D01*
X150201193Y-68740737D01*
X150164783Y-68750492D01*
X150154076Y-68752866D01*
X150116955Y-68759412D01*
X150107411Y-68764922D01*
X150104135Y-68766114D01*
X150100964Y-68767593D01*
X150090316Y-68770446D01*
X150081287Y-68776768D01*
X150059449Y-68792059D01*
X150050179Y-68797964D01*
X150027092Y-68811293D01*
X150027088Y-68811296D01*
X150017545Y-68816806D01*
X150010459Y-68825250D01*
X150010460Y-68825250D01*
X149993320Y-68845677D01*
X149985892Y-68853782D01*
X147783785Y-71055889D01*
X147775681Y-71063316D01*
X147746806Y-71087545D01*
X147741293Y-71097094D01*
X147727961Y-71120185D01*
X147722055Y-71129456D01*
X147700446Y-71160316D01*
X147697592Y-71170966D01*
X147696115Y-71174134D01*
X147694923Y-71177410D01*
X147689412Y-71186955D01*
X147684665Y-71213878D01*
X147682870Y-71224058D01*
X147680492Y-71234785D01*
X147670736Y-71271193D01*
X147671697Y-71282178D01*
X147671697Y-71282180D01*
X147674020Y-71308728D01*
X147674500Y-71319710D01*
X147674500Y-87505085D01*
X147654498Y-87573206D01*
X147637595Y-87594180D01*
X146337541Y-88894234D01*
X146275229Y-88928260D01*
X146205451Y-88921832D01*
X146205106Y-88922948D01*
X146199827Y-88921314D01*
X146199828Y-88921314D01*
X146008305Y-88862028D01*
X146002180Y-88861384D01*
X146002179Y-88861384D01*
X145809549Y-88841138D01*
X145809547Y-88841138D01*
X145803420Y-88840494D01*
X145716580Y-88848397D01*
X145604393Y-88858606D01*
X145604390Y-88858607D01*
X145598254Y-88859165D01*
X145400623Y-88917331D01*
X145218053Y-89012777D01*
X145213252Y-89016637D01*
X145213249Y-89016639D01*
X145070647Y-89131294D01*
X145057498Y-89141866D01*
X144925075Y-89299681D01*
X144922107Y-89305079D01*
X144922104Y-89305084D01*
X144859043Y-89419793D01*
X144825827Y-89480213D01*
X144763535Y-89676583D01*
X144762849Y-89682700D01*
X144762848Y-89682704D01*
X144742896Y-89860588D01*
X144740571Y-89881313D01*
X144757810Y-90086604D01*
X144759509Y-90092529D01*
X144795495Y-90218026D01*
X144814595Y-90284637D01*
X144817413Y-90290119D01*
X144817414Y-90290123D01*
X144817592Y-90290470D01*
X144817630Y-90290670D01*
X144819681Y-90295850D01*
X144818696Y-90296240D01*
X144830938Y-90360201D01*
X144804465Y-90426078D01*
X144794619Y-90437156D01*
X143044181Y-92187595D01*
X142981869Y-92221620D01*
X142955086Y-92224500D01*
X133979238Y-92224500D01*
X133935095Y-92215720D01*
X133928231Y-92211133D01*
X133869748Y-92199500D01*
X132530252Y-92199500D01*
X132524184Y-92200707D01*
X132483939Y-92208712D01*
X132483938Y-92208712D01*
X132471769Y-92211133D01*
X132405448Y-92255448D01*
X132361133Y-92321769D01*
X132349500Y-92380252D01*
X132349500Y-92719748D01*
X126200500Y-92719748D01*
X126200500Y-91719748D01*
X132349500Y-91719748D01*
X132361133Y-91778231D01*
X132405448Y-91844552D01*
X132471769Y-91888867D01*
X132483938Y-91891288D01*
X132483939Y-91891288D01*
X132524184Y-91899293D01*
X132530252Y-91900500D01*
X133869748Y-91900500D01*
X133928231Y-91888867D01*
X133935095Y-91884280D01*
X133979238Y-91875500D01*
X140530290Y-91875500D01*
X140541272Y-91875980D01*
X140567820Y-91878303D01*
X140567822Y-91878303D01*
X140578807Y-91879264D01*
X140615215Y-91869508D01*
X140625942Y-91867130D01*
X140629301Y-91866538D01*
X140663045Y-91860588D01*
X140672590Y-91855077D01*
X140675866Y-91853885D01*
X140679034Y-91852408D01*
X140689684Y-91849554D01*
X140720544Y-91827945D01*
X140729815Y-91822039D01*
X140752906Y-91808707D01*
X140762455Y-91803194D01*
X140786685Y-91774317D01*
X140794111Y-91766215D01*
X143459122Y-89101204D01*
X143521434Y-89067178D01*
X143587151Y-89070466D01*
X143773329Y-89130959D01*
X143977894Y-89155351D01*
X143984029Y-89154879D01*
X143984031Y-89154879D01*
X144040039Y-89150569D01*
X144183300Y-89139546D01*
X144189230Y-89137890D01*
X144189232Y-89137890D01*
X144336511Y-89096769D01*
X144381725Y-89084145D01*
X144387214Y-89081372D01*
X144387220Y-89081370D01*
X144523010Y-89012777D01*
X144565610Y-88991258D01*
X144727951Y-88864424D01*
X144732491Y-88859165D01*
X144858540Y-88713134D01*
X144858540Y-88713133D01*
X144862564Y-88708472D01*
X144964323Y-88529344D01*
X145029351Y-88333863D01*
X145055171Y-88129474D01*
X145055583Y-88100000D01*
X145035480Y-87894970D01*
X144975935Y-87697749D01*
X144974312Y-87694696D01*
X144966944Y-87625024D01*
X145001808Y-87558518D01*
X146216215Y-86344111D01*
X146224319Y-86336684D01*
X146244749Y-86319541D01*
X146253194Y-86312455D01*
X146263067Y-86295354D01*
X146272039Y-86279815D01*
X146277945Y-86270544D01*
X146293230Y-86248715D01*
X146299554Y-86239684D01*
X146302408Y-86229034D01*
X146303885Y-86225866D01*
X146305077Y-86222590D01*
X146310588Y-86213045D01*
X146317130Y-86175942D01*
X146319509Y-86165210D01*
X146326410Y-86139456D01*
X146329264Y-86128807D01*
X146325980Y-86091272D01*
X146325500Y-86080290D01*
X146325500Y-77269286D01*
X146345502Y-77201165D01*
X146374796Y-77169323D01*
X146421736Y-77133305D01*
X146428282Y-77128282D01*
X146524536Y-77002841D01*
X146585044Y-76856762D01*
X146605682Y-76700000D01*
X146585044Y-76543238D01*
X146524536Y-76397159D01*
X146428282Y-76271718D01*
X146302841Y-76175464D01*
X146156762Y-76114956D01*
X146000000Y-76094318D01*
X145843238Y-76114956D01*
X145697159Y-76175464D01*
X145571718Y-76271718D01*
X145475464Y-76397159D01*
X145414956Y-76543238D01*
X145394318Y-76700000D01*
X145414956Y-76856762D01*
X145475464Y-77002841D01*
X145571718Y-77128282D01*
X145578264Y-77133305D01*
X145625204Y-77169323D01*
X145667071Y-77226661D01*
X145674500Y-77269286D01*
X145674500Y-85912984D01*
X145654498Y-85981105D01*
X145637595Y-86002079D01*
X144541491Y-87098183D01*
X144479179Y-87132209D01*
X144409400Y-87125783D01*
X144409055Y-87126897D01*
X144403786Y-87125266D01*
X144212254Y-87065977D01*
X144206129Y-87065333D01*
X144206128Y-87065333D01*
X144013498Y-87045087D01*
X144013496Y-87045087D01*
X144007369Y-87044443D01*
X143920529Y-87052346D01*
X143808342Y-87062555D01*
X143808339Y-87062556D01*
X143802203Y-87063114D01*
X143604572Y-87121280D01*
X143599107Y-87124137D01*
X143596915Y-87125283D01*
X143422002Y-87216726D01*
X143417201Y-87220586D01*
X143417198Y-87220588D01*
X143291624Y-87321552D01*
X143261447Y-87345815D01*
X143129024Y-87503630D01*
X143126056Y-87509028D01*
X143126053Y-87509033D01*
X143062287Y-87625024D01*
X143029776Y-87684162D01*
X142967484Y-87880532D01*
X142966798Y-87886649D01*
X142966797Y-87886653D01*
X142946257Y-88069777D01*
X142944520Y-88085262D01*
X142945036Y-88091406D01*
X142959946Y-88268958D01*
X142961759Y-88290553D01*
X142963458Y-88296478D01*
X142994649Y-88405253D01*
X143018544Y-88488586D01*
X143021362Y-88494069D01*
X143021365Y-88494077D01*
X143021545Y-88494428D01*
X143021584Y-88494630D01*
X143023630Y-88499799D01*
X143022647Y-88500188D01*
X143034886Y-88564160D01*
X143008409Y-88630034D01*
X142998568Y-88641106D01*
X140452079Y-91187595D01*
X140389767Y-91221621D01*
X140362984Y-91224500D01*
X133979238Y-91224500D01*
X133935095Y-91215720D01*
X133928231Y-91211133D01*
X133869748Y-91199500D01*
X132530252Y-91199500D01*
X132524184Y-91200707D01*
X132483939Y-91208712D01*
X132483938Y-91208712D01*
X132471769Y-91211133D01*
X132405448Y-91255448D01*
X132361133Y-91321769D01*
X132349500Y-91380252D01*
X132349500Y-91719748D01*
X126200500Y-91719748D01*
X126200500Y-90719748D01*
X132349500Y-90719748D01*
X132361133Y-90778231D01*
X132405448Y-90844552D01*
X132415761Y-90851443D01*
X132457751Y-90879500D01*
X132471769Y-90888867D01*
X132483938Y-90891288D01*
X132483939Y-90891288D01*
X132513943Y-90897256D01*
X132530252Y-90900500D01*
X133869748Y-90900500D01*
X133928231Y-90888867D01*
X133935095Y-90884280D01*
X133979238Y-90875500D01*
X137938186Y-90875500D01*
X137949168Y-90875980D01*
X137975716Y-90878303D01*
X137975718Y-90878303D01*
X137986703Y-90879264D01*
X138023111Y-90869508D01*
X138033838Y-90867130D01*
X138037308Y-90866518D01*
X138070941Y-90860588D01*
X138080486Y-90855077D01*
X138083762Y-90853885D01*
X138086930Y-90852408D01*
X138097580Y-90849554D01*
X138128440Y-90827945D01*
X138137711Y-90822039D01*
X138160802Y-90808707D01*
X138170351Y-90803194D01*
X138194581Y-90774317D01*
X138202007Y-90766215D01*
X141663070Y-87305153D01*
X141725382Y-87271127D01*
X141791101Y-87274415D01*
X141971419Y-87333004D01*
X141971423Y-87333005D01*
X141977277Y-87334907D01*
X142181842Y-87359299D01*
X142187977Y-87358827D01*
X142187979Y-87358827D01*
X142243987Y-87354517D01*
X142387248Y-87343494D01*
X142393178Y-87341838D01*
X142393180Y-87341838D01*
X142524571Y-87305153D01*
X142585673Y-87288093D01*
X142591162Y-87285320D01*
X142591168Y-87285318D01*
X142726956Y-87216726D01*
X142769558Y-87195206D01*
X142931899Y-87068372D01*
X142952072Y-87045002D01*
X143062488Y-86917082D01*
X143062488Y-86917081D01*
X143066512Y-86912420D01*
X143168271Y-86733292D01*
X143233299Y-86537811D01*
X143259119Y-86333422D01*
X143259531Y-86303948D01*
X143239428Y-86098918D01*
X143179883Y-85901697D01*
X143178260Y-85898645D01*
X143170892Y-85828976D01*
X143205756Y-85762467D01*
X144216222Y-84752001D01*
X144224326Y-84744574D01*
X144244749Y-84727437D01*
X144253194Y-84720351D01*
X144272039Y-84687711D01*
X144277943Y-84678443D01*
X144293231Y-84656609D01*
X144299553Y-84647580D01*
X144302406Y-84636934D01*
X144303883Y-84633766D01*
X144305076Y-84630489D01*
X144310588Y-84620941D01*
X144317132Y-84583827D01*
X144319512Y-84573092D01*
X144326410Y-84547350D01*
X144329263Y-84536703D01*
X144325979Y-84499165D01*
X144325500Y-84488184D01*
X144325500Y-73187017D01*
X144345502Y-73118896D01*
X144362405Y-73097921D01*
X145027619Y-72432708D01*
X145089931Y-72398683D01*
X145133158Y-72396882D01*
X145200000Y-72405682D01*
X145208188Y-72404604D01*
X145348574Y-72386122D01*
X145356762Y-72385044D01*
X145502841Y-72324536D01*
X145628282Y-72228282D01*
X145724536Y-72102841D01*
X145785044Y-71956762D01*
X145805682Y-71800000D01*
X145785044Y-71643238D01*
X145724536Y-71497159D01*
X145628282Y-71371718D01*
X145502841Y-71275464D01*
X145356762Y-71214956D01*
X145200000Y-71194318D01*
X145043238Y-71214956D01*
X144897159Y-71275464D01*
X144771718Y-71371718D01*
X144675464Y-71497159D01*
X144614956Y-71643238D01*
X144594318Y-71800000D01*
X144603118Y-71866841D01*
X144592179Y-71936988D01*
X144567292Y-71972381D01*
X143783779Y-72755895D01*
X143775675Y-72763321D01*
X143746806Y-72787545D01*
X143741293Y-72797094D01*
X143727961Y-72820185D01*
X143722055Y-72829456D01*
X143700446Y-72860316D01*
X143697592Y-72870966D01*
X143696115Y-72874134D01*
X143694923Y-72877410D01*
X143689412Y-72886955D01*
X143683462Y-72920699D01*
X143682870Y-72924058D01*
X143680492Y-72934785D01*
X143670736Y-72971193D01*
X143671697Y-72982178D01*
X143671697Y-72982180D01*
X143674020Y-73008728D01*
X143674500Y-73019710D01*
X143674500Y-84320879D01*
X143654498Y-84389000D01*
X143637595Y-84409974D01*
X142745438Y-85302131D01*
X142683126Y-85336157D01*
X142613348Y-85329729D01*
X142613003Y-85330845D01*
X142607724Y-85329211D01*
X142607725Y-85329211D01*
X142416202Y-85269925D01*
X142410077Y-85269281D01*
X142410076Y-85269281D01*
X142217446Y-85249035D01*
X142217444Y-85249035D01*
X142211317Y-85248391D01*
X142124477Y-85256294D01*
X142012290Y-85266503D01*
X142012287Y-85266504D01*
X142006151Y-85267062D01*
X141808520Y-85325228D01*
X141625950Y-85420674D01*
X141621149Y-85424534D01*
X141621146Y-85424536D01*
X141478054Y-85539585D01*
X141465395Y-85549763D01*
X141332972Y-85707578D01*
X141330004Y-85712976D01*
X141330001Y-85712981D01*
X141266940Y-85827690D01*
X141233724Y-85888110D01*
X141171432Y-86084480D01*
X141170746Y-86090597D01*
X141170745Y-86090601D01*
X141157011Y-86213045D01*
X141148468Y-86289210D01*
X141165707Y-86494501D01*
X141167406Y-86500426D01*
X141216532Y-86671748D01*
X141222492Y-86692534D01*
X141225310Y-86698016D01*
X141225311Y-86698020D01*
X141225489Y-86698367D01*
X141225527Y-86698567D01*
X141227578Y-86703747D01*
X141226593Y-86704137D01*
X141238835Y-86768098D01*
X141212362Y-86833975D01*
X141202516Y-86845053D01*
X137859975Y-90187595D01*
X137797663Y-90221621D01*
X137770880Y-90224500D01*
X133979238Y-90224500D01*
X133935095Y-90215720D01*
X133928231Y-90211133D01*
X133869748Y-90199500D01*
X132530252Y-90199500D01*
X132524184Y-90200707D01*
X132483939Y-90208712D01*
X132483938Y-90208712D01*
X132471769Y-90211133D01*
X132405448Y-90255448D01*
X132361133Y-90321769D01*
X132349500Y-90380252D01*
X132349500Y-90719748D01*
X126200500Y-90719748D01*
X126200500Y-89719748D01*
X132349500Y-89719748D01*
X132361133Y-89778231D01*
X132405448Y-89844552D01*
X132471769Y-89888867D01*
X132483938Y-89891288D01*
X132483939Y-89891288D01*
X132507885Y-89896051D01*
X132530252Y-89900500D01*
X133869748Y-89900500D01*
X133928231Y-89888867D01*
X133935095Y-89884280D01*
X133979238Y-89875500D01*
X135346084Y-89875500D01*
X135357066Y-89875980D01*
X135383614Y-89878303D01*
X135383616Y-89878303D01*
X135394601Y-89879264D01*
X135431009Y-89869508D01*
X135441736Y-89867130D01*
X135445095Y-89866538D01*
X135478839Y-89860588D01*
X135488384Y-89855077D01*
X135491660Y-89853885D01*
X135494828Y-89852408D01*
X135505478Y-89849554D01*
X135536338Y-89827945D01*
X135545609Y-89822039D01*
X135568700Y-89808707D01*
X135578249Y-89803194D01*
X135602479Y-89774317D01*
X135609905Y-89766215D01*
X139867019Y-85509101D01*
X139929331Y-85475075D01*
X139995048Y-85478363D01*
X140181226Y-85538856D01*
X140385791Y-85563248D01*
X140391926Y-85562776D01*
X140391928Y-85562776D01*
X140447936Y-85558466D01*
X140591197Y-85547443D01*
X140597127Y-85545787D01*
X140597129Y-85545787D01*
X140783694Y-85493697D01*
X140783693Y-85493697D01*
X140789622Y-85492042D01*
X140795111Y-85489269D01*
X140795117Y-85489267D01*
X140930907Y-85420674D01*
X140973507Y-85399155D01*
X141022984Y-85360500D01*
X141130998Y-85276110D01*
X141135848Y-85272321D01*
X141140388Y-85267062D01*
X141266437Y-85121031D01*
X141266437Y-85121030D01*
X141270461Y-85116369D01*
X141372220Y-84937241D01*
X141437248Y-84741760D01*
X141463068Y-84537371D01*
X141463480Y-84507897D01*
X141443377Y-84302867D01*
X141383832Y-84105646D01*
X141382209Y-84102593D01*
X141374841Y-84032921D01*
X141409705Y-83966415D01*
X142216215Y-83159905D01*
X142224319Y-83152478D01*
X142244749Y-83135335D01*
X142253194Y-83128249D01*
X142261252Y-83114292D01*
X142272039Y-83095609D01*
X142277945Y-83086338D01*
X142299554Y-83055478D01*
X142302408Y-83044827D01*
X142303888Y-83041654D01*
X142305079Y-83038382D01*
X142310588Y-83028839D01*
X142317134Y-82991718D01*
X142319508Y-82981011D01*
X142329263Y-82944601D01*
X142325979Y-82907063D01*
X142325500Y-82896082D01*
X142325500Y-79769286D01*
X142345502Y-79701165D01*
X142374796Y-79669323D01*
X142421736Y-79633305D01*
X142428282Y-79628282D01*
X142524536Y-79502841D01*
X142585044Y-79356762D01*
X142605682Y-79200000D01*
X142585044Y-79043238D01*
X142524536Y-78897159D01*
X142428282Y-78771718D01*
X142302841Y-78675464D01*
X142156762Y-78614956D01*
X142000000Y-78594318D01*
X141843238Y-78614956D01*
X141697159Y-78675464D01*
X141571718Y-78771718D01*
X141475464Y-78897159D01*
X141414956Y-79043238D01*
X141394318Y-79200000D01*
X141414956Y-79356762D01*
X141475464Y-79502841D01*
X141571718Y-79628282D01*
X141578264Y-79633305D01*
X141625204Y-79669323D01*
X141667071Y-79726661D01*
X141674500Y-79769286D01*
X141674500Y-82728778D01*
X141654498Y-82796899D01*
X141637595Y-82817873D01*
X140949388Y-83506080D01*
X140887076Y-83540106D01*
X140817297Y-83533680D01*
X140816952Y-83534794D01*
X140811683Y-83533163D01*
X140620151Y-83473874D01*
X140614026Y-83473230D01*
X140614025Y-83473230D01*
X140421395Y-83452984D01*
X140421393Y-83452984D01*
X140415266Y-83452340D01*
X140328426Y-83460243D01*
X140216239Y-83470452D01*
X140216236Y-83470453D01*
X140210100Y-83471011D01*
X140012469Y-83529177D01*
X140007008Y-83532032D01*
X139964492Y-83554259D01*
X139894856Y-83568093D01*
X139828796Y-83542083D01*
X139787284Y-83484487D01*
X139783501Y-83413591D01*
X139793160Y-83386770D01*
X139876516Y-83218113D01*
X139880315Y-83208518D01*
X139942222Y-83004761D01*
X139944401Y-82994680D01*
X139972436Y-82781733D01*
X139972955Y-82775058D01*
X139974418Y-82715210D01*
X139974224Y-82708492D01*
X139956627Y-82494450D01*
X139954942Y-82484270D01*
X139903060Y-82277721D01*
X139899740Y-82267970D01*
X139814818Y-82072660D01*
X139809951Y-82063585D01*
X139744909Y-81963043D01*
X139734223Y-81953841D01*
X139724658Y-81958244D01*
X137858583Y-83824319D01*
X137851823Y-83836699D01*
X137857104Y-83843753D01*
X138018602Y-83938125D01*
X138027888Y-83942575D01*
X138226847Y-84018549D01*
X138236745Y-84021425D01*
X138445441Y-84063884D01*
X138455669Y-84065103D01*
X138668496Y-84072908D01*
X138678782Y-84072441D01*
X138890031Y-84045380D01*
X138900108Y-84043238D01*
X139104101Y-83982037D01*
X139113693Y-83978277D01*
X139284916Y-83894396D01*
X139354890Y-83882389D01*
X139420247Y-83910119D01*
X139460237Y-83968782D01*
X139462163Y-84039752D01*
X139450763Y-84068247D01*
X139440642Y-84086657D01*
X139440639Y-84086663D01*
X139437673Y-84092059D01*
X139375381Y-84288429D01*
X139374695Y-84294546D01*
X139374694Y-84294550D01*
X139356296Y-84458574D01*
X139352417Y-84493159D01*
X139352933Y-84499303D01*
X139367416Y-84671769D01*
X139369656Y-84698450D01*
X139371355Y-84704375D01*
X139407237Y-84829509D01*
X139426441Y-84896483D01*
X139429259Y-84901966D01*
X139429262Y-84901974D01*
X139429442Y-84902325D01*
X139429481Y-84902527D01*
X139431527Y-84907696D01*
X139430544Y-84908085D01*
X139442783Y-84972057D01*
X139416306Y-85037931D01*
X139406465Y-85049003D01*
X135267873Y-89187595D01*
X135205561Y-89221621D01*
X135178778Y-89224500D01*
X133979238Y-89224500D01*
X133935095Y-89215720D01*
X133928231Y-89211133D01*
X133869748Y-89199500D01*
X132530252Y-89199500D01*
X132524184Y-89200707D01*
X132483939Y-89208712D01*
X132483938Y-89208712D01*
X132471769Y-89211133D01*
X132405448Y-89255448D01*
X132398557Y-89265761D01*
X132379051Y-89294954D01*
X132361133Y-89321769D01*
X132349500Y-89380252D01*
X132349500Y-89719748D01*
X126200500Y-89719748D01*
X126200500Y-88073919D01*
X132194500Y-88073919D01*
X132201583Y-88127407D01*
X132202662Y-88131409D01*
X132202663Y-88131415D01*
X132215932Y-88180637D01*
X132218655Y-88190737D01*
X132224994Y-88210300D01*
X132275711Y-88286405D01*
X132280845Y-88291271D01*
X132280847Y-88291273D01*
X132319631Y-88328030D01*
X132327241Y-88335242D01*
X132346509Y-88351385D01*
X132430321Y-88387989D01*
X132437269Y-88389306D01*
X132437271Y-88389307D01*
X132474703Y-88396404D01*
X132491971Y-88399678D01*
X132492155Y-88398708D01*
X132506717Y-88399628D01*
X132523355Y-88403426D01*
X132523357Y-88403426D01*
X132530252Y-88405000D01*
X133856503Y-88405000D01*
X133862677Y-88405151D01*
X133864756Y-88405253D01*
X133865561Y-88405273D01*
X133865568Y-88405273D01*
X133874086Y-88405482D01*
X133874098Y-88405482D01*
X133874826Y-88405500D01*
X134374000Y-88405500D01*
X134377346Y-88405140D01*
X134377351Y-88405140D01*
X134413793Y-88401222D01*
X134427261Y-88400500D01*
X134771359Y-88400500D01*
X134779929Y-88400792D01*
X134829354Y-88404162D01*
X134829358Y-88404162D01*
X134836930Y-88404678D01*
X134844406Y-88403373D01*
X134844409Y-88403373D01*
X134899132Y-88393822D01*
X134905658Y-88392859D01*
X134946096Y-88387965D01*
X134968320Y-88385276D01*
X134975427Y-88382591D01*
X134978720Y-88381782D01*
X134993191Y-88377823D01*
X134996467Y-88376834D01*
X135003954Y-88375527D01*
X135010914Y-88372472D01*
X135061760Y-88350153D01*
X135067866Y-88347661D01*
X135119818Y-88328030D01*
X135119820Y-88328029D01*
X135126923Y-88325345D01*
X135133178Y-88321046D01*
X135136203Y-88319465D01*
X135149299Y-88312175D01*
X135152243Y-88310434D01*
X135159202Y-88307379D01*
X135173409Y-88296478D01*
X135209273Y-88268958D01*
X135214609Y-88265081D01*
X135260386Y-88233619D01*
X135260392Y-88233614D01*
X135266651Y-88229312D01*
X135307600Y-88183352D01*
X135312581Y-88178075D01*
X136050081Y-87440576D01*
X136056347Y-87434723D01*
X136093669Y-87402165D01*
X136099396Y-87397169D01*
X136135690Y-87345527D01*
X136139616Y-87340242D01*
X136173897Y-87296522D01*
X136173901Y-87296516D01*
X136178584Y-87290543D01*
X136181709Y-87283623D01*
X136183457Y-87280736D01*
X136190909Y-87267673D01*
X136192523Y-87264663D01*
X136196887Y-87258453D01*
X136219813Y-87199652D01*
X136222369Y-87193571D01*
X136245230Y-87142939D01*
X136248356Y-87136016D01*
X136249740Y-87128551D01*
X136250764Y-87125283D01*
X136254859Y-87110904D01*
X136255716Y-87107566D01*
X136258476Y-87100487D01*
X136259467Y-87092960D01*
X136259468Y-87092956D01*
X136266715Y-87037906D01*
X136267747Y-87031391D01*
X136277869Y-86976776D01*
X136277869Y-86976775D01*
X136279253Y-86969308D01*
X136275709Y-86907844D01*
X136275500Y-86900592D01*
X136275500Y-82683709D01*
X137249896Y-82683709D01*
X137262155Y-82896323D01*
X137263591Y-82906543D01*
X137310411Y-83114292D01*
X137313491Y-83124121D01*
X137393616Y-83321449D01*
X137398259Y-83330640D01*
X137478306Y-83461266D01*
X137488762Y-83470726D01*
X137497540Y-83466942D01*
X138239824Y-82724658D01*
X138247438Y-82710714D01*
X138247307Y-82708881D01*
X138243056Y-82702266D01*
X137501695Y-81960905D01*
X137490159Y-81954605D01*
X137477877Y-81964228D01*
X137429935Y-82034508D01*
X137424850Y-82043459D01*
X137335184Y-82236629D01*
X137331621Y-82246316D01*
X137274710Y-82451527D01*
X137272779Y-82461646D01*
X137250148Y-82673420D01*
X137249896Y-82683709D01*
X136275500Y-82683709D01*
X136275500Y-81588273D01*
X137853069Y-81588273D01*
X137859814Y-81600604D01*
X138599034Y-82339824D01*
X138612978Y-82347438D01*
X138614811Y-82347307D01*
X138621426Y-82343056D01*
X139365235Y-81599247D01*
X139372256Y-81586390D01*
X139365457Y-81577059D01*
X139361400Y-81574364D01*
X139174963Y-81471445D01*
X139165551Y-81467215D01*
X138964805Y-81396126D01*
X138954835Y-81393492D01*
X138745173Y-81356147D01*
X138734919Y-81355177D01*
X138521962Y-81352574D01*
X138511678Y-81353294D01*
X138301167Y-81385507D01*
X138291139Y-81387896D01*
X138088714Y-81454058D01*
X138079205Y-81458055D01*
X137890312Y-81556386D01*
X137881580Y-81561885D01*
X137861523Y-81576945D01*
X137853069Y-81588273D01*
X136275500Y-81588273D01*
X136275500Y-76369984D01*
X136260276Y-76244180D01*
X136249955Y-76216865D01*
X136203031Y-76092684D01*
X136203029Y-76092681D01*
X136200345Y-76085577D01*
X136172659Y-76045294D01*
X136150500Y-75973929D01*
X136150500Y-75791782D01*
X136147874Y-75773939D01*
X136141784Y-75732574D01*
X136141784Y-75732573D01*
X136140358Y-75722888D01*
X136115860Y-75672992D01*
X136093522Y-75627493D01*
X136093521Y-75627491D01*
X136088932Y-75618145D01*
X136006350Y-75535707D01*
X135901518Y-75484464D01*
X135871027Y-75480016D01*
X135837744Y-75475160D01*
X135837740Y-75475160D01*
X135833218Y-75474500D01*
X135466782Y-75474500D01*
X135462232Y-75475170D01*
X135462229Y-75475170D01*
X135407574Y-75483216D01*
X135407573Y-75483216D01*
X135397888Y-75484642D01*
X135347992Y-75509140D01*
X135302493Y-75531478D01*
X135302491Y-75531479D01*
X135293145Y-75536068D01*
X135210707Y-75618650D01*
X135159464Y-75723482D01*
X135149500Y-75791782D01*
X135149500Y-75796770D01*
X135149460Y-75796906D01*
X135149170Y-75800902D01*
X135148305Y-75800839D01*
X135129498Y-75864891D01*
X135106329Y-75891719D01*
X135050604Y-75940331D01*
X134953113Y-76079047D01*
X134891524Y-76237013D01*
X134874500Y-76366326D01*
X134874500Y-86582653D01*
X134854498Y-86650774D01*
X134837595Y-86671748D01*
X134546748Y-86962595D01*
X134484436Y-86996621D01*
X134457653Y-86999500D01*
X134417791Y-86999500D01*
X134399860Y-86998218D01*
X134378448Y-86995139D01*
X134378441Y-86995139D01*
X134374000Y-86994500D01*
X132526000Y-86994500D01*
X132522654Y-86994860D01*
X132522649Y-86994860D01*
X132485683Y-86998834D01*
X132485677Y-86998835D01*
X132482319Y-86999196D01*
X132429977Y-87010582D01*
X132429283Y-87010752D01*
X132429264Y-87010756D01*
X132428130Y-87011033D01*
X132419797Y-87013070D01*
X132339084Y-87056079D01*
X132333738Y-87060711D01*
X132333737Y-87060712D01*
X132290493Y-87098183D01*
X132285428Y-87102572D01*
X132267473Y-87120165D01*
X132222826Y-87199983D01*
X132220832Y-87206775D01*
X132205658Y-87258453D01*
X132202824Y-87268104D01*
X132202184Y-87272552D01*
X132202183Y-87272559D01*
X132195139Y-87321552D01*
X132195138Y-87321559D01*
X132194500Y-87326000D01*
X132194500Y-88073919D01*
X126200500Y-88073919D01*
X126200500Y-86569748D01*
X128649500Y-86569748D01*
X128661133Y-86628231D01*
X128705448Y-86694552D01*
X128771769Y-86738867D01*
X128783938Y-86741288D01*
X128783939Y-86741288D01*
X128824184Y-86749293D01*
X128830252Y-86750500D01*
X131069748Y-86750500D01*
X131075816Y-86749293D01*
X131116061Y-86741288D01*
X131116062Y-86741288D01*
X131128231Y-86738867D01*
X131194552Y-86694552D01*
X131238867Y-86628231D01*
X131250500Y-86569748D01*
X131250500Y-84730252D01*
X131244174Y-84698450D01*
X131241288Y-84683939D01*
X131241288Y-84683938D01*
X131238867Y-84671769D01*
X131194552Y-84605448D01*
X131128231Y-84561133D01*
X131116062Y-84558712D01*
X131116061Y-84558712D01*
X131075816Y-84550707D01*
X131069748Y-84549500D01*
X128830252Y-84549500D01*
X128824184Y-84550707D01*
X128783939Y-84558712D01*
X128783938Y-84558712D01*
X128771769Y-84561133D01*
X128705448Y-84605448D01*
X128661133Y-84671769D01*
X128658712Y-84683938D01*
X128658712Y-84683939D01*
X128655826Y-84698450D01*
X128649500Y-84730252D01*
X128649500Y-86569748D01*
X126200500Y-86569748D01*
X126200500Y-76883218D01*
X133249500Y-76883218D01*
X133250170Y-76887768D01*
X133250170Y-76887771D01*
X133258216Y-76942426D01*
X133259642Y-76952112D01*
X133284140Y-77002008D01*
X133295674Y-77025500D01*
X133311068Y-77056855D01*
X133393650Y-77139293D01*
X133498482Y-77190536D01*
X133528973Y-77194984D01*
X133562256Y-77199840D01*
X133562260Y-77199840D01*
X133566782Y-77200500D01*
X133933218Y-77200500D01*
X133937768Y-77199830D01*
X133937771Y-77199830D01*
X133992426Y-77191784D01*
X133992427Y-77191784D01*
X134002112Y-77190358D01*
X134096804Y-77143867D01*
X134097507Y-77143522D01*
X134097509Y-77143521D01*
X134106855Y-77138932D01*
X134189293Y-77056350D01*
X134240536Y-76951518D01*
X134250500Y-76883218D01*
X134250500Y-75791782D01*
X134247874Y-75773939D01*
X134241784Y-75732574D01*
X134241784Y-75732573D01*
X134240358Y-75722888D01*
X134215860Y-75672992D01*
X134193522Y-75627493D01*
X134193521Y-75627491D01*
X134188932Y-75618145D01*
X134106350Y-75535707D01*
X134001518Y-75484464D01*
X133971027Y-75480016D01*
X133937744Y-75475160D01*
X133937740Y-75475160D01*
X133933218Y-75474500D01*
X133566782Y-75474500D01*
X133562232Y-75475170D01*
X133562229Y-75475170D01*
X133507574Y-75483216D01*
X133507573Y-75483216D01*
X133497888Y-75484642D01*
X133447992Y-75509140D01*
X133402493Y-75531478D01*
X133402491Y-75531479D01*
X133393145Y-75536068D01*
X133310707Y-75618650D01*
X133259464Y-75723482D01*
X133249500Y-75791782D01*
X133249500Y-76883218D01*
X126200500Y-76883218D01*
X126200500Y-73994420D01*
X132443285Y-73994420D01*
X132460076Y-74122829D01*
X132512233Y-74241364D01*
X132595562Y-74340495D01*
X132703364Y-74412255D01*
X132711928Y-74414931D01*
X132711931Y-74414932D01*
X132793974Y-74440564D01*
X132826974Y-74450874D01*
X132956455Y-74453247D01*
X132997244Y-74442127D01*
X133072735Y-74421546D01*
X133072738Y-74421545D01*
X133081397Y-74419184D01*
X133081679Y-74420218D01*
X133143919Y-74412534D01*
X133207898Y-74443311D01*
X133245081Y-74503792D01*
X133249500Y-74536869D01*
X133249500Y-74608218D01*
X133250170Y-74612768D01*
X133250170Y-74612771D01*
X133258216Y-74667426D01*
X133259642Y-74677112D01*
X133311068Y-74781855D01*
X133393650Y-74864293D01*
X133498482Y-74915536D01*
X133528973Y-74919984D01*
X133562256Y-74924840D01*
X133562260Y-74924840D01*
X133566782Y-74925500D01*
X133933218Y-74925500D01*
X133937768Y-74924830D01*
X133937771Y-74924830D01*
X133992426Y-74916784D01*
X133992427Y-74916784D01*
X134002112Y-74915358D01*
X134096804Y-74868867D01*
X134097507Y-74868522D01*
X134097509Y-74868521D01*
X134106855Y-74863932D01*
X134189293Y-74781350D01*
X134240536Y-74676518D01*
X134250500Y-74608218D01*
X134250500Y-73516782D01*
X134241871Y-73458162D01*
X134241784Y-73457574D01*
X134241784Y-73457573D01*
X134240358Y-73447888D01*
X134205459Y-73376806D01*
X134193522Y-73352493D01*
X134193521Y-73352491D01*
X134188932Y-73343145D01*
X134106350Y-73260707D01*
X134001518Y-73209464D01*
X133971027Y-73205016D01*
X133937744Y-73200160D01*
X133937740Y-73200160D01*
X133933218Y-73199500D01*
X133566782Y-73199500D01*
X133562232Y-73200170D01*
X133562229Y-73200170D01*
X133507574Y-73208216D01*
X133507573Y-73208216D01*
X133497888Y-73209642D01*
X133447992Y-73234140D01*
X133402493Y-73256478D01*
X133402491Y-73256479D01*
X133393145Y-73261068D01*
X133310707Y-73343650D01*
X133306134Y-73353006D01*
X133306133Y-73353007D01*
X133294500Y-73376806D01*
X133259464Y-73448482D01*
X133258052Y-73458161D01*
X133254319Y-73483749D01*
X133224692Y-73548268D01*
X133164887Y-73586528D01*
X133093891Y-73586381D01*
X133092092Y-73585703D01*
X133091584Y-73585374D01*
X133089809Y-73584843D01*
X133089806Y-73584842D01*
X132976113Y-73550840D01*
X132976111Y-73550840D01*
X132967512Y-73548268D01*
X132958537Y-73548213D01*
X132958536Y-73548213D01*
X132902762Y-73547873D01*
X132838012Y-73547477D01*
X132829380Y-73549944D01*
X132722126Y-73580597D01*
X132722124Y-73580598D01*
X132713495Y-73583064D01*
X132603972Y-73652168D01*
X132518246Y-73749234D01*
X132463209Y-73866460D01*
X132443285Y-73994420D01*
X126200500Y-73994420D01*
X126200500Y-72363488D01*
X134994500Y-72363488D01*
X135010281Y-72463126D01*
X135071472Y-72583220D01*
X135157595Y-72669343D01*
X135191621Y-72731655D01*
X135194500Y-72758438D01*
X135194500Y-73036617D01*
X135194310Y-73036617D01*
X135194419Y-73037135D01*
X135193285Y-73044420D01*
X135194449Y-73053325D01*
X135194369Y-73059902D01*
X135194500Y-73061911D01*
X135194500Y-73347659D01*
X135181700Y-73402992D01*
X135159464Y-73448482D01*
X135149500Y-73516782D01*
X135149500Y-74608218D01*
X135150170Y-74612768D01*
X135150170Y-74612771D01*
X135158216Y-74667426D01*
X135159642Y-74677112D01*
X135211068Y-74781855D01*
X135293650Y-74864293D01*
X135398482Y-74915536D01*
X135428973Y-74919984D01*
X135462256Y-74924840D01*
X135462260Y-74924840D01*
X135466782Y-74925500D01*
X135833218Y-74925500D01*
X135837768Y-74924830D01*
X135837771Y-74924830D01*
X135892426Y-74916784D01*
X135892427Y-74916784D01*
X135902112Y-74915358D01*
X135996804Y-74868867D01*
X135997507Y-74868522D01*
X135997509Y-74868521D01*
X136006855Y-74863932D01*
X136089293Y-74781350D01*
X136140536Y-74676518D01*
X136150500Y-74608218D01*
X136150500Y-73516782D01*
X136141871Y-73458162D01*
X136141784Y-73457574D01*
X136141784Y-73457573D01*
X136140358Y-73447888D01*
X136108397Y-73382791D01*
X136095500Y-73327260D01*
X136095500Y-73137739D01*
X136097246Y-73116834D01*
X136105807Y-73065951D01*
X136105807Y-73065948D01*
X136106613Y-73061159D01*
X136106749Y-73050000D01*
X136096773Y-72980341D01*
X136095500Y-72962479D01*
X136095500Y-72758438D01*
X136115502Y-72690317D01*
X136132405Y-72669343D01*
X136218528Y-72583220D01*
X136279719Y-72463126D01*
X136295500Y-72363488D01*
X136295500Y-71796512D01*
X136279719Y-71696874D01*
X136218528Y-71576780D01*
X136123220Y-71481472D01*
X136003126Y-71420281D01*
X135993337Y-71418731D01*
X135993335Y-71418730D01*
X135963851Y-71414060D01*
X135903488Y-71404500D01*
X135386512Y-71404500D01*
X135326149Y-71414060D01*
X135296665Y-71418730D01*
X135296663Y-71418731D01*
X135286874Y-71420281D01*
X135166780Y-71481472D01*
X135071472Y-71576780D01*
X135010281Y-71696874D01*
X134994500Y-71796512D01*
X134994500Y-72363488D01*
X126200500Y-72363488D01*
X126200500Y-70037371D01*
X126203755Y-70008918D01*
X126204043Y-70007676D01*
X126204044Y-70007669D01*
X126205655Y-70000718D01*
X126205656Y-70000000D01*
X126204075Y-69993067D01*
X126203283Y-69985993D01*
X126204348Y-69985874D01*
X126202516Y-69964113D01*
X126217706Y-69693620D01*
X126219288Y-69679579D01*
X126221766Y-69664998D01*
X126269504Y-69384028D01*
X126272647Y-69370257D01*
X126355641Y-69082180D01*
X126360308Y-69068843D01*
X126461208Y-68825250D01*
X126475032Y-68791875D01*
X126481161Y-68779148D01*
X126482477Y-68776768D01*
X126543056Y-68667159D01*
X126626172Y-68516772D01*
X126633689Y-68504808D01*
X126807170Y-68260309D01*
X126815980Y-68249262D01*
X126980146Y-68065561D01*
X127015741Y-68025730D01*
X127025731Y-68015740D01*
X127249262Y-67815980D01*
X127260309Y-67807170D01*
X127504808Y-67633689D01*
X127516772Y-67626172D01*
X127667159Y-67543056D01*
X127779152Y-67481159D01*
X127791875Y-67475032D01*
X128068849Y-67360306D01*
X128082180Y-67355641D01*
X128370257Y-67272647D01*
X128384028Y-67269504D01*
X128679584Y-67219287D01*
X128693616Y-67217706D01*
X128963828Y-67202531D01*
X128971621Y-67203197D01*
X128971622Y-67202451D01*
X128985813Y-67202476D01*
X128999641Y-67205656D01*
X129013480Y-67202525D01*
X129018311Y-67202533D01*
X129036504Y-67200500D01*
X174962920Y-67200500D01*
X174980242Y-67202466D01*
G37*
G04 #@! TD.AperFunction*
G04 #@! TD*
G04 #@! TA.AperFunction,Conductor*
G04 #@! TO.N,+3V3*
G36*
X156142121Y-106320002D02*
G01*
X156188614Y-106373658D01*
X156200000Y-106426000D01*
X156200000Y-107974000D01*
X156179998Y-108042121D01*
X156126342Y-108088614D01*
X156074000Y-108100000D01*
X151126000Y-108100000D01*
X151057879Y-108079998D01*
X151011386Y-108026342D01*
X151000000Y-107974000D01*
X151000000Y-106426000D01*
X151020002Y-106357879D01*
X151073658Y-106311386D01*
X151126000Y-106300000D01*
X156074000Y-106300000D01*
X156142121Y-106320002D01*
G37*
G04 #@! TD.AperFunction*
G04 #@! TD*
M02*
