G04 #@! TF.GenerationSoftware,KiCad,Pcbnew,(6.0.9)*
G04 #@! TF.CreationDate,2024-07-14T21:11:06-07:00*
G04 #@! TF.ProjectId,AccArray_PICO,41636341-7272-4617-995f-5049434f2e6b,rev?*
G04 #@! TF.SameCoordinates,Original*
G04 #@! TF.FileFunction,Copper,L3,Inr*
G04 #@! TF.FilePolarity,Positive*
%FSLAX46Y46*%
G04 Gerber Fmt 4.6, Leading zero omitted, Abs format (unit mm)*
G04 Created by KiCad (PCBNEW (6.0.9)) date 2024-07-14 21:11:06*
%MOMM*%
%LPD*%
G01*
G04 APERTURE LIST*
G04 #@! TA.AperFunction,ViaPad*
%ADD10C,0.503200*%
G04 #@! TD*
G04 #@! TA.AperFunction,ViaPad*
%ADD11C,0.800000*%
G04 #@! TD*
G04 APERTURE END LIST*
G04 #@! TO.N,GND*
G04 #@! TO.C,J2*
G04 #@! TA.AperFunction,ComponentPad*
G36*
G01*
X139212887Y-82110805D02*
X139212887Y-82110805D01*
G75*
G02*
X139212887Y-83312887I-601041J-601041D01*
G01*
X139212887Y-83312887D01*
G75*
G02*
X138010805Y-83312887I-601041J601041D01*
G01*
X138010805Y-83312887D01*
G75*
G02*
X138010805Y-82110805I601041J601041D01*
G01*
X138010805Y-82110805D01*
G75*
G02*
X139212887Y-82110805I601041J-601041D01*
G01*
G37*
G04 #@! TD.AperFunction*
G04 #@! TO.N,FPGA_SI*
G04 #@! TA.AperFunction,ComponentPad*
G36*
G01*
X141008938Y-83906856D02*
X141008938Y-83906856D01*
G75*
G02*
X141008938Y-85108938I-601041J-601041D01*
G01*
X141008938Y-85108938D01*
G75*
G02*
X139806856Y-85108938I-601041J601041D01*
G01*
X139806856Y-85108938D01*
G75*
G02*
X139806856Y-83906856I601041J601041D01*
G01*
X139806856Y-83906856D01*
G75*
G02*
X141008938Y-83906856I601041J-601041D01*
G01*
G37*
G04 #@! TD.AperFunction*
G04 #@! TO.N,FPGA_CS*
G04 #@! TA.AperFunction,ComponentPad*
G36*
G01*
X142804989Y-85702907D02*
X142804989Y-85702907D01*
G75*
G02*
X142804989Y-86904989I-601041J-601041D01*
G01*
X142804989Y-86904989D01*
G75*
G02*
X141602907Y-86904989I-601041J601041D01*
G01*
X141602907Y-86904989D01*
G75*
G02*
X141602907Y-85702907I601041J601041D01*
G01*
X141602907Y-85702907D01*
G75*
G02*
X142804989Y-85702907I601041J-601041D01*
G01*
G37*
G04 #@! TD.AperFunction*
G04 #@! TO.N,FPGA_SCK*
G04 #@! TA.AperFunction,ComponentPad*
G36*
G01*
X144601041Y-87498959D02*
X144601041Y-87498959D01*
G75*
G02*
X144601041Y-88701041I-601041J-601041D01*
G01*
X144601041Y-88701041D01*
G75*
G02*
X143398959Y-88701041I-601041J601041D01*
G01*
X143398959Y-88701041D01*
G75*
G02*
X143398959Y-87498959I601041J601041D01*
G01*
X143398959Y-87498959D01*
G75*
G02*
X144601041Y-87498959I601041J-601041D01*
G01*
G37*
G04 #@! TD.AperFunction*
G04 #@! TO.N,FPGA_SO*
G04 #@! TA.AperFunction,ComponentPad*
G36*
G01*
X146397092Y-89295010D02*
X146397092Y-89295010D01*
G75*
G02*
X146397092Y-90497092I-601041J-601041D01*
G01*
X146397092Y-90497092D01*
G75*
G02*
X145195010Y-90497092I-601041J601041D01*
G01*
X145195010Y-90497092D01*
G75*
G02*
X145195010Y-89295010I601041J601041D01*
G01*
X145195010Y-89295010D01*
G75*
G02*
X146397092Y-89295010I601041J-601041D01*
G01*
G37*
G04 #@! TD.AperFunction*
G04 #@! TA.AperFunction,ComponentPad*
G04 #@! TO.N,FSYNC*
G36*
X147592102Y-90490020D02*
G01*
X148794184Y-91692102D01*
X147592102Y-92894184D01*
X146390020Y-91692102D01*
X147592102Y-90490020D01*
G37*
G04 #@! TD.AperFunction*
G04 #@! TD*
D10*
G04 #@! TO.N,GND*
X134700000Y-73000000D03*
G04 #@! TO.N,+3V3*
X155900000Y-107700000D03*
X155900000Y-106700000D03*
X151300000Y-107700000D03*
X151300000Y-106700000D03*
X135300000Y-97800000D03*
X135300000Y-98600000D03*
X134400000Y-98600000D03*
X134400000Y-97800000D03*
G04 #@! TO.N,GND*
X175500000Y-112800000D03*
X175500000Y-111800000D03*
X170900000Y-112800000D03*
X170900000Y-111800000D03*
X171000000Y-100100000D03*
X171000000Y-99100000D03*
X175400000Y-100100000D03*
X175400000Y-99100000D03*
X171000000Y-87500000D03*
X171000000Y-86500000D03*
X175300000Y-87500000D03*
X175300000Y-86500000D03*
X171000000Y-74800000D03*
X171000000Y-73800000D03*
X175400000Y-74700000D03*
X175400000Y-73700000D03*
X155800000Y-74800000D03*
X155800000Y-73800000D03*
X151300000Y-74700000D03*
X151300000Y-73700000D03*
X151300000Y-87400000D03*
X151300000Y-86400000D03*
X155900000Y-87400000D03*
X155900000Y-86400000D03*
X155800000Y-100100000D03*
X155800000Y-99100000D03*
X151300000Y-100100000D03*
X151300000Y-99100000D03*
X151300000Y-112700000D03*
X151300000Y-111700000D03*
X156000000Y-112700000D03*
X156000000Y-111700000D03*
X134700000Y-96800000D03*
X131900000Y-96800000D03*
X131900000Y-94200000D03*
X131900000Y-93100000D03*
X131900000Y-92100000D03*
X131900000Y-91100000D03*
X131900000Y-90000000D03*
X131900000Y-88800000D03*
X134500000Y-88800000D03*
X133000000Y-78800000D03*
X133000000Y-77800000D03*
X134700000Y-75200000D03*
X133000000Y-72100000D03*
X134100000Y-71100000D03*
G04 #@! TO.N,+3V3*
X132900000Y-74000000D03*
X135650000Y-73050000D03*
D11*
G04 #@! TO.N,IMU_CS*
X148950000Y-96250000D03*
X150790000Y-84310000D03*
G04 #@! TO.N,FPGA_SI*
X151100000Y-79200000D03*
X142000000Y-79200000D03*
G04 #@! TO.N,FPGA_CS*
X151200000Y-71700000D03*
X145200000Y-71800000D03*
G04 #@! TO.N,FPGA_SCK*
X151100000Y-76700000D03*
X146000000Y-76700000D03*
G04 #@! TD*
G04 #@! TA.AperFunction,Conductor*
G04 #@! TO.N,+3V3*
G36*
X174980242Y-67202466D02*
G01*
X174985811Y-67202476D01*
X174999641Y-67205656D01*
X175013481Y-67202524D01*
X175027670Y-67202549D01*
X175027669Y-67203161D01*
X175035608Y-67202500D01*
X175185047Y-67210892D01*
X175306384Y-67217706D01*
X175320416Y-67219287D01*
X175615972Y-67269504D01*
X175629743Y-67272647D01*
X175917820Y-67355641D01*
X175931151Y-67360306D01*
X176208125Y-67475032D01*
X176220848Y-67481159D01*
X176332841Y-67543056D01*
X176483228Y-67626172D01*
X176495192Y-67633689D01*
X176739691Y-67807170D01*
X176750738Y-67815980D01*
X176974269Y-68015740D01*
X176984260Y-68025731D01*
X177184020Y-68249262D01*
X177192830Y-68260309D01*
X177366311Y-68504808D01*
X177373828Y-68516772D01*
X177518839Y-68779148D01*
X177524970Y-68791879D01*
X177639692Y-69068843D01*
X177644359Y-69082180D01*
X177727353Y-69370257D01*
X177730496Y-69384028D01*
X177778235Y-69664998D01*
X177780712Y-69679579D01*
X177782294Y-69693620D01*
X177797469Y-69963825D01*
X177796803Y-69971621D01*
X177797549Y-69971622D01*
X177797524Y-69985813D01*
X177794344Y-69999641D01*
X177797475Y-70013480D01*
X177797467Y-70018311D01*
X177799500Y-70036504D01*
X177799500Y-115962920D01*
X177797534Y-115980242D01*
X177797524Y-115985811D01*
X177794344Y-115999641D01*
X177797476Y-116013481D01*
X177797451Y-116027670D01*
X177796839Y-116027669D01*
X177797500Y-116035608D01*
X177791511Y-116142261D01*
X177784146Y-116273409D01*
X177782294Y-116306380D01*
X177780713Y-116320416D01*
X177741111Y-116553498D01*
X177730497Y-116615968D01*
X177727353Y-116629743D01*
X177644359Y-116917820D01*
X177639694Y-116931151D01*
X177592854Y-117044233D01*
X177524970Y-117208121D01*
X177518839Y-117220852D01*
X177373828Y-117483228D01*
X177366311Y-117495192D01*
X177192830Y-117739691D01*
X177184020Y-117750738D01*
X176984260Y-117974269D01*
X176974269Y-117984260D01*
X176750738Y-118184020D01*
X176739691Y-118192830D01*
X176495192Y-118366311D01*
X176483228Y-118373828D01*
X176468987Y-118381699D01*
X176220848Y-118518841D01*
X176208125Y-118524968D01*
X175931151Y-118639694D01*
X175917820Y-118644359D01*
X175629743Y-118727353D01*
X175615972Y-118730496D01*
X175320416Y-118780713D01*
X175306384Y-118782294D01*
X175036172Y-118797469D01*
X175028379Y-118796803D01*
X175028378Y-118797549D01*
X175014187Y-118797524D01*
X175000359Y-118794344D01*
X174986520Y-118797475D01*
X174981689Y-118797467D01*
X174963496Y-118799500D01*
X129037080Y-118799500D01*
X129019758Y-118797534D01*
X129014189Y-118797524D01*
X129000359Y-118794344D01*
X128986519Y-118797476D01*
X128972330Y-118797451D01*
X128972331Y-118796839D01*
X128964392Y-118797500D01*
X128814953Y-118789108D01*
X128693616Y-118782294D01*
X128679584Y-118780713D01*
X128384028Y-118730496D01*
X128370257Y-118727353D01*
X128082180Y-118644359D01*
X128068849Y-118639694D01*
X127791875Y-118524968D01*
X127779152Y-118518841D01*
X127531013Y-118381699D01*
X127516772Y-118373828D01*
X127504808Y-118366311D01*
X127260309Y-118192830D01*
X127249262Y-118184020D01*
X127025731Y-117984260D01*
X127015740Y-117974269D01*
X126815980Y-117750738D01*
X126807170Y-117739691D01*
X126633689Y-117495192D01*
X126626172Y-117483228D01*
X126481161Y-117220852D01*
X126475030Y-117208121D01*
X126449297Y-117145996D01*
X159570814Y-117145996D01*
X159580523Y-117355767D01*
X159581927Y-117361592D01*
X159581927Y-117361593D01*
X159606084Y-117461826D01*
X159629724Y-117559918D01*
X159632206Y-117565376D01*
X159632207Y-117565380D01*
X159675320Y-117660201D01*
X159716640Y-117751081D01*
X159838137Y-117922360D01*
X159989831Y-118067575D01*
X159994866Y-118070826D01*
X160161209Y-118178233D01*
X160161212Y-118178234D01*
X160166246Y-118181485D01*
X160171809Y-118183727D01*
X160355455Y-118257739D01*
X160355458Y-118257740D01*
X160361019Y-118259981D01*
X160366900Y-118261129D01*
X160366905Y-118261131D01*
X160562676Y-118299362D01*
X160562679Y-118299362D01*
X160567122Y-118300230D01*
X160572643Y-118300500D01*
X160727469Y-118300500D01*
X160884046Y-118285561D01*
X160889802Y-118283872D01*
X160889804Y-118283872D01*
X160978883Y-118257739D01*
X161085549Y-118226447D01*
X161244676Y-118144491D01*
X161266908Y-118133041D01*
X161266911Y-118133039D01*
X161272239Y-118130295D01*
X161347947Y-118070826D01*
X161432662Y-118004282D01*
X161432667Y-118004278D01*
X161437379Y-118000576D01*
X161441311Y-117996045D01*
X161571079Y-117846502D01*
X161571083Y-117846497D01*
X161575010Y-117841971D01*
X161680166Y-117660201D01*
X161717575Y-117552473D01*
X161747086Y-117467491D01*
X161747086Y-117467489D01*
X161749053Y-117461826D01*
X161764431Y-117355767D01*
X161778325Y-117259944D01*
X161778325Y-117259941D01*
X161779186Y-117254004D01*
X161774187Y-117145996D01*
X165020814Y-117145996D01*
X165030523Y-117355767D01*
X165031927Y-117361592D01*
X165031927Y-117361593D01*
X165056084Y-117461826D01*
X165079724Y-117559918D01*
X165082206Y-117565376D01*
X165082207Y-117565380D01*
X165125320Y-117660201D01*
X165166640Y-117751081D01*
X165288137Y-117922360D01*
X165439831Y-118067575D01*
X165444866Y-118070826D01*
X165611209Y-118178233D01*
X165611212Y-118178234D01*
X165616246Y-118181485D01*
X165621809Y-118183727D01*
X165805455Y-118257739D01*
X165805458Y-118257740D01*
X165811019Y-118259981D01*
X165816900Y-118261129D01*
X165816905Y-118261131D01*
X166012676Y-118299362D01*
X166012679Y-118299362D01*
X166017122Y-118300230D01*
X166022643Y-118300500D01*
X166177469Y-118300500D01*
X166334046Y-118285561D01*
X166339802Y-118283872D01*
X166339804Y-118283872D01*
X166428883Y-118257739D01*
X166535549Y-118226447D01*
X166694676Y-118144491D01*
X166716908Y-118133041D01*
X166716911Y-118133039D01*
X166722239Y-118130295D01*
X166797947Y-118070826D01*
X166882662Y-118004282D01*
X166882667Y-118004278D01*
X166887379Y-118000576D01*
X166891311Y-117996045D01*
X167021079Y-117846502D01*
X167021083Y-117846497D01*
X167025010Y-117841971D01*
X167130166Y-117660201D01*
X167167575Y-117552473D01*
X167197086Y-117467491D01*
X167197086Y-117467489D01*
X167199053Y-117461826D01*
X167214431Y-117355767D01*
X167228325Y-117259944D01*
X167228325Y-117259941D01*
X167229186Y-117254004D01*
X167219477Y-117044233D01*
X167170276Y-116840082D01*
X167127258Y-116745467D01*
X167114892Y-116718270D01*
X167083360Y-116648919D01*
X166961863Y-116477640D01*
X166810169Y-116332425D01*
X166713033Y-116269705D01*
X166638791Y-116221767D01*
X166638788Y-116221766D01*
X166633754Y-116218515D01*
X166628191Y-116216273D01*
X166444545Y-116142261D01*
X166444542Y-116142260D01*
X166438981Y-116140019D01*
X166433100Y-116138871D01*
X166433095Y-116138869D01*
X166237324Y-116100638D01*
X166237321Y-116100638D01*
X166232878Y-116099770D01*
X166227357Y-116099500D01*
X166072531Y-116099500D01*
X165915954Y-116114439D01*
X165910198Y-116116128D01*
X165910196Y-116116128D01*
X165832679Y-116138869D01*
X165714451Y-116173553D01*
X165631505Y-116216273D01*
X165533092Y-116266959D01*
X165533089Y-116266961D01*
X165527761Y-116269705D01*
X165523046Y-116273409D01*
X165367338Y-116395718D01*
X165367333Y-116395722D01*
X165362621Y-116399424D01*
X165358690Y-116403954D01*
X165358689Y-116403955D01*
X165228921Y-116553498D01*
X165228917Y-116553503D01*
X165224990Y-116558029D01*
X165119834Y-116739799D01*
X165117866Y-116745467D01*
X165053384Y-116931157D01*
X165050947Y-116938174D01*
X165050086Y-116944109D01*
X165050086Y-116944111D01*
X165034701Y-117050223D01*
X165020814Y-117145996D01*
X161774187Y-117145996D01*
X161769477Y-117044233D01*
X161720276Y-116840082D01*
X161677258Y-116745467D01*
X161664892Y-116718270D01*
X161633360Y-116648919D01*
X161511863Y-116477640D01*
X161360169Y-116332425D01*
X161263033Y-116269705D01*
X161188791Y-116221767D01*
X161188788Y-116221766D01*
X161183754Y-116218515D01*
X161178191Y-116216273D01*
X160994545Y-116142261D01*
X160994542Y-116142260D01*
X160988981Y-116140019D01*
X160983100Y-116138871D01*
X160983095Y-116138869D01*
X160787324Y-116100638D01*
X160787321Y-116100638D01*
X160782878Y-116099770D01*
X160777357Y-116099500D01*
X160622531Y-116099500D01*
X160465954Y-116114439D01*
X160460198Y-116116128D01*
X160460196Y-116116128D01*
X160382679Y-116138869D01*
X160264451Y-116173553D01*
X160181505Y-116216273D01*
X160083092Y-116266959D01*
X160083089Y-116266961D01*
X160077761Y-116269705D01*
X160073046Y-116273409D01*
X159917338Y-116395718D01*
X159917333Y-116395722D01*
X159912621Y-116399424D01*
X159908690Y-116403954D01*
X159908689Y-116403955D01*
X159778921Y-116553498D01*
X159778917Y-116553503D01*
X159774990Y-116558029D01*
X159669834Y-116739799D01*
X159667866Y-116745467D01*
X159603384Y-116931157D01*
X159600947Y-116938174D01*
X159600086Y-116944109D01*
X159600086Y-116944111D01*
X159584701Y-117050223D01*
X159570814Y-117145996D01*
X126449297Y-117145996D01*
X126407146Y-117044233D01*
X126360306Y-116931151D01*
X126355641Y-116917820D01*
X126272647Y-116629743D01*
X126269503Y-116615968D01*
X126258889Y-116553498D01*
X126219287Y-116320416D01*
X126217706Y-116306380D01*
X126215855Y-116273409D01*
X126210152Y-116171867D01*
X126202548Y-116036456D01*
X126204382Y-116014897D01*
X126203227Y-116014764D01*
X126204043Y-116007674D01*
X126205655Y-116000718D01*
X126205656Y-116000000D01*
X126203654Y-115991225D01*
X126200500Y-115963210D01*
X126200500Y-114216671D01*
X160020739Y-114216671D01*
X160049614Y-114407599D01*
X160051820Y-114413594D01*
X160051820Y-114413595D01*
X160114086Y-114582832D01*
X160114088Y-114582836D01*
X160116290Y-114588821D01*
X160218045Y-114752934D01*
X160350721Y-114893235D01*
X160355951Y-114896897D01*
X160355952Y-114896898D01*
X160438257Y-114954528D01*
X160508898Y-115003991D01*
X160686115Y-115080680D01*
X160692363Y-115081985D01*
X160692362Y-115081985D01*
X160870388Y-115119177D01*
X160870392Y-115119177D01*
X160875133Y-115120168D01*
X160881468Y-115120500D01*
X161023259Y-115120500D01*
X161093649Y-115113350D01*
X161160761Y-115106533D01*
X161160762Y-115106533D01*
X161167110Y-115105888D01*
X161351373Y-115048144D01*
X161520261Y-114954528D01*
X161666875Y-114828864D01*
X161670787Y-114823821D01*
X161781311Y-114681335D01*
X161781313Y-114681332D01*
X161785227Y-114676286D01*
X161870481Y-114503026D01*
X161872088Y-114496856D01*
X161872090Y-114496851D01*
X161917545Y-114322345D01*
X161917545Y-114322342D01*
X161919155Y-114316163D01*
X161924369Y-114216671D01*
X164870739Y-114216671D01*
X164899614Y-114407599D01*
X164901820Y-114413594D01*
X164901820Y-114413595D01*
X164964086Y-114582832D01*
X164964088Y-114582836D01*
X164966290Y-114588821D01*
X165068045Y-114752934D01*
X165200721Y-114893235D01*
X165205951Y-114896897D01*
X165205952Y-114896898D01*
X165288257Y-114954528D01*
X165358898Y-115003991D01*
X165536115Y-115080680D01*
X165542363Y-115081985D01*
X165542362Y-115081985D01*
X165720388Y-115119177D01*
X165720392Y-115119177D01*
X165725133Y-115120168D01*
X165731468Y-115120500D01*
X165873259Y-115120500D01*
X165943649Y-115113350D01*
X166010761Y-115106533D01*
X166010762Y-115106533D01*
X166017110Y-115105888D01*
X166201373Y-115048144D01*
X166370261Y-114954528D01*
X166516875Y-114828864D01*
X166520787Y-114823821D01*
X166631311Y-114681335D01*
X166631313Y-114681332D01*
X166635227Y-114676286D01*
X166720481Y-114503026D01*
X166722088Y-114496856D01*
X166722090Y-114496851D01*
X166767545Y-114322345D01*
X166767545Y-114322342D01*
X166769155Y-114316163D01*
X166779261Y-114123329D01*
X166750386Y-113932401D01*
X166713170Y-113831250D01*
X166685914Y-113757168D01*
X166685912Y-113757164D01*
X166683710Y-113751179D01*
X166581955Y-113587066D01*
X166449279Y-113446765D01*
X166367672Y-113389623D01*
X166296335Y-113339673D01*
X166296334Y-113339672D01*
X166291102Y-113336009D01*
X166113885Y-113259320D01*
X166060642Y-113248197D01*
X165929612Y-113220823D01*
X165929608Y-113220823D01*
X165924867Y-113219832D01*
X165918532Y-113219500D01*
X165776741Y-113219500D01*
X165756609Y-113221545D01*
X165639239Y-113233467D01*
X165639238Y-113233467D01*
X165632890Y-113234112D01*
X165448627Y-113291856D01*
X165279739Y-113385472D01*
X165133125Y-113511136D01*
X165129214Y-113516178D01*
X165129213Y-113516179D01*
X165070019Y-113592492D01*
X165014773Y-113663714D01*
X164929519Y-113836974D01*
X164927912Y-113843144D01*
X164927910Y-113843149D01*
X164882455Y-114017655D01*
X164880845Y-114023837D01*
X164870739Y-114216671D01*
X161924369Y-114216671D01*
X161929261Y-114123329D01*
X161900386Y-113932401D01*
X161863170Y-113831250D01*
X161835914Y-113757168D01*
X161835912Y-113757164D01*
X161833710Y-113751179D01*
X161731955Y-113587066D01*
X161599279Y-113446765D01*
X161517672Y-113389623D01*
X161446335Y-113339673D01*
X161446334Y-113339672D01*
X161441102Y-113336009D01*
X161263885Y-113259320D01*
X161210642Y-113248197D01*
X161079612Y-113220823D01*
X161079608Y-113220823D01*
X161074867Y-113219832D01*
X161068532Y-113219500D01*
X160926741Y-113219500D01*
X160906609Y-113221545D01*
X160789239Y-113233467D01*
X160789238Y-113233467D01*
X160782890Y-113234112D01*
X160598627Y-113291856D01*
X160429739Y-113385472D01*
X160283125Y-113511136D01*
X160279214Y-113516178D01*
X160279213Y-113516179D01*
X160220019Y-113592492D01*
X160164773Y-113663714D01*
X160079519Y-113836974D01*
X160077912Y-113843144D01*
X160077910Y-113843149D01*
X160032455Y-114017655D01*
X160030845Y-114023837D01*
X160020739Y-114216671D01*
X126200500Y-114216671D01*
X126200500Y-112694420D01*
X150843285Y-112694420D01*
X150844449Y-112703322D01*
X150844449Y-112703325D01*
X150846100Y-112715951D01*
X150860076Y-112822829D01*
X150912233Y-112941364D01*
X150995562Y-113040495D01*
X151103364Y-113112255D01*
X151111928Y-113114931D01*
X151111931Y-113114932D01*
X151171764Y-113133625D01*
X151226974Y-113150874D01*
X151356455Y-113153247D01*
X151428428Y-113133625D01*
X151472738Y-113121545D01*
X151472740Y-113121544D01*
X151481397Y-113119184D01*
X151591757Y-113051422D01*
X151678662Y-112955411D01*
X151682763Y-112946948D01*
X151731212Y-112846948D01*
X151731212Y-112846947D01*
X151735127Y-112838867D01*
X151756613Y-112711159D01*
X151756749Y-112700000D01*
X151755950Y-112694420D01*
X155543285Y-112694420D01*
X155544449Y-112703322D01*
X155544449Y-112703325D01*
X155546100Y-112715951D01*
X155560076Y-112822829D01*
X155612233Y-112941364D01*
X155695562Y-113040495D01*
X155803364Y-113112255D01*
X155811928Y-113114931D01*
X155811931Y-113114932D01*
X155871764Y-113133625D01*
X155926974Y-113150874D01*
X156056455Y-113153247D01*
X156128428Y-113133625D01*
X156172738Y-113121545D01*
X156172740Y-113121544D01*
X156181397Y-113119184D01*
X156291757Y-113051422D01*
X156378662Y-112955411D01*
X156382763Y-112946948D01*
X156431212Y-112846948D01*
X156431212Y-112846947D01*
X156435127Y-112838867D01*
X156442605Y-112794420D01*
X170443285Y-112794420D01*
X170444449Y-112803322D01*
X170444449Y-112803325D01*
X170449097Y-112838867D01*
X170460076Y-112922829D01*
X170512233Y-113041364D01*
X170595562Y-113140495D01*
X170703364Y-113212255D01*
X170711928Y-113214931D01*
X170711931Y-113214932D01*
X170771258Y-113233467D01*
X170826974Y-113250874D01*
X170956455Y-113253247D01*
X171009077Y-113238901D01*
X171072738Y-113221545D01*
X171072740Y-113221544D01*
X171081397Y-113219184D01*
X171191757Y-113151422D01*
X171207866Y-113133625D01*
X171272634Y-113062071D01*
X171272635Y-113062070D01*
X171278662Y-113055411D01*
X171289218Y-113033625D01*
X171331212Y-112946948D01*
X171331212Y-112946947D01*
X171335127Y-112938867D01*
X171356613Y-112811159D01*
X171356749Y-112800000D01*
X171355950Y-112794420D01*
X175043285Y-112794420D01*
X175044449Y-112803322D01*
X175044449Y-112803325D01*
X175049097Y-112838867D01*
X175060076Y-112922829D01*
X175112233Y-113041364D01*
X175195562Y-113140495D01*
X175303364Y-113212255D01*
X175311928Y-113214931D01*
X175311931Y-113214932D01*
X175371258Y-113233467D01*
X175426974Y-113250874D01*
X175556455Y-113253247D01*
X175609077Y-113238901D01*
X175672738Y-113221545D01*
X175672740Y-113221544D01*
X175681397Y-113219184D01*
X175791757Y-113151422D01*
X175807866Y-113133625D01*
X175872634Y-113062071D01*
X175872635Y-113062070D01*
X175878662Y-113055411D01*
X175889218Y-113033625D01*
X175931212Y-112946948D01*
X175931212Y-112946947D01*
X175935127Y-112938867D01*
X175956613Y-112811159D01*
X175956749Y-112800000D01*
X175938390Y-112671806D01*
X175916714Y-112624132D01*
X175888506Y-112562091D01*
X175888504Y-112562088D01*
X175884789Y-112553917D01*
X175867837Y-112534243D01*
X175806115Y-112462611D01*
X175806112Y-112462608D01*
X175800255Y-112455811D01*
X175722534Y-112405435D01*
X175676250Y-112351600D01*
X175666419Y-112281287D01*
X175696163Y-112216821D01*
X175725136Y-112192329D01*
X175784106Y-112156120D01*
X175784107Y-112156119D01*
X175791757Y-112151422D01*
X175807866Y-112133625D01*
X175872634Y-112062071D01*
X175872635Y-112062070D01*
X175878662Y-112055411D01*
X175889218Y-112033625D01*
X175931212Y-111946948D01*
X175931212Y-111946947D01*
X175935127Y-111938867D01*
X175956613Y-111811159D01*
X175956749Y-111800000D01*
X175938390Y-111671806D01*
X175916714Y-111624132D01*
X175888506Y-111562091D01*
X175888504Y-111562088D01*
X175884789Y-111553917D01*
X175867837Y-111534243D01*
X175806115Y-111462611D01*
X175806112Y-111462608D01*
X175800255Y-111455811D01*
X175691584Y-111385374D01*
X175675611Y-111380597D01*
X175576113Y-111350840D01*
X175576111Y-111350840D01*
X175567512Y-111348268D01*
X175558537Y-111348213D01*
X175558536Y-111348213D01*
X175502762Y-111347873D01*
X175438012Y-111347477D01*
X175429380Y-111349944D01*
X175322126Y-111380597D01*
X175322124Y-111380598D01*
X175313495Y-111383064D01*
X175305908Y-111387851D01*
X175305906Y-111387852D01*
X175219285Y-111442506D01*
X175203972Y-111452168D01*
X175118246Y-111549234D01*
X175063209Y-111666460D01*
X175061828Y-111675329D01*
X175058737Y-111695184D01*
X175043285Y-111794420D01*
X175044449Y-111803322D01*
X175044449Y-111803325D01*
X175049097Y-111838867D01*
X175060076Y-111922829D01*
X175112233Y-112041364D01*
X175195562Y-112140495D01*
X175278209Y-112195510D01*
X175323831Y-112249906D01*
X175332802Y-112320334D01*
X175302272Y-112384431D01*
X175275625Y-112406957D01*
X175211569Y-112447373D01*
X175211562Y-112447379D01*
X175203972Y-112452168D01*
X175118246Y-112549234D01*
X175063209Y-112666460D01*
X175061828Y-112675329D01*
X175058737Y-112695184D01*
X175043285Y-112794420D01*
X171355950Y-112794420D01*
X171338390Y-112671806D01*
X171316714Y-112624132D01*
X171288506Y-112562091D01*
X171288504Y-112562088D01*
X171284789Y-112553917D01*
X171267837Y-112534243D01*
X171206115Y-112462611D01*
X171206112Y-112462608D01*
X171200255Y-112455811D01*
X171122534Y-112405435D01*
X171076250Y-112351600D01*
X171066419Y-112281287D01*
X171096163Y-112216821D01*
X171125136Y-112192329D01*
X171184106Y-112156120D01*
X171184107Y-112156119D01*
X171191757Y-112151422D01*
X171207866Y-112133625D01*
X171272634Y-112062071D01*
X171272635Y-112062070D01*
X171278662Y-112055411D01*
X171289218Y-112033625D01*
X171331212Y-111946948D01*
X171331212Y-111946947D01*
X171335127Y-111938867D01*
X171356613Y-111811159D01*
X171356749Y-111800000D01*
X171338390Y-111671806D01*
X171316714Y-111624132D01*
X171288506Y-111562091D01*
X171288504Y-111562088D01*
X171284789Y-111553917D01*
X171267837Y-111534243D01*
X171206115Y-111462611D01*
X171206112Y-111462608D01*
X171200255Y-111455811D01*
X171091584Y-111385374D01*
X171075611Y-111380597D01*
X170976113Y-111350840D01*
X170976111Y-111350840D01*
X170967512Y-111348268D01*
X170958537Y-111348213D01*
X170958536Y-111348213D01*
X170902762Y-111347873D01*
X170838012Y-111347477D01*
X170829380Y-111349944D01*
X170722126Y-111380597D01*
X170722124Y-111380598D01*
X170713495Y-111383064D01*
X170705908Y-111387851D01*
X170705906Y-111387852D01*
X170619285Y-111442506D01*
X170603972Y-111452168D01*
X170518246Y-111549234D01*
X170463209Y-111666460D01*
X170461828Y-111675329D01*
X170458737Y-111695184D01*
X170443285Y-111794420D01*
X170444449Y-111803322D01*
X170444449Y-111803325D01*
X170449097Y-111838867D01*
X170460076Y-111922829D01*
X170512233Y-112041364D01*
X170595562Y-112140495D01*
X170678209Y-112195510D01*
X170723831Y-112249906D01*
X170732802Y-112320334D01*
X170702272Y-112384431D01*
X170675625Y-112406957D01*
X170611569Y-112447373D01*
X170611562Y-112447379D01*
X170603972Y-112452168D01*
X170518246Y-112549234D01*
X170463209Y-112666460D01*
X170461828Y-112675329D01*
X170458737Y-112695184D01*
X170443285Y-112794420D01*
X156442605Y-112794420D01*
X156456613Y-112711159D01*
X156456749Y-112700000D01*
X156438390Y-112571806D01*
X156384789Y-112453917D01*
X156367837Y-112434243D01*
X156306115Y-112362611D01*
X156306112Y-112362608D01*
X156300255Y-112355811D01*
X156222534Y-112305435D01*
X156176250Y-112251600D01*
X156166419Y-112181287D01*
X156196163Y-112116821D01*
X156225136Y-112092329D01*
X156284106Y-112056120D01*
X156284107Y-112056119D01*
X156291757Y-112051422D01*
X156378662Y-111955411D01*
X156382763Y-111946948D01*
X156431212Y-111846948D01*
X156431212Y-111846947D01*
X156435127Y-111838867D01*
X156456613Y-111711159D01*
X156456749Y-111700000D01*
X156438390Y-111571806D01*
X156384789Y-111453917D01*
X156329936Y-111390257D01*
X156306115Y-111362611D01*
X156306112Y-111362608D01*
X156300255Y-111355811D01*
X156191584Y-111285374D01*
X156175611Y-111280597D01*
X156076113Y-111250840D01*
X156076111Y-111250840D01*
X156067512Y-111248268D01*
X156058537Y-111248213D01*
X156058536Y-111248213D01*
X156002762Y-111247872D01*
X155938012Y-111247477D01*
X155929380Y-111249944D01*
X155822126Y-111280597D01*
X155822124Y-111280598D01*
X155813495Y-111283064D01*
X155805908Y-111287851D01*
X155805906Y-111287852D01*
X155711565Y-111347377D01*
X155703972Y-111352168D01*
X155698029Y-111358897D01*
X155698028Y-111358898D01*
X155674645Y-111385374D01*
X155618246Y-111449234D01*
X155614431Y-111457360D01*
X155571297Y-111549234D01*
X155563209Y-111566460D01*
X155561828Y-111575329D01*
X155546258Y-111675329D01*
X155543285Y-111694420D01*
X155544449Y-111703322D01*
X155544449Y-111703325D01*
X155546100Y-111715951D01*
X155560076Y-111822829D01*
X155612233Y-111941364D01*
X155695562Y-112040495D01*
X155778209Y-112095510D01*
X155823831Y-112149906D01*
X155832802Y-112220334D01*
X155802272Y-112284431D01*
X155775625Y-112306957D01*
X155711569Y-112347373D01*
X155711562Y-112347379D01*
X155703972Y-112352168D01*
X155698029Y-112358897D01*
X155698028Y-112358898D01*
X155675478Y-112384431D01*
X155618246Y-112449234D01*
X155614431Y-112457360D01*
X155571297Y-112549234D01*
X155563209Y-112566460D01*
X155561828Y-112575329D01*
X155546258Y-112675329D01*
X155543285Y-112694420D01*
X151755950Y-112694420D01*
X151738390Y-112571806D01*
X151684789Y-112453917D01*
X151667837Y-112434243D01*
X151606115Y-112362611D01*
X151606112Y-112362608D01*
X151600255Y-112355811D01*
X151522534Y-112305435D01*
X151476250Y-112251600D01*
X151466419Y-112181287D01*
X151496163Y-112116821D01*
X151525136Y-112092329D01*
X151584106Y-112056120D01*
X151584107Y-112056119D01*
X151591757Y-112051422D01*
X151678662Y-111955411D01*
X151682763Y-111946948D01*
X151731212Y-111846948D01*
X151731212Y-111846947D01*
X151735127Y-111838867D01*
X151756613Y-111711159D01*
X151756749Y-111700000D01*
X151738390Y-111571806D01*
X151684789Y-111453917D01*
X151629936Y-111390257D01*
X151606115Y-111362611D01*
X151606112Y-111362608D01*
X151600255Y-111355811D01*
X151491584Y-111285374D01*
X151475611Y-111280597D01*
X151376113Y-111250840D01*
X151376111Y-111250840D01*
X151367512Y-111248268D01*
X151358537Y-111248213D01*
X151358536Y-111248213D01*
X151302762Y-111247872D01*
X151238012Y-111247477D01*
X151229380Y-111249944D01*
X151122126Y-111280597D01*
X151122124Y-111280598D01*
X151113495Y-111283064D01*
X151105908Y-111287851D01*
X151105906Y-111287852D01*
X151011565Y-111347377D01*
X151003972Y-111352168D01*
X150998029Y-111358897D01*
X150998028Y-111358898D01*
X150974645Y-111385374D01*
X150918246Y-111449234D01*
X150914431Y-111457360D01*
X150871297Y-111549234D01*
X150863209Y-111566460D01*
X150861828Y-111575329D01*
X150846258Y-111675329D01*
X150843285Y-111694420D01*
X150844449Y-111703322D01*
X150844449Y-111703325D01*
X150846100Y-111715951D01*
X150860076Y-111822829D01*
X150912233Y-111941364D01*
X150995562Y-112040495D01*
X151078209Y-112095510D01*
X151123831Y-112149906D01*
X151132802Y-112220334D01*
X151102272Y-112284431D01*
X151075625Y-112306957D01*
X151011569Y-112347373D01*
X151011562Y-112347379D01*
X151003972Y-112352168D01*
X150998029Y-112358897D01*
X150998028Y-112358898D01*
X150975478Y-112384431D01*
X150918246Y-112449234D01*
X150914431Y-112457360D01*
X150871297Y-112549234D01*
X150863209Y-112566460D01*
X150861828Y-112575329D01*
X150846258Y-112675329D01*
X150843285Y-112694420D01*
X126200500Y-112694420D01*
X126200500Y-100094420D01*
X150843285Y-100094420D01*
X150844449Y-100103322D01*
X150844449Y-100103325D01*
X150846100Y-100115951D01*
X150860076Y-100222829D01*
X150912233Y-100341364D01*
X150995562Y-100440495D01*
X151103364Y-100512255D01*
X151111928Y-100514931D01*
X151111931Y-100514932D01*
X151193974Y-100540564D01*
X151226974Y-100550874D01*
X151356455Y-100553247D01*
X151409077Y-100538901D01*
X151472738Y-100521545D01*
X151472740Y-100521544D01*
X151481397Y-100519184D01*
X151591757Y-100451422D01*
X151678662Y-100355411D01*
X151689450Y-100333146D01*
X151731212Y-100246948D01*
X151731212Y-100246947D01*
X151735127Y-100238867D01*
X151756613Y-100111159D01*
X151756749Y-100100000D01*
X151755950Y-100094420D01*
X155343285Y-100094420D01*
X155344449Y-100103322D01*
X155344449Y-100103325D01*
X155346100Y-100115951D01*
X155360076Y-100222829D01*
X155412233Y-100341364D01*
X155495562Y-100440495D01*
X155603364Y-100512255D01*
X155611928Y-100514931D01*
X155611931Y-100514932D01*
X155693974Y-100540564D01*
X155726974Y-100550874D01*
X155856455Y-100553247D01*
X155909077Y-100538901D01*
X155972738Y-100521545D01*
X155972740Y-100521544D01*
X155981397Y-100519184D01*
X156091757Y-100451422D01*
X156178662Y-100355411D01*
X156189450Y-100333146D01*
X156231212Y-100246948D01*
X156231212Y-100246947D01*
X156235127Y-100238867D01*
X156256613Y-100111159D01*
X156256749Y-100100000D01*
X156255950Y-100094420D01*
X170543285Y-100094420D01*
X170544449Y-100103322D01*
X170544449Y-100103325D01*
X170546100Y-100115951D01*
X170560076Y-100222829D01*
X170612233Y-100341364D01*
X170695562Y-100440495D01*
X170803364Y-100512255D01*
X170811928Y-100514931D01*
X170811931Y-100514932D01*
X170893974Y-100540564D01*
X170926974Y-100550874D01*
X171056455Y-100553247D01*
X171109077Y-100538901D01*
X171172738Y-100521545D01*
X171172740Y-100521544D01*
X171181397Y-100519184D01*
X171291757Y-100451422D01*
X171378662Y-100355411D01*
X171389450Y-100333146D01*
X171431212Y-100246948D01*
X171431212Y-100246947D01*
X171435127Y-100238867D01*
X171456613Y-100111159D01*
X171456749Y-100100000D01*
X171455950Y-100094420D01*
X174943285Y-100094420D01*
X174944449Y-100103322D01*
X174944449Y-100103325D01*
X174946100Y-100115951D01*
X174960076Y-100222829D01*
X175012233Y-100341364D01*
X175095562Y-100440495D01*
X175203364Y-100512255D01*
X175211928Y-100514931D01*
X175211931Y-100514932D01*
X175293974Y-100540564D01*
X175326974Y-100550874D01*
X175456455Y-100553247D01*
X175509077Y-100538901D01*
X175572738Y-100521545D01*
X175572740Y-100521544D01*
X175581397Y-100519184D01*
X175691757Y-100451422D01*
X175778662Y-100355411D01*
X175789450Y-100333146D01*
X175831212Y-100246948D01*
X175831212Y-100246947D01*
X175835127Y-100238867D01*
X175856613Y-100111159D01*
X175856749Y-100100000D01*
X175838390Y-99971806D01*
X175784789Y-99853917D01*
X175767837Y-99834243D01*
X175706115Y-99762611D01*
X175706112Y-99762608D01*
X175700255Y-99755811D01*
X175622534Y-99705435D01*
X175576250Y-99651600D01*
X175566419Y-99581287D01*
X175596163Y-99516821D01*
X175625136Y-99492329D01*
X175684106Y-99456120D01*
X175684107Y-99456119D01*
X175691757Y-99451422D01*
X175778662Y-99355411D01*
X175789450Y-99333146D01*
X175831212Y-99246948D01*
X175831212Y-99246947D01*
X175835127Y-99238867D01*
X175856613Y-99111159D01*
X175856749Y-99100000D01*
X175838390Y-98971806D01*
X175784789Y-98853917D01*
X175767837Y-98834243D01*
X175706115Y-98762611D01*
X175706112Y-98762608D01*
X175700255Y-98755811D01*
X175591584Y-98685374D01*
X175575611Y-98680597D01*
X175476113Y-98650840D01*
X175476111Y-98650840D01*
X175467512Y-98648268D01*
X175458537Y-98648213D01*
X175458536Y-98648213D01*
X175402762Y-98647873D01*
X175338012Y-98647477D01*
X175329380Y-98649944D01*
X175222126Y-98680597D01*
X175222124Y-98680598D01*
X175213495Y-98683064D01*
X175205908Y-98687851D01*
X175205906Y-98687852D01*
X175111565Y-98747377D01*
X175103972Y-98752168D01*
X175018246Y-98849234D01*
X174963209Y-98966460D01*
X174943285Y-99094420D01*
X174944449Y-99103322D01*
X174944449Y-99103325D01*
X174946100Y-99115951D01*
X174960076Y-99222829D01*
X175012233Y-99341364D01*
X175095562Y-99440495D01*
X175178209Y-99495510D01*
X175223831Y-99549906D01*
X175232802Y-99620334D01*
X175202272Y-99684431D01*
X175175625Y-99706957D01*
X175111569Y-99747373D01*
X175111562Y-99747379D01*
X175103972Y-99752168D01*
X175018246Y-99849234D01*
X174963209Y-99966460D01*
X174943285Y-100094420D01*
X171455950Y-100094420D01*
X171438390Y-99971806D01*
X171384789Y-99853917D01*
X171367837Y-99834243D01*
X171306115Y-99762611D01*
X171306112Y-99762608D01*
X171300255Y-99755811D01*
X171222534Y-99705435D01*
X171176250Y-99651600D01*
X171166419Y-99581287D01*
X171196163Y-99516821D01*
X171225136Y-99492329D01*
X171284106Y-99456120D01*
X171284107Y-99456119D01*
X171291757Y-99451422D01*
X171378662Y-99355411D01*
X171389450Y-99333146D01*
X171431212Y-99246948D01*
X171431212Y-99246947D01*
X171435127Y-99238867D01*
X171456613Y-99111159D01*
X171456749Y-99100000D01*
X171438390Y-98971806D01*
X171384789Y-98853917D01*
X171367837Y-98834243D01*
X171306115Y-98762611D01*
X171306112Y-98762608D01*
X171300255Y-98755811D01*
X171191584Y-98685374D01*
X171175611Y-98680597D01*
X171076113Y-98650840D01*
X171076111Y-98650840D01*
X171067512Y-98648268D01*
X171058537Y-98648213D01*
X171058536Y-98648213D01*
X171002762Y-98647873D01*
X170938012Y-98647477D01*
X170929380Y-98649944D01*
X170822126Y-98680597D01*
X170822124Y-98680598D01*
X170813495Y-98683064D01*
X170805908Y-98687851D01*
X170805906Y-98687852D01*
X170711565Y-98747377D01*
X170703972Y-98752168D01*
X170618246Y-98849234D01*
X170563209Y-98966460D01*
X170543285Y-99094420D01*
X170544449Y-99103322D01*
X170544449Y-99103325D01*
X170546100Y-99115951D01*
X170560076Y-99222829D01*
X170612233Y-99341364D01*
X170695562Y-99440495D01*
X170778209Y-99495510D01*
X170823831Y-99549906D01*
X170832802Y-99620334D01*
X170802272Y-99684431D01*
X170775625Y-99706957D01*
X170711569Y-99747373D01*
X170711562Y-99747379D01*
X170703972Y-99752168D01*
X170618246Y-99849234D01*
X170563209Y-99966460D01*
X170543285Y-100094420D01*
X156255950Y-100094420D01*
X156238390Y-99971806D01*
X156184789Y-99853917D01*
X156167837Y-99834243D01*
X156106115Y-99762611D01*
X156106112Y-99762608D01*
X156100255Y-99755811D01*
X156022534Y-99705435D01*
X155976250Y-99651600D01*
X155966419Y-99581287D01*
X155996163Y-99516821D01*
X156025136Y-99492329D01*
X156084106Y-99456120D01*
X156084107Y-99456119D01*
X156091757Y-99451422D01*
X156178662Y-99355411D01*
X156189450Y-99333146D01*
X156231212Y-99246948D01*
X156231212Y-99246947D01*
X156235127Y-99238867D01*
X156256613Y-99111159D01*
X156256749Y-99100000D01*
X156238390Y-98971806D01*
X156184789Y-98853917D01*
X156167837Y-98834243D01*
X156106115Y-98762611D01*
X156106112Y-98762608D01*
X156100255Y-98755811D01*
X155991584Y-98685374D01*
X155975611Y-98680597D01*
X155876113Y-98650840D01*
X155876111Y-98650840D01*
X155867512Y-98648268D01*
X155858537Y-98648213D01*
X155858536Y-98648213D01*
X155802762Y-98647873D01*
X155738012Y-98647477D01*
X155729380Y-98649944D01*
X155622126Y-98680597D01*
X155622124Y-98680598D01*
X155613495Y-98683064D01*
X155605908Y-98687851D01*
X155605906Y-98687852D01*
X155511565Y-98747377D01*
X155503972Y-98752168D01*
X155418246Y-98849234D01*
X155363209Y-98966460D01*
X155343285Y-99094420D01*
X155344449Y-99103322D01*
X155344449Y-99103325D01*
X155346100Y-99115951D01*
X155360076Y-99222829D01*
X155412233Y-99341364D01*
X155495562Y-99440495D01*
X155578209Y-99495510D01*
X155623831Y-99549906D01*
X155632802Y-99620334D01*
X155602272Y-99684431D01*
X155575625Y-99706957D01*
X155511569Y-99747373D01*
X155511562Y-99747379D01*
X155503972Y-99752168D01*
X155418246Y-99849234D01*
X155363209Y-99966460D01*
X155343285Y-100094420D01*
X151755950Y-100094420D01*
X151738390Y-99971806D01*
X151684789Y-99853917D01*
X151667837Y-99834243D01*
X151606115Y-99762611D01*
X151606112Y-99762608D01*
X151600255Y-99755811D01*
X151522534Y-99705435D01*
X151476250Y-99651600D01*
X151466419Y-99581287D01*
X151496163Y-99516821D01*
X151525136Y-99492329D01*
X151584106Y-99456120D01*
X151584107Y-99456119D01*
X151591757Y-99451422D01*
X151678662Y-99355411D01*
X151689450Y-99333146D01*
X151731212Y-99246948D01*
X151731212Y-99246947D01*
X151735127Y-99238867D01*
X151756613Y-99111159D01*
X151756749Y-99100000D01*
X151738390Y-98971806D01*
X151684789Y-98853917D01*
X151667837Y-98834243D01*
X151606115Y-98762611D01*
X151606112Y-98762608D01*
X151600255Y-98755811D01*
X151491584Y-98685374D01*
X151475611Y-98680597D01*
X151376113Y-98650840D01*
X151376111Y-98650840D01*
X151367512Y-98648268D01*
X151358537Y-98648213D01*
X151358536Y-98648213D01*
X151302762Y-98647873D01*
X151238012Y-98647477D01*
X151229380Y-98649944D01*
X151122126Y-98680597D01*
X151122124Y-98680598D01*
X151113495Y-98683064D01*
X151105908Y-98687851D01*
X151105906Y-98687852D01*
X151011565Y-98747377D01*
X151003972Y-98752168D01*
X150918246Y-98849234D01*
X150863209Y-98966460D01*
X150843285Y-99094420D01*
X150844449Y-99103322D01*
X150844449Y-99103325D01*
X150846100Y-99115951D01*
X150860076Y-99222829D01*
X150912233Y-99341364D01*
X150995562Y-99440495D01*
X151078209Y-99495510D01*
X151123831Y-99549906D01*
X151132802Y-99620334D01*
X151102272Y-99684431D01*
X151075625Y-99706957D01*
X151011569Y-99747373D01*
X151011562Y-99747379D01*
X151003972Y-99752168D01*
X150918246Y-99849234D01*
X150863209Y-99966460D01*
X150843285Y-100094420D01*
X126200500Y-100094420D01*
X126200500Y-96794420D01*
X131443285Y-96794420D01*
X131444449Y-96803322D01*
X131444449Y-96803325D01*
X131446100Y-96815951D01*
X131460076Y-96922829D01*
X131512233Y-97041364D01*
X131595562Y-97140495D01*
X131703364Y-97212255D01*
X131711928Y-97214931D01*
X131711931Y-97214932D01*
X131793974Y-97240564D01*
X131826974Y-97250874D01*
X131956455Y-97253247D01*
X132009077Y-97238901D01*
X132072738Y-97221545D01*
X132072740Y-97221544D01*
X132081397Y-97219184D01*
X132191757Y-97151422D01*
X132278662Y-97055411D01*
X132289450Y-97033146D01*
X132331212Y-96946948D01*
X132331212Y-96946947D01*
X132335127Y-96938867D01*
X132356613Y-96811159D01*
X132356749Y-96800000D01*
X132355950Y-96794420D01*
X134243285Y-96794420D01*
X134244449Y-96803322D01*
X134244449Y-96803325D01*
X134246100Y-96815951D01*
X134260076Y-96922829D01*
X134312233Y-97041364D01*
X134395562Y-97140495D01*
X134503364Y-97212255D01*
X134511928Y-97214931D01*
X134511931Y-97214932D01*
X134593974Y-97240564D01*
X134626974Y-97250874D01*
X134756455Y-97253247D01*
X134809077Y-97238901D01*
X134872738Y-97221545D01*
X134872740Y-97221544D01*
X134881397Y-97219184D01*
X134991757Y-97151422D01*
X135078662Y-97055411D01*
X135089450Y-97033146D01*
X135131212Y-96946948D01*
X135131212Y-96946947D01*
X135135127Y-96938867D01*
X135156613Y-96811159D01*
X135156749Y-96800000D01*
X135138390Y-96671806D01*
X135084789Y-96553917D01*
X135067837Y-96534243D01*
X135006115Y-96462611D01*
X135006112Y-96462608D01*
X135000255Y-96455811D01*
X134891584Y-96385374D01*
X134875611Y-96380597D01*
X134776113Y-96350840D01*
X134776111Y-96350840D01*
X134767512Y-96348268D01*
X134758537Y-96348213D01*
X134758536Y-96348213D01*
X134702762Y-96347873D01*
X134638012Y-96347477D01*
X134629380Y-96349944D01*
X134522126Y-96380597D01*
X134522124Y-96380598D01*
X134513495Y-96383064D01*
X134505908Y-96387851D01*
X134505906Y-96387852D01*
X134411565Y-96447377D01*
X134403972Y-96452168D01*
X134318246Y-96549234D01*
X134263209Y-96666460D01*
X134261828Y-96675329D01*
X134247164Y-96769509D01*
X134243285Y-96794420D01*
X132355950Y-96794420D01*
X132338390Y-96671806D01*
X132284789Y-96553917D01*
X132267837Y-96534243D01*
X132206115Y-96462611D01*
X132206112Y-96462608D01*
X132200255Y-96455811D01*
X132091584Y-96385374D01*
X132075611Y-96380597D01*
X131976113Y-96350840D01*
X131976111Y-96350840D01*
X131967512Y-96348268D01*
X131958537Y-96348213D01*
X131958536Y-96348213D01*
X131902762Y-96347873D01*
X131838012Y-96347477D01*
X131829380Y-96349944D01*
X131722126Y-96380597D01*
X131722124Y-96380598D01*
X131713495Y-96383064D01*
X131705908Y-96387851D01*
X131705906Y-96387852D01*
X131611565Y-96447377D01*
X131603972Y-96452168D01*
X131518246Y-96549234D01*
X131463209Y-96666460D01*
X131461828Y-96675329D01*
X131447164Y-96769509D01*
X131443285Y-96794420D01*
X126200500Y-96794420D01*
X126200500Y-96250000D01*
X148344318Y-96250000D01*
X148364956Y-96406762D01*
X148425464Y-96552841D01*
X148521718Y-96678282D01*
X148647159Y-96774536D01*
X148793238Y-96835044D01*
X148950000Y-96855682D01*
X148958188Y-96854604D01*
X149098574Y-96836122D01*
X149106762Y-96835044D01*
X149252841Y-96774536D01*
X149378282Y-96678282D01*
X149474536Y-96552841D01*
X149535044Y-96406762D01*
X149555682Y-96250000D01*
X149535044Y-96093238D01*
X149474536Y-95947159D01*
X149378282Y-95821718D01*
X149252841Y-95725464D01*
X149106762Y-95664956D01*
X148950000Y-95644318D01*
X148793238Y-95664956D01*
X148647159Y-95725464D01*
X148521718Y-95821718D01*
X148425464Y-95947159D01*
X148364956Y-96093238D01*
X148344318Y-96250000D01*
X126200500Y-96250000D01*
X126200500Y-94194420D01*
X131443285Y-94194420D01*
X131444449Y-94203322D01*
X131444449Y-94203325D01*
X131446100Y-94215951D01*
X131460076Y-94322829D01*
X131512233Y-94441364D01*
X131595562Y-94540495D01*
X131703364Y-94612255D01*
X131711928Y-94614931D01*
X131711931Y-94614932D01*
X131793974Y-94640564D01*
X131826974Y-94650874D01*
X131956455Y-94653247D01*
X132009077Y-94638901D01*
X132072738Y-94621545D01*
X132072740Y-94621544D01*
X132081397Y-94619184D01*
X132191757Y-94551422D01*
X132278662Y-94455411D01*
X132289450Y-94433146D01*
X132331212Y-94346948D01*
X132331212Y-94346947D01*
X132335127Y-94338867D01*
X132356613Y-94211159D01*
X132356749Y-94200000D01*
X132338390Y-94071806D01*
X132284789Y-93953917D01*
X132267837Y-93934243D01*
X132206115Y-93862611D01*
X132206112Y-93862608D01*
X132200255Y-93855811D01*
X132091584Y-93785374D01*
X132082985Y-93782802D01*
X132082982Y-93782801D01*
X132043492Y-93770991D01*
X131983958Y-93732309D01*
X131954788Y-93667582D01*
X131965244Y-93597359D01*
X132012004Y-93543937D01*
X132046452Y-93528711D01*
X132072738Y-93521545D01*
X132072740Y-93521544D01*
X132081397Y-93519184D01*
X132191757Y-93451422D01*
X132278662Y-93355411D01*
X132289450Y-93333146D01*
X132331212Y-93246948D01*
X132331212Y-93246947D01*
X132335127Y-93238867D01*
X132356613Y-93111159D01*
X132356749Y-93100000D01*
X132338390Y-92971806D01*
X132284789Y-92853917D01*
X132267837Y-92834243D01*
X132206115Y-92762611D01*
X132206112Y-92762608D01*
X132200255Y-92755811D01*
X132122534Y-92705435D01*
X132076250Y-92651600D01*
X132066419Y-92581287D01*
X132096163Y-92516821D01*
X132125136Y-92492329D01*
X132184106Y-92456120D01*
X132184107Y-92456119D01*
X132191757Y-92451422D01*
X132278662Y-92355411D01*
X132289450Y-92333146D01*
X132331212Y-92246948D01*
X132331212Y-92246947D01*
X132335127Y-92238867D01*
X132356613Y-92111159D01*
X132356749Y-92100000D01*
X132338390Y-91971806D01*
X132284789Y-91853917D01*
X132251054Y-91814766D01*
X132206115Y-91762611D01*
X132206112Y-91762608D01*
X132200255Y-91755811D01*
X132122534Y-91705435D01*
X132111071Y-91692102D01*
X146185593Y-91692102D01*
X146201154Y-91770333D01*
X146234282Y-91819913D01*
X147464291Y-93049922D01*
X147513871Y-93083050D01*
X147526040Y-93085471D01*
X147526041Y-93085471D01*
X147579931Y-93096190D01*
X147592102Y-93098611D01*
X147604273Y-93096190D01*
X147658163Y-93085471D01*
X147658164Y-93085471D01*
X147670333Y-93083050D01*
X147719913Y-93049922D01*
X148949922Y-91819913D01*
X148983050Y-91770333D01*
X148998611Y-91692102D01*
X148983050Y-91613871D01*
X148949922Y-91564291D01*
X147719913Y-90334282D01*
X147670333Y-90301154D01*
X147658164Y-90298733D01*
X147658163Y-90298733D01*
X147604273Y-90288014D01*
X147592102Y-90285593D01*
X147579931Y-90288014D01*
X147526041Y-90298733D01*
X147526040Y-90298733D01*
X147513871Y-90301154D01*
X147464291Y-90334282D01*
X146234282Y-91564291D01*
X146201154Y-91613871D01*
X146185593Y-91692102D01*
X132111071Y-91692102D01*
X132076250Y-91651600D01*
X132066419Y-91581287D01*
X132096163Y-91516821D01*
X132125136Y-91492329D01*
X132184106Y-91456120D01*
X132184107Y-91456119D01*
X132191757Y-91451422D01*
X132278662Y-91355411D01*
X132289450Y-91333146D01*
X132331212Y-91246948D01*
X132331212Y-91246947D01*
X132335127Y-91238867D01*
X132356613Y-91111159D01*
X132356749Y-91100000D01*
X132338390Y-90971806D01*
X132297490Y-90881851D01*
X132288506Y-90862091D01*
X132288504Y-90862088D01*
X132284789Y-90853917D01*
X132224131Y-90783520D01*
X132206115Y-90762611D01*
X132206112Y-90762608D01*
X132200255Y-90755811D01*
X132091584Y-90685374D01*
X132082985Y-90682802D01*
X132082982Y-90682801D01*
X132043492Y-90670991D01*
X131983958Y-90632309D01*
X131954788Y-90567582D01*
X131965244Y-90497359D01*
X132012004Y-90443937D01*
X132046452Y-90428711D01*
X132072738Y-90421545D01*
X132072740Y-90421544D01*
X132081397Y-90419184D01*
X132191757Y-90351422D01*
X132203310Y-90338659D01*
X132272634Y-90262071D01*
X132272635Y-90262070D01*
X132278662Y-90255411D01*
X132289450Y-90233146D01*
X132331212Y-90146948D01*
X132331212Y-90146947D01*
X132335127Y-90138867D01*
X132356613Y-90011159D01*
X132356749Y-90000000D01*
X132341360Y-89892545D01*
X132339752Y-89881313D01*
X144740571Y-89881313D01*
X144741087Y-89887457D01*
X144751475Y-90011159D01*
X144757810Y-90086604D01*
X144759509Y-90092529D01*
X144806215Y-90255411D01*
X144814595Y-90284637D01*
X144817410Y-90290114D01*
X144817411Y-90290117D01*
X144900029Y-90450874D01*
X144908763Y-90467869D01*
X145036728Y-90629321D01*
X145041421Y-90633315D01*
X145041422Y-90633316D01*
X145185354Y-90755811D01*
X145193615Y-90762842D01*
X145373449Y-90863348D01*
X145468289Y-90894164D01*
X145563522Y-90925107D01*
X145563526Y-90925108D01*
X145569380Y-90927010D01*
X145773945Y-90951402D01*
X145780080Y-90950930D01*
X145780082Y-90950930D01*
X145836090Y-90946620D01*
X145979351Y-90935597D01*
X145985281Y-90933941D01*
X145985283Y-90933941D01*
X146171848Y-90881851D01*
X146171847Y-90881851D01*
X146177776Y-90880196D01*
X146183265Y-90877423D01*
X146183271Y-90877421D01*
X146356167Y-90790084D01*
X146361661Y-90787309D01*
X146524002Y-90660475D01*
X146535222Y-90647477D01*
X146654591Y-90509185D01*
X146654591Y-90509184D01*
X146658615Y-90504523D01*
X146679438Y-90467869D01*
X146709762Y-90414488D01*
X146760374Y-90325395D01*
X146825402Y-90129914D01*
X146851222Y-89925525D01*
X146851634Y-89896051D01*
X146831531Y-89691021D01*
X146771986Y-89493800D01*
X146675269Y-89311900D01*
X146596184Y-89214932D01*
X146548957Y-89157026D01*
X146548954Y-89157023D01*
X146545062Y-89152251D01*
X146536864Y-89145469D01*
X146391076Y-89024862D01*
X146391072Y-89024860D01*
X146386326Y-89020933D01*
X146205106Y-88922948D01*
X146008305Y-88862028D01*
X146002180Y-88861384D01*
X146002179Y-88861384D01*
X145809549Y-88841138D01*
X145809547Y-88841138D01*
X145803420Y-88840494D01*
X145716580Y-88848397D01*
X145604393Y-88858606D01*
X145604390Y-88858607D01*
X145598254Y-88859165D01*
X145400623Y-88917331D01*
X145218053Y-89012777D01*
X145213252Y-89016637D01*
X145213249Y-89016639D01*
X145070157Y-89131688D01*
X145057498Y-89141866D01*
X144925075Y-89299681D01*
X144922107Y-89305079D01*
X144922104Y-89305084D01*
X144915366Y-89317341D01*
X144825827Y-89480213D01*
X144763535Y-89676583D01*
X144762849Y-89682700D01*
X144762848Y-89682704D01*
X144754474Y-89757360D01*
X144740571Y-89881313D01*
X132339752Y-89881313D01*
X132339663Y-89880693D01*
X132339662Y-89880691D01*
X132338390Y-89871806D01*
X132284789Y-89753917D01*
X132223428Y-89682704D01*
X132206115Y-89662611D01*
X132206112Y-89662608D01*
X132200255Y-89655811D01*
X132091584Y-89585374D01*
X132075611Y-89580597D01*
X131976113Y-89550840D01*
X131976111Y-89550840D01*
X131967512Y-89548268D01*
X131958537Y-89548213D01*
X131958536Y-89548213D01*
X131902762Y-89547873D01*
X131838012Y-89547477D01*
X131829380Y-89549944D01*
X131722126Y-89580597D01*
X131722124Y-89580598D01*
X131713495Y-89583064D01*
X131705908Y-89587851D01*
X131705906Y-89587852D01*
X131611565Y-89647377D01*
X131603972Y-89652168D01*
X131598029Y-89658897D01*
X131598028Y-89658898D01*
X131528863Y-89737213D01*
X131518246Y-89749234D01*
X131463209Y-89866460D01*
X131461828Y-89875329D01*
X131453467Y-89929029D01*
X131443285Y-89994420D01*
X131444449Y-90003322D01*
X131444449Y-90003325D01*
X131446100Y-90015951D01*
X131460076Y-90122829D01*
X131512233Y-90241364D01*
X131548608Y-90284637D01*
X131587449Y-90330843D01*
X131595562Y-90340495D01*
X131703364Y-90412255D01*
X131711928Y-90414931D01*
X131711933Y-90414933D01*
X131758746Y-90429558D01*
X131817803Y-90468964D01*
X131846180Y-90534043D01*
X131834868Y-90604133D01*
X131787458Y-90656980D01*
X131755797Y-90670974D01*
X131713495Y-90683064D01*
X131705908Y-90687851D01*
X131705906Y-90687852D01*
X131611565Y-90747377D01*
X131603972Y-90752168D01*
X131598029Y-90758897D01*
X131598028Y-90758898D01*
X131528863Y-90837213D01*
X131518246Y-90849234D01*
X131490727Y-90907847D01*
X131478477Y-90933941D01*
X131463209Y-90966460D01*
X131443285Y-91094420D01*
X131444449Y-91103322D01*
X131444449Y-91103325D01*
X131446100Y-91115951D01*
X131460076Y-91222829D01*
X131512233Y-91341364D01*
X131595562Y-91440495D01*
X131678209Y-91495510D01*
X131723831Y-91549906D01*
X131732802Y-91620334D01*
X131702272Y-91684431D01*
X131675625Y-91706957D01*
X131611569Y-91747373D01*
X131611562Y-91747379D01*
X131603972Y-91752168D01*
X131518246Y-91849234D01*
X131463209Y-91966460D01*
X131443285Y-92094420D01*
X131444449Y-92103322D01*
X131444449Y-92103325D01*
X131446100Y-92115951D01*
X131460076Y-92222829D01*
X131512233Y-92341364D01*
X131595562Y-92440495D01*
X131678209Y-92495510D01*
X131723831Y-92549906D01*
X131732802Y-92620334D01*
X131702272Y-92684431D01*
X131675625Y-92706957D01*
X131611569Y-92747373D01*
X131611562Y-92747379D01*
X131603972Y-92752168D01*
X131518246Y-92849234D01*
X131463209Y-92966460D01*
X131461828Y-92975329D01*
X131450214Y-93049922D01*
X131443285Y-93094420D01*
X131444449Y-93103322D01*
X131444449Y-93103325D01*
X131446100Y-93115951D01*
X131460076Y-93222829D01*
X131512233Y-93341364D01*
X131595562Y-93440495D01*
X131703364Y-93512255D01*
X131711928Y-93514931D01*
X131711933Y-93514933D01*
X131758746Y-93529558D01*
X131817803Y-93568964D01*
X131846180Y-93634043D01*
X131834868Y-93704133D01*
X131787458Y-93756980D01*
X131755797Y-93770974D01*
X131713495Y-93783064D01*
X131705908Y-93787851D01*
X131705906Y-93787852D01*
X131611565Y-93847377D01*
X131603972Y-93852168D01*
X131518246Y-93949234D01*
X131463209Y-94066460D01*
X131443285Y-94194420D01*
X126200500Y-94194420D01*
X126200500Y-88794420D01*
X131443285Y-88794420D01*
X131444449Y-88803322D01*
X131444449Y-88803325D01*
X131446100Y-88815951D01*
X131460076Y-88922829D01*
X131512233Y-89041364D01*
X131595562Y-89140495D01*
X131603033Y-89145468D01*
X131603034Y-89145469D01*
X131619032Y-89156118D01*
X131703364Y-89212255D01*
X131711928Y-89214931D01*
X131711931Y-89214932D01*
X131793974Y-89240564D01*
X131826974Y-89250874D01*
X131956455Y-89253247D01*
X132009077Y-89238901D01*
X132072738Y-89221545D01*
X132072740Y-89221544D01*
X132081397Y-89219184D01*
X132191757Y-89151422D01*
X132201648Y-89140495D01*
X132272634Y-89062071D01*
X132272635Y-89062070D01*
X132278662Y-89055411D01*
X132289450Y-89033146D01*
X132331212Y-88946948D01*
X132331212Y-88946947D01*
X132335127Y-88938867D01*
X132356613Y-88811159D01*
X132356749Y-88800000D01*
X132355950Y-88794420D01*
X134043285Y-88794420D01*
X134044449Y-88803322D01*
X134044449Y-88803325D01*
X134046100Y-88815951D01*
X134060076Y-88922829D01*
X134112233Y-89041364D01*
X134195562Y-89140495D01*
X134203033Y-89145468D01*
X134203034Y-89145469D01*
X134219032Y-89156118D01*
X134303364Y-89212255D01*
X134311928Y-89214931D01*
X134311931Y-89214932D01*
X134393974Y-89240564D01*
X134426974Y-89250874D01*
X134556455Y-89253247D01*
X134609077Y-89238901D01*
X134672738Y-89221545D01*
X134672740Y-89221544D01*
X134681397Y-89219184D01*
X134791757Y-89151422D01*
X134801648Y-89140495D01*
X134872634Y-89062071D01*
X134872635Y-89062070D01*
X134878662Y-89055411D01*
X134889450Y-89033146D01*
X134931212Y-88946948D01*
X134931212Y-88946947D01*
X134935127Y-88938867D01*
X134956613Y-88811159D01*
X134956749Y-88800000D01*
X134938390Y-88671806D01*
X134884789Y-88553917D01*
X134828496Y-88488586D01*
X134806115Y-88462611D01*
X134806112Y-88462608D01*
X134800255Y-88455811D01*
X134691584Y-88385374D01*
X134675611Y-88380597D01*
X134576113Y-88350840D01*
X134576111Y-88350840D01*
X134567512Y-88348268D01*
X134558537Y-88348213D01*
X134558536Y-88348213D01*
X134502762Y-88347873D01*
X134438012Y-88347477D01*
X134429380Y-88349944D01*
X134322126Y-88380597D01*
X134322124Y-88380598D01*
X134313495Y-88383064D01*
X134305908Y-88387851D01*
X134305906Y-88387852D01*
X134211565Y-88447377D01*
X134203972Y-88452168D01*
X134198029Y-88458897D01*
X134198028Y-88458898D01*
X134135812Y-88529344D01*
X134118246Y-88549234D01*
X134063209Y-88666460D01*
X134061828Y-88675329D01*
X134055942Y-88713134D01*
X134043285Y-88794420D01*
X132355950Y-88794420D01*
X132338390Y-88671806D01*
X132284789Y-88553917D01*
X132228496Y-88488586D01*
X132206115Y-88462611D01*
X132206112Y-88462608D01*
X132200255Y-88455811D01*
X132091584Y-88385374D01*
X132075611Y-88380597D01*
X131976113Y-88350840D01*
X131976111Y-88350840D01*
X131967512Y-88348268D01*
X131958537Y-88348213D01*
X131958536Y-88348213D01*
X131902762Y-88347873D01*
X131838012Y-88347477D01*
X131829380Y-88349944D01*
X131722126Y-88380597D01*
X131722124Y-88380598D01*
X131713495Y-88383064D01*
X131705908Y-88387851D01*
X131705906Y-88387852D01*
X131611565Y-88447377D01*
X131603972Y-88452168D01*
X131598029Y-88458897D01*
X131598028Y-88458898D01*
X131535812Y-88529344D01*
X131518246Y-88549234D01*
X131463209Y-88666460D01*
X131461828Y-88675329D01*
X131455942Y-88713134D01*
X131443285Y-88794420D01*
X126200500Y-88794420D01*
X126200500Y-88085262D01*
X142944520Y-88085262D01*
X142961759Y-88290553D01*
X142963458Y-88296478D01*
X143007746Y-88450928D01*
X143018544Y-88488586D01*
X143021359Y-88494063D01*
X143021360Y-88494066D01*
X143052119Y-88553917D01*
X143112712Y-88671818D01*
X143240677Y-88833270D01*
X143245370Y-88837264D01*
X143245371Y-88837265D01*
X143374249Y-88946948D01*
X143397564Y-88966791D01*
X143577398Y-89067297D01*
X143672238Y-89098113D01*
X143767471Y-89129056D01*
X143767475Y-89129057D01*
X143773329Y-89130959D01*
X143977894Y-89155351D01*
X143984029Y-89154879D01*
X143984031Y-89154879D01*
X144040039Y-89150569D01*
X144183300Y-89139546D01*
X144189230Y-89137890D01*
X144189232Y-89137890D01*
X144375797Y-89085800D01*
X144375796Y-89085800D01*
X144381725Y-89084145D01*
X144387214Y-89081372D01*
X144387220Y-89081370D01*
X144523010Y-89012777D01*
X144565610Y-88991258D01*
X144727951Y-88864424D01*
X144732491Y-88859165D01*
X144858540Y-88713134D01*
X144858540Y-88713133D01*
X144862564Y-88708472D01*
X144883387Y-88671818D01*
X144945720Y-88562091D01*
X144964323Y-88529344D01*
X145029351Y-88333863D01*
X145055171Y-88129474D01*
X145055583Y-88100000D01*
X145035480Y-87894970D01*
X144975935Y-87697749D01*
X144879218Y-87515849D01*
X144788697Y-87404860D01*
X144780183Y-87394420D01*
X150843285Y-87394420D01*
X150844449Y-87403322D01*
X150844449Y-87403325D01*
X150846100Y-87415951D01*
X150860076Y-87522829D01*
X150912233Y-87641364D01*
X150995562Y-87740495D01*
X151103364Y-87812255D01*
X151111928Y-87814931D01*
X151111931Y-87814932D01*
X151171764Y-87833625D01*
X151226974Y-87850874D01*
X151356455Y-87853247D01*
X151428428Y-87833625D01*
X151472738Y-87821545D01*
X151472740Y-87821544D01*
X151481397Y-87819184D01*
X151591757Y-87751422D01*
X151634999Y-87703649D01*
X151672634Y-87662071D01*
X151672635Y-87662070D01*
X151678662Y-87655411D01*
X151682763Y-87646948D01*
X151731212Y-87546948D01*
X151731212Y-87546947D01*
X151735127Y-87538867D01*
X151756613Y-87411159D01*
X151756749Y-87400000D01*
X151755950Y-87394420D01*
X155443285Y-87394420D01*
X155444449Y-87403322D01*
X155444449Y-87403325D01*
X155446100Y-87415951D01*
X155460076Y-87522829D01*
X155512233Y-87641364D01*
X155595562Y-87740495D01*
X155703364Y-87812255D01*
X155711928Y-87814931D01*
X155711931Y-87814932D01*
X155771764Y-87833625D01*
X155826974Y-87850874D01*
X155956455Y-87853247D01*
X156028428Y-87833625D01*
X156072738Y-87821545D01*
X156072740Y-87821544D01*
X156081397Y-87819184D01*
X156191757Y-87751422D01*
X156234999Y-87703649D01*
X156272634Y-87662071D01*
X156272635Y-87662070D01*
X156278662Y-87655411D01*
X156282763Y-87646948D01*
X156331212Y-87546948D01*
X156331212Y-87546947D01*
X156335127Y-87538867D01*
X156342605Y-87494420D01*
X170543285Y-87494420D01*
X170544449Y-87503322D01*
X170544449Y-87503325D01*
X170549097Y-87538867D01*
X170560076Y-87622829D01*
X170612233Y-87741364D01*
X170695562Y-87840495D01*
X170803364Y-87912255D01*
X170811928Y-87914931D01*
X170811931Y-87914932D01*
X170893974Y-87940564D01*
X170926974Y-87950874D01*
X171056455Y-87953247D01*
X171109077Y-87938901D01*
X171172738Y-87921545D01*
X171172740Y-87921544D01*
X171181397Y-87919184D01*
X171291757Y-87851422D01*
X171307866Y-87833625D01*
X171372634Y-87762071D01*
X171372635Y-87762070D01*
X171378662Y-87755411D01*
X171389218Y-87733625D01*
X171431212Y-87646948D01*
X171431212Y-87646947D01*
X171435127Y-87638867D01*
X171456613Y-87511159D01*
X171456749Y-87500000D01*
X171455950Y-87494420D01*
X174843285Y-87494420D01*
X174844449Y-87503322D01*
X174844449Y-87503325D01*
X174849097Y-87538867D01*
X174860076Y-87622829D01*
X174912233Y-87741364D01*
X174995562Y-87840495D01*
X175103364Y-87912255D01*
X175111928Y-87914931D01*
X175111931Y-87914932D01*
X175193974Y-87940564D01*
X175226974Y-87950874D01*
X175356455Y-87953247D01*
X175409077Y-87938901D01*
X175472738Y-87921545D01*
X175472740Y-87921544D01*
X175481397Y-87919184D01*
X175591757Y-87851422D01*
X175607866Y-87833625D01*
X175672634Y-87762071D01*
X175672635Y-87762070D01*
X175678662Y-87755411D01*
X175689218Y-87733625D01*
X175731212Y-87646948D01*
X175731212Y-87646947D01*
X175735127Y-87638867D01*
X175756613Y-87511159D01*
X175756749Y-87500000D01*
X175738390Y-87371806D01*
X175716714Y-87324132D01*
X175688506Y-87262091D01*
X175688504Y-87262088D01*
X175684789Y-87253917D01*
X175650281Y-87213869D01*
X175606115Y-87162611D01*
X175606112Y-87162608D01*
X175600255Y-87155811D01*
X175522534Y-87105435D01*
X175476250Y-87051600D01*
X175466419Y-86981287D01*
X175496163Y-86916821D01*
X175525136Y-86892329D01*
X175584106Y-86856120D01*
X175584107Y-86856119D01*
X175591757Y-86851422D01*
X175607866Y-86833625D01*
X175672634Y-86762071D01*
X175672635Y-86762070D01*
X175678662Y-86755411D01*
X175686781Y-86738655D01*
X175731212Y-86646948D01*
X175731212Y-86646947D01*
X175735127Y-86638867D01*
X175750592Y-86546948D01*
X175755807Y-86515951D01*
X175755807Y-86515948D01*
X175756613Y-86511159D01*
X175756749Y-86500000D01*
X175738390Y-86371806D01*
X175705943Y-86300442D01*
X175688506Y-86262091D01*
X175688504Y-86262088D01*
X175684789Y-86253917D01*
X175667837Y-86234243D01*
X175606115Y-86162611D01*
X175606112Y-86162608D01*
X175600255Y-86155811D01*
X175512480Y-86098918D01*
X175499118Y-86090257D01*
X175499116Y-86090256D01*
X175491584Y-86085374D01*
X175468957Y-86078607D01*
X175376113Y-86050840D01*
X175376111Y-86050840D01*
X175367512Y-86048268D01*
X175358537Y-86048213D01*
X175358536Y-86048213D01*
X175302762Y-86047873D01*
X175238012Y-86047477D01*
X175229380Y-86049944D01*
X175122126Y-86080597D01*
X175122124Y-86080598D01*
X175113495Y-86083064D01*
X175105908Y-86087851D01*
X175105906Y-86087852D01*
X175019285Y-86142506D01*
X175003972Y-86152168D01*
X174918246Y-86249234D01*
X174863209Y-86366460D01*
X174861828Y-86375329D01*
X174858737Y-86395184D01*
X174843285Y-86494420D01*
X174844449Y-86503322D01*
X174844449Y-86503325D01*
X174848159Y-86531692D01*
X174860076Y-86622829D01*
X174912233Y-86741364D01*
X174995562Y-86840495D01*
X175078209Y-86895510D01*
X175123831Y-86949906D01*
X175132802Y-87020334D01*
X175102272Y-87084431D01*
X175075625Y-87106957D01*
X175011569Y-87147373D01*
X175011562Y-87147379D01*
X175003972Y-87152168D01*
X174998029Y-87158897D01*
X174998028Y-87158898D01*
X174984915Y-87173746D01*
X174918246Y-87249234D01*
X174863209Y-87366460D01*
X174861828Y-87375329D01*
X174858737Y-87395184D01*
X174843285Y-87494420D01*
X171455950Y-87494420D01*
X171438390Y-87371806D01*
X171416714Y-87324132D01*
X171388506Y-87262091D01*
X171388504Y-87262088D01*
X171384789Y-87253917D01*
X171350281Y-87213869D01*
X171306115Y-87162611D01*
X171306112Y-87162608D01*
X171300255Y-87155811D01*
X171222534Y-87105435D01*
X171176250Y-87051600D01*
X171166419Y-86981287D01*
X171196163Y-86916821D01*
X171225136Y-86892329D01*
X171284106Y-86856120D01*
X171284107Y-86856119D01*
X171291757Y-86851422D01*
X171307866Y-86833625D01*
X171372634Y-86762071D01*
X171372635Y-86762070D01*
X171378662Y-86755411D01*
X171386781Y-86738655D01*
X171431212Y-86646948D01*
X171431212Y-86646947D01*
X171435127Y-86638867D01*
X171450592Y-86546948D01*
X171455807Y-86515951D01*
X171455807Y-86515948D01*
X171456613Y-86511159D01*
X171456749Y-86500000D01*
X171438390Y-86371806D01*
X171405943Y-86300442D01*
X171388506Y-86262091D01*
X171388504Y-86262088D01*
X171384789Y-86253917D01*
X171367837Y-86234243D01*
X171306115Y-86162611D01*
X171306112Y-86162608D01*
X171300255Y-86155811D01*
X171212480Y-86098918D01*
X171199118Y-86090257D01*
X171199116Y-86090256D01*
X171191584Y-86085374D01*
X171168957Y-86078607D01*
X171076113Y-86050840D01*
X171076111Y-86050840D01*
X171067512Y-86048268D01*
X171058537Y-86048213D01*
X171058536Y-86048213D01*
X171002762Y-86047873D01*
X170938012Y-86047477D01*
X170929380Y-86049944D01*
X170822126Y-86080597D01*
X170822124Y-86080598D01*
X170813495Y-86083064D01*
X170805908Y-86087851D01*
X170805906Y-86087852D01*
X170719285Y-86142506D01*
X170703972Y-86152168D01*
X170618246Y-86249234D01*
X170563209Y-86366460D01*
X170561828Y-86375329D01*
X170558737Y-86395184D01*
X170543285Y-86494420D01*
X170544449Y-86503322D01*
X170544449Y-86503325D01*
X170548159Y-86531692D01*
X170560076Y-86622829D01*
X170612233Y-86741364D01*
X170695562Y-86840495D01*
X170778209Y-86895510D01*
X170823831Y-86949906D01*
X170832802Y-87020334D01*
X170802272Y-87084431D01*
X170775625Y-87106957D01*
X170711569Y-87147373D01*
X170711562Y-87147379D01*
X170703972Y-87152168D01*
X170698029Y-87158897D01*
X170698028Y-87158898D01*
X170684915Y-87173746D01*
X170618246Y-87249234D01*
X170563209Y-87366460D01*
X170561828Y-87375329D01*
X170558737Y-87395184D01*
X170543285Y-87494420D01*
X156342605Y-87494420D01*
X156356613Y-87411159D01*
X156356749Y-87400000D01*
X156338390Y-87271806D01*
X156303562Y-87195206D01*
X156288506Y-87162091D01*
X156288504Y-87162088D01*
X156284789Y-87153917D01*
X156255168Y-87119540D01*
X156206115Y-87062611D01*
X156206112Y-87062608D01*
X156200255Y-87055811D01*
X156122534Y-87005435D01*
X156076250Y-86951600D01*
X156066419Y-86881287D01*
X156096163Y-86816821D01*
X156125136Y-86792329D01*
X156184106Y-86756120D01*
X156184107Y-86756119D01*
X156191757Y-86751422D01*
X156207866Y-86733625D01*
X156272634Y-86662071D01*
X156272635Y-86662070D01*
X156278662Y-86655411D01*
X156282763Y-86646948D01*
X156331212Y-86546948D01*
X156331212Y-86546947D01*
X156335127Y-86538867D01*
X156356613Y-86411159D01*
X156356749Y-86400000D01*
X156342491Y-86300442D01*
X156339663Y-86280693D01*
X156339662Y-86280691D01*
X156338390Y-86271806D01*
X156284789Y-86153917D01*
X156232313Y-86093016D01*
X156206115Y-86062611D01*
X156206112Y-86062608D01*
X156200255Y-86055811D01*
X156091584Y-85985374D01*
X156075611Y-85980597D01*
X155976113Y-85950840D01*
X155976111Y-85950840D01*
X155967512Y-85948268D01*
X155958537Y-85948213D01*
X155958536Y-85948213D01*
X155902762Y-85947872D01*
X155838012Y-85947477D01*
X155829380Y-85949944D01*
X155722126Y-85980597D01*
X155722124Y-85980598D01*
X155713495Y-85983064D01*
X155705908Y-85987851D01*
X155705906Y-85987852D01*
X155611565Y-86047377D01*
X155603972Y-86052168D01*
X155598029Y-86058897D01*
X155598028Y-86058898D01*
X155575435Y-86084480D01*
X155518246Y-86149234D01*
X155514431Y-86157360D01*
X155471297Y-86249234D01*
X155463209Y-86266460D01*
X155461828Y-86275329D01*
X155446258Y-86375329D01*
X155443285Y-86394420D01*
X155444449Y-86403322D01*
X155444449Y-86403325D01*
X155446100Y-86415951D01*
X155460076Y-86522829D01*
X155512233Y-86641364D01*
X155595562Y-86740495D01*
X155678209Y-86795510D01*
X155723831Y-86849906D01*
X155732802Y-86920334D01*
X155702272Y-86984431D01*
X155675625Y-87006957D01*
X155611569Y-87047373D01*
X155611562Y-87047379D01*
X155603972Y-87052168D01*
X155598029Y-87058897D01*
X155598028Y-87058898D01*
X155575478Y-87084431D01*
X155518246Y-87149234D01*
X155514431Y-87157360D01*
X155471297Y-87249234D01*
X155463209Y-87266460D01*
X155461828Y-87275329D01*
X155446258Y-87375329D01*
X155443285Y-87394420D01*
X151755950Y-87394420D01*
X151738390Y-87271806D01*
X151703562Y-87195206D01*
X151688506Y-87162091D01*
X151688504Y-87162088D01*
X151684789Y-87153917D01*
X151655168Y-87119540D01*
X151606115Y-87062611D01*
X151606112Y-87062608D01*
X151600255Y-87055811D01*
X151522534Y-87005435D01*
X151476250Y-86951600D01*
X151466419Y-86881287D01*
X151496163Y-86816821D01*
X151525136Y-86792329D01*
X151584106Y-86756120D01*
X151584107Y-86756119D01*
X151591757Y-86751422D01*
X151607866Y-86733625D01*
X151672634Y-86662071D01*
X151672635Y-86662070D01*
X151678662Y-86655411D01*
X151682763Y-86646948D01*
X151731212Y-86546948D01*
X151731212Y-86546947D01*
X151735127Y-86538867D01*
X151756613Y-86411159D01*
X151756749Y-86400000D01*
X151742491Y-86300442D01*
X151739663Y-86280693D01*
X151739662Y-86280691D01*
X151738390Y-86271806D01*
X151684789Y-86153917D01*
X151632313Y-86093016D01*
X151606115Y-86062611D01*
X151606112Y-86062608D01*
X151600255Y-86055811D01*
X151491584Y-85985374D01*
X151475611Y-85980597D01*
X151376113Y-85950840D01*
X151376111Y-85950840D01*
X151367512Y-85948268D01*
X151358537Y-85948213D01*
X151358536Y-85948213D01*
X151302762Y-85947872D01*
X151238012Y-85947477D01*
X151229380Y-85949944D01*
X151122126Y-85980597D01*
X151122124Y-85980598D01*
X151113495Y-85983064D01*
X151105908Y-85987851D01*
X151105906Y-85987852D01*
X151011565Y-86047377D01*
X151003972Y-86052168D01*
X150998029Y-86058897D01*
X150998028Y-86058898D01*
X150975435Y-86084480D01*
X150918246Y-86149234D01*
X150914431Y-86157360D01*
X150871297Y-86249234D01*
X150863209Y-86266460D01*
X150861828Y-86275329D01*
X150846258Y-86375329D01*
X150843285Y-86394420D01*
X150844449Y-86403322D01*
X150844449Y-86403325D01*
X150846100Y-86415951D01*
X150860076Y-86522829D01*
X150912233Y-86641364D01*
X150995562Y-86740495D01*
X151078209Y-86795510D01*
X151123831Y-86849906D01*
X151132802Y-86920334D01*
X151102272Y-86984431D01*
X151075625Y-87006957D01*
X151011569Y-87047373D01*
X151011562Y-87047379D01*
X151003972Y-87052168D01*
X150998029Y-87058897D01*
X150998028Y-87058898D01*
X150975478Y-87084431D01*
X150918246Y-87149234D01*
X150914431Y-87157360D01*
X150871297Y-87249234D01*
X150863209Y-87266460D01*
X150861828Y-87275329D01*
X150846258Y-87375329D01*
X150843285Y-87394420D01*
X144780183Y-87394420D01*
X144752906Y-87360975D01*
X144752903Y-87360972D01*
X144749011Y-87356200D01*
X144731786Y-87341950D01*
X144595025Y-87228811D01*
X144595021Y-87228809D01*
X144590275Y-87224882D01*
X144409055Y-87126897D01*
X144212254Y-87065977D01*
X144206129Y-87065333D01*
X144206128Y-87065333D01*
X144013498Y-87045087D01*
X144013496Y-87045087D01*
X144007369Y-87044443D01*
X143922483Y-87052168D01*
X143808342Y-87062555D01*
X143808339Y-87062556D01*
X143802203Y-87063114D01*
X143604572Y-87121280D01*
X143422002Y-87216726D01*
X143417201Y-87220586D01*
X143417198Y-87220588D01*
X143277381Y-87333004D01*
X143261447Y-87345815D01*
X143129024Y-87503630D01*
X143126056Y-87509028D01*
X143126053Y-87509033D01*
X143050026Y-87647327D01*
X143029776Y-87684162D01*
X142967484Y-87880532D01*
X142966798Y-87886649D01*
X142966797Y-87886653D01*
X142945207Y-88079137D01*
X142944520Y-88085262D01*
X126200500Y-88085262D01*
X126200500Y-86289210D01*
X141148468Y-86289210D01*
X141148984Y-86295354D01*
X141158180Y-86404860D01*
X141165707Y-86494501D01*
X141222492Y-86692534D01*
X141225307Y-86698011D01*
X141225308Y-86698014D01*
X141303370Y-86849906D01*
X141316660Y-86875766D01*
X141444625Y-87037218D01*
X141449318Y-87041212D01*
X141449319Y-87041213D01*
X141591962Y-87162611D01*
X141601512Y-87170739D01*
X141781346Y-87271245D01*
X141876186Y-87302061D01*
X141971419Y-87333004D01*
X141971423Y-87333005D01*
X141977277Y-87334907D01*
X142181842Y-87359299D01*
X142187977Y-87358827D01*
X142187979Y-87358827D01*
X142243987Y-87354517D01*
X142387248Y-87343494D01*
X142393178Y-87341838D01*
X142393180Y-87341838D01*
X142579745Y-87289748D01*
X142579744Y-87289748D01*
X142585673Y-87288093D01*
X142591162Y-87285320D01*
X142591168Y-87285318D01*
X142726956Y-87216726D01*
X142769558Y-87195206D01*
X142811944Y-87162091D01*
X142927049Y-87072161D01*
X142931899Y-87068372D01*
X142942742Y-87055811D01*
X143062488Y-86917082D01*
X143062488Y-86917081D01*
X143066512Y-86912420D01*
X143087335Y-86875766D01*
X143155303Y-86756120D01*
X143168271Y-86733292D01*
X143233299Y-86537811D01*
X143259119Y-86333422D01*
X143259531Y-86303948D01*
X143239428Y-86098918D01*
X143179883Y-85901697D01*
X143083166Y-85719797D01*
X143009807Y-85629850D01*
X142956854Y-85564923D01*
X142956851Y-85564920D01*
X142952959Y-85560148D01*
X142938172Y-85547915D01*
X142798973Y-85432759D01*
X142798969Y-85432757D01*
X142794223Y-85428830D01*
X142613003Y-85330845D01*
X142416202Y-85269925D01*
X142410077Y-85269281D01*
X142410076Y-85269281D01*
X142217446Y-85249035D01*
X142217444Y-85249035D01*
X142211317Y-85248391D01*
X142124477Y-85256294D01*
X142012290Y-85266503D01*
X142012287Y-85266504D01*
X142006151Y-85267062D01*
X141808520Y-85325228D01*
X141625950Y-85420674D01*
X141621149Y-85424534D01*
X141621146Y-85424536D01*
X141478054Y-85539585D01*
X141465395Y-85549763D01*
X141332972Y-85707578D01*
X141330004Y-85712976D01*
X141330001Y-85712981D01*
X141323263Y-85725238D01*
X141233724Y-85888110D01*
X141171432Y-86084480D01*
X141170746Y-86090597D01*
X141170745Y-86090601D01*
X141151931Y-86258334D01*
X141148468Y-86289210D01*
X126200500Y-86289210D01*
X126200500Y-84493159D01*
X139352417Y-84493159D01*
X139369656Y-84698450D01*
X139371355Y-84704375D01*
X139407237Y-84829509D01*
X139426441Y-84896483D01*
X139429256Y-84901960D01*
X139429257Y-84901963D01*
X139450144Y-84942604D01*
X139520609Y-85079715D01*
X139648574Y-85241167D01*
X139653267Y-85245161D01*
X139653268Y-85245162D01*
X139753946Y-85330845D01*
X139805461Y-85374688D01*
X139985295Y-85475194D01*
X140080135Y-85506010D01*
X140175368Y-85536953D01*
X140175372Y-85536954D01*
X140181226Y-85538856D01*
X140385791Y-85563248D01*
X140391926Y-85562776D01*
X140391928Y-85562776D01*
X140447936Y-85558466D01*
X140591197Y-85547443D01*
X140597127Y-85545787D01*
X140597129Y-85545787D01*
X140783694Y-85493697D01*
X140783693Y-85493697D01*
X140789622Y-85492042D01*
X140795111Y-85489269D01*
X140795117Y-85489267D01*
X140930907Y-85420674D01*
X140973507Y-85399155D01*
X141135848Y-85272321D01*
X141140388Y-85267062D01*
X141266437Y-85121031D01*
X141266437Y-85121030D01*
X141270461Y-85116369D01*
X141291284Y-85079715D01*
X141369173Y-84942604D01*
X141372220Y-84937241D01*
X141437248Y-84741760D01*
X141463068Y-84537371D01*
X141463480Y-84507897D01*
X141444076Y-84310000D01*
X150184318Y-84310000D01*
X150204956Y-84466762D01*
X150265464Y-84612841D01*
X150361718Y-84738282D01*
X150487159Y-84834536D01*
X150633238Y-84895044D01*
X150790000Y-84915682D01*
X150798188Y-84914604D01*
X150938574Y-84896122D01*
X150946762Y-84895044D01*
X151092841Y-84834536D01*
X151218282Y-84738282D01*
X151314536Y-84612841D01*
X151375044Y-84466762D01*
X151395682Y-84310000D01*
X151375044Y-84153238D01*
X151314536Y-84007159D01*
X151218282Y-83881718D01*
X151092841Y-83785464D01*
X150946762Y-83724956D01*
X150790000Y-83704318D01*
X150633238Y-83724956D01*
X150487159Y-83785464D01*
X150361718Y-83881718D01*
X150265464Y-84007159D01*
X150204956Y-84153238D01*
X150184318Y-84310000D01*
X141444076Y-84310000D01*
X141443377Y-84302867D01*
X141383832Y-84105646D01*
X141287115Y-83923746D01*
X141213756Y-83833799D01*
X141160803Y-83768872D01*
X141160800Y-83768869D01*
X141156908Y-83764097D01*
X141142121Y-83751864D01*
X141002922Y-83636708D01*
X141002918Y-83636706D01*
X140998172Y-83632779D01*
X140816952Y-83534794D01*
X140620151Y-83473874D01*
X140614026Y-83473230D01*
X140614025Y-83473230D01*
X140421395Y-83452984D01*
X140421393Y-83452984D01*
X140415266Y-83452340D01*
X140328426Y-83460243D01*
X140216239Y-83470452D01*
X140216236Y-83470453D01*
X140210100Y-83471011D01*
X140012469Y-83529177D01*
X139829899Y-83624623D01*
X139825098Y-83628483D01*
X139825095Y-83628485D01*
X139682003Y-83743534D01*
X139669344Y-83753712D01*
X139536921Y-83911527D01*
X139533953Y-83916925D01*
X139533950Y-83916930D01*
X139527212Y-83929187D01*
X139437673Y-84092059D01*
X139375381Y-84288429D01*
X139374695Y-84294546D01*
X139374694Y-84294550D01*
X139372961Y-84310000D01*
X139352417Y-84493159D01*
X126200500Y-84493159D01*
X126200500Y-82697108D01*
X137556366Y-82697108D01*
X137573605Y-82902399D01*
X137630390Y-83100432D01*
X137633205Y-83105909D01*
X137633206Y-83105912D01*
X137654093Y-83146553D01*
X137724558Y-83283664D01*
X137852523Y-83445116D01*
X137857216Y-83449110D01*
X137857217Y-83449111D01*
X137957895Y-83534794D01*
X138009410Y-83578637D01*
X138189244Y-83679143D01*
X138270042Y-83705396D01*
X138379317Y-83740902D01*
X138379321Y-83740903D01*
X138385175Y-83742805D01*
X138589740Y-83767197D01*
X138595875Y-83766725D01*
X138595877Y-83766725D01*
X138651885Y-83762415D01*
X138795146Y-83751392D01*
X138801076Y-83749736D01*
X138801078Y-83749736D01*
X138987643Y-83697646D01*
X138987642Y-83697646D01*
X138993571Y-83695991D01*
X138999060Y-83693218D01*
X138999066Y-83693216D01*
X139134856Y-83624623D01*
X139177456Y-83603104D01*
X139339797Y-83476270D01*
X139344337Y-83471011D01*
X139470386Y-83324980D01*
X139470386Y-83324979D01*
X139474410Y-83320318D01*
X139495233Y-83283664D01*
X139573122Y-83146553D01*
X139576169Y-83141190D01*
X139641197Y-82945709D01*
X139667017Y-82741320D01*
X139667429Y-82711846D01*
X139647326Y-82506816D01*
X139587781Y-82309595D01*
X139491064Y-82127695D01*
X139417705Y-82037748D01*
X139364752Y-81972821D01*
X139364749Y-81972818D01*
X139360857Y-81968046D01*
X139343632Y-81953796D01*
X139206871Y-81840657D01*
X139206867Y-81840655D01*
X139202121Y-81836728D01*
X139020901Y-81738743D01*
X138824100Y-81677823D01*
X138817975Y-81677179D01*
X138817974Y-81677179D01*
X138625344Y-81656933D01*
X138625342Y-81656933D01*
X138619215Y-81656289D01*
X138532375Y-81664192D01*
X138420188Y-81674401D01*
X138420185Y-81674402D01*
X138414049Y-81674960D01*
X138216418Y-81733126D01*
X138033848Y-81828572D01*
X138029047Y-81832432D01*
X138029044Y-81832434D01*
X138018817Y-81840657D01*
X137873293Y-81957661D01*
X137740870Y-82115476D01*
X137737902Y-82120874D01*
X137737899Y-82120879D01*
X137731161Y-82133136D01*
X137641622Y-82296008D01*
X137579330Y-82492378D01*
X137578644Y-82498495D01*
X137578643Y-82498499D01*
X137557053Y-82690983D01*
X137556366Y-82697108D01*
X126200500Y-82697108D01*
X126200500Y-78794420D01*
X132543285Y-78794420D01*
X132544449Y-78803322D01*
X132544449Y-78803325D01*
X132546100Y-78815951D01*
X132560076Y-78922829D01*
X132612233Y-79041364D01*
X132695562Y-79140495D01*
X132803364Y-79212255D01*
X132811928Y-79214931D01*
X132811931Y-79214932D01*
X132893974Y-79240564D01*
X132926974Y-79250874D01*
X133056455Y-79253247D01*
X133109077Y-79238901D01*
X133172738Y-79221545D01*
X133172740Y-79221544D01*
X133181397Y-79219184D01*
X133212641Y-79200000D01*
X141394318Y-79200000D01*
X141414956Y-79356762D01*
X141475464Y-79502841D01*
X141571718Y-79628282D01*
X141697159Y-79724536D01*
X141843238Y-79785044D01*
X142000000Y-79805682D01*
X142008188Y-79804604D01*
X142148574Y-79786122D01*
X142156762Y-79785044D01*
X142302841Y-79724536D01*
X142428282Y-79628282D01*
X142524536Y-79502841D01*
X142585044Y-79356762D01*
X142605682Y-79200000D01*
X150494318Y-79200000D01*
X150514956Y-79356762D01*
X150575464Y-79502841D01*
X150671718Y-79628282D01*
X150797159Y-79724536D01*
X150943238Y-79785044D01*
X151100000Y-79805682D01*
X151108188Y-79804604D01*
X151248574Y-79786122D01*
X151256762Y-79785044D01*
X151402841Y-79724536D01*
X151528282Y-79628282D01*
X151624536Y-79502841D01*
X151685044Y-79356762D01*
X151705682Y-79200000D01*
X151685044Y-79043238D01*
X151624536Y-78897159D01*
X151552535Y-78803325D01*
X151533305Y-78778264D01*
X151528282Y-78771718D01*
X151402841Y-78675464D01*
X151256762Y-78614956D01*
X151100000Y-78594318D01*
X150943238Y-78614956D01*
X150797159Y-78675464D01*
X150671718Y-78771718D01*
X150666695Y-78778264D01*
X150647465Y-78803325D01*
X150575464Y-78897159D01*
X150514956Y-79043238D01*
X150494318Y-79200000D01*
X142605682Y-79200000D01*
X142585044Y-79043238D01*
X142524536Y-78897159D01*
X142452535Y-78803325D01*
X142433305Y-78778264D01*
X142428282Y-78771718D01*
X142302841Y-78675464D01*
X142156762Y-78614956D01*
X142000000Y-78594318D01*
X141843238Y-78614956D01*
X141697159Y-78675464D01*
X141571718Y-78771718D01*
X141566695Y-78778264D01*
X141547465Y-78803325D01*
X141475464Y-78897159D01*
X141414956Y-79043238D01*
X141394318Y-79200000D01*
X133212641Y-79200000D01*
X133291757Y-79151422D01*
X133378662Y-79055411D01*
X133389450Y-79033146D01*
X133431212Y-78946948D01*
X133431212Y-78946947D01*
X133435127Y-78938867D01*
X133456613Y-78811159D01*
X133456749Y-78800000D01*
X133438390Y-78671806D01*
X133412052Y-78613878D01*
X133388506Y-78562091D01*
X133388504Y-78562088D01*
X133384789Y-78553917D01*
X133367837Y-78534243D01*
X133306115Y-78462611D01*
X133306112Y-78462608D01*
X133300255Y-78455811D01*
X133222534Y-78405435D01*
X133176250Y-78351600D01*
X133166419Y-78281287D01*
X133196163Y-78216821D01*
X133225136Y-78192329D01*
X133284106Y-78156120D01*
X133284107Y-78156119D01*
X133291757Y-78151422D01*
X133378662Y-78055411D01*
X133389450Y-78033146D01*
X133431212Y-77946948D01*
X133431212Y-77946947D01*
X133435127Y-77938867D01*
X133456613Y-77811159D01*
X133456749Y-77800000D01*
X133438390Y-77671806D01*
X133384789Y-77553917D01*
X133367837Y-77534243D01*
X133306115Y-77462611D01*
X133306112Y-77462608D01*
X133300255Y-77455811D01*
X133191584Y-77385374D01*
X133175611Y-77380597D01*
X133076113Y-77350840D01*
X133076111Y-77350840D01*
X133067512Y-77348268D01*
X133058537Y-77348213D01*
X133058536Y-77348213D01*
X133002762Y-77347873D01*
X132938012Y-77347477D01*
X132929380Y-77349944D01*
X132822126Y-77380597D01*
X132822124Y-77380598D01*
X132813495Y-77383064D01*
X132805908Y-77387851D01*
X132805906Y-77387852D01*
X132711565Y-77447377D01*
X132703972Y-77452168D01*
X132618246Y-77549234D01*
X132563209Y-77666460D01*
X132543285Y-77794420D01*
X132544449Y-77803322D01*
X132544449Y-77803325D01*
X132546100Y-77815951D01*
X132560076Y-77922829D01*
X132612233Y-78041364D01*
X132695562Y-78140495D01*
X132778209Y-78195510D01*
X132823831Y-78249906D01*
X132832802Y-78320334D01*
X132802272Y-78384431D01*
X132775625Y-78406957D01*
X132711569Y-78447373D01*
X132711562Y-78447379D01*
X132703972Y-78452168D01*
X132618246Y-78549234D01*
X132563209Y-78666460D01*
X132561828Y-78675329D01*
X132545801Y-78778264D01*
X132543285Y-78794420D01*
X126200500Y-78794420D01*
X126200500Y-76700000D01*
X145394318Y-76700000D01*
X145414956Y-76856762D01*
X145475464Y-77002841D01*
X145571718Y-77128282D01*
X145697159Y-77224536D01*
X145843238Y-77285044D01*
X146000000Y-77305682D01*
X146008188Y-77304604D01*
X146148574Y-77286122D01*
X146156762Y-77285044D01*
X146302841Y-77224536D01*
X146428282Y-77128282D01*
X146524536Y-77002841D01*
X146585044Y-76856762D01*
X146605682Y-76700000D01*
X150494318Y-76700000D01*
X150514956Y-76856762D01*
X150575464Y-77002841D01*
X150671718Y-77128282D01*
X150797159Y-77224536D01*
X150943238Y-77285044D01*
X151100000Y-77305682D01*
X151108188Y-77304604D01*
X151248574Y-77286122D01*
X151256762Y-77285044D01*
X151402841Y-77224536D01*
X151528282Y-77128282D01*
X151624536Y-77002841D01*
X151685044Y-76856762D01*
X151705682Y-76700000D01*
X151685044Y-76543238D01*
X151624536Y-76397159D01*
X151528282Y-76271718D01*
X151402841Y-76175464D01*
X151256762Y-76114956D01*
X151100000Y-76094318D01*
X150943238Y-76114956D01*
X150797159Y-76175464D01*
X150671718Y-76271718D01*
X150575464Y-76397159D01*
X150514956Y-76543238D01*
X150494318Y-76700000D01*
X146605682Y-76700000D01*
X146585044Y-76543238D01*
X146524536Y-76397159D01*
X146428282Y-76271718D01*
X146302841Y-76175464D01*
X146156762Y-76114956D01*
X146000000Y-76094318D01*
X145843238Y-76114956D01*
X145697159Y-76175464D01*
X145571718Y-76271718D01*
X145475464Y-76397159D01*
X145414956Y-76543238D01*
X145394318Y-76700000D01*
X126200500Y-76700000D01*
X126200500Y-75194420D01*
X134243285Y-75194420D01*
X134244449Y-75203322D01*
X134244449Y-75203325D01*
X134245617Y-75212255D01*
X134260076Y-75322829D01*
X134312233Y-75441364D01*
X134395562Y-75540495D01*
X134503364Y-75612255D01*
X134511928Y-75614931D01*
X134511931Y-75614932D01*
X134593974Y-75640564D01*
X134626974Y-75650874D01*
X134756455Y-75653247D01*
X134809077Y-75638901D01*
X134872738Y-75621545D01*
X134872740Y-75621544D01*
X134881397Y-75619184D01*
X134991757Y-75551422D01*
X135078662Y-75455411D01*
X135089450Y-75433146D01*
X135131212Y-75346948D01*
X135131212Y-75346947D01*
X135135127Y-75338867D01*
X135156613Y-75211159D01*
X135156749Y-75200000D01*
X135144183Y-75112255D01*
X135139663Y-75080693D01*
X135139662Y-75080691D01*
X135138390Y-75071806D01*
X135084789Y-74953917D01*
X135050329Y-74913924D01*
X135006115Y-74862611D01*
X135006112Y-74862608D01*
X135000255Y-74855811D01*
X134935631Y-74813924D01*
X134899118Y-74790257D01*
X134899116Y-74790256D01*
X134891584Y-74785374D01*
X134875611Y-74780597D01*
X134776113Y-74750840D01*
X134776111Y-74750840D01*
X134767512Y-74748268D01*
X134758537Y-74748213D01*
X134758536Y-74748213D01*
X134702762Y-74747873D01*
X134638012Y-74747477D01*
X134629380Y-74749944D01*
X134522126Y-74780597D01*
X134522124Y-74780598D01*
X134513495Y-74783064D01*
X134505908Y-74787851D01*
X134505906Y-74787852D01*
X134412245Y-74846948D01*
X134403972Y-74852168D01*
X134318246Y-74949234D01*
X134314431Y-74957360D01*
X134268065Y-75056118D01*
X134263209Y-75066460D01*
X134261828Y-75075329D01*
X134249249Y-75156118D01*
X134243285Y-75194420D01*
X126200500Y-75194420D01*
X126200500Y-74694420D01*
X150843285Y-74694420D01*
X150844449Y-74703322D01*
X150844449Y-74703325D01*
X150846100Y-74715951D01*
X150860076Y-74822829D01*
X150912233Y-74941364D01*
X150995562Y-75040495D01*
X151103364Y-75112255D01*
X151111928Y-75114931D01*
X151111931Y-75114932D01*
X151171764Y-75133625D01*
X151226974Y-75150874D01*
X151356455Y-75153247D01*
X151428428Y-75133625D01*
X151472738Y-75121545D01*
X151472740Y-75121544D01*
X151481397Y-75119184D01*
X151558559Y-75071806D01*
X151584109Y-75056118D01*
X151591757Y-75051422D01*
X151678662Y-74955411D01*
X151682763Y-74946948D01*
X151731212Y-74846948D01*
X151731212Y-74846947D01*
X151735127Y-74838867D01*
X151742605Y-74794420D01*
X155343285Y-74794420D01*
X155344449Y-74803322D01*
X155344449Y-74803325D01*
X155349097Y-74838867D01*
X155360076Y-74922829D01*
X155412233Y-75041364D01*
X155495562Y-75140495D01*
X155603364Y-75212255D01*
X155611928Y-75214931D01*
X155611931Y-75214932D01*
X155693974Y-75240564D01*
X155726974Y-75250874D01*
X155856455Y-75253247D01*
X155909077Y-75238901D01*
X155972738Y-75221545D01*
X155972740Y-75221544D01*
X155981397Y-75219184D01*
X156091757Y-75151422D01*
X156107866Y-75133625D01*
X156172634Y-75062071D01*
X156172635Y-75062070D01*
X156178662Y-75055411D01*
X156189218Y-75033625D01*
X156231212Y-74946948D01*
X156231212Y-74946947D01*
X156235127Y-74938867D01*
X156256613Y-74811159D01*
X156256749Y-74800000D01*
X156255950Y-74794420D01*
X170543285Y-74794420D01*
X170544449Y-74803322D01*
X170544449Y-74803325D01*
X170549097Y-74838867D01*
X170560076Y-74922829D01*
X170612233Y-75041364D01*
X170695562Y-75140495D01*
X170803364Y-75212255D01*
X170811928Y-75214931D01*
X170811931Y-75214932D01*
X170893974Y-75240564D01*
X170926974Y-75250874D01*
X171056455Y-75253247D01*
X171109077Y-75238901D01*
X171172738Y-75221545D01*
X171172740Y-75221544D01*
X171181397Y-75219184D01*
X171291757Y-75151422D01*
X171307866Y-75133625D01*
X171372634Y-75062071D01*
X171372635Y-75062070D01*
X171378662Y-75055411D01*
X171389218Y-75033625D01*
X171431212Y-74946948D01*
X171431212Y-74946947D01*
X171435127Y-74938867D01*
X171456613Y-74811159D01*
X171456749Y-74800000D01*
X171441629Y-74694420D01*
X174943285Y-74694420D01*
X174944449Y-74703322D01*
X174944449Y-74703325D01*
X174946100Y-74715951D01*
X174960076Y-74822829D01*
X175012233Y-74941364D01*
X175095562Y-75040495D01*
X175203364Y-75112255D01*
X175211928Y-75114931D01*
X175211931Y-75114932D01*
X175271764Y-75133625D01*
X175326974Y-75150874D01*
X175456455Y-75153247D01*
X175528428Y-75133625D01*
X175572738Y-75121545D01*
X175572740Y-75121544D01*
X175581397Y-75119184D01*
X175658559Y-75071806D01*
X175684109Y-75056118D01*
X175691757Y-75051422D01*
X175778662Y-74955411D01*
X175782763Y-74946948D01*
X175831212Y-74846948D01*
X175831212Y-74846947D01*
X175835127Y-74838867D01*
X175850379Y-74748213D01*
X175855807Y-74715951D01*
X175855807Y-74715948D01*
X175856613Y-74711159D01*
X175856749Y-74700000D01*
X175838390Y-74571806D01*
X175784789Y-74453917D01*
X175767837Y-74434243D01*
X175706115Y-74362611D01*
X175706112Y-74362608D01*
X175700255Y-74355811D01*
X175622534Y-74305435D01*
X175576250Y-74251600D01*
X175566419Y-74181287D01*
X175596163Y-74116821D01*
X175625136Y-74092329D01*
X175684106Y-74056120D01*
X175684107Y-74056119D01*
X175691757Y-74051422D01*
X175778662Y-73955411D01*
X175782763Y-73946948D01*
X175831212Y-73846948D01*
X175831212Y-73846947D01*
X175835127Y-73838867D01*
X175856613Y-73711159D01*
X175856749Y-73700000D01*
X175838390Y-73571806D01*
X175784789Y-73453917D01*
X175729936Y-73390257D01*
X175706115Y-73362611D01*
X175706112Y-73362608D01*
X175700255Y-73355811D01*
X175591584Y-73285374D01*
X175575611Y-73280597D01*
X175476113Y-73250840D01*
X175476111Y-73250840D01*
X175467512Y-73248268D01*
X175458537Y-73248213D01*
X175458536Y-73248213D01*
X175402762Y-73247872D01*
X175338012Y-73247477D01*
X175329380Y-73249944D01*
X175222126Y-73280597D01*
X175222124Y-73280598D01*
X175213495Y-73283064D01*
X175205908Y-73287851D01*
X175205906Y-73287852D01*
X175115702Y-73344767D01*
X175103972Y-73352168D01*
X175098029Y-73358897D01*
X175098028Y-73358898D01*
X175074645Y-73385374D01*
X175018246Y-73449234D01*
X175014431Y-73457360D01*
X174971297Y-73549234D01*
X174963209Y-73566460D01*
X174961828Y-73575329D01*
X174946258Y-73675329D01*
X174943285Y-73694420D01*
X174944449Y-73703322D01*
X174944449Y-73703325D01*
X174946100Y-73715951D01*
X174960076Y-73822829D01*
X175012233Y-73941364D01*
X175095562Y-74040495D01*
X175178209Y-74095510D01*
X175223831Y-74149906D01*
X175232802Y-74220334D01*
X175202272Y-74284431D01*
X175175625Y-74306957D01*
X175111569Y-74347373D01*
X175111562Y-74347379D01*
X175103972Y-74352168D01*
X175098029Y-74358897D01*
X175098028Y-74358898D01*
X175075478Y-74384431D01*
X175018246Y-74449234D01*
X175014431Y-74457360D01*
X174971297Y-74549234D01*
X174963209Y-74566460D01*
X174961828Y-74575329D01*
X174946258Y-74675329D01*
X174943285Y-74694420D01*
X171441629Y-74694420D01*
X171438390Y-74671806D01*
X171416714Y-74624132D01*
X171388506Y-74562091D01*
X171388504Y-74562088D01*
X171384789Y-74553917D01*
X171367837Y-74534243D01*
X171306115Y-74462611D01*
X171306112Y-74462608D01*
X171300255Y-74455811D01*
X171222534Y-74405435D01*
X171176250Y-74351600D01*
X171166419Y-74281287D01*
X171196163Y-74216821D01*
X171225136Y-74192329D01*
X171284106Y-74156120D01*
X171284107Y-74156119D01*
X171291757Y-74151422D01*
X171307866Y-74133625D01*
X171372634Y-74062071D01*
X171372635Y-74062070D01*
X171378662Y-74055411D01*
X171389218Y-74033625D01*
X171431212Y-73946948D01*
X171431212Y-73946947D01*
X171435127Y-73938867D01*
X171456613Y-73811159D01*
X171456749Y-73800000D01*
X171438390Y-73671806D01*
X171416714Y-73624132D01*
X171388506Y-73562091D01*
X171388504Y-73562088D01*
X171384789Y-73553917D01*
X171367837Y-73534243D01*
X171306115Y-73462611D01*
X171306112Y-73462608D01*
X171300255Y-73455811D01*
X171243746Y-73419184D01*
X171199118Y-73390257D01*
X171199116Y-73390256D01*
X171191584Y-73385374D01*
X171175611Y-73380597D01*
X171076113Y-73350840D01*
X171076111Y-73350840D01*
X171067512Y-73348268D01*
X171058537Y-73348213D01*
X171058536Y-73348213D01*
X171002762Y-73347872D01*
X170938012Y-73347477D01*
X170929380Y-73349944D01*
X170822126Y-73380597D01*
X170822124Y-73380598D01*
X170813495Y-73383064D01*
X170805908Y-73387851D01*
X170805906Y-73387852D01*
X170775113Y-73407281D01*
X170703972Y-73452168D01*
X170618246Y-73549234D01*
X170563209Y-73666460D01*
X170561828Y-73675329D01*
X170558737Y-73695184D01*
X170543285Y-73794420D01*
X170544449Y-73803322D01*
X170544449Y-73803325D01*
X170549097Y-73838867D01*
X170560076Y-73922829D01*
X170612233Y-74041364D01*
X170695562Y-74140495D01*
X170778209Y-74195510D01*
X170823831Y-74249906D01*
X170832802Y-74320334D01*
X170802272Y-74384431D01*
X170775625Y-74406957D01*
X170711569Y-74447373D01*
X170711562Y-74447379D01*
X170703972Y-74452168D01*
X170618246Y-74549234D01*
X170563209Y-74666460D01*
X170561828Y-74675329D01*
X170544694Y-74785374D01*
X170543285Y-74794420D01*
X156255950Y-74794420D01*
X156238390Y-74671806D01*
X156216714Y-74624132D01*
X156188506Y-74562091D01*
X156188504Y-74562088D01*
X156184789Y-74553917D01*
X156167837Y-74534243D01*
X156106115Y-74462611D01*
X156106112Y-74462608D01*
X156100255Y-74455811D01*
X156022534Y-74405435D01*
X155976250Y-74351600D01*
X155966419Y-74281287D01*
X155996163Y-74216821D01*
X156025136Y-74192329D01*
X156084106Y-74156120D01*
X156084107Y-74156119D01*
X156091757Y-74151422D01*
X156107866Y-74133625D01*
X156172634Y-74062071D01*
X156172635Y-74062070D01*
X156178662Y-74055411D01*
X156189218Y-74033625D01*
X156231212Y-73946948D01*
X156231212Y-73946947D01*
X156235127Y-73938867D01*
X156256613Y-73811159D01*
X156256749Y-73800000D01*
X156238390Y-73671806D01*
X156216714Y-73624132D01*
X156188506Y-73562091D01*
X156188504Y-73562088D01*
X156184789Y-73553917D01*
X156167837Y-73534243D01*
X156106115Y-73462611D01*
X156106112Y-73462608D01*
X156100255Y-73455811D01*
X156043746Y-73419184D01*
X155999118Y-73390257D01*
X155999116Y-73390256D01*
X155991584Y-73385374D01*
X155975611Y-73380597D01*
X155876113Y-73350840D01*
X155876111Y-73350840D01*
X155867512Y-73348268D01*
X155858537Y-73348213D01*
X155858536Y-73348213D01*
X155802762Y-73347872D01*
X155738012Y-73347477D01*
X155729380Y-73349944D01*
X155622126Y-73380597D01*
X155622124Y-73380598D01*
X155613495Y-73383064D01*
X155605908Y-73387851D01*
X155605906Y-73387852D01*
X155575113Y-73407281D01*
X155503972Y-73452168D01*
X155418246Y-73549234D01*
X155363209Y-73666460D01*
X155361828Y-73675329D01*
X155358737Y-73695184D01*
X155343285Y-73794420D01*
X155344449Y-73803322D01*
X155344449Y-73803325D01*
X155349097Y-73838867D01*
X155360076Y-73922829D01*
X155412233Y-74041364D01*
X155495562Y-74140495D01*
X155578209Y-74195510D01*
X155623831Y-74249906D01*
X155632802Y-74320334D01*
X155602272Y-74384431D01*
X155575625Y-74406957D01*
X155511569Y-74447373D01*
X155511562Y-74447379D01*
X155503972Y-74452168D01*
X155418246Y-74549234D01*
X155363209Y-74666460D01*
X155361828Y-74675329D01*
X155344694Y-74785374D01*
X155343285Y-74794420D01*
X151742605Y-74794420D01*
X151750379Y-74748213D01*
X151755807Y-74715951D01*
X151755807Y-74715948D01*
X151756613Y-74711159D01*
X151756749Y-74700000D01*
X151738390Y-74571806D01*
X151684789Y-74453917D01*
X151667837Y-74434243D01*
X151606115Y-74362611D01*
X151606112Y-74362608D01*
X151600255Y-74355811D01*
X151522534Y-74305435D01*
X151476250Y-74251600D01*
X151466419Y-74181287D01*
X151496163Y-74116821D01*
X151525136Y-74092329D01*
X151584106Y-74056120D01*
X151584107Y-74056119D01*
X151591757Y-74051422D01*
X151678662Y-73955411D01*
X151682763Y-73946948D01*
X151731212Y-73846948D01*
X151731212Y-73846947D01*
X151735127Y-73838867D01*
X151756613Y-73711159D01*
X151756749Y-73700000D01*
X151738390Y-73571806D01*
X151684789Y-73453917D01*
X151629936Y-73390257D01*
X151606115Y-73362611D01*
X151606112Y-73362608D01*
X151600255Y-73355811D01*
X151491584Y-73285374D01*
X151475611Y-73280597D01*
X151376113Y-73250840D01*
X151376111Y-73250840D01*
X151367512Y-73248268D01*
X151358537Y-73248213D01*
X151358536Y-73248213D01*
X151302762Y-73247872D01*
X151238012Y-73247477D01*
X151229380Y-73249944D01*
X151122126Y-73280597D01*
X151122124Y-73280598D01*
X151113495Y-73283064D01*
X151105908Y-73287851D01*
X151105906Y-73287852D01*
X151015702Y-73344767D01*
X151003972Y-73352168D01*
X150998029Y-73358897D01*
X150998028Y-73358898D01*
X150974645Y-73385374D01*
X150918246Y-73449234D01*
X150914431Y-73457360D01*
X150871297Y-73549234D01*
X150863209Y-73566460D01*
X150861828Y-73575329D01*
X150846258Y-73675329D01*
X150843285Y-73694420D01*
X150844449Y-73703322D01*
X150844449Y-73703325D01*
X150846100Y-73715951D01*
X150860076Y-73822829D01*
X150912233Y-73941364D01*
X150995562Y-74040495D01*
X151078209Y-74095510D01*
X151123831Y-74149906D01*
X151132802Y-74220334D01*
X151102272Y-74284431D01*
X151075625Y-74306957D01*
X151011569Y-74347373D01*
X151011562Y-74347379D01*
X151003972Y-74352168D01*
X150998029Y-74358897D01*
X150998028Y-74358898D01*
X150975478Y-74384431D01*
X150918246Y-74449234D01*
X150914431Y-74457360D01*
X150871297Y-74549234D01*
X150863209Y-74566460D01*
X150861828Y-74575329D01*
X150846258Y-74675329D01*
X150843285Y-74694420D01*
X126200500Y-74694420D01*
X126200500Y-72994420D01*
X134243285Y-72994420D01*
X134244449Y-73003322D01*
X134244449Y-73003325D01*
X134246100Y-73015951D01*
X134260076Y-73122829D01*
X134312233Y-73241364D01*
X134395562Y-73340495D01*
X134403033Y-73345468D01*
X134403034Y-73345469D01*
X134419032Y-73356118D01*
X134503364Y-73412255D01*
X134511928Y-73414931D01*
X134511931Y-73414932D01*
X134593974Y-73440564D01*
X134626974Y-73450874D01*
X134756455Y-73453247D01*
X134809077Y-73438901D01*
X134872738Y-73421545D01*
X134872740Y-73421544D01*
X134881397Y-73419184D01*
X134991757Y-73351422D01*
X135078662Y-73255411D01*
X135089450Y-73233146D01*
X135131212Y-73146948D01*
X135131212Y-73146947D01*
X135135127Y-73138867D01*
X135156613Y-73011159D01*
X135156749Y-73000000D01*
X135138390Y-72871806D01*
X135084789Y-72753917D01*
X135067837Y-72734243D01*
X135006115Y-72662611D01*
X135006112Y-72662608D01*
X135000255Y-72655811D01*
X134891584Y-72585374D01*
X134875611Y-72580597D01*
X134776113Y-72550840D01*
X134776111Y-72550840D01*
X134767512Y-72548268D01*
X134758537Y-72548213D01*
X134758536Y-72548213D01*
X134702762Y-72547873D01*
X134638012Y-72547477D01*
X134629380Y-72549944D01*
X134522126Y-72580597D01*
X134522124Y-72580598D01*
X134513495Y-72583064D01*
X134505908Y-72587851D01*
X134505906Y-72587852D01*
X134411565Y-72647377D01*
X134403972Y-72652168D01*
X134318246Y-72749234D01*
X134263209Y-72866460D01*
X134243285Y-72994420D01*
X126200500Y-72994420D01*
X126200500Y-72094420D01*
X132543285Y-72094420D01*
X132544449Y-72103322D01*
X132544449Y-72103325D01*
X132551680Y-72158624D01*
X132560076Y-72222829D01*
X132612233Y-72341364D01*
X132695562Y-72440495D01*
X132803364Y-72512255D01*
X132811928Y-72514931D01*
X132811931Y-72514932D01*
X132893974Y-72540564D01*
X132926974Y-72550874D01*
X133056455Y-72553247D01*
X133109077Y-72538901D01*
X133172738Y-72521545D01*
X133172740Y-72521544D01*
X133181397Y-72519184D01*
X133291757Y-72451422D01*
X133350864Y-72386122D01*
X133372634Y-72362071D01*
X133372635Y-72362070D01*
X133378662Y-72355411D01*
X133389450Y-72333146D01*
X133431212Y-72246948D01*
X133431212Y-72246947D01*
X133435127Y-72238867D01*
X133453732Y-72128282D01*
X133455807Y-72115951D01*
X133455807Y-72115948D01*
X133456613Y-72111159D01*
X133456749Y-72100000D01*
X133438390Y-71971806D01*
X133416714Y-71924132D01*
X133388506Y-71862091D01*
X133388504Y-71862088D01*
X133384789Y-71853917D01*
X133338331Y-71800000D01*
X144594318Y-71800000D01*
X144614956Y-71956762D01*
X144675464Y-72102841D01*
X144771718Y-72228282D01*
X144897159Y-72324536D01*
X145043238Y-72385044D01*
X145200000Y-72405682D01*
X145208188Y-72404604D01*
X145348574Y-72386122D01*
X145356762Y-72385044D01*
X145502841Y-72324536D01*
X145628282Y-72228282D01*
X145724536Y-72102841D01*
X145785044Y-71956762D01*
X145805682Y-71800000D01*
X145792517Y-71700000D01*
X150594318Y-71700000D01*
X150614956Y-71856762D01*
X150675464Y-72002841D01*
X150680491Y-72009392D01*
X150750017Y-72100000D01*
X150771718Y-72128282D01*
X150897159Y-72224536D01*
X151043238Y-72285044D01*
X151200000Y-72305682D01*
X151208188Y-72304604D01*
X151348574Y-72286122D01*
X151356762Y-72285044D01*
X151502841Y-72224536D01*
X151628282Y-72128282D01*
X151649984Y-72100000D01*
X151719509Y-72009392D01*
X151724536Y-72002841D01*
X151785044Y-71856762D01*
X151805682Y-71700000D01*
X151785044Y-71543238D01*
X151724536Y-71397159D01*
X151628282Y-71271718D01*
X151502841Y-71175464D01*
X151356762Y-71114956D01*
X151200000Y-71094318D01*
X151043238Y-71114956D01*
X150897159Y-71175464D01*
X150771718Y-71271718D01*
X150675464Y-71397159D01*
X150614956Y-71543238D01*
X150594318Y-71700000D01*
X145792517Y-71700000D01*
X145785044Y-71643238D01*
X145724536Y-71497159D01*
X145628282Y-71371718D01*
X145502841Y-71275464D01*
X145356762Y-71214956D01*
X145200000Y-71194318D01*
X145043238Y-71214956D01*
X144897159Y-71275464D01*
X144771718Y-71371718D01*
X144675464Y-71497159D01*
X144614956Y-71643238D01*
X144594318Y-71800000D01*
X133338331Y-71800000D01*
X133331276Y-71791812D01*
X133306115Y-71762611D01*
X133306112Y-71762608D01*
X133300255Y-71755811D01*
X133191584Y-71685374D01*
X133175611Y-71680597D01*
X133076113Y-71650840D01*
X133076111Y-71650840D01*
X133067512Y-71648268D01*
X133058537Y-71648213D01*
X133058536Y-71648213D01*
X133002762Y-71647873D01*
X132938012Y-71647477D01*
X132929380Y-71649944D01*
X132822126Y-71680597D01*
X132822124Y-71680598D01*
X132813495Y-71683064D01*
X132805908Y-71687851D01*
X132805906Y-71687852D01*
X132799630Y-71691812D01*
X132703972Y-71752168D01*
X132698029Y-71758897D01*
X132698028Y-71758898D01*
X132661728Y-71800000D01*
X132618246Y-71849234D01*
X132563209Y-71966460D01*
X132543285Y-72094420D01*
X126200500Y-72094420D01*
X126200500Y-71094420D01*
X133643285Y-71094420D01*
X133644449Y-71103322D01*
X133644449Y-71103325D01*
X133651681Y-71158625D01*
X133660076Y-71222829D01*
X133712233Y-71341364D01*
X133795562Y-71440495D01*
X133903364Y-71512255D01*
X133911928Y-71514931D01*
X133911931Y-71514932D01*
X133978114Y-71535609D01*
X134026974Y-71550874D01*
X134156455Y-71553247D01*
X134221151Y-71535609D01*
X134272738Y-71521545D01*
X134272740Y-71521544D01*
X134281397Y-71519184D01*
X134391757Y-71451422D01*
X134446803Y-71390608D01*
X134472634Y-71362071D01*
X134472635Y-71362070D01*
X134478662Y-71355411D01*
X134489450Y-71333146D01*
X134531212Y-71246948D01*
X134531212Y-71246947D01*
X134535127Y-71238867D01*
X134556613Y-71111159D01*
X134556749Y-71100000D01*
X134538390Y-70971806D01*
X134484789Y-70853917D01*
X134467837Y-70834243D01*
X134406115Y-70762611D01*
X134406112Y-70762608D01*
X134400255Y-70755811D01*
X134291584Y-70685374D01*
X134275611Y-70680597D01*
X134176113Y-70650840D01*
X134176111Y-70650840D01*
X134167512Y-70648268D01*
X134158537Y-70648213D01*
X134158536Y-70648213D01*
X134102762Y-70647872D01*
X134038012Y-70647477D01*
X134029380Y-70649944D01*
X133922126Y-70680597D01*
X133922124Y-70680598D01*
X133913495Y-70683064D01*
X133905908Y-70687851D01*
X133905906Y-70687852D01*
X133811565Y-70747377D01*
X133803972Y-70752168D01*
X133718246Y-70849234D01*
X133663209Y-70966460D01*
X133643285Y-71094420D01*
X126200500Y-71094420D01*
X126200500Y-70037371D01*
X126203755Y-70008918D01*
X126204043Y-70007676D01*
X126204044Y-70007669D01*
X126205655Y-70000718D01*
X126205656Y-70000000D01*
X126204075Y-69993067D01*
X126203283Y-69985993D01*
X126204348Y-69985874D01*
X126202516Y-69964113D01*
X126217706Y-69693620D01*
X126219288Y-69679579D01*
X126221766Y-69664998D01*
X126269504Y-69384028D01*
X126272647Y-69370257D01*
X126355641Y-69082180D01*
X126360308Y-69068843D01*
X126475030Y-68791879D01*
X126481161Y-68779148D01*
X126626172Y-68516772D01*
X126633689Y-68504808D01*
X126807170Y-68260309D01*
X126815980Y-68249262D01*
X127015740Y-68025731D01*
X127025731Y-68015740D01*
X127249262Y-67815980D01*
X127260309Y-67807170D01*
X127504808Y-67633689D01*
X127516772Y-67626172D01*
X127667159Y-67543056D01*
X127779152Y-67481159D01*
X127791875Y-67475032D01*
X128068849Y-67360306D01*
X128082180Y-67355641D01*
X128370257Y-67272647D01*
X128384028Y-67269504D01*
X128679584Y-67219287D01*
X128693616Y-67217706D01*
X128963828Y-67202531D01*
X128971621Y-67203197D01*
X128971622Y-67202451D01*
X128985813Y-67202476D01*
X128999641Y-67205656D01*
X129013480Y-67202525D01*
X129018311Y-67202533D01*
X129036504Y-67200500D01*
X174962920Y-67200500D01*
X174980242Y-67202466D01*
G37*
G04 #@! TD.AperFunction*
G04 #@! TD*
M02*
