G04 #@! TF.GenerationSoftware,KiCad,Pcbnew,(6.0.9)*
G04 #@! TF.CreationDate,2024-07-14T21:03:07-07:00*
G04 #@! TF.ProjectId,AccArray_QFN,41636341-7272-4617-995f-51464e2e6b69,rev?*
G04 #@! TF.SameCoordinates,Original*
G04 #@! TF.FileFunction,Soldermask,Bot*
G04 #@! TF.FilePolarity,Negative*
%FSLAX46Y46*%
G04 Gerber Fmt 4.6, Leading zero omitted, Abs format (unit mm)*
G04 Created by KiCad (PCBNEW (6.0.9)) date 2024-07-14 21:03:07*
%MOMM*%
%LPD*%
G01*
G04 APERTURE LIST*
%ADD10C,5.200000*%
%ADD11C,3.400000*%
G04 APERTURE END LIST*
D10*
G04 #@! TO.C,H1*
X85000000Y-85000000D03*
G04 #@! TD*
D11*
G04 #@! TO.C,H4*
X100000000Y-55000000D03*
G04 #@! TD*
D10*
G04 #@! TO.C,H3*
X115000000Y-55000000D03*
G04 #@! TD*
G04 #@! TO.C,H4*
X85000000Y-55000000D03*
G04 #@! TD*
G04 #@! TO.C,H2*
X115000000Y-85000000D03*
G04 #@! TD*
G04 #@! TO.C,C75*
G36*
G01*
X106820000Y-82503952D02*
X106480000Y-82503952D01*
G75*
G02*
X106340000Y-82363952I0J140000D01*
G01*
X106340000Y-82083952D01*
G75*
G02*
X106480000Y-81943952I140000J0D01*
G01*
X106820000Y-81943952D01*
G75*
G02*
X106960000Y-82083952I0J-140000D01*
G01*
X106960000Y-82363952D01*
G75*
G02*
X106820000Y-82503952I-140000J0D01*
G01*
G37*
G36*
G01*
X106820000Y-81543952D02*
X106480000Y-81543952D01*
G75*
G02*
X106340000Y-81403952I0J140000D01*
G01*
X106340000Y-81123952D01*
G75*
G02*
X106480000Y-80983952I140000J0D01*
G01*
X106820000Y-80983952D01*
G75*
G02*
X106960000Y-81123952I0J-140000D01*
G01*
X106960000Y-81403952D01*
G75*
G02*
X106820000Y-81543952I-140000J0D01*
G01*
G37*
G04 #@! TD*
G04 #@! TO.C,C26*
G36*
G01*
X104580000Y-61183952D02*
X104920000Y-61183952D01*
G75*
G02*
X105060000Y-61323952I0J-140000D01*
G01*
X105060000Y-61603952D01*
G75*
G02*
X104920000Y-61743952I-140000J0D01*
G01*
X104580000Y-61743952D01*
G75*
G02*
X104440000Y-61603952I0J140000D01*
G01*
X104440000Y-61323952D01*
G75*
G02*
X104580000Y-61183952I140000J0D01*
G01*
G37*
G36*
G01*
X104580000Y-62143952D02*
X104920000Y-62143952D01*
G75*
G02*
X105060000Y-62283952I0J-140000D01*
G01*
X105060000Y-62563952D01*
G75*
G02*
X104920000Y-62703952I-140000J0D01*
G01*
X104580000Y-62703952D01*
G75*
G02*
X104440000Y-62563952I0J140000D01*
G01*
X104440000Y-62283952D01*
G75*
G02*
X104580000Y-62143952I140000J0D01*
G01*
G37*
G04 #@! TD*
G04 #@! TO.C,C113*
G36*
G01*
X103810000Y-70580000D02*
X103810000Y-70920000D01*
G75*
G02*
X103670000Y-71060000I-140000J0D01*
G01*
X103390000Y-71060000D01*
G75*
G02*
X103250000Y-70920000I0J140000D01*
G01*
X103250000Y-70580000D01*
G75*
G02*
X103390000Y-70440000I140000J0D01*
G01*
X103670000Y-70440000D01*
G75*
G02*
X103810000Y-70580000I0J-140000D01*
G01*
G37*
G36*
G01*
X102850000Y-70580000D02*
X102850000Y-70920000D01*
G75*
G02*
X102710000Y-71060000I-140000J0D01*
G01*
X102430000Y-71060000D01*
G75*
G02*
X102290000Y-70920000I0J140000D01*
G01*
X102290000Y-70580000D01*
G75*
G02*
X102430000Y-70440000I140000J0D01*
G01*
X102710000Y-70440000D01*
G75*
G02*
X102850000Y-70580000I0J-140000D01*
G01*
G37*
G04 #@! TD*
G04 #@! TO.C,C52*
G36*
G01*
X112460000Y-66973952D02*
X112460000Y-67313952D01*
G75*
G02*
X112320000Y-67453952I-140000J0D01*
G01*
X112040000Y-67453952D01*
G75*
G02*
X111900000Y-67313952I0J140000D01*
G01*
X111900000Y-66973952D01*
G75*
G02*
X112040000Y-66833952I140000J0D01*
G01*
X112320000Y-66833952D01*
G75*
G02*
X112460000Y-66973952I0J-140000D01*
G01*
G37*
G36*
G01*
X111500000Y-66973952D02*
X111500000Y-67313952D01*
G75*
G02*
X111360000Y-67453952I-140000J0D01*
G01*
X111080000Y-67453952D01*
G75*
G02*
X110940000Y-67313952I0J140000D01*
G01*
X110940000Y-66973952D01*
G75*
G02*
X111080000Y-66833952I140000J0D01*
G01*
X111360000Y-66833952D01*
G75*
G02*
X111500000Y-66973952I0J-140000D01*
G01*
G37*
G04 #@! TD*
G04 #@! TO.C,C97*
G36*
G01*
X91240000Y-69213952D02*
X91240000Y-68873952D01*
G75*
G02*
X91380000Y-68733952I140000J0D01*
G01*
X91660000Y-68733952D01*
G75*
G02*
X91800000Y-68873952I0J-140000D01*
G01*
X91800000Y-69213952D01*
G75*
G02*
X91660000Y-69353952I-140000J0D01*
G01*
X91380000Y-69353952D01*
G75*
G02*
X91240000Y-69213952I0J140000D01*
G01*
G37*
G36*
G01*
X92200000Y-69213952D02*
X92200000Y-68873952D01*
G75*
G02*
X92340000Y-68733952I140000J0D01*
G01*
X92620000Y-68733952D01*
G75*
G02*
X92760000Y-68873952I0J-140000D01*
G01*
X92760000Y-69213952D01*
G75*
G02*
X92620000Y-69353952I-140000J0D01*
G01*
X92340000Y-69353952D01*
G75*
G02*
X92200000Y-69213952I0J140000D01*
G01*
G37*
G04 #@! TD*
G04 #@! TO.C,C54*
G36*
G01*
X112460000Y-74573952D02*
X112460000Y-74913952D01*
G75*
G02*
X112320000Y-75053952I-140000J0D01*
G01*
X112040000Y-75053952D01*
G75*
G02*
X111900000Y-74913952I0J140000D01*
G01*
X111900000Y-74573952D01*
G75*
G02*
X112040000Y-74433952I140000J0D01*
G01*
X112320000Y-74433952D01*
G75*
G02*
X112460000Y-74573952I0J-140000D01*
G01*
G37*
G36*
G01*
X111500000Y-74573952D02*
X111500000Y-74913952D01*
G75*
G02*
X111360000Y-75053952I-140000J0D01*
G01*
X111080000Y-75053952D01*
G75*
G02*
X110940000Y-74913952I0J140000D01*
G01*
X110940000Y-74573952D01*
G75*
G02*
X111080000Y-74433952I140000J0D01*
G01*
X111360000Y-74433952D01*
G75*
G02*
X111500000Y-74573952I0J-140000D01*
G01*
G37*
G04 #@! TD*
G04 #@! TO.C,C78*
G36*
G01*
X95420000Y-82503952D02*
X95080000Y-82503952D01*
G75*
G02*
X94940000Y-82363952I0J140000D01*
G01*
X94940000Y-82083952D01*
G75*
G02*
X95080000Y-81943952I140000J0D01*
G01*
X95420000Y-81943952D01*
G75*
G02*
X95560000Y-82083952I0J-140000D01*
G01*
X95560000Y-82363952D01*
G75*
G02*
X95420000Y-82503952I-140000J0D01*
G01*
G37*
G36*
G01*
X95420000Y-81543952D02*
X95080000Y-81543952D01*
G75*
G02*
X94940000Y-81403952I0J140000D01*
G01*
X94940000Y-81123952D01*
G75*
G02*
X95080000Y-80983952I140000J0D01*
G01*
X95420000Y-80983952D01*
G75*
G02*
X95560000Y-81123952I0J-140000D01*
G01*
X95560000Y-81403952D01*
G75*
G02*
X95420000Y-81543952I-140000J0D01*
G01*
G37*
G04 #@! TD*
G04 #@! TO.C,C102*
G36*
G01*
X87540000Y-65420000D02*
X87540000Y-65080000D01*
G75*
G02*
X87680000Y-64940000I140000J0D01*
G01*
X87960000Y-64940000D01*
G75*
G02*
X88100000Y-65080000I0J-140000D01*
G01*
X88100000Y-65420000D01*
G75*
G02*
X87960000Y-65560000I-140000J0D01*
G01*
X87680000Y-65560000D01*
G75*
G02*
X87540000Y-65420000I0J140000D01*
G01*
G37*
G36*
G01*
X88500000Y-65420000D02*
X88500000Y-65080000D01*
G75*
G02*
X88640000Y-64940000I140000J0D01*
G01*
X88920000Y-64940000D01*
G75*
G02*
X89060000Y-65080000I0J-140000D01*
G01*
X89060000Y-65420000D01*
G75*
G02*
X88920000Y-65560000I-140000J0D01*
G01*
X88640000Y-65560000D01*
G75*
G02*
X88500000Y-65420000I0J140000D01*
G01*
G37*
G04 #@! TD*
G04 #@! TO.C,C96*
G36*
G01*
X91240000Y-73013952D02*
X91240000Y-72673952D01*
G75*
G02*
X91380000Y-72533952I140000J0D01*
G01*
X91660000Y-72533952D01*
G75*
G02*
X91800000Y-72673952I0J-140000D01*
G01*
X91800000Y-73013952D01*
G75*
G02*
X91660000Y-73153952I-140000J0D01*
G01*
X91380000Y-73153952D01*
G75*
G02*
X91240000Y-73013952I0J140000D01*
G01*
G37*
G36*
G01*
X92200000Y-73013952D02*
X92200000Y-72673952D01*
G75*
G02*
X92340000Y-72533952I140000J0D01*
G01*
X92620000Y-72533952D01*
G75*
G02*
X92760000Y-72673952I0J-140000D01*
G01*
X92760000Y-73013952D01*
G75*
G02*
X92620000Y-73153952I-140000J0D01*
G01*
X92340000Y-73153952D01*
G75*
G02*
X92200000Y-73013952I0J140000D01*
G01*
G37*
G04 #@! TD*
G04 #@! TO.C,C72*
G36*
G01*
X103020000Y-78753952D02*
X102680000Y-78753952D01*
G75*
G02*
X102540000Y-78613952I0J140000D01*
G01*
X102540000Y-78333952D01*
G75*
G02*
X102680000Y-78193952I140000J0D01*
G01*
X103020000Y-78193952D01*
G75*
G02*
X103160000Y-78333952I0J-140000D01*
G01*
X103160000Y-78613952D01*
G75*
G02*
X103020000Y-78753952I-140000J0D01*
G01*
G37*
G36*
G01*
X103020000Y-77793952D02*
X102680000Y-77793952D01*
G75*
G02*
X102540000Y-77653952I0J140000D01*
G01*
X102540000Y-77373952D01*
G75*
G02*
X102680000Y-77233952I140000J0D01*
G01*
X103020000Y-77233952D01*
G75*
G02*
X103160000Y-77373952I0J-140000D01*
G01*
X103160000Y-77653952D01*
G75*
G02*
X103020000Y-77793952I-140000J0D01*
G01*
G37*
G04 #@! TD*
G04 #@! TO.C,C53*
G36*
G01*
X112460000Y-70773952D02*
X112460000Y-71113952D01*
G75*
G02*
X112320000Y-71253952I-140000J0D01*
G01*
X112040000Y-71253952D01*
G75*
G02*
X111900000Y-71113952I0J140000D01*
G01*
X111900000Y-70773952D01*
G75*
G02*
X112040000Y-70633952I140000J0D01*
G01*
X112320000Y-70633952D01*
G75*
G02*
X112460000Y-70773952I0J-140000D01*
G01*
G37*
G36*
G01*
X111500000Y-70773952D02*
X111500000Y-71113952D01*
G75*
G02*
X111360000Y-71253952I-140000J0D01*
G01*
X111080000Y-71253952D01*
G75*
G02*
X110940000Y-71113952I0J140000D01*
G01*
X110940000Y-70773952D01*
G75*
G02*
X111080000Y-70633952I140000J0D01*
G01*
X111360000Y-70633952D01*
G75*
G02*
X111500000Y-70773952I0J-140000D01*
G01*
G37*
G04 #@! TD*
G04 #@! TO.C,C48*
G36*
G01*
X108810000Y-66923952D02*
X108810000Y-67263952D01*
G75*
G02*
X108670000Y-67403952I-140000J0D01*
G01*
X108390000Y-67403952D01*
G75*
G02*
X108250000Y-67263952I0J140000D01*
G01*
X108250000Y-66923952D01*
G75*
G02*
X108390000Y-66783952I140000J0D01*
G01*
X108670000Y-66783952D01*
G75*
G02*
X108810000Y-66923952I0J-140000D01*
G01*
G37*
G36*
G01*
X107850000Y-66923952D02*
X107850000Y-67263952D01*
G75*
G02*
X107710000Y-67403952I-140000J0D01*
G01*
X107430000Y-67403952D01*
G75*
G02*
X107290000Y-67263952I0J140000D01*
G01*
X107290000Y-66923952D01*
G75*
G02*
X107430000Y-66783952I140000J0D01*
G01*
X107710000Y-66783952D01*
G75*
G02*
X107850000Y-66923952I0J-140000D01*
G01*
G37*
G04 #@! TD*
G04 #@! TO.C,C51*
G36*
G01*
X112460000Y-63173952D02*
X112460000Y-63513952D01*
G75*
G02*
X112320000Y-63653952I-140000J0D01*
G01*
X112040000Y-63653952D01*
G75*
G02*
X111900000Y-63513952I0J140000D01*
G01*
X111900000Y-63173952D01*
G75*
G02*
X112040000Y-63033952I140000J0D01*
G01*
X112320000Y-63033952D01*
G75*
G02*
X112460000Y-63173952I0J-140000D01*
G01*
G37*
G36*
G01*
X111500000Y-63173952D02*
X111500000Y-63513952D01*
G75*
G02*
X111360000Y-63653952I-140000J0D01*
G01*
X111080000Y-63653952D01*
G75*
G02*
X110940000Y-63513952I0J140000D01*
G01*
X110940000Y-63173952D01*
G75*
G02*
X111080000Y-63033952I140000J0D01*
G01*
X111360000Y-63033952D01*
G75*
G02*
X111500000Y-63173952I0J-140000D01*
G01*
G37*
G04 #@! TD*
G04 #@! TO.C,C77*
G36*
G01*
X99220000Y-82503952D02*
X98880000Y-82503952D01*
G75*
G02*
X98740000Y-82363952I0J140000D01*
G01*
X98740000Y-82083952D01*
G75*
G02*
X98880000Y-81943952I140000J0D01*
G01*
X99220000Y-81943952D01*
G75*
G02*
X99360000Y-82083952I0J-140000D01*
G01*
X99360000Y-82363952D01*
G75*
G02*
X99220000Y-82503952I-140000J0D01*
G01*
G37*
G36*
G01*
X99220000Y-81543952D02*
X98880000Y-81543952D01*
G75*
G02*
X98740000Y-81403952I0J140000D01*
G01*
X98740000Y-81123952D01*
G75*
G02*
X98880000Y-80983952I140000J0D01*
G01*
X99220000Y-80983952D01*
G75*
G02*
X99360000Y-81123952I0J-140000D01*
G01*
X99360000Y-81403952D01*
G75*
G02*
X99220000Y-81543952I-140000J0D01*
G01*
G37*
G04 #@! TD*
G04 #@! TO.C,C29*
G36*
G01*
X100780000Y-57483952D02*
X101120000Y-57483952D01*
G75*
G02*
X101260000Y-57623952I0J-140000D01*
G01*
X101260000Y-57903952D01*
G75*
G02*
X101120000Y-58043952I-140000J0D01*
G01*
X100780000Y-58043952D01*
G75*
G02*
X100640000Y-57903952I0J140000D01*
G01*
X100640000Y-57623952D01*
G75*
G02*
X100780000Y-57483952I140000J0D01*
G01*
G37*
G36*
G01*
X100780000Y-58443952D02*
X101120000Y-58443952D01*
G75*
G02*
X101260000Y-58583952I0J-140000D01*
G01*
X101260000Y-58863952D01*
G75*
G02*
X101120000Y-59003952I-140000J0D01*
G01*
X100780000Y-59003952D01*
G75*
G02*
X100640000Y-58863952I0J140000D01*
G01*
X100640000Y-58583952D01*
G75*
G02*
X100780000Y-58443952I140000J0D01*
G01*
G37*
G04 #@! TD*
G04 #@! TO.C,C50*
G36*
G01*
X108810000Y-74573952D02*
X108810000Y-74913952D01*
G75*
G02*
X108670000Y-75053952I-140000J0D01*
G01*
X108390000Y-75053952D01*
G75*
G02*
X108250000Y-74913952I0J140000D01*
G01*
X108250000Y-74573952D01*
G75*
G02*
X108390000Y-74433952I140000J0D01*
G01*
X108670000Y-74433952D01*
G75*
G02*
X108810000Y-74573952I0J-140000D01*
G01*
G37*
G36*
G01*
X107850000Y-74573952D02*
X107850000Y-74913952D01*
G75*
G02*
X107710000Y-75053952I-140000J0D01*
G01*
X107430000Y-75053952D01*
G75*
G02*
X107290000Y-74913952I0J140000D01*
G01*
X107290000Y-74573952D01*
G75*
G02*
X107430000Y-74433952I140000J0D01*
G01*
X107710000Y-74433952D01*
G75*
G02*
X107850000Y-74573952I0J-140000D01*
G01*
G37*
G04 #@! TD*
G04 #@! TO.C,C55*
G36*
G01*
X112460000Y-78373952D02*
X112460000Y-78713952D01*
G75*
G02*
X112320000Y-78853952I-140000J0D01*
G01*
X112040000Y-78853952D01*
G75*
G02*
X111900000Y-78713952I0J140000D01*
G01*
X111900000Y-78373952D01*
G75*
G02*
X112040000Y-78233952I140000J0D01*
G01*
X112320000Y-78233952D01*
G75*
G02*
X112460000Y-78373952I0J-140000D01*
G01*
G37*
G36*
G01*
X111500000Y-78373952D02*
X111500000Y-78713952D01*
G75*
G02*
X111360000Y-78853952I-140000J0D01*
G01*
X111080000Y-78853952D01*
G75*
G02*
X110940000Y-78713952I0J140000D01*
G01*
X110940000Y-78373952D01*
G75*
G02*
X111080000Y-78233952I140000J0D01*
G01*
X111360000Y-78233952D01*
G75*
G02*
X111500000Y-78373952I0J-140000D01*
G01*
G37*
G04 #@! TD*
G04 #@! TO.C,C100*
G36*
G01*
X87540000Y-73013952D02*
X87540000Y-72673952D01*
G75*
G02*
X87680000Y-72533952I140000J0D01*
G01*
X87960000Y-72533952D01*
G75*
G02*
X88100000Y-72673952I0J-140000D01*
G01*
X88100000Y-73013952D01*
G75*
G02*
X87960000Y-73153952I-140000J0D01*
G01*
X87680000Y-73153952D01*
G75*
G02*
X87540000Y-73013952I0J140000D01*
G01*
G37*
G36*
G01*
X88500000Y-73013952D02*
X88500000Y-72673952D01*
G75*
G02*
X88640000Y-72533952I140000J0D01*
G01*
X88920000Y-72533952D01*
G75*
G02*
X89060000Y-72673952I0J-140000D01*
G01*
X89060000Y-73013952D01*
G75*
G02*
X88920000Y-73153952I-140000J0D01*
G01*
X88640000Y-73153952D01*
G75*
G02*
X88500000Y-73013952I0J140000D01*
G01*
G37*
G04 #@! TD*
G04 #@! TO.C,C30*
G36*
G01*
X104580000Y-57483952D02*
X104920000Y-57483952D01*
G75*
G02*
X105060000Y-57623952I0J-140000D01*
G01*
X105060000Y-57903952D01*
G75*
G02*
X104920000Y-58043952I-140000J0D01*
G01*
X104580000Y-58043952D01*
G75*
G02*
X104440000Y-57903952I0J140000D01*
G01*
X104440000Y-57623952D01*
G75*
G02*
X104580000Y-57483952I140000J0D01*
G01*
G37*
G36*
G01*
X104580000Y-58443952D02*
X104920000Y-58443952D01*
G75*
G02*
X105060000Y-58583952I0J-140000D01*
G01*
X105060000Y-58863952D01*
G75*
G02*
X104920000Y-59003952I-140000J0D01*
G01*
X104580000Y-59003952D01*
G75*
G02*
X104440000Y-58863952I0J140000D01*
G01*
X104440000Y-58583952D01*
G75*
G02*
X104580000Y-58443952I140000J0D01*
G01*
G37*
G04 #@! TD*
G04 #@! TO.C,C101*
G36*
G01*
X87540000Y-69220000D02*
X87540000Y-68880000D01*
G75*
G02*
X87680000Y-68740000I140000J0D01*
G01*
X87960000Y-68740000D01*
G75*
G02*
X88100000Y-68880000I0J-140000D01*
G01*
X88100000Y-69220000D01*
G75*
G02*
X87960000Y-69360000I-140000J0D01*
G01*
X87680000Y-69360000D01*
G75*
G02*
X87540000Y-69220000I0J140000D01*
G01*
G37*
G36*
G01*
X88500000Y-69220000D02*
X88500000Y-68880000D01*
G75*
G02*
X88640000Y-68740000I140000J0D01*
G01*
X88920000Y-68740000D01*
G75*
G02*
X89060000Y-68880000I0J-140000D01*
G01*
X89060000Y-69220000D01*
G75*
G02*
X88920000Y-69360000I-140000J0D01*
G01*
X88640000Y-69360000D01*
G75*
G02*
X88500000Y-69220000I0J140000D01*
G01*
G37*
G04 #@! TD*
G04 #@! TO.C,C49*
G36*
G01*
X108810000Y-70773952D02*
X108810000Y-71113952D01*
G75*
G02*
X108670000Y-71253952I-140000J0D01*
G01*
X108390000Y-71253952D01*
G75*
G02*
X108250000Y-71113952I0J140000D01*
G01*
X108250000Y-70773952D01*
G75*
G02*
X108390000Y-70633952I140000J0D01*
G01*
X108670000Y-70633952D01*
G75*
G02*
X108810000Y-70773952I0J-140000D01*
G01*
G37*
G36*
G01*
X107850000Y-70773952D02*
X107850000Y-71113952D01*
G75*
G02*
X107710000Y-71253952I-140000J0D01*
G01*
X107430000Y-71253952D01*
G75*
G02*
X107290000Y-71113952I0J140000D01*
G01*
X107290000Y-70773952D01*
G75*
G02*
X107430000Y-70633952I140000J0D01*
G01*
X107710000Y-70633952D01*
G75*
G02*
X107850000Y-70773952I0J-140000D01*
G01*
G37*
G04 #@! TD*
G04 #@! TO.C,C99*
G36*
G01*
X87540000Y-76813952D02*
X87540000Y-76473952D01*
G75*
G02*
X87680000Y-76333952I140000J0D01*
G01*
X87960000Y-76333952D01*
G75*
G02*
X88100000Y-76473952I0J-140000D01*
G01*
X88100000Y-76813952D01*
G75*
G02*
X87960000Y-76953952I-140000J0D01*
G01*
X87680000Y-76953952D01*
G75*
G02*
X87540000Y-76813952I0J140000D01*
G01*
G37*
G36*
G01*
X88500000Y-76813952D02*
X88500000Y-76473952D01*
G75*
G02*
X88640000Y-76333952I140000J0D01*
G01*
X88920000Y-76333952D01*
G75*
G02*
X89060000Y-76473952I0J-140000D01*
G01*
X89060000Y-76813952D01*
G75*
G02*
X88920000Y-76953952I-140000J0D01*
G01*
X88640000Y-76953952D01*
G75*
G02*
X88500000Y-76813952I0J140000D01*
G01*
G37*
G04 #@! TD*
G04 #@! TO.C,C112*
G36*
G01*
X94840000Y-69670000D02*
X94840000Y-69330000D01*
G75*
G02*
X94980000Y-69190000I140000J0D01*
G01*
X95260000Y-69190000D01*
G75*
G02*
X95400000Y-69330000I0J-140000D01*
G01*
X95400000Y-69670000D01*
G75*
G02*
X95260000Y-69810000I-140000J0D01*
G01*
X94980000Y-69810000D01*
G75*
G02*
X94840000Y-69670000I0J140000D01*
G01*
G37*
G36*
G01*
X95800000Y-69670000D02*
X95800000Y-69330000D01*
G75*
G02*
X95940000Y-69190000I140000J0D01*
G01*
X96220000Y-69190000D01*
G75*
G02*
X96360000Y-69330000I0J-140000D01*
G01*
X96360000Y-69670000D01*
G75*
G02*
X96220000Y-69810000I-140000J0D01*
G01*
X95940000Y-69810000D01*
G75*
G02*
X95800000Y-69670000I0J140000D01*
G01*
G37*
G04 #@! TD*
G04 #@! TO.C,C24*
G36*
G01*
X96980000Y-61183952D02*
X97320000Y-61183952D01*
G75*
G02*
X97460000Y-61323952I0J-140000D01*
G01*
X97460000Y-61603952D01*
G75*
G02*
X97320000Y-61743952I-140000J0D01*
G01*
X96980000Y-61743952D01*
G75*
G02*
X96840000Y-61603952I0J140000D01*
G01*
X96840000Y-61323952D01*
G75*
G02*
X96980000Y-61183952I140000J0D01*
G01*
G37*
G36*
G01*
X96980000Y-62143952D02*
X97320000Y-62143952D01*
G75*
G02*
X97460000Y-62283952I0J-140000D01*
G01*
X97460000Y-62563952D01*
G75*
G02*
X97320000Y-62703952I-140000J0D01*
G01*
X96980000Y-62703952D01*
G75*
G02*
X96840000Y-62563952I0J140000D01*
G01*
X96840000Y-62283952D01*
G75*
G02*
X96980000Y-62143952I140000J0D01*
G01*
G37*
G04 #@! TD*
G04 #@! TO.C,C76*
G36*
G01*
X103020000Y-82503952D02*
X102680000Y-82503952D01*
G75*
G02*
X102540000Y-82363952I0J140000D01*
G01*
X102540000Y-82083952D01*
G75*
G02*
X102680000Y-81943952I140000J0D01*
G01*
X103020000Y-81943952D01*
G75*
G02*
X103160000Y-82083952I0J-140000D01*
G01*
X103160000Y-82363952D01*
G75*
G02*
X103020000Y-82503952I-140000J0D01*
G01*
G37*
G36*
G01*
X103020000Y-81543952D02*
X102680000Y-81543952D01*
G75*
G02*
X102540000Y-81403952I0J140000D01*
G01*
X102540000Y-81123952D01*
G75*
G02*
X102680000Y-80983952I140000J0D01*
G01*
X103020000Y-80983952D01*
G75*
G02*
X103160000Y-81123952I0J-140000D01*
G01*
X103160000Y-81403952D01*
G75*
G02*
X103020000Y-81543952I-140000J0D01*
G01*
G37*
G04 #@! TD*
G04 #@! TO.C,C31*
G36*
G01*
X108380000Y-57483952D02*
X108720000Y-57483952D01*
G75*
G02*
X108860000Y-57623952I0J-140000D01*
G01*
X108860000Y-57903952D01*
G75*
G02*
X108720000Y-58043952I-140000J0D01*
G01*
X108380000Y-58043952D01*
G75*
G02*
X108240000Y-57903952I0J140000D01*
G01*
X108240000Y-57623952D01*
G75*
G02*
X108380000Y-57483952I140000J0D01*
G01*
G37*
G36*
G01*
X108380000Y-58443952D02*
X108720000Y-58443952D01*
G75*
G02*
X108860000Y-58583952I0J-140000D01*
G01*
X108860000Y-58863952D01*
G75*
G02*
X108720000Y-59003952I-140000J0D01*
G01*
X108380000Y-59003952D01*
G75*
G02*
X108240000Y-58863952I0J140000D01*
G01*
X108240000Y-58583952D01*
G75*
G02*
X108380000Y-58443952I140000J0D01*
G01*
G37*
G04 #@! TD*
G04 #@! TO.C,C73*
G36*
G01*
X99220000Y-78853952D02*
X98880000Y-78853952D01*
G75*
G02*
X98740000Y-78713952I0J140000D01*
G01*
X98740000Y-78433952D01*
G75*
G02*
X98880000Y-78293952I140000J0D01*
G01*
X99220000Y-78293952D01*
G75*
G02*
X99360000Y-78433952I0J-140000D01*
G01*
X99360000Y-78713952D01*
G75*
G02*
X99220000Y-78853952I-140000J0D01*
G01*
G37*
G36*
G01*
X99220000Y-77893952D02*
X98880000Y-77893952D01*
G75*
G02*
X98740000Y-77753952I0J140000D01*
G01*
X98740000Y-77473952D01*
G75*
G02*
X98880000Y-77333952I140000J0D01*
G01*
X99220000Y-77333952D01*
G75*
G02*
X99360000Y-77473952I0J-140000D01*
G01*
X99360000Y-77753952D01*
G75*
G02*
X99220000Y-77893952I-140000J0D01*
G01*
G37*
G04 #@! TD*
G04 #@! TO.C,C79*
G36*
G01*
X91620000Y-82503952D02*
X91280000Y-82503952D01*
G75*
G02*
X91140000Y-82363952I0J140000D01*
G01*
X91140000Y-82083952D01*
G75*
G02*
X91280000Y-81943952I140000J0D01*
G01*
X91620000Y-81943952D01*
G75*
G02*
X91760000Y-82083952I0J-140000D01*
G01*
X91760000Y-82363952D01*
G75*
G02*
X91620000Y-82503952I-140000J0D01*
G01*
G37*
G36*
G01*
X91620000Y-81543952D02*
X91280000Y-81543952D01*
G75*
G02*
X91140000Y-81403952I0J140000D01*
G01*
X91140000Y-81123952D01*
G75*
G02*
X91280000Y-80983952I140000J0D01*
G01*
X91620000Y-80983952D01*
G75*
G02*
X91760000Y-81123952I0J-140000D01*
G01*
X91760000Y-81403952D01*
G75*
G02*
X91620000Y-81543952I-140000J0D01*
G01*
G37*
G04 #@! TD*
G04 #@! TO.C,C103*
G36*
G01*
X87540000Y-61620000D02*
X87540000Y-61280000D01*
G75*
G02*
X87680000Y-61140000I140000J0D01*
G01*
X87960000Y-61140000D01*
G75*
G02*
X88100000Y-61280000I0J-140000D01*
G01*
X88100000Y-61620000D01*
G75*
G02*
X87960000Y-61760000I-140000J0D01*
G01*
X87680000Y-61760000D01*
G75*
G02*
X87540000Y-61620000I0J140000D01*
G01*
G37*
G36*
G01*
X88500000Y-61620000D02*
X88500000Y-61280000D01*
G75*
G02*
X88640000Y-61140000I140000J0D01*
G01*
X88920000Y-61140000D01*
G75*
G02*
X89060000Y-61280000I0J-140000D01*
G01*
X89060000Y-61620000D01*
G75*
G02*
X88920000Y-61760000I-140000J0D01*
G01*
X88640000Y-61760000D01*
G75*
G02*
X88500000Y-61620000I0J140000D01*
G01*
G37*
G04 #@! TD*
G04 #@! TO.C,C27*
G36*
G01*
X93180000Y-57483952D02*
X93520000Y-57483952D01*
G75*
G02*
X93660000Y-57623952I0J-140000D01*
G01*
X93660000Y-57903952D01*
G75*
G02*
X93520000Y-58043952I-140000J0D01*
G01*
X93180000Y-58043952D01*
G75*
G02*
X93040000Y-57903952I0J140000D01*
G01*
X93040000Y-57623952D01*
G75*
G02*
X93180000Y-57483952I140000J0D01*
G01*
G37*
G36*
G01*
X93180000Y-58443952D02*
X93520000Y-58443952D01*
G75*
G02*
X93660000Y-58583952I0J-140000D01*
G01*
X93660000Y-58863952D01*
G75*
G02*
X93520000Y-59003952I-140000J0D01*
G01*
X93180000Y-59003952D01*
G75*
G02*
X93040000Y-58863952I0J140000D01*
G01*
X93040000Y-58583952D01*
G75*
G02*
X93180000Y-58443952I140000J0D01*
G01*
G37*
G04 #@! TD*
G04 #@! TO.C,C3*
G36*
G01*
X97580000Y-66240000D02*
X97920000Y-66240000D01*
G75*
G02*
X98060000Y-66380000I0J-140000D01*
G01*
X98060000Y-66660000D01*
G75*
G02*
X97920000Y-66800000I-140000J0D01*
G01*
X97580000Y-66800000D01*
G75*
G02*
X97440000Y-66660000I0J140000D01*
G01*
X97440000Y-66380000D01*
G75*
G02*
X97580000Y-66240000I140000J0D01*
G01*
G37*
G36*
G01*
X97580000Y-67200000D02*
X97920000Y-67200000D01*
G75*
G02*
X98060000Y-67340000I0J-140000D01*
G01*
X98060000Y-67620000D01*
G75*
G02*
X97920000Y-67760000I-140000J0D01*
G01*
X97580000Y-67760000D01*
G75*
G02*
X97440000Y-67620000I0J140000D01*
G01*
X97440000Y-67340000D01*
G75*
G02*
X97580000Y-67200000I140000J0D01*
G01*
G37*
G04 #@! TD*
G04 #@! TO.C,C98*
G36*
G01*
X91240000Y-65413952D02*
X91240000Y-65073952D01*
G75*
G02*
X91380000Y-64933952I140000J0D01*
G01*
X91660000Y-64933952D01*
G75*
G02*
X91800000Y-65073952I0J-140000D01*
G01*
X91800000Y-65413952D01*
G75*
G02*
X91660000Y-65553952I-140000J0D01*
G01*
X91380000Y-65553952D01*
G75*
G02*
X91240000Y-65413952I0J140000D01*
G01*
G37*
G36*
G01*
X92200000Y-65413952D02*
X92200000Y-65073952D01*
G75*
G02*
X92340000Y-64933952I140000J0D01*
G01*
X92620000Y-64933952D01*
G75*
G02*
X92760000Y-65073952I0J-140000D01*
G01*
X92760000Y-65413952D01*
G75*
G02*
X92620000Y-65553952I-140000J0D01*
G01*
X92340000Y-65553952D01*
G75*
G02*
X92200000Y-65413952I0J140000D01*
G01*
G37*
G04 #@! TD*
G04 #@! TO.C,C25*
G36*
G01*
X100780000Y-61183952D02*
X101120000Y-61183952D01*
G75*
G02*
X101260000Y-61323952I0J-140000D01*
G01*
X101260000Y-61603952D01*
G75*
G02*
X101120000Y-61743952I-140000J0D01*
G01*
X100780000Y-61743952D01*
G75*
G02*
X100640000Y-61603952I0J140000D01*
G01*
X100640000Y-61323952D01*
G75*
G02*
X100780000Y-61183952I140000J0D01*
G01*
G37*
G36*
G01*
X100780000Y-62143952D02*
X101120000Y-62143952D01*
G75*
G02*
X101260000Y-62283952I0J-140000D01*
G01*
X101260000Y-62563952D01*
G75*
G02*
X101120000Y-62703952I-140000J0D01*
G01*
X100780000Y-62703952D01*
G75*
G02*
X100640000Y-62563952I0J140000D01*
G01*
X100640000Y-62283952D01*
G75*
G02*
X100780000Y-62143952I140000J0D01*
G01*
G37*
G04 #@! TD*
G04 #@! TO.C,C28*
G36*
G01*
X96980000Y-57483952D02*
X97320000Y-57483952D01*
G75*
G02*
X97460000Y-57623952I0J-140000D01*
G01*
X97460000Y-57903952D01*
G75*
G02*
X97320000Y-58043952I-140000J0D01*
G01*
X96980000Y-58043952D01*
G75*
G02*
X96840000Y-57903952I0J140000D01*
G01*
X96840000Y-57623952D01*
G75*
G02*
X96980000Y-57483952I140000J0D01*
G01*
G37*
G36*
G01*
X96980000Y-58443952D02*
X97320000Y-58443952D01*
G75*
G02*
X97460000Y-58583952I0J-140000D01*
G01*
X97460000Y-58863952D01*
G75*
G02*
X97320000Y-59003952I-140000J0D01*
G01*
X96980000Y-59003952D01*
G75*
G02*
X96840000Y-58863952I0J140000D01*
G01*
X96840000Y-58583952D01*
G75*
G02*
X96980000Y-58443952I140000J0D01*
G01*
G37*
G04 #@! TD*
G04 #@! TO.C,C74*
G36*
G01*
X95420000Y-78753952D02*
X95080000Y-78753952D01*
G75*
G02*
X94940000Y-78613952I0J140000D01*
G01*
X94940000Y-78333952D01*
G75*
G02*
X95080000Y-78193952I140000J0D01*
G01*
X95420000Y-78193952D01*
G75*
G02*
X95560000Y-78333952I0J-140000D01*
G01*
X95560000Y-78613952D01*
G75*
G02*
X95420000Y-78753952I-140000J0D01*
G01*
G37*
G36*
G01*
X95420000Y-77793952D02*
X95080000Y-77793952D01*
G75*
G02*
X94940000Y-77653952I0J140000D01*
G01*
X94940000Y-77373952D01*
G75*
G02*
X95080000Y-77233952I140000J0D01*
G01*
X95420000Y-77233952D01*
G75*
G02*
X95560000Y-77373952I0J-140000D01*
G01*
X95560000Y-77653952D01*
G75*
G02*
X95420000Y-77793952I-140000J0D01*
G01*
G37*
G04 #@! TD*
G36*
X115001745Y-52000098D02*
G01*
X115332391Y-52018666D01*
X115339356Y-52019451D01*
X115664106Y-52074629D01*
X115670939Y-52076189D01*
X115987464Y-52167378D01*
X115994080Y-52169693D01*
X116298411Y-52295751D01*
X116304725Y-52298792D01*
X116593022Y-52458128D01*
X116598957Y-52461857D01*
X116867600Y-52652470D01*
X116873080Y-52656839D01*
X117118703Y-52876341D01*
X117123659Y-52881297D01*
X117343161Y-53126920D01*
X117347530Y-53132400D01*
X117538143Y-53401043D01*
X117541872Y-53406978D01*
X117701208Y-53695275D01*
X117704249Y-53701589D01*
X117830307Y-54005920D01*
X117832622Y-54012536D01*
X117923811Y-54329061D01*
X117925371Y-54335894D01*
X117980549Y-54660644D01*
X117981334Y-54667609D01*
X117999902Y-54998255D01*
X118000000Y-55001759D01*
X118000000Y-55064500D01*
X117981694Y-55108694D01*
X117937500Y-55127000D01*
X115062500Y-55127000D01*
X115018306Y-55108694D01*
X115000000Y-55064500D01*
X115000000Y-55012431D01*
X114996359Y-55003641D01*
X114987569Y-55000000D01*
X112462500Y-55000000D01*
X112418306Y-54981694D01*
X112400000Y-54937500D01*
X112400000Y-52062500D01*
X112418306Y-52018306D01*
X112462500Y-52000000D01*
X114998241Y-52000000D01*
X115001745Y-52000098D01*
G37*
G36*
X84981694Y-84891306D02*
G01*
X85000000Y-84935500D01*
X85000000Y-84987569D01*
X85003641Y-84996359D01*
X85012431Y-85000000D01*
X87537500Y-85000000D01*
X87581694Y-85018306D01*
X87600000Y-85062500D01*
X87600000Y-87937500D01*
X87581694Y-87981694D01*
X87537500Y-88000000D01*
X85001759Y-88000000D01*
X84998255Y-87999902D01*
X84667609Y-87981334D01*
X84660644Y-87980549D01*
X84335894Y-87925371D01*
X84329061Y-87923811D01*
X84012536Y-87832622D01*
X84005920Y-87830307D01*
X83701589Y-87704249D01*
X83695275Y-87701208D01*
X83406978Y-87541872D01*
X83401043Y-87538143D01*
X83132400Y-87347530D01*
X83126920Y-87343161D01*
X82881297Y-87123659D01*
X82876341Y-87118703D01*
X82656839Y-86873080D01*
X82652470Y-86867600D01*
X82461857Y-86598957D01*
X82458128Y-86593022D01*
X82298792Y-86304725D01*
X82295751Y-86298411D01*
X82169693Y-85994080D01*
X82167378Y-85987464D01*
X82076189Y-85670939D01*
X82074629Y-85664106D01*
X82019451Y-85339356D01*
X82018666Y-85332391D01*
X82000098Y-85001745D01*
X82000000Y-84998241D01*
X82000000Y-84935500D01*
X82018306Y-84891306D01*
X82062500Y-84873000D01*
X84937500Y-84873000D01*
X84981694Y-84891306D01*
G37*
G36*
X85001528Y-52773076D02*
G01*
X85009392Y-52773463D01*
X85015480Y-52774062D01*
X85021730Y-52774988D01*
X85027768Y-52776189D01*
X85033895Y-52777725D01*
X85039739Y-52779498D01*
X85045699Y-52781629D01*
X85051386Y-52783984D01*
X85057097Y-52786686D01*
X85062499Y-52789574D01*
X85067923Y-52792825D01*
X85073020Y-52796230D01*
X85078104Y-52800000D01*
X85082845Y-52803890D01*
X85087525Y-52808131D01*
X85091869Y-52812475D01*
X85096110Y-52817155D01*
X85100000Y-52821896D01*
X85103770Y-52826980D01*
X85107175Y-52832077D01*
X85110426Y-52837501D01*
X85113314Y-52842903D01*
X85116016Y-52848614D01*
X85118371Y-52854301D01*
X85120502Y-52860261D01*
X85122275Y-52866105D01*
X85123811Y-52872232D01*
X85125012Y-52878270D01*
X85125938Y-52884520D01*
X85126537Y-52890608D01*
X85126924Y-52898472D01*
X85127000Y-52901544D01*
X85127000Y-54937500D01*
X85108694Y-54981694D01*
X85064500Y-55000000D01*
X85012431Y-55000000D01*
X85003641Y-55003641D01*
X85000000Y-55012431D01*
X85000000Y-57537500D01*
X84981694Y-57581694D01*
X84937500Y-57600000D01*
X82062500Y-57600000D01*
X82018306Y-57581694D01*
X82000000Y-57537500D01*
X82000000Y-55001759D01*
X82000098Y-54998255D01*
X82018666Y-54667609D01*
X82019451Y-54660644D01*
X82074629Y-54335894D01*
X82076189Y-54329061D01*
X82167378Y-54012536D01*
X82169693Y-54005920D01*
X82295751Y-53701589D01*
X82298792Y-53695275D01*
X82458128Y-53406978D01*
X82461857Y-53401043D01*
X82652470Y-53132400D01*
X82656839Y-53126920D01*
X82876341Y-52881297D01*
X82881297Y-52876341D01*
X82979147Y-52788897D01*
X83020794Y-52773000D01*
X84998456Y-52773000D01*
X85001528Y-52773076D01*
G37*
G36*
X84981694Y-82418306D02*
G01*
X85000000Y-82462500D01*
X85000000Y-84987569D01*
X85003641Y-84996359D01*
X85012431Y-85000000D01*
X85064500Y-85000000D01*
X85108694Y-85018306D01*
X85127000Y-85062500D01*
X85127000Y-86198456D01*
X85126924Y-86201528D01*
X85126537Y-86209392D01*
X85125938Y-86215480D01*
X85125012Y-86221730D01*
X85123811Y-86227768D01*
X85122275Y-86233895D01*
X85120502Y-86239739D01*
X85118371Y-86245699D01*
X85116016Y-86251386D01*
X85113314Y-86257097D01*
X85110426Y-86262499D01*
X85107175Y-86267923D01*
X85103770Y-86273020D01*
X85100000Y-86278104D01*
X85096110Y-86282845D01*
X85091869Y-86287525D01*
X85087525Y-86291869D01*
X85082845Y-86296110D01*
X85078104Y-86300000D01*
X85073020Y-86303770D01*
X85067923Y-86307175D01*
X85062499Y-86310426D01*
X85057097Y-86313314D01*
X85051386Y-86316016D01*
X85045699Y-86318371D01*
X85039739Y-86320502D01*
X85033895Y-86322275D01*
X85027768Y-86323811D01*
X85021730Y-86325012D01*
X85015480Y-86325938D01*
X85009392Y-86326537D01*
X85001528Y-86326924D01*
X84998456Y-86327000D01*
X82349354Y-86327000D01*
X82305160Y-86308694D01*
X82291612Y-86288418D01*
X82169693Y-85994080D01*
X82167378Y-85987464D01*
X82076189Y-85670939D01*
X82074629Y-85664106D01*
X82019451Y-85339356D01*
X82018666Y-85332391D01*
X82000098Y-85001745D01*
X82000000Y-84998241D01*
X82000000Y-82462500D01*
X82018306Y-82418306D01*
X82062500Y-82400000D01*
X84937500Y-82400000D01*
X84981694Y-82418306D01*
G37*
G36*
X87581694Y-52018306D02*
G01*
X87600000Y-52062500D01*
X87600000Y-54937500D01*
X87581694Y-54981694D01*
X87537500Y-55000000D01*
X85012431Y-55000000D01*
X85003641Y-55003641D01*
X85000000Y-55012431D01*
X85000000Y-55064500D01*
X84981694Y-55108694D01*
X84937500Y-55127000D01*
X82062500Y-55127000D01*
X82018306Y-55108694D01*
X82000000Y-55064500D01*
X82000000Y-55001759D01*
X82000098Y-54998255D01*
X82018666Y-54667609D01*
X82019451Y-54660644D01*
X82074629Y-54335894D01*
X82076189Y-54329061D01*
X82167378Y-54012536D01*
X82169693Y-54005920D01*
X82295751Y-53701589D01*
X82298792Y-53695275D01*
X82458128Y-53406978D01*
X82461857Y-53401043D01*
X82652470Y-53132400D01*
X82656839Y-53126920D01*
X82876341Y-52881297D01*
X82881297Y-52876341D01*
X83126920Y-52656839D01*
X83132400Y-52652470D01*
X83401043Y-52461857D01*
X83406978Y-52458128D01*
X83695275Y-52298792D01*
X83701589Y-52295751D01*
X84005920Y-52169693D01*
X84012536Y-52167378D01*
X84329061Y-52076189D01*
X84335894Y-52074629D01*
X84660644Y-52019451D01*
X84667609Y-52018666D01*
X84998255Y-52000098D01*
X85001759Y-52000000D01*
X87537500Y-52000000D01*
X87581694Y-52018306D01*
G37*
G36*
X117904818Y-54291306D02*
G01*
X117920680Y-54318193D01*
X117923811Y-54329058D01*
X117925372Y-54335896D01*
X117980549Y-54660644D01*
X117981334Y-54667609D01*
X117999902Y-54998255D01*
X118000000Y-55001759D01*
X118000000Y-57537500D01*
X117981694Y-57581694D01*
X117937500Y-57600000D01*
X115062500Y-57600000D01*
X115018306Y-57581694D01*
X115000000Y-57537500D01*
X115000000Y-55012431D01*
X114996359Y-55003641D01*
X114987569Y-55000000D01*
X114935500Y-55000000D01*
X114891306Y-54981694D01*
X114873000Y-54937500D01*
X114873000Y-54401544D01*
X114873076Y-54398472D01*
X114873463Y-54390608D01*
X114874062Y-54384520D01*
X114874988Y-54378270D01*
X114876189Y-54372232D01*
X114877725Y-54366105D01*
X114879498Y-54360261D01*
X114881629Y-54354301D01*
X114883984Y-54348614D01*
X114886686Y-54342903D01*
X114889574Y-54337501D01*
X114892825Y-54332077D01*
X114896230Y-54326980D01*
X114900000Y-54321896D01*
X114903890Y-54317155D01*
X114908131Y-54312475D01*
X114912475Y-54308131D01*
X114917155Y-54303890D01*
X114921896Y-54300000D01*
X114926980Y-54296230D01*
X114932077Y-54292825D01*
X114937501Y-54289574D01*
X114942903Y-54286686D01*
X114948614Y-54283984D01*
X114954301Y-54281629D01*
X114960261Y-54279498D01*
X114966105Y-54277725D01*
X114972232Y-54276189D01*
X114978270Y-54274988D01*
X114984520Y-54274062D01*
X114990608Y-54273463D01*
X114998472Y-54273076D01*
X115001544Y-54273000D01*
X117860624Y-54273000D01*
X117904818Y-54291306D01*
G37*
G36*
X117981694Y-82418306D02*
G01*
X118000000Y-82462500D01*
X118000000Y-84998241D01*
X117999902Y-85001745D01*
X117981334Y-85332390D01*
X117980549Y-85339355D01*
X117974498Y-85374969D01*
X117949048Y-85415472D01*
X117912881Y-85427000D01*
X115001544Y-85427000D01*
X114998472Y-85426924D01*
X114990608Y-85426537D01*
X114984520Y-85425938D01*
X114978270Y-85425012D01*
X114972232Y-85423811D01*
X114966105Y-85422275D01*
X114960261Y-85420502D01*
X114954301Y-85418371D01*
X114948614Y-85416016D01*
X114942903Y-85413314D01*
X114937501Y-85410426D01*
X114932077Y-85407175D01*
X114926980Y-85403770D01*
X114921896Y-85400000D01*
X114917155Y-85396110D01*
X114912475Y-85391869D01*
X114908131Y-85387525D01*
X114903890Y-85382845D01*
X114900000Y-85378104D01*
X114896230Y-85373020D01*
X114892825Y-85367923D01*
X114889574Y-85362499D01*
X114886686Y-85357097D01*
X114883984Y-85351386D01*
X114881629Y-85345699D01*
X114879498Y-85339739D01*
X114877725Y-85333895D01*
X114876189Y-85327768D01*
X114874988Y-85321730D01*
X114874062Y-85315480D01*
X114873463Y-85309392D01*
X114873076Y-85301528D01*
X114873000Y-85298456D01*
X114873000Y-85062500D01*
X114891306Y-85018306D01*
X114935500Y-85000000D01*
X114987569Y-85000000D01*
X114996359Y-84996359D01*
X115000000Y-84987569D01*
X115000000Y-82462500D01*
X115018306Y-82418306D01*
X115062500Y-82400000D01*
X117937500Y-82400000D01*
X117981694Y-82418306D01*
G37*
G36*
X117981694Y-84891306D02*
G01*
X118000000Y-84935500D01*
X118000000Y-84998241D01*
X117999902Y-85001745D01*
X117981334Y-85332391D01*
X117980549Y-85339356D01*
X117925371Y-85664106D01*
X117923811Y-85670939D01*
X117832622Y-85987464D01*
X117830307Y-85994080D01*
X117704249Y-86298411D01*
X117701208Y-86304725D01*
X117541872Y-86593022D01*
X117538143Y-86598957D01*
X117347530Y-86867600D01*
X117343161Y-86873080D01*
X117123659Y-87118703D01*
X117118703Y-87123659D01*
X116873080Y-87343161D01*
X116867600Y-87347530D01*
X116598957Y-87538143D01*
X116593022Y-87541872D01*
X116304725Y-87701208D01*
X116298411Y-87704249D01*
X115994080Y-87830307D01*
X115987464Y-87832622D01*
X115670939Y-87923811D01*
X115664106Y-87925371D01*
X115339356Y-87980549D01*
X115332391Y-87981334D01*
X115001745Y-87999902D01*
X114998241Y-88000000D01*
X112462500Y-88000000D01*
X112418306Y-87981694D01*
X112400000Y-87937500D01*
X112400000Y-85062500D01*
X112418306Y-85018306D01*
X112462500Y-85000000D01*
X114987569Y-85000000D01*
X114996359Y-84996359D01*
X115000000Y-84987569D01*
X115000000Y-84935500D01*
X115018306Y-84891306D01*
X115062500Y-84873000D01*
X117937500Y-84873000D01*
X117981694Y-84891306D01*
G37*
M02*
