G04 #@! TF.GenerationSoftware,KiCad,Pcbnew,(6.0.9)*
G04 #@! TF.CreationDate,2024-07-14T21:03:07-07:00*
G04 #@! TF.ProjectId,AccArray_QFN,41636341-7272-4617-995f-51464e2e6b69,rev?*
G04 #@! TF.SameCoordinates,Original*
G04 #@! TF.FileFunction,Legend,Top*
G04 #@! TF.FilePolarity,Positive*
%FSLAX46Y46*%
G04 Gerber Fmt 4.6, Leading zero omitted, Abs format (unit mm)*
G04 Created by KiCad (PCBNEW (6.0.9)) date 2024-07-14 21:03:07*
%MOMM*%
%LPD*%
G01*
G04 APERTURE LIST*
%ADD10C,0.150000*%
%ADD11C,0.300000*%
%ADD12C,0.200000*%
%ADD13C,0.100000*%
%ADD14C,0.120000*%
%ADD15C,0.127000*%
G04 APERTURE END LIST*
D10*
X89750000Y-86200000D02*
X89750000Y-84550000D01*
X90450000Y-86900000D02*
G75*
G03*
X90450000Y-86900000I-700000J0D01*
G01*
X92100000Y-86900000D02*
X91675736Y-86475736D01*
X89750000Y-84550000D02*
X89325736Y-84974264D01*
D11*
X89850000Y-86900000D02*
G75*
G03*
X89850000Y-86900000I-100000J0D01*
G01*
D10*
X92100000Y-86900000D02*
X91675736Y-87324264D01*
X92100000Y-86900000D02*
X90450000Y-86900000D01*
X89750000Y-84550000D02*
X90174264Y-84974264D01*
D12*
X89750000Y-83680952D02*
X89750000Y-84061904D01*
X89483333Y-83261904D02*
X89750000Y-83680952D01*
X90016666Y-83261904D01*
D10*
X104100000Y-73416666D02*
X104100000Y-73583333D01*
X103933333Y-73516666D02*
X104100000Y-73583333D01*
X104266666Y-73516666D01*
X104000000Y-73716666D02*
X104100000Y-73583333D01*
X104200000Y-73716666D01*
D12*
X88083333Y-86561904D02*
X88616666Y-86561904D01*
X88083333Y-87361904D01*
X88616666Y-87361904D01*
X92483333Y-86461904D02*
X93016666Y-87261904D01*
X93016666Y-86461904D02*
X92483333Y-87261904D01*
D10*
X110200000Y-56333333D02*
X110166666Y-56400000D01*
X110166666Y-56500000D01*
X110200000Y-56600000D01*
X110266666Y-56666666D01*
X110333333Y-56700000D01*
X110466666Y-56733333D01*
X110566666Y-56733333D01*
X110700000Y-56700000D01*
X110766666Y-56666666D01*
X110833333Y-56600000D01*
X110866666Y-56500000D01*
X110866666Y-56433333D01*
X110833333Y-56333333D01*
X110800000Y-56300000D01*
X110566666Y-56300000D01*
X110566666Y-56433333D01*
X110866666Y-56000000D02*
X110166666Y-56000000D01*
X110866666Y-55600000D01*
X110166666Y-55600000D01*
X110866666Y-55266666D02*
X110166666Y-55266666D01*
X110166666Y-55100000D01*
X110200000Y-55000000D01*
X110266666Y-54933333D01*
X110333333Y-54900000D01*
X110466666Y-54866666D01*
X110566666Y-54866666D01*
X110700000Y-54900000D01*
X110766666Y-54933333D01*
X110833333Y-55000000D01*
X110866666Y-55100000D01*
X110866666Y-55266666D01*
X108816666Y-57100000D02*
X108116666Y-57100000D01*
X108616666Y-56866666D01*
X108116666Y-56633333D01*
X108816666Y-56633333D01*
X108116666Y-56166666D02*
X108116666Y-56033333D01*
X108150000Y-55966666D01*
X108216666Y-55900000D01*
X108350000Y-55866666D01*
X108583333Y-55866666D01*
X108716666Y-55900000D01*
X108783333Y-55966666D01*
X108816666Y-56033333D01*
X108816666Y-56166666D01*
X108783333Y-56233333D01*
X108716666Y-56300000D01*
X108583333Y-56333333D01*
X108350000Y-56333333D01*
X108216666Y-56300000D01*
X108150000Y-56233333D01*
X108116666Y-56166666D01*
X108783333Y-55600000D02*
X108816666Y-55500000D01*
X108816666Y-55333333D01*
X108783333Y-55266666D01*
X108750000Y-55233333D01*
X108683333Y-55200000D01*
X108616666Y-55200000D01*
X108550000Y-55233333D01*
X108516666Y-55266666D01*
X108483333Y-55333333D01*
X108450000Y-55466666D01*
X108416666Y-55533333D01*
X108383333Y-55566666D01*
X108316666Y-55600000D01*
X108250000Y-55600000D01*
X108183333Y-55566666D01*
X108150000Y-55533333D01*
X108116666Y-55466666D01*
X108116666Y-55300000D01*
X108150000Y-55200000D01*
X108816666Y-54900000D02*
X108116666Y-54900000D01*
X104253166Y-56416666D02*
X103553166Y-56416666D01*
X104253166Y-56083333D02*
X103553166Y-56083333D01*
X104053166Y-55850000D01*
X103553166Y-55616666D01*
X104253166Y-55616666D01*
X103553166Y-55283333D02*
X104119833Y-55283333D01*
X104186500Y-55250000D01*
X104219833Y-55216666D01*
X104253166Y-55150000D01*
X104253166Y-55016666D01*
X104219833Y-54950000D01*
X104186500Y-54916666D01*
X104119833Y-54883333D01*
X103553166Y-54883333D01*
X105313500Y-55766666D02*
X105346833Y-55800000D01*
X105380166Y-55900000D01*
X105380166Y-55966666D01*
X105346833Y-56066666D01*
X105280166Y-56133333D01*
X105213500Y-56166666D01*
X105080166Y-56200000D01*
X104980166Y-56200000D01*
X104846833Y-56166666D01*
X104780166Y-56133333D01*
X104713500Y-56066666D01*
X104680166Y-55966666D01*
X104680166Y-55900000D01*
X104713500Y-55800000D01*
X104746833Y-55766666D01*
X105346833Y-55500000D02*
X105380166Y-55400000D01*
X105380166Y-55233333D01*
X105346833Y-55166666D01*
X105313500Y-55133333D01*
X105246833Y-55100000D01*
X105180166Y-55100000D01*
X105113500Y-55133333D01*
X105080166Y-55166666D01*
X105046833Y-55233333D01*
X105013500Y-55366666D01*
X104980166Y-55433333D01*
X104946833Y-55466666D01*
X104880166Y-55500000D01*
X104813500Y-55500000D01*
X104746833Y-55466666D01*
X104713500Y-55433333D01*
X104680166Y-55366666D01*
X104680166Y-55200000D01*
X104713500Y-55100000D01*
X91966666Y-54950000D02*
X91900000Y-54916666D01*
X91800000Y-54916666D01*
X91700000Y-54950000D01*
X91633333Y-55016666D01*
X91600000Y-55083333D01*
X91566666Y-55216666D01*
X91566666Y-55316666D01*
X91600000Y-55450000D01*
X91633333Y-55516666D01*
X91700000Y-55583333D01*
X91800000Y-55616666D01*
X91866666Y-55616666D01*
X91966666Y-55583333D01*
X92000000Y-55550000D01*
X92000000Y-55316666D01*
X91866666Y-55316666D01*
X92300000Y-55616666D02*
X92300000Y-54916666D01*
X92700000Y-55616666D01*
X92700000Y-54916666D01*
X93033333Y-55616666D02*
X93033333Y-54916666D01*
X93200000Y-54916666D01*
X93300000Y-54950000D01*
X93366666Y-55016666D01*
X93400000Y-55083333D01*
X93433333Y-55216666D01*
X93433333Y-55316666D01*
X93400000Y-55450000D01*
X93366666Y-55516666D01*
X93300000Y-55583333D01*
X93200000Y-55616666D01*
X93033333Y-55616666D01*
X106783333Y-56700000D02*
X106816666Y-56600000D01*
X106816666Y-56433333D01*
X106783333Y-56366666D01*
X106750000Y-56333333D01*
X106683333Y-56300000D01*
X106616666Y-56300000D01*
X106550000Y-56333333D01*
X106516666Y-56366666D01*
X106483333Y-56433333D01*
X106450000Y-56566666D01*
X106416666Y-56633333D01*
X106383333Y-56666666D01*
X106316666Y-56700000D01*
X106250000Y-56700000D01*
X106183333Y-56666666D01*
X106150000Y-56633333D01*
X106116666Y-56566666D01*
X106116666Y-56400000D01*
X106150000Y-56300000D01*
X106750000Y-55600000D02*
X106783333Y-55633333D01*
X106816666Y-55733333D01*
X106816666Y-55800000D01*
X106783333Y-55900000D01*
X106716666Y-55966666D01*
X106650000Y-56000000D01*
X106516666Y-56033333D01*
X106416666Y-56033333D01*
X106283333Y-56000000D01*
X106216666Y-55966666D01*
X106150000Y-55900000D01*
X106116666Y-55800000D01*
X106116666Y-55733333D01*
X106150000Y-55633333D01*
X106183333Y-55600000D01*
X106816666Y-55300000D02*
X106116666Y-55300000D01*
X106816666Y-54900000D02*
X106416666Y-55200000D01*
X106116666Y-54900000D02*
X106516666Y-55300000D01*
X113766666Y-61616666D02*
X113366666Y-61616666D01*
X113566666Y-61616666D02*
X113566666Y-60916666D01*
X113500000Y-61016666D01*
X113433333Y-61083333D01*
X113366666Y-61116666D01*
X113966666Y-60916666D02*
X114200000Y-61616666D01*
X114433333Y-60916666D01*
X114633333Y-60983333D02*
X114666666Y-60950000D01*
X114733333Y-60916666D01*
X114900000Y-60916666D01*
X114966666Y-60950000D01*
X115000000Y-60983333D01*
X115033333Y-61050000D01*
X115033333Y-61116666D01*
X115000000Y-61216666D01*
X114600000Y-61616666D01*
X115033333Y-61616666D01*
X88633333Y-54866666D02*
X89066666Y-54866666D01*
X88833333Y-55133333D01*
X88933333Y-55133333D01*
X89000000Y-55166666D01*
X89033333Y-55200000D01*
X89066666Y-55266666D01*
X89066666Y-55433333D01*
X89033333Y-55500000D01*
X89000000Y-55533333D01*
X88933333Y-55566666D01*
X88733333Y-55566666D01*
X88666666Y-55533333D01*
X88633333Y-55500000D01*
X89266666Y-54866666D02*
X89500000Y-55566666D01*
X89733333Y-54866666D01*
X89900000Y-54866666D02*
X90333333Y-54866666D01*
X90100000Y-55133333D01*
X90200000Y-55133333D01*
X90266666Y-55166666D01*
X90300000Y-55200000D01*
X90333333Y-55266666D01*
X90333333Y-55433333D01*
X90300000Y-55500000D01*
X90266666Y-55533333D01*
X90200000Y-55566666D01*
X90000000Y-55566666D01*
X89933333Y-55533333D01*
X89900000Y-55500000D01*
X106800000Y-64016666D02*
X106800000Y-63316666D01*
X107033333Y-63816666D01*
X107266666Y-63316666D01*
X107266666Y-64016666D01*
X107600000Y-64016666D02*
X107600000Y-63316666D01*
X107900000Y-63983333D02*
X108000000Y-64016666D01*
X108166666Y-64016666D01*
X108233333Y-63983333D01*
X108266666Y-63950000D01*
X108300000Y-63883333D01*
X108300000Y-63816666D01*
X108266666Y-63750000D01*
X108233333Y-63716666D01*
X108166666Y-63683333D01*
X108033333Y-63650000D01*
X107966666Y-63616666D01*
X107933333Y-63583333D01*
X107900000Y-63516666D01*
X107900000Y-63450000D01*
X107933333Y-63383333D01*
X107966666Y-63350000D01*
X108033333Y-63316666D01*
X108200000Y-63316666D01*
X108300000Y-63350000D01*
X108733333Y-63316666D02*
X108866666Y-63316666D01*
X108933333Y-63350000D01*
X109000000Y-63416666D01*
X109033333Y-63550000D01*
X109033333Y-63783333D01*
X109000000Y-63916666D01*
X108933333Y-63983333D01*
X108866666Y-64016666D01*
X108733333Y-64016666D01*
X108666666Y-63983333D01*
X108600000Y-63916666D01*
X108566666Y-63783333D01*
X108566666Y-63550000D01*
X108600000Y-63416666D01*
X108666666Y-63350000D01*
X108733333Y-63316666D01*
X116900000Y-80533333D02*
X116933333Y-80566666D01*
X116966666Y-80666666D01*
X116966666Y-80733333D01*
X116933333Y-80833333D01*
X116866666Y-80900000D01*
X116800000Y-80933333D01*
X116666666Y-80966666D01*
X116566666Y-80966666D01*
X116433333Y-80933333D01*
X116366666Y-80900000D01*
X116300000Y-80833333D01*
X116266666Y-80733333D01*
X116266666Y-80666666D01*
X116300000Y-80566666D01*
X116333333Y-80533333D01*
X116966666Y-80233333D02*
X116266666Y-80233333D01*
X116266666Y-80066666D01*
X116300000Y-79966666D01*
X116366666Y-79900000D01*
X116433333Y-79866666D01*
X116566666Y-79833333D01*
X116666666Y-79833333D01*
X116800000Y-79866666D01*
X116866666Y-79900000D01*
X116933333Y-79966666D01*
X116966666Y-80066666D01*
X116966666Y-80233333D01*
X116266666Y-79400000D02*
X116266666Y-79266666D01*
X116300000Y-79200000D01*
X116366666Y-79133333D01*
X116500000Y-79100000D01*
X116733333Y-79100000D01*
X116866666Y-79133333D01*
X116933333Y-79200000D01*
X116966666Y-79266666D01*
X116966666Y-79400000D01*
X116933333Y-79466666D01*
X116866666Y-79533333D01*
X116733333Y-79566666D01*
X116500000Y-79566666D01*
X116366666Y-79533333D01*
X116300000Y-79466666D01*
X116266666Y-79400000D01*
X116966666Y-78800000D02*
X116266666Y-78800000D01*
X116966666Y-78400000D01*
X116266666Y-78400000D01*
X116600000Y-78066666D02*
X116600000Y-77833333D01*
X116966666Y-77733333D02*
X116966666Y-78066666D01*
X116266666Y-78066666D01*
X116266666Y-77733333D01*
X93833333Y-84289666D02*
X93833333Y-83589666D01*
X94166666Y-84289666D02*
X94166666Y-83589666D01*
X94400000Y-84089666D01*
X94633333Y-83589666D01*
X94633333Y-84289666D01*
X94966666Y-83589666D02*
X94966666Y-84156333D01*
X95000000Y-84223000D01*
X95033333Y-84256333D01*
X95100000Y-84289666D01*
X95233333Y-84289666D01*
X95300000Y-84256333D01*
X95333333Y-84223000D01*
X95366666Y-84156333D01*
X95366666Y-83589666D01*
X96200000Y-84089666D02*
X96533333Y-84089666D01*
X96133333Y-84289666D02*
X96366666Y-83589666D01*
X96600000Y-84289666D01*
X96833333Y-84289666D02*
X96833333Y-83823000D01*
X96833333Y-83956333D02*
X96866666Y-83889666D01*
X96900000Y-83856333D01*
X96966666Y-83823000D01*
X97033333Y-83823000D01*
X97266666Y-84289666D02*
X97266666Y-83823000D01*
X97266666Y-83956333D02*
X97300000Y-83889666D01*
X97333333Y-83856333D01*
X97400000Y-83823000D01*
X97466666Y-83823000D01*
X98000000Y-84289666D02*
X98000000Y-83923000D01*
X97966666Y-83856333D01*
X97900000Y-83823000D01*
X97766666Y-83823000D01*
X97700000Y-83856333D01*
X98000000Y-84256333D02*
X97933333Y-84289666D01*
X97766666Y-84289666D01*
X97700000Y-84256333D01*
X97666666Y-84189666D01*
X97666666Y-84123000D01*
X97700000Y-84056333D01*
X97766666Y-84023000D01*
X97933333Y-84023000D01*
X98000000Y-83989666D01*
X98266666Y-83823000D02*
X98433333Y-84289666D01*
X98600000Y-83823000D02*
X98433333Y-84289666D01*
X98366666Y-84456333D01*
X98333333Y-84489666D01*
X98266666Y-84523000D01*
X99366666Y-84256333D02*
X99466666Y-84289666D01*
X99633333Y-84289666D01*
X99700000Y-84256333D01*
X99733333Y-84223000D01*
X99766666Y-84156333D01*
X99766666Y-84089666D01*
X99733333Y-84023000D01*
X99700000Y-83989666D01*
X99633333Y-83956333D01*
X99500000Y-83923000D01*
X99433333Y-83889666D01*
X99400000Y-83856333D01*
X99366666Y-83789666D01*
X99366666Y-83723000D01*
X99400000Y-83656333D01*
X99433333Y-83623000D01*
X99500000Y-83589666D01*
X99666666Y-83589666D01*
X99766666Y-83623000D01*
X100333333Y-84256333D02*
X100266666Y-84289666D01*
X100133333Y-84289666D01*
X100066666Y-84256333D01*
X100033333Y-84189666D01*
X100033333Y-83923000D01*
X100066666Y-83856333D01*
X100133333Y-83823000D01*
X100266666Y-83823000D01*
X100333333Y-83856333D01*
X100366666Y-83923000D01*
X100366666Y-83989666D01*
X100033333Y-84056333D01*
X100666666Y-83823000D02*
X100666666Y-84289666D01*
X100666666Y-83889666D02*
X100700000Y-83856333D01*
X100766666Y-83823000D01*
X100866666Y-83823000D01*
X100933333Y-83856333D01*
X100966666Y-83923000D01*
X100966666Y-84289666D01*
X101266666Y-84256333D02*
X101333333Y-84289666D01*
X101466666Y-84289666D01*
X101533333Y-84256333D01*
X101566666Y-84189666D01*
X101566666Y-84156333D01*
X101533333Y-84089666D01*
X101466666Y-84056333D01*
X101366666Y-84056333D01*
X101300000Y-84023000D01*
X101266666Y-83956333D01*
X101266666Y-83923000D01*
X101300000Y-83856333D01*
X101366666Y-83823000D01*
X101466666Y-83823000D01*
X101533333Y-83856333D01*
X101966666Y-84289666D02*
X101900000Y-84256333D01*
X101866666Y-84223000D01*
X101833333Y-84156333D01*
X101833333Y-83956333D01*
X101866666Y-83889666D01*
X101900000Y-83856333D01*
X101966666Y-83823000D01*
X102066666Y-83823000D01*
X102133333Y-83856333D01*
X102166666Y-83889666D01*
X102200000Y-83956333D01*
X102200000Y-84156333D01*
X102166666Y-84223000D01*
X102133333Y-84256333D01*
X102066666Y-84289666D01*
X101966666Y-84289666D01*
X102500000Y-84289666D02*
X102500000Y-83823000D01*
X102500000Y-83956333D02*
X102533333Y-83889666D01*
X102566666Y-83856333D01*
X102633333Y-83823000D01*
X102700000Y-83823000D01*
X103700000Y-83923000D02*
X103800000Y-83956333D01*
X103833333Y-83989666D01*
X103866666Y-84056333D01*
X103866666Y-84156333D01*
X103833333Y-84223000D01*
X103800000Y-84256333D01*
X103733333Y-84289666D01*
X103466666Y-84289666D01*
X103466666Y-83589666D01*
X103700000Y-83589666D01*
X103766666Y-83623000D01*
X103800000Y-83656333D01*
X103833333Y-83723000D01*
X103833333Y-83789666D01*
X103800000Y-83856333D01*
X103766666Y-83889666D01*
X103700000Y-83923000D01*
X103466666Y-83923000D01*
X104266666Y-84289666D02*
X104200000Y-84256333D01*
X104166666Y-84223000D01*
X104133333Y-84156333D01*
X104133333Y-83956333D01*
X104166666Y-83889666D01*
X104200000Y-83856333D01*
X104266666Y-83823000D01*
X104366666Y-83823000D01*
X104433333Y-83856333D01*
X104466666Y-83889666D01*
X104500000Y-83956333D01*
X104500000Y-84156333D01*
X104466666Y-84223000D01*
X104433333Y-84256333D01*
X104366666Y-84289666D01*
X104266666Y-84289666D01*
X105100000Y-84289666D02*
X105100000Y-83923000D01*
X105066666Y-83856333D01*
X105000000Y-83823000D01*
X104866666Y-83823000D01*
X104800000Y-83856333D01*
X105100000Y-84256333D02*
X105033333Y-84289666D01*
X104866666Y-84289666D01*
X104800000Y-84256333D01*
X104766666Y-84189666D01*
X104766666Y-84123000D01*
X104800000Y-84056333D01*
X104866666Y-84023000D01*
X105033333Y-84023000D01*
X105100000Y-83989666D01*
X105433333Y-84289666D02*
X105433333Y-83823000D01*
X105433333Y-83956333D02*
X105466666Y-83889666D01*
X105500000Y-83856333D01*
X105566666Y-83823000D01*
X105633333Y-83823000D01*
X106166666Y-84289666D02*
X106166666Y-83589666D01*
X106166666Y-84256333D02*
X106100000Y-84289666D01*
X105966666Y-84289666D01*
X105900000Y-84256333D01*
X105866666Y-84223000D01*
X105833333Y-84156333D01*
X105833333Y-83956333D01*
X105866666Y-83889666D01*
X105900000Y-83856333D01*
X105966666Y-83823000D01*
X106100000Y-83823000D01*
X106166666Y-83856333D01*
X94450000Y-85416666D02*
X94450000Y-84716666D01*
X94616666Y-84716666D01*
X94716666Y-84750000D01*
X94783333Y-84816666D01*
X94816666Y-84883333D01*
X94850000Y-85016666D01*
X94850000Y-85116666D01*
X94816666Y-85250000D01*
X94783333Y-85316666D01*
X94716666Y-85383333D01*
X94616666Y-85416666D01*
X94450000Y-85416666D01*
X95416666Y-85383333D02*
X95350000Y-85416666D01*
X95216666Y-85416666D01*
X95150000Y-85383333D01*
X95116666Y-85316666D01*
X95116666Y-85050000D01*
X95150000Y-84983333D01*
X95216666Y-84950000D01*
X95350000Y-84950000D01*
X95416666Y-84983333D01*
X95450000Y-85050000D01*
X95450000Y-85116666D01*
X95116666Y-85183333D01*
X95716666Y-85383333D02*
X95783333Y-85416666D01*
X95916666Y-85416666D01*
X95983333Y-85383333D01*
X96016666Y-85316666D01*
X96016666Y-85283333D01*
X95983333Y-85216666D01*
X95916666Y-85183333D01*
X95816666Y-85183333D01*
X95750000Y-85150000D01*
X95716666Y-85083333D01*
X95716666Y-85050000D01*
X95750000Y-84983333D01*
X95816666Y-84950000D01*
X95916666Y-84950000D01*
X95983333Y-84983333D01*
X96316666Y-85416666D02*
X96316666Y-84950000D01*
X96316666Y-84716666D02*
X96283333Y-84750000D01*
X96316666Y-84783333D01*
X96350000Y-84750000D01*
X96316666Y-84716666D01*
X96316666Y-84783333D01*
X96950000Y-84950000D02*
X96950000Y-85516666D01*
X96916666Y-85583333D01*
X96883333Y-85616666D01*
X96816666Y-85650000D01*
X96716666Y-85650000D01*
X96650000Y-85616666D01*
X96950000Y-85383333D02*
X96883333Y-85416666D01*
X96750000Y-85416666D01*
X96683333Y-85383333D01*
X96650000Y-85350000D01*
X96616666Y-85283333D01*
X96616666Y-85083333D01*
X96650000Y-85016666D01*
X96683333Y-84983333D01*
X96750000Y-84950000D01*
X96883333Y-84950000D01*
X96950000Y-84983333D01*
X97283333Y-84950000D02*
X97283333Y-85416666D01*
X97283333Y-85016666D02*
X97316666Y-84983333D01*
X97383333Y-84950000D01*
X97483333Y-84950000D01*
X97550000Y-84983333D01*
X97583333Y-85050000D01*
X97583333Y-85416666D01*
X98450000Y-85416666D02*
X98450000Y-84716666D01*
X98450000Y-84983333D02*
X98516666Y-84950000D01*
X98650000Y-84950000D01*
X98716666Y-84983333D01*
X98750000Y-85016666D01*
X98783333Y-85083333D01*
X98783333Y-85283333D01*
X98750000Y-85350000D01*
X98716666Y-85383333D01*
X98650000Y-85416666D01*
X98516666Y-85416666D01*
X98450000Y-85383333D01*
X99016666Y-84950000D02*
X99183333Y-85416666D01*
X99350000Y-84950000D02*
X99183333Y-85416666D01*
X99116666Y-85583333D01*
X99083333Y-85616666D01*
X99016666Y-85650000D01*
X100083333Y-84716666D02*
X100250000Y-85416666D01*
X100383333Y-84916666D01*
X100516666Y-85416666D01*
X100683333Y-84716666D01*
X100950000Y-85416666D02*
X100950000Y-84950000D01*
X100950000Y-84716666D02*
X100916666Y-84750000D01*
X100950000Y-84783333D01*
X100983333Y-84750000D01*
X100950000Y-84716666D01*
X100950000Y-84783333D01*
X101383333Y-85416666D02*
X101316666Y-85383333D01*
X101283333Y-85316666D01*
X101283333Y-84716666D01*
X101750000Y-85416666D02*
X101683333Y-85383333D01*
X101650000Y-85316666D01*
X101650000Y-84716666D01*
X102483333Y-84716666D02*
X102650000Y-85416666D01*
X102783333Y-84916666D01*
X102916666Y-85416666D01*
X103083333Y-84716666D01*
X103350000Y-85416666D02*
X103350000Y-84716666D01*
X103650000Y-85416666D02*
X103650000Y-85050000D01*
X103616666Y-84983333D01*
X103550000Y-84950000D01*
X103450000Y-84950000D01*
X103383333Y-84983333D01*
X103350000Y-85016666D01*
X104283333Y-85416666D02*
X104283333Y-85050000D01*
X104250000Y-84983333D01*
X104183333Y-84950000D01*
X104050000Y-84950000D01*
X103983333Y-84983333D01*
X104283333Y-85383333D02*
X104216666Y-85416666D01*
X104050000Y-85416666D01*
X103983333Y-85383333D01*
X103950000Y-85316666D01*
X103950000Y-85250000D01*
X103983333Y-85183333D01*
X104050000Y-85150000D01*
X104216666Y-85150000D01*
X104283333Y-85116666D01*
X104616666Y-84950000D02*
X104616666Y-85416666D01*
X104616666Y-85016666D02*
X104650000Y-84983333D01*
X104716666Y-84950000D01*
X104816666Y-84950000D01*
X104883333Y-84983333D01*
X104916666Y-85050000D01*
X104916666Y-85416666D01*
X105550000Y-84950000D02*
X105550000Y-85516666D01*
X105516666Y-85583333D01*
X105483333Y-85616666D01*
X105416666Y-85650000D01*
X105316666Y-85650000D01*
X105250000Y-85616666D01*
X105550000Y-85383333D02*
X105483333Y-85416666D01*
X105350000Y-85416666D01*
X105283333Y-85383333D01*
X105250000Y-85350000D01*
X105216666Y-85283333D01*
X105216666Y-85083333D01*
X105250000Y-85016666D01*
X105283333Y-84983333D01*
X105350000Y-84950000D01*
X105483333Y-84950000D01*
X105550000Y-84983333D01*
X96733333Y-85910333D02*
X96766666Y-85877000D01*
X96833333Y-85843666D01*
X97000000Y-85843666D01*
X97066666Y-85877000D01*
X97100000Y-85910333D01*
X97133333Y-85977000D01*
X97133333Y-86043666D01*
X97100000Y-86143666D01*
X96700000Y-86543666D01*
X97133333Y-86543666D01*
X97566666Y-85843666D02*
X97633333Y-85843666D01*
X97700000Y-85877000D01*
X97733333Y-85910333D01*
X97766666Y-85977000D01*
X97800000Y-86110333D01*
X97800000Y-86277000D01*
X97766666Y-86410333D01*
X97733333Y-86477000D01*
X97700000Y-86510333D01*
X97633333Y-86543666D01*
X97566666Y-86543666D01*
X97500000Y-86510333D01*
X97466666Y-86477000D01*
X97433333Y-86410333D01*
X97400000Y-86277000D01*
X97400000Y-86110333D01*
X97433333Y-85977000D01*
X97466666Y-85910333D01*
X97500000Y-85877000D01*
X97566666Y-85843666D01*
X98066666Y-85910333D02*
X98100000Y-85877000D01*
X98166666Y-85843666D01*
X98333333Y-85843666D01*
X98400000Y-85877000D01*
X98433333Y-85910333D01*
X98466666Y-85977000D01*
X98466666Y-86043666D01*
X98433333Y-86143666D01*
X98033333Y-86543666D01*
X98466666Y-86543666D01*
X99066666Y-86077000D02*
X99066666Y-86543666D01*
X98900000Y-85810333D02*
X98733333Y-86310333D01*
X99166666Y-86310333D01*
X99933333Y-85810333D02*
X99333333Y-86710333D01*
X100300000Y-85843666D02*
X100366666Y-85843666D01*
X100433333Y-85877000D01*
X100466666Y-85910333D01*
X100500000Y-85977000D01*
X100533333Y-86110333D01*
X100533333Y-86277000D01*
X100500000Y-86410333D01*
X100466666Y-86477000D01*
X100433333Y-86510333D01*
X100366666Y-86543666D01*
X100300000Y-86543666D01*
X100233333Y-86510333D01*
X100200000Y-86477000D01*
X100166666Y-86410333D01*
X100133333Y-86277000D01*
X100133333Y-86110333D01*
X100166666Y-85977000D01*
X100200000Y-85910333D01*
X100233333Y-85877000D01*
X100300000Y-85843666D01*
X100766666Y-85843666D02*
X101233333Y-85843666D01*
X100933333Y-86543666D01*
X102000000Y-85810333D02*
X101400000Y-86710333D01*
X102366666Y-85843666D02*
X102433333Y-85843666D01*
X102500000Y-85877000D01*
X102533333Y-85910333D01*
X102566666Y-85977000D01*
X102600000Y-86110333D01*
X102600000Y-86277000D01*
X102566666Y-86410333D01*
X102533333Y-86477000D01*
X102500000Y-86510333D01*
X102433333Y-86543666D01*
X102366666Y-86543666D01*
X102300000Y-86510333D01*
X102266666Y-86477000D01*
X102233333Y-86410333D01*
X102200000Y-86277000D01*
X102200000Y-86110333D01*
X102233333Y-85977000D01*
X102266666Y-85910333D01*
X102300000Y-85877000D01*
X102366666Y-85843666D01*
X103200000Y-86077000D02*
X103200000Y-86543666D01*
X103033333Y-85810333D02*
X102866666Y-86310333D01*
X103300000Y-86310333D01*
D13*
G04 #@! TO.C,D1*
X115450000Y-78235000D02*
G75*
G03*
X115450000Y-78235000I-50000J0D01*
G01*
D14*
G04 #@! TO.C,R6*
X93730000Y-78096359D02*
X93730000Y-78403641D01*
X92970000Y-78096359D02*
X92970000Y-78403641D01*
G04 #@! TO.C,R3*
X115780000Y-81046359D02*
X115780000Y-81353641D01*
X115020000Y-81046359D02*
X115020000Y-81353641D01*
D15*
G04 #@! TO.C,U15*
X109487500Y-72550000D02*
X109997500Y-72550000D01*
X112487500Y-75050000D02*
X111977500Y-75050000D01*
X111977500Y-72550000D02*
X112487500Y-72550000D01*
X109487500Y-75050000D02*
X109997500Y-75050000D01*
D12*
X109087500Y-73000000D02*
G75*
G03*
X109087500Y-73000000I-100000J0D01*
G01*
D13*
G04 #@! TO.C,D4*
X93400000Y-75260000D02*
G75*
G03*
X93400000Y-75260000I-50000J0D01*
G01*
D14*
G04 #@! TO.C,U33*
X96390000Y-66390000D02*
X96390000Y-66865000D01*
X103135000Y-73610000D02*
X103610000Y-73610000D01*
X96865000Y-73610000D02*
X96390000Y-73610000D01*
X103610000Y-66390000D02*
X103610000Y-66865000D01*
X96390000Y-73610000D02*
X96390000Y-73135000D01*
X96865000Y-66390000D02*
X96390000Y-66390000D01*
X103135000Y-66390000D02*
X103610000Y-66390000D01*
G04 #@! TO.C,C67*
X106110000Y-80157836D02*
X106110000Y-79942164D01*
X105390000Y-80157836D02*
X105390000Y-79942164D01*
D15*
G04 #@! TO.C,U31*
X88022500Y-67450000D02*
X87512500Y-67450000D01*
X87512500Y-64950000D02*
X88022500Y-64950000D01*
X90512500Y-67450000D02*
X90002500Y-67450000D01*
X90512500Y-64950000D02*
X90002500Y-64950000D01*
D12*
X91112500Y-67000000D02*
G75*
G03*
X91112500Y-67000000I-100000J0D01*
G01*
D14*
G04 #@! TO.C,C40*
X106407836Y-67740000D02*
X106192164Y-67740000D01*
X106407836Y-68460000D02*
X106192164Y-68460000D01*
G04 #@! TO.C,TP4*
X105200000Y-53900000D02*
G75*
G03*
X105200000Y-53900000I-700000J0D01*
G01*
G04 #@! TO.C,C84*
X87942164Y-71540000D02*
X88157836Y-71540000D01*
X87942164Y-72260000D02*
X88157836Y-72260000D01*
D15*
G04 #@! TO.C,U32*
X90512500Y-61150000D02*
X90002500Y-61150000D01*
X88022500Y-63650000D02*
X87512500Y-63650000D01*
X87512500Y-61150000D02*
X88022500Y-61150000D01*
X90512500Y-63650000D02*
X90002500Y-63650000D01*
D12*
X91112500Y-63200000D02*
G75*
G03*
X91112500Y-63200000I-100000J0D01*
G01*
D14*
G04 #@! TO.C,C69*
X97740000Y-80157836D02*
X97740000Y-79942164D01*
X98460000Y-80157836D02*
X98460000Y-79942164D01*
G04 #@! TO.C,C35*
X112007836Y-64635000D02*
X111792164Y-64635000D01*
X112007836Y-63915000D02*
X111792164Y-63915000D01*
D15*
G04 #@! TO.C,U22*
X98750000Y-79487500D02*
X98750000Y-79997500D01*
X101250000Y-79487500D02*
X101250000Y-79997500D01*
X98750000Y-82487500D02*
X98750000Y-81977500D01*
X101250000Y-81977500D02*
X101250000Y-82487500D01*
D12*
X100900000Y-78987500D02*
G75*
G03*
X100900000Y-78987500I-100000J0D01*
G01*
D14*
G04 #@! TO.C,TP1*
X114900000Y-62600000D02*
G75*
G03*
X114900000Y-62600000I-700000J0D01*
G01*
G04 #@! TO.C,C37*
X112007836Y-71540000D02*
X111792164Y-71540000D01*
X112007836Y-72260000D02*
X111792164Y-72260000D01*
G04 #@! TO.C,C34*
X108295336Y-75340000D02*
X108079664Y-75340000D01*
X108295336Y-76060000D02*
X108079664Y-76060000D01*
D15*
G04 #@! TO.C,U28*
X87512500Y-76350000D02*
X88022500Y-76350000D01*
X88022500Y-78850000D02*
X87512500Y-78850000D01*
X90512500Y-78850000D02*
X90002500Y-78850000D01*
X90512500Y-76350000D02*
X90002500Y-76350000D01*
D12*
X91112500Y-78400000D02*
G75*
G03*
X91112500Y-78400000I-100000J0D01*
G01*
D14*
G04 #@! TO.C,C44*
X110157836Y-68460000D02*
X109942164Y-68460000D01*
X110157836Y-67740000D02*
X109942164Y-67740000D01*
G04 #@! TO.C,C94*
X89804664Y-64660000D02*
X90020336Y-64660000D01*
X89804664Y-63940000D02*
X90020336Y-63940000D01*
G04 #@! TO.C,C65*
X98460000Y-76407836D02*
X98460000Y-76192164D01*
X97740000Y-76407836D02*
X97740000Y-76192164D01*
G04 #@! TO.C,C47*
X110157836Y-79860000D02*
X109942164Y-79860000D01*
X110157836Y-79140000D02*
X109942164Y-79140000D01*
G04 #@! TO.C,C14*
X106060000Y-57892164D02*
X106060000Y-58107836D01*
X105340000Y-57892164D02*
X105340000Y-58107836D01*
G04 #@! TO.C,C19*
X94660000Y-59842164D02*
X94660000Y-60057836D01*
X93940000Y-59842164D02*
X93940000Y-60057836D01*
D15*
G04 #@! TO.C,U26*
X91200000Y-68750000D02*
X91710000Y-68750000D01*
X94200000Y-71250000D02*
X93690000Y-71250000D01*
X94200000Y-68750000D02*
X93690000Y-68750000D01*
X91710000Y-71250000D02*
X91200000Y-71250000D01*
D12*
X94800000Y-70800000D02*
G75*
G03*
X94800000Y-70800000I-100000J0D01*
G01*
D14*
G04 #@! TO.C,C12*
X97740000Y-57992164D02*
X97740000Y-58207836D01*
X98460000Y-57992164D02*
X98460000Y-58207836D01*
G04 #@! TO.C,C64*
X101540000Y-76407836D02*
X101540000Y-76192164D01*
X102260000Y-76407836D02*
X102260000Y-76192164D01*
G04 #@! TO.C,TP7*
X111200000Y-53900000D02*
G75*
G03*
X111200000Y-53900000I-700000J0D01*
G01*
D13*
G04 #@! TO.C,D2*
X91400000Y-75260000D02*
G75*
G03*
X91400000Y-75260000I-50000J0D01*
G01*
D14*
G04 #@! TO.C,C5*
X105260000Y-73292164D02*
X105260000Y-73507836D01*
X104540000Y-73292164D02*
X104540000Y-73507836D01*
D15*
G04 #@! TO.C,U1*
X97450000Y-61187500D02*
X97450000Y-61697500D01*
X97450000Y-64187500D02*
X97450000Y-63677500D01*
X94950000Y-61697500D02*
X94950000Y-61187500D01*
X94950000Y-64187500D02*
X94950000Y-63677500D01*
D12*
X95500000Y-64687500D02*
G75*
G03*
X95500000Y-64687500I-100000J0D01*
G01*
D14*
G04 #@! TO.C,C87*
X87992164Y-60140000D02*
X88207836Y-60140000D01*
X87992164Y-60860000D02*
X88207836Y-60860000D01*
G04 #@! TO.C,C18*
X106060000Y-63442164D02*
X106060000Y-63657836D01*
X105340000Y-63442164D02*
X105340000Y-63657836D01*
D15*
G04 #@! TO.C,U11*
X105800000Y-72550000D02*
X106310000Y-72550000D01*
X108290000Y-72550000D02*
X108800000Y-72550000D01*
X108800000Y-75050000D02*
X108290000Y-75050000D01*
X105800000Y-75050000D02*
X106310000Y-75050000D01*
D12*
X105400000Y-73000000D02*
G75*
G03*
X105400000Y-73000000I-100000J0D01*
G01*
D15*
G04 #@! TO.C,U8*
X106350000Y-58010000D02*
X106350000Y-57500000D01*
X106350000Y-60500000D02*
X106350000Y-59990000D01*
X108850000Y-57500000D02*
X108850000Y-58010000D01*
X108850000Y-60500000D02*
X108850000Y-59990000D01*
D12*
X106900000Y-61000000D02*
G75*
G03*
X106900000Y-61000000I-100000J0D01*
G01*
D14*
G04 #@! TO.C,C1*
X98692164Y-64690000D02*
X98907836Y-64690000D01*
X98692164Y-65410000D02*
X98907836Y-65410000D01*
G04 #@! TO.C,C66*
X93940000Y-76407836D02*
X93940000Y-76192164D01*
X94660000Y-76407836D02*
X94660000Y-76192164D01*
G04 #@! TO.C,R5*
X91970000Y-78096359D02*
X91970000Y-78403641D01*
X92730000Y-78096359D02*
X92730000Y-78403641D01*
G04 #@! TO.C,TP6*
X107200000Y-53900000D02*
G75*
G03*
X107200000Y-53900000I-700000J0D01*
G01*
G04 #@! TO.C,C8*
X106060000Y-61592164D02*
X106060000Y-61807836D01*
X105340000Y-61592164D02*
X105340000Y-61807836D01*
G04 #@! TO.C,C92*
X89804664Y-71540000D02*
X90020336Y-71540000D01*
X89804664Y-72260000D02*
X90020336Y-72260000D01*
G04 #@! TO.C,C2*
X95460000Y-72442164D02*
X95460000Y-72657836D01*
X94740000Y-72442164D02*
X94740000Y-72657836D01*
G04 #@! TO.C,C88*
X93604664Y-71540000D02*
X93820336Y-71540000D01*
X93604664Y-72260000D02*
X93820336Y-72260000D01*
G04 #@! TO.C,C80*
X91742164Y-72260000D02*
X91957836Y-72260000D01*
X91742164Y-71540000D02*
X91957836Y-71540000D01*
G04 #@! TO.C,C61*
X97740000Y-82007836D02*
X97740000Y-81792164D01*
X98460000Y-82007836D02*
X98460000Y-81792164D01*
G04 #@! TO.C,C91*
X89804664Y-76110000D02*
X90020336Y-76110000D01*
X89804664Y-75390000D02*
X90020336Y-75390000D01*
D15*
G04 #@! TO.C,U25*
X91200000Y-72550000D02*
X91710000Y-72550000D01*
X94200000Y-72550000D02*
X93690000Y-72550000D01*
X94200000Y-75050000D02*
X93690000Y-75050000D01*
X91710000Y-75050000D02*
X91200000Y-75050000D01*
D12*
X94800000Y-74600000D02*
G75*
G03*
X94800000Y-74600000I-100000J0D01*
G01*
D14*
G04 #@! TO.C,TP5*
X109200000Y-53900000D02*
G75*
G03*
X109200000Y-53900000I-700000J0D01*
G01*
D15*
G04 #@! TO.C,U16*
X109487500Y-76350000D02*
X109997500Y-76350000D01*
X112487500Y-78850000D02*
X111977500Y-78850000D01*
X109487500Y-78850000D02*
X109997500Y-78850000D01*
X111977500Y-76350000D02*
X112487500Y-76350000D01*
D12*
X109087500Y-76800000D02*
G75*
G03*
X109087500Y-76800000I-100000J0D01*
G01*
D14*
G04 #@! TO.C,C33*
X108295336Y-72260000D02*
X108079664Y-72260000D01*
X108295336Y-71540000D02*
X108079664Y-71540000D01*
D15*
G04 #@! TO.C,U4*
X91150000Y-58010000D02*
X91150000Y-57500000D01*
X93650000Y-60500000D02*
X93650000Y-59990000D01*
X93650000Y-57500000D02*
X93650000Y-58010000D01*
X91150000Y-60500000D02*
X91150000Y-59990000D01*
D12*
X91700000Y-61000000D02*
G75*
G03*
X91700000Y-61000000I-100000J0D01*
G01*
D15*
G04 #@! TO.C,U5*
X94950000Y-60500000D02*
X94950000Y-59990000D01*
X97450000Y-60500000D02*
X97450000Y-59990000D01*
X97450000Y-57500000D02*
X97450000Y-58010000D01*
X94950000Y-58010000D02*
X94950000Y-57500000D01*
D12*
X95500000Y-61000000D02*
G75*
G03*
X95500000Y-61000000I-100000J0D01*
G01*
D15*
G04 #@! TO.C,U30*
X88022500Y-71250000D02*
X87512500Y-71250000D01*
X90512500Y-68750000D02*
X90002500Y-68750000D01*
X90512500Y-71250000D02*
X90002500Y-71250000D01*
X87512500Y-68750000D02*
X88022500Y-68750000D01*
D12*
X91112500Y-70800000D02*
G75*
G03*
X91112500Y-70800000I-100000J0D01*
G01*
D14*
G04 #@! TO.C,C60*
X102260000Y-82007836D02*
X102260000Y-81792164D01*
X101540000Y-82007836D02*
X101540000Y-81792164D01*
G04 #@! TO.C,C58*
X93940000Y-78307836D02*
X93940000Y-78092164D01*
X94660000Y-78307836D02*
X94660000Y-78092164D01*
G04 #@! TO.C,C95*
X89842164Y-60860000D02*
X90057836Y-60860000D01*
X89842164Y-60140000D02*
X90057836Y-60140000D01*
G04 #@! TO.C,C6*
X101540000Y-61692164D02*
X101540000Y-61907836D01*
X102260000Y-61692164D02*
X102260000Y-61907836D01*
D15*
G04 #@! TO.C,U13*
X109487500Y-64950000D02*
X109997500Y-64950000D01*
X109487500Y-67450000D02*
X109997500Y-67450000D01*
X111977500Y-64950000D02*
X112487500Y-64950000D01*
X112487500Y-67450000D02*
X111977500Y-67450000D01*
D12*
X109087500Y-65400000D02*
G75*
G03*
X109087500Y-65400000I-100000J0D01*
G01*
D14*
G04 #@! TO.C,C38*
X112007836Y-76060000D02*
X111792164Y-76060000D01*
X112007836Y-75340000D02*
X111792164Y-75340000D01*
D15*
G04 #@! TO.C,U14*
X109487500Y-68750000D02*
X109997500Y-68750000D01*
X112487500Y-71250000D02*
X111977500Y-71250000D01*
X109487500Y-71250000D02*
X109997500Y-71250000D01*
X111977500Y-68750000D02*
X112487500Y-68750000D01*
D12*
X109087500Y-69200000D02*
G75*
G03*
X109087500Y-69200000I-100000J0D01*
G01*
D14*
G04 #@! TO.C,C17*
X101540000Y-63642164D02*
X101540000Y-63857836D01*
X102260000Y-63642164D02*
X102260000Y-63857836D01*
D15*
G04 #@! TO.C,U12*
X109487500Y-61150000D02*
X109997500Y-61150000D01*
X111977500Y-61150000D02*
X112487500Y-61150000D01*
X112487500Y-63650000D02*
X111977500Y-63650000D01*
X109487500Y-63650000D02*
X109997500Y-63650000D01*
D12*
X109087500Y-61600000D02*
G75*
G03*
X109087500Y-61600000I-100000J0D01*
G01*
D14*
G04 #@! TO.C,C21*
X101540000Y-59842164D02*
X101540000Y-60057836D01*
X102260000Y-59842164D02*
X102260000Y-60057836D01*
G04 #@! TO.C,C59*
X105390000Y-82007836D02*
X105390000Y-81792164D01*
X106110000Y-82007836D02*
X106110000Y-81792164D01*
G04 #@! TO.C,C57*
X97740000Y-78307836D02*
X97740000Y-78092164D01*
X98460000Y-78307836D02*
X98460000Y-78092164D01*
D15*
G04 #@! TO.C,U21*
X102550000Y-79487500D02*
X102550000Y-79997500D01*
X105050000Y-79487500D02*
X105050000Y-79997500D01*
X102550000Y-82487500D02*
X102550000Y-81977500D01*
X105050000Y-81977500D02*
X105050000Y-82487500D01*
D12*
X104700000Y-78987500D02*
G75*
G03*
X104700000Y-78987500I-100000J0D01*
G01*
D15*
G04 #@! TO.C,U9*
X108800000Y-67450000D02*
X108290000Y-67450000D01*
X105800000Y-64950000D02*
X106310000Y-64950000D01*
X105800000Y-67450000D02*
X106310000Y-67450000D01*
X108290000Y-64950000D02*
X108800000Y-64950000D01*
D12*
X105400000Y-65400000D02*
G75*
G03*
X105400000Y-65400000I-100000J0D01*
G01*
D14*
G04 #@! TO.C,C85*
X87942164Y-67740000D02*
X88157836Y-67740000D01*
X87942164Y-68460000D02*
X88157836Y-68460000D01*
D15*
G04 #@! TO.C,U7*
X105050000Y-60500000D02*
X105050000Y-59990000D01*
X102550000Y-58010000D02*
X102550000Y-57500000D01*
X105050000Y-57500000D02*
X105050000Y-58010000D01*
X102550000Y-60500000D02*
X102550000Y-59990000D01*
D12*
X103100000Y-61000000D02*
G75*
G03*
X103100000Y-61000000I-100000J0D01*
G01*
D14*
G04 #@! TO.C,C42*
X106395336Y-75340000D02*
X106179664Y-75340000D01*
X106395336Y-76060000D02*
X106179664Y-76060000D01*
D15*
G04 #@! TO.C,U10*
X105800000Y-71250000D02*
X106310000Y-71250000D01*
X105800000Y-68750000D02*
X106310000Y-68750000D01*
X108800000Y-71250000D02*
X108290000Y-71250000D01*
X108290000Y-68750000D02*
X108800000Y-68750000D01*
D12*
X105400000Y-69200000D02*
G75*
G03*
X105400000Y-69200000I-100000J0D01*
G01*
D14*
G04 #@! TO.C,C15*
X109860000Y-57892164D02*
X109860000Y-58107836D01*
X109140000Y-57892164D02*
X109140000Y-58107836D01*
G04 #@! TO.C,C86*
X87942164Y-64660000D02*
X88157836Y-64660000D01*
X87942164Y-63940000D02*
X88157836Y-63940000D01*
G04 #@! TO.C,C16*
X97740000Y-63542164D02*
X97740000Y-63757836D01*
X98460000Y-63542164D02*
X98460000Y-63757836D01*
G04 #@! TO.C,C32*
X108307836Y-67740000D02*
X108092164Y-67740000D01*
X108307836Y-68460000D02*
X108092164Y-68460000D01*
G04 #@! TO.C,C93*
X89804664Y-67740000D02*
X90020336Y-67740000D01*
X89804664Y-68460000D02*
X90020336Y-68460000D01*
D15*
G04 #@! TO.C,U27*
X91710000Y-67450000D02*
X91200000Y-67450000D01*
X94200000Y-67450000D02*
X93690000Y-67450000D01*
X94200000Y-64950000D02*
X93690000Y-64950000D01*
X91200000Y-64950000D02*
X91710000Y-64950000D01*
D12*
X94800000Y-67000000D02*
G75*
G03*
X94800000Y-67000000I-100000J0D01*
G01*
D14*
G04 #@! TO.C,R4*
X90970000Y-78096359D02*
X90970000Y-78403641D01*
X91730000Y-78096359D02*
X91730000Y-78403641D01*
D15*
G04 #@! TO.C,U6*
X98750000Y-60500000D02*
X98750000Y-59990000D01*
X98750000Y-58010000D02*
X98750000Y-57500000D01*
X101250000Y-60500000D02*
X101250000Y-59990000D01*
X101250000Y-57500000D02*
X101250000Y-58010000D01*
D12*
X99300000Y-61000000D02*
G75*
G03*
X99300000Y-61000000I-100000J0D01*
G01*
D14*
G04 #@! TO.C,C7*
X95460000Y-68557836D02*
X95460000Y-68342164D01*
X94740000Y-68557836D02*
X94740000Y-68342164D01*
G04 #@! TO.C,C20*
X97740000Y-59842164D02*
X97740000Y-60057836D01*
X98460000Y-59842164D02*
X98460000Y-60057836D01*
G04 #@! TO.C,C111*
X96807836Y-64690000D02*
X96592164Y-64690000D01*
X96807836Y-65410000D02*
X96592164Y-65410000D01*
D15*
G04 #@! TO.C,U3*
X105050000Y-64187500D02*
X105050000Y-63677500D01*
X102550000Y-61697500D02*
X102550000Y-61187500D01*
X105050000Y-61187500D02*
X105050000Y-61697500D01*
X102550000Y-64187500D02*
X102550000Y-63677500D01*
D12*
X103100000Y-64687500D02*
G75*
G03*
X103100000Y-64687500I-100000J0D01*
G01*
D14*
G04 #@! TO.C,C56*
X102260000Y-78307836D02*
X102260000Y-78092164D01*
X101540000Y-78307836D02*
X101540000Y-78092164D01*
G04 #@! TO.C,C71*
X90140000Y-80157836D02*
X90140000Y-79942164D01*
X90860000Y-80157836D02*
X90860000Y-79942164D01*
G04 #@! TO.C,C9*
X94740000Y-70242164D02*
X94740000Y-70457836D01*
X95460000Y-70242164D02*
X95460000Y-70457836D01*
G04 #@! TO.C,C82*
X91742164Y-64660000D02*
X91957836Y-64660000D01*
X91742164Y-63940000D02*
X91957836Y-63940000D01*
G04 #@! TO.C,C68*
X102260000Y-80157836D02*
X102260000Y-79942164D01*
X101540000Y-80157836D02*
X101540000Y-79942164D01*
G04 #@! TO.C,C43*
X110157836Y-64635000D02*
X109942164Y-64635000D01*
X110157836Y-63915000D02*
X109942164Y-63915000D01*
G04 #@! TO.C,C36*
X112007836Y-68460000D02*
X111792164Y-68460000D01*
X112007836Y-67740000D02*
X111792164Y-67740000D01*
G04 #@! TO.C,C70*
X94660000Y-80157836D02*
X94660000Y-79942164D01*
X93940000Y-80157836D02*
X93940000Y-79942164D01*
D15*
G04 #@! TO.C,U19*
X94950000Y-78800000D02*
X94950000Y-78290000D01*
X94950000Y-75800000D02*
X94950000Y-76310000D01*
X97450000Y-78290000D02*
X97450000Y-78800000D01*
X97450000Y-75800000D02*
X97450000Y-76310000D01*
D12*
X97100000Y-75300000D02*
G75*
G03*
X97100000Y-75300000I-100000J0D01*
G01*
D14*
G04 #@! TO.C,C39*
X112007836Y-79860000D02*
X111792164Y-79860000D01*
X112007836Y-79140000D02*
X111792164Y-79140000D01*
G04 #@! TO.C,C4*
X97740000Y-61692164D02*
X97740000Y-61907836D01*
X98460000Y-61692164D02*
X98460000Y-61907836D01*
D15*
G04 #@! TO.C,U18*
X101250000Y-78290000D02*
X101250000Y-78800000D01*
X98750000Y-75800000D02*
X98750000Y-76310000D01*
X98750000Y-78800000D02*
X98750000Y-78290000D01*
X101250000Y-75800000D02*
X101250000Y-76310000D01*
D12*
X100900000Y-75300000D02*
G75*
G03*
X100900000Y-75300000I-100000J0D01*
G01*
D14*
G04 #@! TO.C,C13*
X101540000Y-57992164D02*
X101540000Y-58207836D01*
X102260000Y-57992164D02*
X102260000Y-58207836D01*
G04 #@! TO.C,C23*
X109860000Y-59742164D02*
X109860000Y-59957836D01*
X109140000Y-59742164D02*
X109140000Y-59957836D01*
G04 #@! TO.C,C45*
X110157836Y-72260000D02*
X109942164Y-72260000D01*
X110157836Y-71540000D02*
X109942164Y-71540000D01*
G04 #@! TO.C,C11*
X93940000Y-57992164D02*
X93940000Y-58207836D01*
X94660000Y-57992164D02*
X94660000Y-58207836D01*
G04 #@! TO.C,C46*
X110157836Y-76060000D02*
X109942164Y-76060000D01*
X110157836Y-75340000D02*
X109942164Y-75340000D01*
G04 #@! TO.C,C81*
X91742164Y-67740000D02*
X91957836Y-67740000D01*
X91742164Y-68460000D02*
X91957836Y-68460000D01*
G04 #@! TO.C,C90*
X93604664Y-63940000D02*
X93820336Y-63940000D01*
X93604664Y-64660000D02*
X93820336Y-64660000D01*
G04 #@! TO.C,TP3*
X93200000Y-53900000D02*
G75*
G03*
X93200000Y-53900000I-700000J0D01*
G01*
D15*
G04 #@! TO.C,U29*
X90512500Y-75050000D02*
X90002500Y-75050000D01*
X87512500Y-72550000D02*
X88022500Y-72550000D01*
X88022500Y-75050000D02*
X87512500Y-75050000D01*
X90512500Y-72550000D02*
X90002500Y-72550000D01*
D12*
X91112500Y-74600000D02*
G75*
G03*
X91112500Y-74600000I-100000J0D01*
G01*
D14*
G04 #@! TO.C,C89*
X93604664Y-68460000D02*
X93820336Y-68460000D01*
X93604664Y-67740000D02*
X93820336Y-67740000D01*
D15*
G04 #@! TO.C,U24*
X91150000Y-82487500D02*
X91150000Y-81977500D01*
X91150000Y-79487500D02*
X91150000Y-79997500D01*
X93650000Y-81977500D02*
X93650000Y-82487500D01*
X93650000Y-79487500D02*
X93650000Y-79997500D01*
D12*
X93300000Y-78987500D02*
G75*
G03*
X93300000Y-78987500I-100000J0D01*
G01*
D14*
G04 #@! TO.C,C22*
X105340000Y-59742164D02*
X105340000Y-59957836D01*
X106060000Y-59742164D02*
X106060000Y-59957836D01*
D15*
G04 #@! TO.C,U20*
X108850000Y-79487500D02*
X108850000Y-79997500D01*
X106350000Y-82487500D02*
X106350000Y-81977500D01*
X106350000Y-79487500D02*
X106350000Y-79997500D01*
X108850000Y-81977500D02*
X108850000Y-82487500D01*
D12*
X108500000Y-78987500D02*
G75*
G03*
X108500000Y-78987500I-100000J0D01*
G01*
D13*
G04 #@! TO.C,J1*
X114662500Y-63800000D02*
X115912500Y-63800000D01*
X116162500Y-76800000D02*
X116162500Y-76800000D01*
X115912500Y-63800000D02*
X114662500Y-63800000D01*
X114662500Y-76800000D02*
X114662500Y-76300000D01*
X114662500Y-64300000D02*
X114662500Y-64300000D01*
X114662500Y-76300000D02*
X114662500Y-76800000D01*
X114662500Y-63800000D02*
X114662500Y-63800000D01*
D12*
X113512500Y-75700000D02*
X113512500Y-75700000D01*
D13*
X114662500Y-76800000D02*
X116162500Y-76800000D01*
X117162500Y-64800000D02*
X117162500Y-75800000D01*
X114662500Y-63800000D02*
X114662500Y-64300000D01*
X114662500Y-76300000D02*
X114662500Y-76300000D01*
X117162500Y-64800000D02*
X117162500Y-64800000D01*
X114662500Y-63800000D02*
X114662500Y-63800000D01*
X114662500Y-64300000D02*
X114662500Y-63800000D01*
X115912500Y-63800000D02*
X115912500Y-63800000D01*
D12*
X113512500Y-75600000D02*
X113512500Y-75600000D01*
D13*
X117162500Y-75800000D02*
X117162500Y-75800000D01*
D12*
X113512500Y-75700000D02*
X113512500Y-75700000D01*
D13*
X117162500Y-75800000D02*
X117162500Y-64800000D01*
X114662500Y-76800000D02*
X114662500Y-76800000D01*
X116162500Y-76800000D02*
X114662500Y-76800000D01*
X114662500Y-76800000D02*
X114662500Y-76800000D01*
D12*
X113512500Y-75700000D02*
G75*
G03*
X113512500Y-75600000I0J50000D01*
G01*
X113512500Y-75600000D02*
G75*
G03*
X113512500Y-75700000I0J-50000D01*
G01*
X113512500Y-75700000D02*
G75*
G03*
X113512500Y-75600000I0J50000D01*
G01*
D14*
G04 #@! TO.C,C62*
X93940000Y-82007836D02*
X93940000Y-81792164D01*
X94660000Y-82007836D02*
X94660000Y-81792164D01*
G04 #@! TO.C,C41*
X106407836Y-72260000D02*
X106192164Y-72260000D01*
X106407836Y-71540000D02*
X106192164Y-71540000D01*
G04 #@! TO.C,TP2*
X90200000Y-53900000D02*
G75*
G03*
X90200000Y-53900000I-700000J0D01*
G01*
D15*
G04 #@! TO.C,U17*
X105050000Y-78290000D02*
X105050000Y-78800000D01*
X105050000Y-75800000D02*
X105050000Y-76310000D01*
X102550000Y-78800000D02*
X102550000Y-78290000D01*
X102550000Y-75800000D02*
X102550000Y-76310000D01*
D12*
X104700000Y-75300000D02*
G75*
G03*
X104700000Y-75300000I-100000J0D01*
G01*
D14*
G04 #@! TO.C,C10*
X105260000Y-71092164D02*
X105260000Y-71307836D01*
X104540000Y-71092164D02*
X104540000Y-71307836D01*
D15*
G04 #@! TO.C,U23*
X94950000Y-82487500D02*
X94950000Y-81977500D01*
X97450000Y-81977500D02*
X97450000Y-82487500D01*
X97450000Y-79487500D02*
X97450000Y-79997500D01*
X94950000Y-79487500D02*
X94950000Y-79997500D01*
D12*
X97100000Y-78987500D02*
G75*
G03*
X97100000Y-78987500I-100000J0D01*
G01*
D15*
G04 #@! TO.C,U2*
X101250000Y-61187500D02*
X101250000Y-61697500D01*
X98750000Y-64187500D02*
X98750000Y-63677500D01*
X101250000Y-64187500D02*
X101250000Y-63677500D01*
X98750000Y-61697500D02*
X98750000Y-61187500D01*
D12*
X99300000Y-64687500D02*
G75*
G03*
X99300000Y-64687500I-100000J0D01*
G01*
D14*
G04 #@! TO.C,TP8*
X108500000Y-62400000D02*
G75*
G03*
X108500000Y-62400000I-700000J0D01*
G01*
G04 #@! TO.C,C63*
X90140000Y-82007836D02*
X90140000Y-81792164D01*
X90860000Y-82007836D02*
X90860000Y-81792164D01*
G04 #@! TO.C,C83*
X87942164Y-76110000D02*
X88157836Y-76110000D01*
X87942164Y-75390000D02*
X88157836Y-75390000D01*
D13*
G04 #@! TO.C,D3*
X92400000Y-75260000D02*
G75*
G03*
X92400000Y-75260000I-50000J0D01*
G01*
G04 #@! TD*
M02*
