G04 #@! TF.GenerationSoftware,KiCad,Pcbnew,(6.0.9)*
G04 #@! TF.CreationDate,2024-07-14T21:03:07-07:00*
G04 #@! TF.ProjectId,AccArray_QFN,41636341-7272-4617-995f-51464e2e6b69,rev?*
G04 #@! TF.SameCoordinates,Original*
G04 #@! TF.FileFunction,Legend,Bot*
G04 #@! TF.FilePolarity,Positive*
%FSLAX46Y46*%
G04 Gerber Fmt 4.6, Leading zero omitted, Abs format (unit mm)*
G04 Created by KiCad (PCBNEW (6.0.9)) date 2024-07-14 21:03:07*
%MOMM*%
%LPD*%
G01*
G04 APERTURE LIST*
%ADD10C,0.120000*%
G04 APERTURE END LIST*
D10*
G04 #@! TO.C,C75*
X106290000Y-81851788D02*
X106290000Y-81636116D01*
X107010000Y-81851788D02*
X107010000Y-81636116D01*
G04 #@! TO.C,C26*
X104390000Y-61836116D02*
X104390000Y-62051788D01*
X105110000Y-61836116D02*
X105110000Y-62051788D01*
G04 #@! TO.C,C113*
X103157836Y-71110000D02*
X102942164Y-71110000D01*
X103157836Y-70390000D02*
X102942164Y-70390000D01*
G04 #@! TO.C,C52*
X111807836Y-66783952D02*
X111592164Y-66783952D01*
X111807836Y-67503952D02*
X111592164Y-67503952D01*
G04 #@! TO.C,C97*
X91892164Y-68683952D02*
X92107836Y-68683952D01*
X91892164Y-69403952D02*
X92107836Y-69403952D01*
G04 #@! TO.C,C54*
X111807836Y-74383952D02*
X111592164Y-74383952D01*
X111807836Y-75103952D02*
X111592164Y-75103952D01*
G04 #@! TO.C,C78*
X94890000Y-81851788D02*
X94890000Y-81636116D01*
X95610000Y-81851788D02*
X95610000Y-81636116D01*
G04 #@! TO.C,C102*
X88192164Y-65610000D02*
X88407836Y-65610000D01*
X88192164Y-64890000D02*
X88407836Y-64890000D01*
G04 #@! TO.C,C96*
X91892164Y-72483952D02*
X92107836Y-72483952D01*
X91892164Y-73203952D02*
X92107836Y-73203952D01*
G04 #@! TO.C,C72*
X102490000Y-78101788D02*
X102490000Y-77886116D01*
X103210000Y-78101788D02*
X103210000Y-77886116D01*
G04 #@! TO.C,C53*
X111807836Y-70583952D02*
X111592164Y-70583952D01*
X111807836Y-71303952D02*
X111592164Y-71303952D01*
G04 #@! TO.C,C48*
X108157836Y-67453952D02*
X107942164Y-67453952D01*
X108157836Y-66733952D02*
X107942164Y-66733952D01*
G04 #@! TO.C,C51*
X111807836Y-63703952D02*
X111592164Y-63703952D01*
X111807836Y-62983952D02*
X111592164Y-62983952D01*
G04 #@! TO.C,C77*
X99410000Y-81851788D02*
X99410000Y-81636116D01*
X98690000Y-81851788D02*
X98690000Y-81636116D01*
G04 #@! TO.C,C29*
X101310000Y-58136116D02*
X101310000Y-58351788D01*
X100590000Y-58136116D02*
X100590000Y-58351788D01*
G04 #@! TO.C,C50*
X108157836Y-74383952D02*
X107942164Y-74383952D01*
X108157836Y-75103952D02*
X107942164Y-75103952D01*
G04 #@! TO.C,C55*
X111807836Y-78903952D02*
X111592164Y-78903952D01*
X111807836Y-78183952D02*
X111592164Y-78183952D01*
G04 #@! TO.C,C100*
X88192164Y-72483952D02*
X88407836Y-72483952D01*
X88192164Y-73203952D02*
X88407836Y-73203952D01*
G04 #@! TO.C,C30*
X104390000Y-58136116D02*
X104390000Y-58351788D01*
X105110000Y-58136116D02*
X105110000Y-58351788D01*
G04 #@! TO.C,C101*
X88192164Y-68690000D02*
X88407836Y-68690000D01*
X88192164Y-69410000D02*
X88407836Y-69410000D01*
G04 #@! TO.C,C49*
X108157836Y-71303952D02*
X107942164Y-71303952D01*
X108157836Y-70583952D02*
X107942164Y-70583952D01*
G04 #@! TO.C,C99*
X88192164Y-77003952D02*
X88407836Y-77003952D01*
X88192164Y-76283952D02*
X88407836Y-76283952D01*
G04 #@! TO.C,C112*
X95492164Y-69860000D02*
X95707836Y-69860000D01*
X95492164Y-69140000D02*
X95707836Y-69140000D01*
G04 #@! TO.C,C24*
X96790000Y-61836116D02*
X96790000Y-62051788D01*
X97510000Y-61836116D02*
X97510000Y-62051788D01*
G04 #@! TO.C,C76*
X103210000Y-81851788D02*
X103210000Y-81636116D01*
X102490000Y-81851788D02*
X102490000Y-81636116D01*
G04 #@! TO.C,C31*
X108910000Y-58136116D02*
X108910000Y-58351788D01*
X108190000Y-58136116D02*
X108190000Y-58351788D01*
G04 #@! TO.C,C73*
X98690000Y-78201788D02*
X98690000Y-77986116D01*
X99410000Y-78201788D02*
X99410000Y-77986116D01*
G04 #@! TO.C,C79*
X91810000Y-81851788D02*
X91810000Y-81636116D01*
X91090000Y-81851788D02*
X91090000Y-81636116D01*
G04 #@! TO.C,C103*
X88192164Y-61810000D02*
X88407836Y-61810000D01*
X88192164Y-61090000D02*
X88407836Y-61090000D01*
G04 #@! TO.C,C27*
X92990000Y-58136116D02*
X92990000Y-58351788D01*
X93710000Y-58136116D02*
X93710000Y-58351788D01*
G04 #@! TO.C,C3*
X98110000Y-66892164D02*
X98110000Y-67107836D01*
X97390000Y-66892164D02*
X97390000Y-67107836D01*
G04 #@! TO.C,C98*
X91892164Y-65603952D02*
X92107836Y-65603952D01*
X91892164Y-64883952D02*
X92107836Y-64883952D01*
G04 #@! TO.C,C25*
X100590000Y-61836116D02*
X100590000Y-62051788D01*
X101310000Y-61836116D02*
X101310000Y-62051788D01*
G04 #@! TO.C,C28*
X97510000Y-58136116D02*
X97510000Y-58351788D01*
X96790000Y-58136116D02*
X96790000Y-58351788D01*
G04 #@! TO.C,C74*
X94890000Y-78101788D02*
X94890000Y-77886116D01*
X95610000Y-78101788D02*
X95610000Y-77886116D01*
G04 #@! TD*
M02*
