M48
; DRILL file {KiCad (6.0.9)} date Sun Jul 14 21:03:08 2024
; FORMAT={-:-/ absolute / inch / decimal}
; #@! TF.CreationDate,2024-07-14T21:03:08-07:00
; #@! TF.GenerationSoftware,Kicad,Pcbnew,(6.0.9)
; #@! TF.FileFunction,Plated,1,6,PTH
FMAT,2
INCH
; #@! TA.AperFunction,Plated,PTH,ViaDrill
T1C0.0079
%
G90
G05
T1
X3.2559Y-2.1772
X3.2559Y-2.2165
X3.2559Y-2.2559
X3.2559Y-2.2953
X3.2559Y-2.3219
X3.2559Y-2.3612
X3.2559Y-2.4006
X3.2559Y-2.44
X3.2559Y-2.4793
X3.2559Y-2.5187
X3.2559Y-2.5581
X3.2559Y-2.5974
X3.2559Y-2.6368
X3.2559Y-2.6762
X3.2559Y-2.7156
X3.2559Y-2.7549
X3.2559Y-2.7943
X3.2559Y-2.8337
X3.2559Y-2.873
X3.2559Y-2.9124
X3.2559Y-2.9518
X3.2559Y-2.9911
X3.2559Y-3.0305
X3.2559Y-3.0699
X3.2559Y-3.1093
X3.2559Y-3.1486
X3.2559Y-3.188
X3.2559Y-3.2274
X3.2559Y-3.2667
X3.2559Y-3.3061
X3.2559Y-3.3455
X3.2559Y-3.3848
X3.2598Y-2.1339
X3.2756Y-3.4154
X3.2766Y-2.1024
X3.3071Y-2.0827
X3.3071Y-3.4321
X3.3465Y-2.0827
X3.3504Y-3.436
X3.3858Y-2.0827
X3.3898Y-3.436
X3.4252Y-2.0827
X3.4291Y-3.436
X3.4586Y-2.4272
X3.4586Y-2.4469
X3.4586Y-2.4862
X3.4586Y-2.5768
X3.4586Y-2.5965
X3.4586Y-2.6358
X3.4586Y-2.7264
X3.4586Y-2.7461
X3.4586Y-2.7854
X3.4586Y-2.876
X3.4586Y-2.8957
X3.4586Y-2.935
X3.4586Y-3.0256
X3.4586Y-3.0453
X3.4586Y-3.0846
X3.4646Y-2.0827
X3.4685Y-3.436
X3.4847Y-2.4207
X3.4847Y-2.4927
X3.4847Y-2.5703
X3.4847Y-2.6423
X3.4847Y-2.7199
X3.4847Y-2.7919
X3.4847Y-2.8695
X3.4847Y-2.9415
X3.4847Y-3.0191
X3.4847Y-3.0911
X3.5039Y-2.0827
X3.5044Y-2.4927
X3.5044Y-2.6423
X3.5044Y-2.7919
X3.5044Y-2.9415
X3.5044Y-3.0911
X3.5079Y-3.436
X3.5236Y-2.122
X3.5241Y-2.4207
X3.5241Y-2.4927
X3.5241Y-2.5703
X3.5241Y-2.6423
X3.5241Y-2.7199
X3.5241Y-2.7919
X3.5241Y-2.8695
X3.5241Y-2.9415
X3.5241Y-3.0191
X3.5241Y-3.0911
X3.5433Y-2.0827
X3.5472Y-3.436
X3.5503Y-2.4862
X3.5503Y-2.6358
X3.5503Y-2.7854
X3.5503Y-2.935
X3.5503Y-3.0846
X3.5827Y-2.0827
X3.5866Y-3.436
X3.5886Y-2.4469
X3.5965Y-2.9961
X3.6018Y-2.3031
X3.6018Y-2.3228
X3.6018Y-2.3425
X3.6018Y-3.1688
X3.6018Y-3.2082
X3.6037Y-2.5768
X3.6037Y-2.5965
X3.6037Y-2.6358
X3.6037Y-2.7264
X3.6037Y-2.7461
X3.6037Y-2.7854
X3.6037Y-2.876
X3.6037Y-2.8957
X3.6037Y-2.935
X3.6083Y-2.277
X3.6083Y-2.3687
X3.6083Y-3.2344
X3.6142Y-3.1004
X3.622Y-2.0827
X3.626Y-3.436
X3.628Y-3.2344
X3.6299Y-2.5703
X3.6299Y-2.6423
X3.6299Y-2.7199
X3.6299Y-2.7919
X3.6299Y-2.8695
X3.6299Y-2.9415
X3.6358Y-2.502
X3.6358Y-2.9961
X3.6476Y-2.277
X3.6476Y-2.4075
X3.6496Y-2.6423
X3.6496Y-2.7919
X3.6496Y-2.9415
X3.6555Y-3.1004
X3.6614Y-2.0827
X3.6654Y-3.436
X3.6673Y-2.277
X3.6673Y-3.1426
X3.6673Y-3.2344
X3.6693Y-2.5709
X3.6693Y-2.6423
X3.6693Y-2.7205
X3.6693Y-2.7919
X3.6693Y-2.8701
X3.6693Y-2.9415
X3.6738Y-2.3031
X3.6738Y-2.3425
X3.6738Y-3.1688
X3.6738Y-3.1885
X3.6738Y-3.2082
X3.6752Y-2.9961
X3.6955Y-2.6358
X3.6955Y-2.7854
X3.6955Y-2.935
X3.7008Y-2.0827
X3.7047Y-3.436
X3.7205Y-2.8169
X3.7224Y-2.876
X3.7264Y-2.6693
X3.7402Y-2.0827
X3.7441Y-2.7213
X3.7441Y-2.7512
X3.7441Y-2.8169
X3.7441Y-3.436
X3.7514Y-2.3031
X3.7514Y-2.3228
X3.7514Y-2.3425
X3.7514Y-2.4483
X3.7514Y-2.468
X3.7514Y-2.4877
X3.7514Y-3.0236
X3.7514Y-3.063
X3.7514Y-3.1688
X3.7514Y-3.2082
X3.7579Y-2.277
X3.7579Y-2.3687
X3.7579Y-2.4221
X3.7579Y-2.5139
X3.7579Y-3.0892
X3.7579Y-3.2344
X3.7717Y-2.6476
X3.7717Y-2.6673
X3.7717Y-2.687
X3.7717Y-2.7854
X3.7717Y-2.8248
X3.7717Y-2.8445
X3.7717Y-2.8642
X3.7776Y-2.9488
X3.7776Y-3.0892
X3.7776Y-3.2344
X3.7795Y-2.0827
X3.7815Y-2.7067
X3.7815Y-2.7657
X3.7835Y-3.436
X3.7882Y-2.561
X3.7913Y-2.9311
X3.7913Y-2.9665
X3.7972Y-2.277
X3.7972Y-2.4221
X3.8169Y-2.277
X3.8169Y-2.4221
X3.8169Y-2.9974
X3.8169Y-3.0892
X3.8169Y-3.1426
X3.8169Y-3.2344
X3.8189Y-2.0827
X3.8228Y-3.436
X3.8234Y-2.3031
X3.8234Y-2.3425
X3.8234Y-2.4483
X3.8234Y-2.4877
X3.8234Y-3.0236
X3.8234Y-3.0433
X3.8234Y-3.063
X3.8234Y-3.1688
X3.8234Y-3.1885
X3.8234Y-3.2082
X3.826Y-2.5642
X3.8287Y-2.9213
X3.8346Y-2.7047
X3.8346Y-2.7559
X3.8346Y-2.8071
X3.8346Y-2.8583
X3.8484Y-2.5866
X3.8484Y-2.6567
X3.8484Y-2.9213
X3.8504Y-2.5354
X3.8583Y-2.0827
X3.8622Y-3.436
X3.8691Y-2.5628
X3.8799Y-2.9803
X3.8858Y-2.6535
X3.8858Y-2.8583
X3.8878Y-2.5866
X3.8976Y-2.0827
X3.901Y-2.3031
X3.901Y-2.3228
X3.901Y-2.3425
X3.901Y-2.4483
X3.901Y-2.468
X3.901Y-2.4877
X3.901Y-3.0236
X3.901Y-3.063
X3.901Y-3.1688
X3.901Y-3.2082
X3.9016Y-3.436
X3.9075Y-2.277
X3.9075Y-2.3687
X3.9075Y-2.4221
X3.9075Y-2.5139
X3.9075Y-2.5866
X3.9075Y-3.0892
X3.9075Y-3.2344
X3.9272Y-2.5866
X3.9272Y-2.9213
X3.9272Y-3.0892
X3.9272Y-3.2344
X3.937Y-2.0827
X3.937Y-2.6535
X3.937Y-2.8583
X3.9409Y-3.436
X3.9449Y-2.5413
X3.9469Y-2.277
X3.9469Y-2.4221
X3.9469Y-2.5866
X3.9469Y-2.9213
X3.9626Y-2.6535
X3.9665Y-2.277
X3.9665Y-2.4221
X3.9665Y-2.565
X3.9665Y-2.5866
X3.9665Y-2.9213
X3.9665Y-2.9974
X3.9665Y-3.0892
X3.9665Y-3.1426
X3.9665Y-3.2344
X3.973Y-2.3031
X3.973Y-2.3425
X3.973Y-2.4483
X3.973Y-2.4877
X3.973Y-3.0236
X3.973Y-3.0433
X3.973Y-3.063
X3.973Y-3.1688
X3.973Y-3.1885
X3.973Y-3.2082
X3.9764Y-2.0827
X3.9803Y-3.436
X3.9862Y-2.565
X3.9862Y-2.5866
X3.9862Y-2.9213
X3.9882Y-2.6535
X3.9882Y-2.8583
X4.0059Y-2.565
X4.0059Y-2.5866
X4.0059Y-2.9213
X4.0118Y-2.5287
X4.0128Y-2.6535
X4.0157Y-2.0827
X4.0197Y-3.436
X4.0256Y-2.565
X4.0256Y-2.5866
X4.0256Y-2.9213
X4.0394Y-2.6535
X4.0394Y-2.7047
X4.0394Y-2.7559
X4.0394Y-2.8071
X4.0394Y-2.8583
X4.0453Y-2.9213
X4.0506Y-2.3031
X4.0506Y-2.3228
X4.0506Y-2.3425
X4.0506Y-2.4483
X4.0506Y-2.468
X4.0506Y-2.4877
X4.0506Y-3.0236
X4.0506Y-3.063
X4.0506Y-3.1688
X4.0506Y-3.2082
X4.0551Y-2.0827
X4.0571Y-2.277
X4.0571Y-2.3687
X4.0571Y-2.4221
X4.0571Y-3.0892
X4.0571Y-3.2344
X4.0591Y-3.436
X4.0768Y-2.5354
X4.0768Y-3.0892
X4.0768Y-3.2344
X4.0945Y-2.0827
X4.0965Y-2.277
X4.0965Y-2.4221
X4.0984Y-3.436
X4.1024Y-2.687
X4.1024Y-2.7067
X4.1024Y-2.7264
X4.1024Y-2.7461
X4.1024Y-2.7657
X4.1024Y-2.8051
X4.1024Y-2.8248
X4.1024Y-2.8445
X4.1142Y-2.122
X4.1161Y-2.277
X4.1161Y-2.4221
X4.1161Y-2.9974
X4.1161Y-3.0892
X4.1161Y-3.1426
X4.1161Y-3.2344
X4.1226Y-2.3031
X4.1226Y-2.3425
X4.1226Y-2.4483
X4.1226Y-2.4877
X4.1226Y-3.0236
X4.1226Y-3.0433
X4.1226Y-3.063
X4.1226Y-3.1688
X4.1226Y-3.1885
X4.1226Y-3.2082
X4.1299Y-2.7866
X4.1299Y-2.8709
X4.1299Y-2.9087
X4.1339Y-2.0827
X4.1378Y-3.436
X4.1661Y-2.6811
X4.1661Y-2.8307
X4.1732Y-2.0827
X4.1772Y-3.436
X4.1785Y-2.5768
X4.1785Y-2.7264
X4.1785Y-2.876
X4.1929Y-2.122
X4.2002Y-2.3031
X4.2002Y-2.3228
X4.2002Y-2.3425
X4.2002Y-3.1688
X4.2002Y-3.2082
X4.2047Y-2.5703
X4.2047Y-2.6423
X4.2047Y-2.7199
X4.2047Y-2.7919
X4.2047Y-2.8695
X4.2047Y-2.9415
X4.2067Y-2.277
X4.2067Y-3.2344
X4.2126Y-2.0827
X4.2165Y-3.436
X4.2244Y-2.5703
X4.2244Y-2.7199
X4.2244Y-2.8695
X4.2264Y-2.3957
X4.2264Y-3.2344
X4.2441Y-2.5703
X4.2441Y-2.6423
X4.2441Y-2.7199
X4.2441Y-2.7919
X4.2441Y-2.8695
X4.2441Y-2.9415
X4.2461Y-2.277
X4.252Y-2.0827
X4.2559Y-3.436
X4.2657Y-2.277
X4.2657Y-3.1426
X4.2657Y-3.2344
X4.2703Y-2.5768
X4.2703Y-2.6161
X4.2703Y-2.6358
X4.2703Y-2.7264
X4.2703Y-2.7657
X4.2703Y-2.7854
X4.2703Y-2.876
X4.2703Y-2.9154
X4.2703Y-2.935
X4.2717Y-2.122
X4.2722Y-2.3031
X4.2722Y-2.3425
X4.2722Y-3.1688
X4.2722Y-3.1885
X4.2722Y-3.2082
X4.2913Y-2.0827
X4.2913Y-2.4803
X4.2953Y-3.436
X4.3237Y-2.5768
X4.3237Y-2.7264
X4.3237Y-2.876
X4.3237Y-3.0256
X4.3307Y-2.0827
X4.3346Y-3.436
X4.3499Y-2.4207
X4.3499Y-2.4927
X4.3499Y-2.5703
X4.3499Y-2.6423
X4.3499Y-2.7199
X4.3499Y-2.7919
X4.3499Y-2.8695
X4.3499Y-2.9415
X4.3499Y-3.0191
X4.3499Y-3.0911
X4.3504Y-2.122
X4.3696Y-2.4207
X4.3696Y-2.5703
X4.3696Y-2.7199
X4.3696Y-2.8695
X4.3696Y-3.0191
X4.3701Y-2.0827
X4.374Y-3.436
X4.376Y-2.3445
X4.3893Y-2.4207
X4.3893Y-2.4927
X4.3893Y-2.5703
X4.3893Y-2.6423
X4.3893Y-2.7199
X4.3893Y-2.7919
X4.3893Y-2.8695
X4.3893Y-2.9415
X4.3893Y-3.0191
X4.3893Y-3.0911
X4.3932Y-2.3607
X4.4094Y-2.0827
X4.4114Y-2.3445
X4.4134Y-3.436
X4.4155Y-2.4272
X4.4155Y-2.4665
X4.4155Y-2.4862
X4.4155Y-2.5768
X4.4155Y-2.6161
X4.4155Y-2.6358
X4.4155Y-2.7264
X4.4155Y-2.7657
X4.4155Y-2.7854
X4.4155Y-2.876
X4.4155Y-2.9154
X4.4155Y-2.935
X4.4155Y-3.0256
X4.4155Y-3.065
X4.4155Y-3.0846
X4.4488Y-2.0827
X4.4528Y-3.436
X4.4646Y-2.7776
X4.4646Y-2.8169
X4.4724Y-2.5965
X4.4724Y-2.6181
X4.4724Y-2.6378
X4.4724Y-2.6594
X4.4724Y-2.6791
X4.4724Y-2.6988
X4.4724Y-2.7185
X4.4724Y-2.7382
X4.4724Y-2.7579
X4.4744Y-2.9154
X4.4744Y-2.935
X4.4744Y-2.9577
X4.4744Y-2.9774
X4.4774Y-2.5433
X4.4774Y-2.5709
X4.4803Y-2.7972
X4.4803Y-2.876
X4.4882Y-2.0827
X4.4921Y-3.436
X4.5044Y-2.6004
X4.5044Y-2.6201
X4.5044Y-2.6594
X4.5044Y-2.6988
X4.5044Y-2.7382
X4.5044Y-2.7776
X4.5044Y-2.8169
X4.5049Y-2.5433
X4.5236Y-2.6398
X4.5236Y-2.6791
X4.5236Y-2.7185
X4.5236Y-2.7579
X4.5276Y-2.0827
X4.5315Y-3.436
X4.5374Y-2.9154
X4.5374Y-2.935
X4.5374Y-2.9567
X4.5374Y-2.9764
X4.5404Y-2.8366
X4.5433Y-3.2169
X4.5561Y-2.8563
X4.5709Y-2.0866
X4.5709Y-3.436
X4.5945Y-2.5217
X4.5945Y-3.0138
X4.6014Y-3.4163
X4.6024Y-2.1033
X4.6122Y-2.5217
X4.6122Y-3.0138
X4.6181Y-3.3848
X4.622Y-2.1339
X4.622Y-2.1732
X4.622Y-2.2126
X4.622Y-2.252
X4.622Y-2.2913
X4.622Y-2.3228
X4.622Y-2.3622
X4.622Y-2.4016
X4.622Y-2.4409
X4.622Y-2.4803
X4.622Y-2.5591
X4.622Y-2.5984
X4.622Y-2.6378
X4.622Y-2.6772
X4.622Y-2.7165
X4.622Y-2.7559
X4.622Y-2.7953
X4.622Y-2.8346
X4.622Y-2.874
X4.622Y-2.9134
X4.622Y-2.9528
X4.622Y-2.9921
X4.622Y-3.0699
X4.622Y-3.1093
X4.622Y-3.1486
X4.622Y-3.188
X4.622Y-3.2274
X4.622Y-3.2667
X4.622Y-3.3061
X4.622Y-3.3455
T0
M30
